<?xml version="1.0" encoding="UTF-8" standalone="no"?>
<!DOCTYPE svg PUBLIC "-//W3C//DTD SVG 1.1//EN"
 "http://www.w3.org/Graphics/SVG/1.1/DTD/svg11.dtd">
<!-- Generated by graphviz version 2.40.1 (0)
 -->
<!-- Title: utils/include/utils/bind_front.h Pages: 1 -->
<svg width="305pt" height="95pt"
 viewBox="0.00 0.00 304.50 95.00" xmlns="http://www.w3.org/2000/svg" xmlns:xlink="http://www.w3.org/1999/xlink">
<g id="graph0" class="graph" transform="scale(1 1) rotate(0) translate(4 91)">
<title>utils/include/utils/bind_front.h</title>
<!-- Node0 -->
<g id="node1" class="node">
<title>Node0</title>
<g id="a_node1"><a xlink:title=" ">
<polygon fill="#bfbfbf" stroke="#000000" points="80.5,-56.5 80.5,-86.5 239.5,-86.5 239.5,-56.5 80.5,-56.5"/>
<text text-anchor="start" x="88.5" y="-74.5" font-family="Helvetica,sans-Serif" font-size="10.00" fill="#000000">utils/include/utils</text>
<text text-anchor="middle" x="160" y="-63.5" font-family="Helvetica,sans-Serif" font-size="10.00" fill="#000000">/bind_front.h</text>
</a>
</g>
</g>
<!-- Node1 -->
<g id="node2" class="node">
<title>Node1</title>
<g id="a_node2"><a xlink:title=" ">
<polygon fill="none" stroke="#bfbfbf" points="0,-.5 0,-19.5 92,-19.5 92,-.5 0,-.5"/>
<text text-anchor="middle" x="46" y="-7.5" font-family="Helvetica,sans-Serif" font-size="10.00" fill="#000000">functional</text>
</a>
</g>
</g>
<!-- Node0&#45;&gt;Node1 -->
<g id="edge1" class="edge">
<title>Node0&#45;&gt;Node1</title>
<path fill="none" stroke="#191970" d="M132.1125,-56.4554C114.0924,-46.734 90.7659,-34.15 72.9368,-24.5317"/>
<polygon fill="#191970" stroke="#191970" points="74.1287,-21.1979 63.666,-19.5303 70.8052,-27.3586 74.1287,-21.1979"/>
</g>
<!-- Node2 -->
<g id="node3" class="node">
<title>Node2</title>
<g id="a_node3"><a xlink:title=" ">
<polygon fill="none" stroke="#bfbfbf" points="110.5,-.5 110.5,-19.5 209.5,-19.5 209.5,-.5 110.5,-.5"/>
<text text-anchor="middle" x="160" y="-7.5" font-family="Helvetica,sans-Serif" font-size="10.00" fill="#000000">type_traits</text>
</a>
</g>
</g>
<!-- Node0&#45;&gt;Node2 -->
<g id="edge2" class="edge">
<title>Node0&#45;&gt;Node2</title>
<path fill="none" stroke="#191970" d="M160,-56.2977C160,-48.3834 160,-38.6043 160,-30.0759"/>
<polygon fill="#191970" stroke="#191970" points="163.5001,-29.8469 160,-19.8469 156.5001,-29.847 163.5001,-29.8469"/>
</g>
<!-- Node3 -->
<g id="node4" class="node">
<title>Node3</title>
<g id="a_node4"><a xlink:title=" ">
<polygon fill="none" stroke="#bfbfbf" points="227.5,-.5 227.5,-19.5 296.5,-19.5 296.5,-.5 227.5,-.5"/>
<text text-anchor="middle" x="262" y="-7.5" font-family="Helvetica,sans-Serif" font-size="10.00" fill="#000000">utility</text>
</a>
</g>
</g>
<!-- Node0&#45;&gt;Node3 -->
<g id="edge3" class="edge">
<title>Node0&#45;&gt;Node3</title>
<path fill="none" stroke="#191970" d="M184.952,-56.4554C200.9259,-46.8241 221.5602,-34.3828 237.4543,-24.7996"/>
<polygon fill="#191970" stroke="#191970" points="239.437,-27.6912 246.1936,-19.5303 235.8226,-21.6965 239.437,-27.6912"/>
</g>
</g>
</svg>
