<?xml version="1.0" encoding="UTF-8" standalone="no"?>
<!DOCTYPE svg PUBLIC "-//W3C//DTD SVG 1.1//EN"
 "http://www.w3.org/Graphics/SVG/1.1/DTD/svg11.dtd">
<!-- Generated by graphviz version 2.40.1 (0)
 -->
<!-- Title: utils/config.cpp Pages: 1 -->
<svg width="954pt" height="140pt"
 viewBox="0.00 0.00 953.50 140.00" xmlns="http://www.w3.org/2000/svg" xmlns:xlink="http://www.w3.org/1999/xlink">
<g id="graph0" class="graph" transform="scale(1 1) rotate(0) translate(4 136)">
<title>utils/config.cpp</title>
<!-- Node0 -->
<g id="node1" class="node">
<title>Node0</title>
<g id="a_node1"><a xlink:title=" ">
<polygon fill="#bfbfbf" stroke="#000000" points="608,-112.5 608,-131.5 745,-131.5 745,-112.5 608,-112.5"/>
<text text-anchor="middle" x="676.5" y="-119.5" font-family="Helvetica,sans-Serif" font-size="10.00" fill="#000000">utils/config.cpp</text>
</a>
</g>
</g>
<!-- Node1 -->
<g id="node2" class="node">
<title>Node1</title>
<g id="a_node2"><a xlink:href="config_8h.html" target="_top" xlink:title=" ">
<polygon fill="none" stroke="#000000" points="295.5,-56.5 295.5,-75.5 417.5,-75.5 417.5,-56.5 295.5,-56.5"/>
<text text-anchor="middle" x="356.5" y="-63.5" font-family="Helvetica,sans-Serif" font-size="10.00" fill="#000000">utils/config.h</text>
</a>
</g>
</g>
<!-- Node0&#45;&gt;Node1 -->
<g id="edge1" class="edge">
<title>Node0&#45;&gt;Node1</title>
<path fill="none" stroke="#191970" d="M621.8536,-112.4369C566.1677,-102.6918 479.8325,-87.5832 420.8684,-77.2645"/>
<polygon fill="#191970" stroke="#191970" points="421.3746,-73.7999 410.921,-75.5237 420.1679,-80.6952 421.3746,-73.7999"/>
</g>
<!-- Node8 -->
<g id="node9" class="node">
<title>Node8</title>
<g id="a_node9"><a xlink:title=" ">
<polygon fill="none" stroke="#bfbfbf" points="436,-56.5 436,-75.5 543,-75.5 543,-56.5 436,-56.5"/>
<text text-anchor="middle" x="489.5" y="-63.5" font-family="Helvetica,sans-Serif" font-size="10.00" fill="#000000">fmt/printf.h</text>
</a>
</g>
</g>
<!-- Node0&#45;&gt;Node8 -->
<g id="edge8" class="edge">
<title>Node0&#45;&gt;Node8</title>
<path fill="none" stroke="#191970" d="M644.3536,-112.3733C612.9891,-102.9807 565.1335,-88.6496 530.9284,-78.4064"/>
<polygon fill="#191970" stroke="#191970" points="531.8107,-75.0171 521.227,-75.5011 529.8025,-81.7229 531.8107,-75.0171"/>
</g>
<!-- Node9 -->
<g id="node10" class="node">
<title>Node9</title>
<g id="a_node10"><a xlink:href="paths_8h.html" target="_top" xlink:title=" ">
<polygon fill="none" stroke="#000000" points="561.5,-56.5 561.5,-75.5 675.5,-75.5 675.5,-56.5 561.5,-56.5"/>
<text text-anchor="middle" x="618.5" y="-63.5" font-family="Helvetica,sans-Serif" font-size="10.00" fill="#000000">utils/paths.h</text>
</a>
</g>
</g>
<!-- Node0&#45;&gt;Node9 -->
<g id="edge9" class="edge">
<title>Node0&#45;&gt;Node9</title>
<path fill="none" stroke="#191970" d="M666.3972,-112.2455C657.9972,-104.1352 645.8506,-92.4075 635.8916,-82.7919"/>
<polygon fill="#191970" stroke="#191970" points="638.1122,-80.0707 628.4871,-75.6427 633.25,-85.1066 638.1122,-80.0707"/>
</g>
<!-- Node11 -->
<g id="node12" class="node">
<title>Node11</title>
<g id="a_node12"><a xlink:title=" ">
<polygon fill="none" stroke="#bfbfbf" points="693.5,-56.5 693.5,-75.5 777.5,-75.5 777.5,-56.5 693.5,-56.5"/>
<text text-anchor="middle" x="735.5" y="-63.5" font-family="Helvetica,sans-Serif" font-size="10.00" fill="#000000">algorithm</text>
</a>
</g>
</g>
<!-- Node0&#45;&gt;Node11 -->
<g id="edge12" class="edge">
<title>Node0&#45;&gt;Node11</title>
<path fill="none" stroke="#191970" d="M686.777,-112.2455C695.3218,-104.1352 707.6778,-92.4075 717.8085,-82.7919"/>
<polygon fill="#191970" stroke="#191970" points="720.4972,-85.0655 725.3408,-75.6427 715.6782,-79.9884 720.4972,-85.0655"/>
</g>
<!-- Node12 -->
<g id="node13" class="node">
<title>Node12</title>
<g id="a_node13"><a xlink:title=" ">
<polygon fill="none" stroke="#bfbfbf" points="796,-56.5 796,-75.5 865,-75.5 865,-56.5 796,-56.5"/>
<text text-anchor="middle" x="830.5" y="-63.5" font-family="Helvetica,sans-Serif" font-size="10.00" fill="#000000">fstream</text>
</a>
</g>
</g>
<!-- Node0&#45;&gt;Node12 -->
<g id="edge13" class="edge">
<title>Node0&#45;&gt;Node12</title>
<path fill="none" stroke="#191970" d="M702.9735,-112.3733C728.3597,-103.1419 766.8645,-89.1402 794.922,-78.9375"/>
<polygon fill="#191970" stroke="#191970" points="796.1701,-82.2079 804.3719,-75.5011 793.7778,-75.6293 796.1701,-82.2079"/>
</g>
<!-- Node13 -->
<g id="node14" class="node">
<title>Node13</title>
<g id="a_node14"><a xlink:title=" ">
<polygon fill="none" stroke="#bfbfbf" points="883.5,-56.5 883.5,-75.5 945.5,-75.5 945.5,-56.5 883.5,-56.5"/>
<text text-anchor="middle" x="914.5" y="-63.5" font-family="Helvetica,sans-Serif" font-size="10.00" fill="#000000">vector</text>
</a>
</g>
</g>
<!-- Node0&#45;&gt;Node13 -->
<g id="edge14" class="edge">
<title>Node0&#45;&gt;Node13</title>
<path fill="none" stroke="#191970" d="M718.6495,-112.4223C756.6514,-103.739 814.3268,-90.442 873.2246,-76.2825"/>
<polygon fill="#191970" stroke="#191970" points="874.1675,-79.6555 883.0693,-73.9103 872.5276,-72.8503 874.1675,-79.6555"/>
</g>
<!-- Node2 -->
<g id="node3" class="node">
<title>Node2</title>
<g id="a_node3"><a xlink:title=" ">
<polygon fill="none" stroke="#bfbfbf" points="0,-.5 0,-19.5 107,-19.5 107,-.5 0,-.5"/>
<text text-anchor="middle" x="53.5" y="-7.5" font-family="Helvetica,sans-Serif" font-size="10.00" fill="#000000">fmt/format.h</text>
</a>
</g>
</g>
<!-- Node1&#45;&gt;Node2 -->
<g id="edge2" class="edge">
<title>Node1&#45;&gt;Node2</title>
<path fill="none" stroke="#191970" d="M304.7567,-56.4369C252.247,-46.7321 170.9556,-31.708 115.1423,-21.3926"/>
<polygon fill="#191970" stroke="#191970" points="115.4994,-17.8994 105.0299,-19.5237 114.2272,-24.7829 115.4994,-17.8994"/>
</g>
<!-- Node3 -->
<g id="node4" class="node">
<title>Node3</title>
<g id="a_node4"><a xlink:title=" ">
<polygon fill="none" stroke="#bfbfbf" points="125,-.5 125,-19.5 194,-19.5 194,-.5 125,-.5"/>
<text text-anchor="middle" x="159.5" y="-7.5" font-family="Helvetica,sans-Serif" font-size="10.00" fill="#000000">cstdlib</text>
</a>
</g>
</g>
<!-- Node1&#45;&gt;Node3 -->
<g id="edge3" class="edge">
<title>Node1&#45;&gt;Node3</title>
<path fill="none" stroke="#191970" d="M322.6345,-56.3733C289.451,-46.9404 238.745,-32.5265 202.6806,-22.2747"/>
<polygon fill="#191970" stroke="#191970" points="203.4995,-18.8689 192.9236,-19.5011 201.5855,-25.6021 203.4995,-18.8689"/>
</g>
<!-- Node4 -->
<g id="node5" class="node">
<title>Node4</title>
<g id="a_node5"><a xlink:title=" ">
<polygon fill="none" stroke="#bfbfbf" points="564.5,-.5 564.5,-19.5 656.5,-19.5 656.5,-.5 564.5,-.5"/>
<text text-anchor="middle" x="610.5" y="-7.5" font-family="Helvetica,sans-Serif" font-size="10.00" fill="#000000">filesystem</text>
</a>
</g>
</g>
<!-- Node1&#45;&gt;Node4 -->
<g id="edge4" class="edge">
<title>Node1&#45;&gt;Node4</title>
<path fill="none" stroke="#191970" d="M399.8756,-56.4369C443.437,-46.8328 510.6277,-32.0191 557.3634,-21.7152"/>
<polygon fill="#191970" stroke="#191970" points="558.2915,-25.0947 567.3034,-19.5237 556.7843,-18.2588 558.2915,-25.0947"/>
</g>
<!-- Node5 -->
<g id="node6" class="node">
<title>Node5</title>
<g id="a_node6"><a xlink:title=" ">
<polygon fill="none" stroke="#bfbfbf" points="212.5,-.5 212.5,-19.5 296.5,-19.5 296.5,-.5 212.5,-.5"/>
<text text-anchor="middle" x="254.5" y="-7.5" font-family="Helvetica,sans-Serif" font-size="10.00" fill="#000000">stdexcept</text>
</a>
</g>
</g>
<!-- Node1&#45;&gt;Node5 -->
<g id="edge5" class="edge">
<title>Node1&#45;&gt;Node5</title>
<path fill="none" stroke="#191970" d="M338.733,-56.2455C322.7905,-47.4928 299.1741,-34.527 281.0011,-24.5496"/>
<polygon fill="#191970" stroke="#191970" points="282.5137,-21.3873 272.0634,-19.6427 279.1448,-27.5233 282.5137,-21.3873"/>
</g>
<!-- Node6 -->
<g id="node7" class="node">
<title>Node6</title>
<g id="a_node7"><a xlink:title=" ">
<polygon fill="none" stroke="#bfbfbf" points="315,-.5 315,-19.5 414,-19.5 414,-.5 315,-.5"/>
<text text-anchor="middle" x="364.5" y="-7.5" font-family="Helvetica,sans-Serif" font-size="10.00" fill="#000000">type_traits</text>
</a>
</g>
</g>
<!-- Node1&#45;&gt;Node6 -->
<g id="edge6" class="edge">
<title>Node1&#45;&gt;Node6</title>
<path fill="none" stroke="#191970" d="M357.8935,-56.2455C358.9374,-48.9382 360.4008,-38.6944 361.6851,-29.7046"/>
<polygon fill="#191970" stroke="#191970" points="365.173,-30.0372 363.1225,-19.6427 358.2434,-29.0472 365.173,-30.0372"/>
</g>
<!-- Node7 -->
<g id="node8" class="node">
<title>Node7</title>
<g id="a_node8"><a xlink:title=" ">
<polygon fill="none" stroke="#bfbfbf" points="432.5,-.5 432.5,-19.5 546.5,-19.5 546.5,-.5 432.5,-.5"/>
<text text-anchor="middle" x="489.5" y="-7.5" font-family="Helvetica,sans-Serif" font-size="10.00" fill="#000000">unordered_map</text>
</a>
</g>
</g>
<!-- Node1&#45;&gt;Node7 -->
<g id="edge7" class="edge">
<title>Node1&#45;&gt;Node7</title>
<path fill="none" stroke="#191970" d="M379.3635,-56.3733C400.905,-47.3032 433.3838,-33.6279 457.4956,-23.4755"/>
<polygon fill="#191970" stroke="#191970" points="459.0767,-26.6075 466.9348,-19.5011 456.3603,-20.156 459.0767,-26.6075"/>
</g>
<!-- Node9&#45;&gt;Node4 -->
<g id="edge10" class="edge">
<title>Node9&#45;&gt;Node4</title>
<path fill="none" stroke="#191970" d="M617.1065,-56.2455C616.0626,-48.9382 614.5992,-38.6944 613.3149,-29.7046"/>
<polygon fill="#191970" stroke="#191970" points="616.7566,-29.0472 611.8775,-19.6427 609.827,-30.0372 616.7566,-29.0472"/>
</g>
<!-- Node10 -->
<g id="node11" class="node">
<title>Node10</title>
<g id="a_node11"><a xlink:title=" ">
<polygon fill="none" stroke="#bfbfbf" points="675,-.5 675,-19.5 774,-19.5 774,-.5 675,-.5"/>
<text text-anchor="middle" x="724.5" y="-7.5" font-family="Helvetica,sans-Serif" font-size="10.00" fill="#000000">string_view</text>
</a>
</g>
</g>
<!-- Node9&#45;&gt;Node10 -->
<g id="edge11" class="edge">
<title>Node9&#45;&gt;Node10</title>
<path fill="none" stroke="#191970" d="M636.9638,-56.2455C653.6074,-47.4527 678.2993,-34.4079 697.2192,-24.4125"/>
<polygon fill="#191970" stroke="#191970" points="699.0408,-27.4086 706.2478,-19.6427 695.7709,-21.2193 699.0408,-27.4086"/>
</g>
</g>
</svg>
