<?xml version="1.0" encoding="UTF-8" standalone="no"?>
<!DOCTYPE svg PUBLIC "-//W3C//DTD SVG 1.1//EN"
 "http://www.w3.org/Graphics/SVG/1.1/DTD/svg11.dtd">
<!-- Generated by graphviz version 2.40.1 (0)
 -->
<!-- Title: utils/include/utils/config.h Pages: 1 -->
<svg width="691pt" height="151pt"
 viewBox="0.00 0.00 690.50 151.00" xmlns="http://www.w3.org/2000/svg" xmlns:xlink="http://www.w3.org/1999/xlink">
<g id="graph0" class="graph" transform="scale(1 1) rotate(0) translate(4 147)">
<title>utils/include/utils/config.h</title>
<!-- Node0 -->
<g id="node1" class="node">
<title>Node0</title>
<g id="a_node1"><a xlink:title=" ">
<polygon fill="#bfbfbf" stroke="#000000" points="257,-112.5 257,-142.5 416,-142.5 416,-112.5 257,-112.5"/>
<text text-anchor="start" x="265" y="-130.5" font-family="Helvetica,sans-Serif" font-size="10.00" fill="#000000">utils/include/utils</text>
<text text-anchor="middle" x="336.5" y="-119.5" font-family="Helvetica,sans-Serif" font-size="10.00" fill="#000000">/config.h</text>
</a>
</g>
</g>
<!-- Node1 -->
<g id="node2" class="node">
<title>Node1</title>
<g id="a_node2"><a xlink:href="exception_8h.html" target="_top" xlink:title=" ">
<polygon fill="none" stroke="#000000" points="90.5,-56.5 90.5,-75.5 234.5,-75.5 234.5,-56.5 90.5,-56.5"/>
<text text-anchor="middle" x="162.5" y="-63.5" font-family="Helvetica,sans-Serif" font-size="10.00" fill="#000000">utils/exception.h</text>
</a>
</g>
</g>
<!-- Node0&#45;&gt;Node1 -->
<g id="edge1" class="edge">
<title>Node0&#45;&gt;Node1</title>
<path fill="none" stroke="#191970" d="M293.9348,-112.4554C264.9025,-102.194 226.8459,-88.7429 199.1591,-78.9571"/>
<polygon fill="#191970" stroke="#191970" points="200.0586,-75.5629 189.4638,-75.5303 197.7259,-82.1628 200.0586,-75.5629"/>
</g>
<!-- Node2 -->
<g id="node3" class="node">
<title>Node2</title>
<g id="a_node3"><a xlink:title=" ">
<polygon fill="none" stroke="#bfbfbf" points="0,-.5 0,-19.5 107,-19.5 107,-.5 0,-.5"/>
<text text-anchor="middle" x="53.5" y="-7.5" font-family="Helvetica,sans-Serif" font-size="10.00" fill="#000000">fmt/format.h</text>
</a>
</g>
</g>
<!-- Node0&#45;&gt;Node2 -->
<g id="edge5" class="edge">
<title>Node0&#45;&gt;Node2</title>
<path fill="none" stroke="#191970" d="M256.9684,-119.5742C192.4475,-111.6953 108.0071,-97.6299 81.5,-76 67.3766,-64.4753 60.2489,-44.5364 56.735,-29.5823"/>
<polygon fill="#191970" stroke="#191970" points="60.1644,-28.8826 54.7666,-19.766 53.3011,-30.259 60.1644,-28.8826"/>
</g>
<!-- Node5 -->
<g id="node6" class="node">
<title>Node5</title>
<g id="a_node6"><a xlink:title=" ">
<polygon fill="none" stroke="#bfbfbf" points="253,-56.5 253,-75.5 322,-75.5 322,-56.5 253,-56.5"/>
<text text-anchor="middle" x="287.5" y="-63.5" font-family="Helvetica,sans-Serif" font-size="10.00" fill="#000000">cstdlib</text>
</a>
</g>
</g>
<!-- Node0&#45;&gt;Node5 -->
<g id="edge6" class="edge">
<title>Node0&#45;&gt;Node5</title>
<path fill="none" stroke="#191970" d="M324.3876,-112.2977C317.5151,-103.672 308.8777,-92.8312 301.689,-83.8087"/>
<polygon fill="#191970" stroke="#191970" points="304.3144,-81.487 295.3455,-75.8469 298.8396,-85.849 304.3144,-81.487"/>
</g>
<!-- Node6 -->
<g id="node7" class="node">
<title>Node6</title>
<g id="a_node7"><a xlink:title=" ">
<polygon fill="none" stroke="#bfbfbf" points="340.5,-56.5 340.5,-75.5 432.5,-75.5 432.5,-56.5 340.5,-56.5"/>
<text text-anchor="middle" x="386.5" y="-63.5" font-family="Helvetica,sans-Serif" font-size="10.00" fill="#000000">filesystem</text>
</a>
</g>
</g>
<!-- Node0&#45;&gt;Node6 -->
<g id="edge7" class="edge">
<title>Node0&#45;&gt;Node6</title>
<path fill="none" stroke="#191970" d="M348.8596,-112.2977C355.8724,-103.672 364.686,-92.8312 372.0214,-83.8087"/>
<polygon fill="#191970" stroke="#191970" points="374.9018,-85.8141 378.4944,-75.8469 369.4703,-81.3982 374.9018,-85.8141"/>
</g>
<!-- Node7 -->
<g id="node8" class="node">
<title>Node7</title>
<g id="a_node8"><a xlink:title=" ">
<polygon fill="none" stroke="#bfbfbf" points="451,-56.5 451,-75.5 550,-75.5 550,-56.5 451,-56.5"/>
<text text-anchor="middle" x="500.5" y="-63.5" font-family="Helvetica,sans-Serif" font-size="10.00" fill="#000000">type_traits</text>
</a>
</g>
</g>
<!-- Node0&#45;&gt;Node7 -->
<g id="edge8" class="edge">
<title>Node0&#45;&gt;Node7</title>
<path fill="none" stroke="#191970" d="M376.6189,-112.4554C403.8627,-102.239 439.5377,-88.8609 465.6038,-79.0861"/>
<polygon fill="#191970" stroke="#191970" points="466.9515,-82.3188 475.0858,-75.5303 464.4936,-75.7645 466.9515,-82.3188"/>
</g>
<!-- Node8 -->
<g id="node9" class="node">
<title>Node8</title>
<g id="a_node9"><a xlink:title=" ">
<polygon fill="none" stroke="#bfbfbf" points="568.5,-56.5 568.5,-75.5 682.5,-75.5 682.5,-56.5 568.5,-56.5"/>
<text text-anchor="middle" x="625.5" y="-63.5" font-family="Helvetica,sans-Serif" font-size="10.00" fill="#000000">unordered_map</text>
</a>
</g>
</g>
<!-- Node0&#45;&gt;Node8 -->
<g id="edge9" class="edge">
<title>Node0&#45;&gt;Node8</title>
<path fill="none" stroke="#191970" d="M407.1974,-112.4554C457.6384,-101.7214 524.4803,-87.4973 570.8527,-77.6291"/>
<polygon fill="#191970" stroke="#191970" points="571.6628,-81.0352 580.7153,-75.5303 570.2057,-74.1885 571.6628,-81.0352"/>
</g>
<!-- Node1&#45;&gt;Node2 -->
<g id="edge2" class="edge">
<title>Node1&#45;&gt;Node2</title>
<path fill="none" stroke="#191970" d="M143.5136,-56.2455C126.3208,-47.4125 100.7762,-34.2887 81.2868,-24.2758"/>
<polygon fill="#191970" stroke="#191970" points="82.763,-21.0993 72.2688,-19.6427 79.5641,-27.3257 82.763,-21.0993"/>
</g>
<!-- Node3 -->
<g id="node4" class="node">
<title>Node3</title>
<g id="a_node4"><a xlink:title=" ">
<polygon fill="none" stroke="#bfbfbf" points="124.5,-.5 124.5,-19.5 208.5,-19.5 208.5,-.5 124.5,-.5"/>
<text text-anchor="middle" x="166.5" y="-7.5" font-family="Helvetica,sans-Serif" font-size="10.00" fill="#000000">stdexcept</text>
</a>
</g>
</g>
<!-- Node1&#45;&gt;Node3 -->
<g id="edge3" class="edge">
<title>Node1&#45;&gt;Node3</title>
<path fill="none" stroke="#191970" d="M163.1967,-56.2455C163.7187,-48.9382 164.4504,-38.6944 165.0925,-29.7046"/>
<polygon fill="#191970" stroke="#191970" points="168.5898,-29.8667 165.8112,-19.6427 161.6076,-29.3679 168.5898,-29.8667"/>
</g>
<!-- Node4 -->
<g id="node5" class="node">
<title>Node4</title>
<g id="a_node5"><a xlink:title=" ">
<polygon fill="none" stroke="#bfbfbf" points="227,-.5 227,-19.5 326,-19.5 326,-.5 227,-.5"/>
<text text-anchor="middle" x="276.5" y="-7.5" font-family="Helvetica,sans-Serif" font-size="10.00" fill="#000000">string_view</text>
</a>
</g>
</g>
<!-- Node1&#45;&gt;Node4 -->
<g id="edge4" class="edge">
<title>Node1&#45;&gt;Node4</title>
<path fill="none" stroke="#191970" d="M182.0973,-56.3733C200.2331,-47.4644 227.4135,-34.1127 247.9587,-24.0203"/>
<polygon fill="#191970" stroke="#191970" points="249.7261,-27.0517 257.1584,-19.5011 246.6397,-20.7688 249.7261,-27.0517"/>
</g>
</g>
</svg>
