<?xml version="1.0" encoding="UTF-8" standalone="no"?>
<!DOCTYPE svg PUBLIC "-//W3C//DTD SVG 1.1//EN"
 "http://www.w3.org/Graphics/SVG/1.1/DTD/svg11.dtd">
<!-- Generated by graphviz version 2.40.1 (0)
 -->
<!-- Title: utils/config.cpp Pages: 1 -->
<svg width="1071pt" height="140pt"
 viewBox="0.00 0.00 1070.50 140.00" xmlns="http://www.w3.org/2000/svg" xmlns:xlink="http://www.w3.org/1999/xlink">
<g id="graph0" class="graph" transform="scale(1 1) rotate(0) translate(4 136)">
<title>utils/config.cpp</title>
<!-- Node0 -->
<g id="node1" class="node">
<title>Node0</title>
<g id="a_node1"><a xlink:title=" ">
<polygon fill="#bfbfbf" stroke="#000000" points="727,-112.5 727,-131.5 864,-131.5 864,-112.5 727,-112.5"/>
<text text-anchor="middle" x="795.5" y="-119.5" font-family="Helvetica,sans-Serif" font-size="10.00" fill="#000000">utils/config.cpp</text>
</a>
</g>
</g>
<!-- Node1 -->
<g id="node2" class="node">
<title>Node1</title>
<g id="a_node2"><a xlink:href="config_8h.html" target="_top" xlink:title=" ">
<polygon fill="none" stroke="#000000" points="303.5,-56.5 303.5,-75.5 425.5,-75.5 425.5,-56.5 303.5,-56.5"/>
<text text-anchor="middle" x="364.5" y="-63.5" font-family="Helvetica,sans-Serif" font-size="10.00" fill="#000000">utils/config.h</text>
</a>
</g>
</g>
<!-- Node0&#45;&gt;Node1 -->
<g id="edge1" class="edge">
<title>Node0&#45;&gt;Node1</title>
<path fill="none" stroke="#191970" d="M726.7302,-113.0647C647.0741,-102.715 516.4817,-85.747 435.7754,-75.2608"/>
<polygon fill="#191970" stroke="#191970" points="436.0693,-71.7697 425.7017,-73.952 435.1674,-78.7113 436.0693,-71.7697"/>
</g>
<!-- Node8 -->
<g id="node9" class="node">
<title>Node8</title>
<g id="a_node9"><a xlink:href="paths_8h.html" target="_top" xlink:title=" ">
<polygon fill="none" stroke="#000000" points="553.5,-56.5 553.5,-75.5 667.5,-75.5 667.5,-56.5 553.5,-56.5"/>
<text text-anchor="middle" x="610.5" y="-63.5" font-family="Helvetica,sans-Serif" font-size="10.00" fill="#000000">utils/paths.h</text>
</a>
</g>
</g>
<!-- Node0&#45;&gt;Node8 -->
<g id="edge8" class="edge">
<title>Node0&#45;&gt;Node8</title>
<path fill="none" stroke="#191970" d="M763.6974,-112.3733C732.6683,-102.9807 685.3246,-88.6496 651.4853,-78.4064"/>
<polygon fill="#191970" stroke="#191970" points="652.4728,-75.0485 641.8876,-75.5011 650.4447,-81.7483 652.4728,-75.0485"/>
</g>
<!-- Node10 -->
<g id="node11" class="node">
<title>Node10</title>
<g id="a_node11"><a xlink:title=" ">
<polygon fill="none" stroke="#bfbfbf" points="686,-56.5 686,-75.5 793,-75.5 793,-56.5 686,-56.5"/>
<text text-anchor="middle" x="739.5" y="-63.5" font-family="Helvetica,sans-Serif" font-size="10.00" fill="#000000">fmt/printf.h</text>
</a>
</g>
</g>
<!-- Node0&#45;&gt;Node10 -->
<g id="edge11" class="edge">
<title>Node0&#45;&gt;Node10</title>
<path fill="none" stroke="#191970" d="M785.7455,-112.2455C777.6352,-104.1352 765.9075,-92.4075 756.2919,-82.7919"/>
<polygon fill="#191970" stroke="#191970" points="758.6887,-80.2389 749.1427,-75.6427 753.7389,-85.1887 758.6887,-80.2389"/>
</g>
<!-- Node11 -->
<g id="node12" class="node">
<title>Node11</title>
<g id="a_node12"><a xlink:title=" ">
<polygon fill="none" stroke="#bfbfbf" points="810.5,-56.5 810.5,-75.5 894.5,-75.5 894.5,-56.5 810.5,-56.5"/>
<text text-anchor="middle" x="852.5" y="-63.5" font-family="Helvetica,sans-Serif" font-size="10.00" fill="#000000">algorithm</text>
</a>
</g>
</g>
<!-- Node0&#45;&gt;Node11 -->
<g id="edge12" class="edge">
<title>Node0&#45;&gt;Node11</title>
<path fill="none" stroke="#191970" d="M805.4286,-112.2455C813.6838,-104.1352 825.6209,-92.4075 835.4082,-82.7919"/>
<polygon fill="#191970" stroke="#191970" points="838.0046,-85.1476 842.6851,-75.6427 833.0989,-80.1542 838.0046,-85.1476"/>
</g>
<!-- Node12 -->
<g id="node13" class="node">
<title>Node12</title>
<g id="a_node13"><a xlink:title=" ">
<polygon fill="none" stroke="#bfbfbf" points="913,-56.5 913,-75.5 982,-75.5 982,-56.5 913,-56.5"/>
<text text-anchor="middle" x="947.5" y="-63.5" font-family="Helvetica,sans-Serif" font-size="10.00" fill="#000000">fstream</text>
</a>
</g>
</g>
<!-- Node0&#45;&gt;Node12 -->
<g id="edge13" class="edge">
<title>Node0&#45;&gt;Node12</title>
<path fill="none" stroke="#191970" d="M821.6297,-112.3733C846.5768,-103.1822 884.3592,-89.2624 912.0206,-79.0713"/>
<polygon fill="#191970" stroke="#191970" points="913.5378,-82.2424 921.7112,-75.5011 911.1178,-75.674 913.5378,-82.2424"/>
</g>
<!-- Node13 -->
<g id="node14" class="node">
<title>Node13</title>
<g id="a_node14"><a xlink:title=" ">
<polygon fill="none" stroke="#bfbfbf" points="1000.5,-56.5 1000.5,-75.5 1062.5,-75.5 1062.5,-56.5 1000.5,-56.5"/>
<text text-anchor="middle" x="1031.5" y="-63.5" font-family="Helvetica,sans-Serif" font-size="10.00" fill="#000000">vector</text>
</a>
</g>
</g>
<!-- Node0&#45;&gt;Node13 -->
<g id="edge14" class="edge">
<title>Node0&#45;&gt;Node13</title>
<path fill="none" stroke="#191970" d="M836.8377,-112.4811C874.4397,-103.7815 931.7288,-90.4255 990.2804,-76.2738"/>
<polygon fill="#191970" stroke="#191970" points="991.1724,-79.6591 1000.0677,-73.9036 989.5248,-72.8557 991.1724,-79.6591"/>
</g>
<!-- Node2 -->
<g id="node3" class="node">
<title>Node2</title>
<g id="a_node3"><a xlink:title=" ">
<polygon fill="none" stroke="#bfbfbf" points="0,-.5 0,-19.5 107,-19.5 107,-.5 0,-.5"/>
<text text-anchor="middle" x="53.5" y="-7.5" font-family="Helvetica,sans-Serif" font-size="10.00" fill="#000000">fmt/format.h</text>
</a>
</g>
</g>
<!-- Node1&#45;&gt;Node2 -->
<g id="edge2" class="edge">
<title>Node1&#45;&gt;Node2</title>
<path fill="none" stroke="#191970" d="M311.3906,-56.4369C257.3826,-46.712 173.7104,-31.6456 116.4136,-21.3285"/>
<polygon fill="#191970" stroke="#191970" points="116.8524,-17.8513 106.3904,-19.5237 115.6118,-24.7405 116.8524,-17.8513"/>
</g>
<!-- Node3 -->
<g id="node4" class="node">
<title>Node3</title>
<g id="a_node4"><a xlink:title=" ">
<polygon fill="none" stroke="#bfbfbf" points="125,-.5 125,-19.5 194,-19.5 194,-.5 125,-.5"/>
<text text-anchor="middle" x="159.5" y="-7.5" font-family="Helvetica,sans-Serif" font-size="10.00" fill="#000000">cstdlib</text>
</a>
</g>
</g>
<!-- Node1&#45;&gt;Node3 -->
<g id="edge3" class="edge">
<title>Node1&#45;&gt;Node3</title>
<path fill="none" stroke="#191970" d="M329.2592,-56.3733C294.5806,-46.9001 241.5117,-32.4032 203.9538,-22.1435"/>
<polygon fill="#191970" stroke="#191970" points="204.8498,-18.7601 194.2809,-19.5011 203.0051,-25.5126 204.8498,-18.7601"/>
</g>
<!-- Node4 -->
<g id="node5" class="node">
<title>Node4</title>
<g id="a_node5"><a xlink:title=" ">
<polygon fill="none" stroke="#bfbfbf" points="564.5,-.5 564.5,-19.5 656.5,-19.5 656.5,-.5 564.5,-.5"/>
<text text-anchor="middle" x="610.5" y="-7.5" font-family="Helvetica,sans-Serif" font-size="10.00" fill="#000000">filesystem</text>
</a>
</g>
</g>
<!-- Node1&#45;&gt;Node4 -->
<g id="edge4" class="edge">
<title>Node1&#45;&gt;Node4</title>
<path fill="none" stroke="#191970" d="M406.5094,-56.4369C448.6104,-46.8529 513.5005,-32.0812 558.7521,-21.78"/>
<polygon fill="#191970" stroke="#191970" points="559.6902,-25.1561 568.6639,-19.5237 558.1364,-18.3307 559.6902,-25.1561"/>
</g>
<!-- Node5 -->
<g id="node6" class="node">
<title>Node5</title>
<g id="a_node6"><a xlink:title=" ">
<polygon fill="none" stroke="#bfbfbf" points="212.5,-.5 212.5,-19.5 296.5,-19.5 296.5,-.5 212.5,-.5"/>
<text text-anchor="middle" x="254.5" y="-7.5" font-family="Helvetica,sans-Serif" font-size="10.00" fill="#000000">stdexcept</text>
</a>
</g>
</g>
<!-- Node1&#45;&gt;Node5 -->
<g id="edge5" class="edge">
<title>Node1&#45;&gt;Node5</title>
<path fill="none" stroke="#191970" d="M345.3395,-56.2455C327.9889,-47.4125 302.2099,-34.2887 282.5417,-24.2758"/>
<polygon fill="#191970" stroke="#191970" points="283.9405,-21.0605 273.441,-19.6427 280.7647,-27.2986 283.9405,-21.0605"/>
</g>
<!-- Node6 -->
<g id="node7" class="node">
<title>Node6</title>
<g id="a_node7"><a xlink:title=" ">
<polygon fill="none" stroke="#bfbfbf" points="315,-.5 315,-19.5 414,-19.5 414,-.5 315,-.5"/>
<text text-anchor="middle" x="364.5" y="-7.5" font-family="Helvetica,sans-Serif" font-size="10.00" fill="#000000">type_traits</text>
</a>
</g>
</g>
<!-- Node1&#45;&gt;Node6 -->
<g id="edge6" class="edge">
<title>Node1&#45;&gt;Node6</title>
<path fill="none" stroke="#191970" d="M364.5,-56.2455C364.5,-48.9382 364.5,-38.6944 364.5,-29.7046"/>
<polygon fill="#191970" stroke="#191970" points="368.0001,-29.6426 364.5,-19.6427 361.0001,-29.6427 368.0001,-29.6426"/>
</g>
<!-- Node7 -->
<g id="node8" class="node">
<title>Node7</title>
<g id="a_node8"><a xlink:title=" ">
<polygon fill="none" stroke="#bfbfbf" points="432.5,-.5 432.5,-19.5 546.5,-19.5 546.5,-.5 432.5,-.5"/>
<text text-anchor="middle" x="489.5" y="-7.5" font-family="Helvetica,sans-Serif" font-size="10.00" fill="#000000">unordered_map</text>
</a>
</g>
</g>
<!-- Node1&#45;&gt;Node7 -->
<g id="edge7" class="edge">
<title>Node1&#45;&gt;Node7</title>
<path fill="none" stroke="#191970" d="M385.9883,-56.3733C406.144,-47.3435 436.488,-33.7494 459.118,-23.6111"/>
<polygon fill="#191970" stroke="#191970" points="460.5971,-26.7838 468.2921,-19.5011 457.7351,-20.3955 460.5971,-26.7838"/>
</g>
<!-- Node8&#45;&gt;Node4 -->
<g id="edge9" class="edge">
<title>Node8&#45;&gt;Node4</title>
<path fill="none" stroke="#191970" d="M610.5,-56.2455C610.5,-48.9382 610.5,-38.6944 610.5,-29.7046"/>
<polygon fill="#191970" stroke="#191970" points="614.0001,-29.6426 610.5,-19.6427 607.0001,-29.6427 614.0001,-29.6426"/>
</g>
<!-- Node9 -->
<g id="node10" class="node">
<title>Node9</title>
<g id="a_node10"><a xlink:title=" ">
<polygon fill="none" stroke="#bfbfbf" points="675,-.5 675,-19.5 774,-19.5 774,-.5 675,-.5"/>
<text text-anchor="middle" x="724.5" y="-7.5" font-family="Helvetica,sans-Serif" font-size="10.00" fill="#000000">string_view</text>
</a>
</g>
</g>
<!-- Node8&#45;&gt;Node9 -->
<g id="edge10" class="edge">
<title>Node8&#45;&gt;Node9</title>
<path fill="none" stroke="#191970" d="M630.0973,-56.3733C648.2331,-47.4644 675.4135,-34.1127 695.9587,-24.0203"/>
<polygon fill="#191970" stroke="#191970" points="697.7261,-27.0517 705.1584,-19.5011 694.6397,-20.7688 697.7261,-27.0517"/>
</g>
</g>
</svg>
