<?xml version="1.0" encoding="UTF-8" standalone="no"?>
<!DOCTYPE svg PUBLIC "-//W3C//DTD SVG 1.1//EN"
 "http://www.w3.org/Graphics/SVG/1.1/DTD/svg11.dtd">
<!-- Generated by graphviz version 2.40.1 (0)
 -->
<!-- Title: config/config.cpp Pages: 1 -->
<svg width="955pt" height="140pt"
 viewBox="0.00 0.00 954.50 140.00" xmlns="http://www.w3.org/2000/svg" xmlns:xlink="http://www.w3.org/1999/xlink">
<g id="graph0" class="graph" transform="scale(1 1) rotate(0) translate(4 136)">
<title>config/config.cpp</title>
<!-- Node0 -->
<g id="node1" class="node">
<title>Node0</title>
<g id="a_node1"><a xlink:title=" ">
<polygon fill="#bfbfbf" stroke="#000000" points="605.5,-112.5 605.5,-131.5 749.5,-131.5 749.5,-112.5 605.5,-112.5"/>
<text text-anchor="middle" x="677.5" y="-119.5" font-family="Helvetica,sans-Serif" font-size="10.00" fill="#000000">config/config.cpp</text>
</a>
</g>
</g>
<!-- Node1 -->
<g id="node2" class="node">
<title>Node1</title>
<g id="a_node2"><a xlink:href="config_8h.html" target="_top" xlink:title=" ">
<polygon fill="none" stroke="#000000" points="290,-56.5 290,-75.5 419,-75.5 419,-56.5 290,-56.5"/>
<text text-anchor="middle" x="354.5" y="-63.5" font-family="Helvetica,sans-Serif" font-size="10.00" fill="#000000">config/config.h</text>
</a>
</g>
</g>
<!-- Node0&#45;&gt;Node1 -->
<g id="edge1" class="edge">
<title>Node0&#45;&gt;Node1</title>
<path fill="none" stroke="#191970" d="M622.3413,-112.4369C566.1333,-102.6918 478.9888,-87.5832 419.4718,-77.2645"/>
<polygon fill="#191970" stroke="#191970" points="419.8821,-73.7835 409.4312,-75.5237 418.6863,-80.6806 419.8821,-73.7835"/>
</g>
<!-- Node8 -->
<g id="node9" class="node">
<title>Node8</title>
<g id="a_node9"><a xlink:title=" ">
<polygon fill="none" stroke="#bfbfbf" points="437,-56.5 437,-75.5 544,-75.5 544,-56.5 437,-56.5"/>
<text text-anchor="middle" x="490.5" y="-63.5" font-family="Helvetica,sans-Serif" font-size="10.00" fill="#000000">fmt/printf.h</text>
</a>
</g>
</g>
<!-- Node0&#45;&gt;Node8 -->
<g id="edge8" class="edge">
<title>Node0&#45;&gt;Node8</title>
<path fill="none" stroke="#191970" d="M645.3536,-112.3733C613.9891,-102.9807 566.1335,-88.6496 531.9284,-78.4064"/>
<polygon fill="#191970" stroke="#191970" points="532.8107,-75.0171 522.227,-75.5011 530.8025,-81.7229 532.8107,-75.0171"/>
</g>
<!-- Node9 -->
<g id="node10" class="node">
<title>Node9</title>
<g id="a_node10"><a xlink:href="paths_8h.html" target="_top" xlink:title=" ">
<polygon fill="none" stroke="#000000" points="562.5,-56.5 562.5,-75.5 676.5,-75.5 676.5,-56.5 562.5,-56.5"/>
<text text-anchor="middle" x="619.5" y="-63.5" font-family="Helvetica,sans-Serif" font-size="10.00" fill="#000000">utils/paths.h</text>
</a>
</g>
</g>
<!-- Node0&#45;&gt;Node9 -->
<g id="edge9" class="edge">
<title>Node0&#45;&gt;Node9</title>
<path fill="none" stroke="#191970" d="M667.3972,-112.2455C658.9972,-104.1352 646.8506,-92.4075 636.8916,-82.7919"/>
<polygon fill="#191970" stroke="#191970" points="639.1122,-80.0707 629.4871,-75.6427 634.25,-85.1066 639.1122,-80.0707"/>
</g>
<!-- Node11 -->
<g id="node12" class="node">
<title>Node11</title>
<g id="a_node12"><a xlink:title=" ">
<polygon fill="none" stroke="#bfbfbf" points="694.5,-56.5 694.5,-75.5 778.5,-75.5 778.5,-56.5 694.5,-56.5"/>
<text text-anchor="middle" x="736.5" y="-63.5" font-family="Helvetica,sans-Serif" font-size="10.00" fill="#000000">algorithm</text>
</a>
</g>
</g>
<!-- Node0&#45;&gt;Node11 -->
<g id="edge12" class="edge">
<title>Node0&#45;&gt;Node11</title>
<path fill="none" stroke="#191970" d="M687.777,-112.2455C696.3218,-104.1352 708.6778,-92.4075 718.8085,-82.7919"/>
<polygon fill="#191970" stroke="#191970" points="721.4972,-85.0655 726.3408,-75.6427 716.6782,-79.9884 721.4972,-85.0655"/>
</g>
<!-- Node12 -->
<g id="node13" class="node">
<title>Node12</title>
<g id="a_node13"><a xlink:title=" ">
<polygon fill="none" stroke="#bfbfbf" points="797,-56.5 797,-75.5 866,-75.5 866,-56.5 797,-56.5"/>
<text text-anchor="middle" x="831.5" y="-63.5" font-family="Helvetica,sans-Serif" font-size="10.00" fill="#000000">fstream</text>
</a>
</g>
</g>
<!-- Node0&#45;&gt;Node12 -->
<g id="edge13" class="edge">
<title>Node0&#45;&gt;Node12</title>
<path fill="none" stroke="#191970" d="M703.9735,-112.3733C729.3597,-103.1419 767.8645,-89.1402 795.922,-78.9375"/>
<polygon fill="#191970" stroke="#191970" points="797.1701,-82.2079 805.3719,-75.5011 794.7778,-75.6293 797.1701,-82.2079"/>
</g>
<!-- Node13 -->
<g id="node14" class="node">
<title>Node13</title>
<g id="a_node14"><a xlink:title=" ">
<polygon fill="none" stroke="#bfbfbf" points="884.5,-56.5 884.5,-75.5 946.5,-75.5 946.5,-56.5 884.5,-56.5"/>
<text text-anchor="middle" x="915.5" y="-63.5" font-family="Helvetica,sans-Serif" font-size="10.00" fill="#000000">vector</text>
</a>
</g>
</g>
<!-- Node0&#45;&gt;Node13 -->
<g id="edge14" class="edge">
<title>Node0&#45;&gt;Node13</title>
<path fill="none" stroke="#191970" d="M719.6495,-112.4223C757.6514,-103.739 815.3268,-90.442 874.2246,-76.2825"/>
<polygon fill="#191970" stroke="#191970" points="875.1675,-79.6555 884.0693,-73.9103 873.5276,-72.8503 875.1675,-79.6555"/>
</g>
<!-- Node2 -->
<g id="node3" class="node">
<title>Node2</title>
<g id="a_node3"><a xlink:title=" ">
<polygon fill="none" stroke="#bfbfbf" points="0,-.5 0,-19.5 107,-19.5 107,-.5 0,-.5"/>
<text text-anchor="middle" x="53.5" y="-7.5" font-family="Helvetica,sans-Serif" font-size="10.00" fill="#000000">fmt/format.h</text>
</a>
</g>
</g>
<!-- Node1&#45;&gt;Node2 -->
<g id="edge2" class="edge">
<title>Node1&#45;&gt;Node2</title>
<path fill="none" stroke="#191970" d="M303.0983,-56.4369C250.9351,-46.7321 170.1803,-31.708 114.7354,-21.3926"/>
<polygon fill="#191970" stroke="#191970" points="115.1612,-17.9119 104.6897,-19.5237 113.8808,-24.7938 115.1612,-17.9119"/>
</g>
<!-- Node3 -->
<g id="node4" class="node">
<title>Node3</title>
<g id="a_node4"><a xlink:title=" ">
<polygon fill="none" stroke="#bfbfbf" points="125,-.5 125,-19.5 194,-19.5 194,-.5 125,-.5"/>
<text text-anchor="middle" x="159.5" y="-7.5" font-family="Helvetica,sans-Serif" font-size="10.00" fill="#000000">cstdlib</text>
</a>
</g>
</g>
<!-- Node1&#45;&gt;Node3 -->
<g id="edge3" class="edge">
<title>Node1&#45;&gt;Node3</title>
<path fill="none" stroke="#191970" d="M320.9783,-56.3733C288.1317,-46.9404 237.9405,-32.5265 202.2422,-22.2747"/>
<polygon fill="#191970" stroke="#191970" points="203.1619,-18.8974 192.5843,-19.5011 201.2297,-25.6255 203.1619,-18.8974"/>
</g>
<!-- Node4 -->
<g id="node5" class="node">
<title>Node4</title>
<g id="a_node5"><a xlink:title=" ">
<polygon fill="none" stroke="#bfbfbf" points="564.5,-.5 564.5,-19.5 656.5,-19.5 656.5,-.5 564.5,-.5"/>
<text text-anchor="middle" x="610.5" y="-7.5" font-family="Helvetica,sans-Serif" font-size="10.00" fill="#000000">filesystem</text>
</a>
</g>
</g>
<!-- Node1&#45;&gt;Node4 -->
<g id="edge4" class="edge">
<title>Node1&#45;&gt;Node4</title>
<path fill="none" stroke="#191970" d="M398.2171,-56.4369C442.1216,-46.8328 509.8413,-32.0191 556.945,-21.7152"/>
<polygon fill="#191970" stroke="#191970" points="557.9422,-25.0799 566.9632,-19.5237 556.4463,-18.2416 557.9422,-25.0799"/>
</g>
<!-- Node5 -->
<g id="node6" class="node">
<title>Node5</title>
<g id="a_node6"><a xlink:title=" ">
<polygon fill="none" stroke="#bfbfbf" points="212.5,-.5 212.5,-19.5 296.5,-19.5 296.5,-.5 212.5,-.5"/>
<text text-anchor="middle" x="254.5" y="-7.5" font-family="Helvetica,sans-Serif" font-size="10.00" fill="#000000">stdexcept</text>
</a>
</g>
</g>
<!-- Node1&#45;&gt;Node5 -->
<g id="edge5" class="edge">
<title>Node1&#45;&gt;Node5</title>
<path fill="none" stroke="#191970" d="M337.0813,-56.2455C321.4515,-47.4928 298.2981,-34.527 280.4815,-24.5496"/>
<polygon fill="#191970" stroke="#191970" points="282.1543,-21.475 271.7191,-19.6427 278.734,-27.5825 282.1543,-21.475"/>
</g>
<!-- Node6 -->
<g id="node7" class="node">
<title>Node6</title>
<g id="a_node7"><a xlink:title=" ">
<polygon fill="none" stroke="#bfbfbf" points="315,-.5 315,-19.5 414,-19.5 414,-.5 315,-.5"/>
<text text-anchor="middle" x="364.5" y="-7.5" font-family="Helvetica,sans-Serif" font-size="10.00" fill="#000000">type_traits</text>
</a>
</g>
</g>
<!-- Node1&#45;&gt;Node6 -->
<g id="edge6" class="edge">
<title>Node1&#45;&gt;Node6</title>
<path fill="none" stroke="#191970" d="M356.2419,-56.2455C357.5467,-48.9382 359.376,-38.6944 360.9813,-29.7046"/>
<polygon fill="#191970" stroke="#191970" points="364.4656,-30.1022 362.7781,-19.6427 357.5746,-28.8717 364.4656,-30.1022"/>
</g>
<!-- Node7 -->
<g id="node8" class="node">
<title>Node7</title>
<g id="a_node8"><a xlink:title=" ">
<polygon fill="none" stroke="#bfbfbf" points="432.5,-.5 432.5,-19.5 546.5,-19.5 546.5,-.5 432.5,-.5"/>
<text text-anchor="middle" x="489.5" y="-7.5" font-family="Helvetica,sans-Serif" font-size="10.00" fill="#000000">unordered_map</text>
</a>
</g>
</g>
<!-- Node1&#45;&gt;Node7 -->
<g id="edge7" class="edge">
<title>Node1&#45;&gt;Node7</title>
<path fill="none" stroke="#191970" d="M377.7073,-56.3733C399.6699,-47.2629 432.8332,-33.5062 457.3401,-23.3404"/>
<polygon fill="#191970" stroke="#191970" points="458.6997,-26.5657 466.5955,-19.5011 456.0176,-20.0999 458.6997,-26.5657"/>
</g>
<!-- Node9&#45;&gt;Node4 -->
<g id="edge10" class="edge">
<title>Node9&#45;&gt;Node4</title>
<path fill="none" stroke="#191970" d="M617.9323,-56.2455C616.7579,-48.9382 615.1116,-38.6944 613.6668,-29.7046"/>
<polygon fill="#191970" stroke="#191970" points="617.0922,-28.9606 612.0497,-19.6427 610.1809,-30.0714 617.0922,-28.9606"/>
</g>
<!-- Node10 -->
<g id="node11" class="node">
<title>Node10</title>
<g id="a_node11"><a xlink:title=" ">
<polygon fill="none" stroke="#bfbfbf" points="675,-.5 675,-19.5 774,-19.5 774,-.5 675,-.5"/>
<text text-anchor="middle" x="724.5" y="-7.5" font-family="Helvetica,sans-Serif" font-size="10.00" fill="#000000">string_view</text>
</a>
</g>
</g>
<!-- Node9&#45;&gt;Node10 -->
<g id="edge11" class="edge">
<title>Node9&#45;&gt;Node10</title>
<path fill="none" stroke="#191970" d="M637.7896,-56.2455C654.2762,-47.4527 678.7352,-34.4079 697.4765,-24.4125"/>
<polygon fill="#191970" stroke="#191970" points="699.2435,-27.4368 706.42,-19.6427 695.9494,-21.2604 699.2435,-27.4368"/>
</g>
</g>
</svg>
