<?xml version="1.0" encoding="UTF-8" standalone="no"?>
<!DOCTYPE svg PUBLIC "-//W3C//DTD SVG 1.1//EN"
 "http://www.w3.org/Graphics/SVG/1.1/DTD/svg11.dtd">
<!-- Generated by graphviz version 2.40.1 (0)
 -->
<!-- Title: config/include/config/config.h Pages: 1 -->
<svg width="352pt" height="95pt"
 viewBox="0.00 0.00 352.00 95.00" xmlns="http://www.w3.org/2000/svg" xmlns:xlink="http://www.w3.org/1999/xlink">
<g id="graph0" class="graph" transform="scale(1 1) rotate(0) translate(4 91)">
<title>config/include/config/config.h</title>
<!-- Node7 -->
<g id="node1" class="node">
<title>Node7</title>
<g id="a_node1"><a xlink:title=" ">
<polygon fill="#bfbfbf" stroke="#000000" points="75,-56.5 75,-86.5 249,-86.5 249,-56.5 75,-56.5"/>
<text text-anchor="start" x="83" y="-74.5" font-family="Helvetica,sans-Serif" font-size="10.00" fill="#000000">config/include/config</text>
<text text-anchor="middle" x="162" y="-63.5" font-family="Helvetica,sans-Serif" font-size="10.00" fill="#000000">/config.h</text>
</a>
</g>
</g>
<!-- Node8 -->
<g id="node2" class="node">
<title>Node8</title>
<g id="a_node2"><a xlink:href="config_8cpp.html" target="_top" xlink:title=" ">
<polygon fill="none" stroke="#000000" points="0,-.5 0,-19.5 144,-19.5 144,-.5 0,-.5"/>
<text text-anchor="middle" x="72" y="-7.5" font-family="Helvetica,sans-Serif" font-size="10.00" fill="#000000">config/config.cpp</text>
</a>
</g>
</g>
<!-- Node7&#45;&gt;Node8 -->
<g id="edge1" class="edge">
<title>Node7&#45;&gt;Node8</title>
<path fill="none" stroke="#191970" d="M131.1026,-50.3868C115.8345,-39.9535 98.1568,-27.8738 86.1414,-19.6633"/>
<polygon fill="#191970" stroke="#191970" points="129.5217,-53.5456 139.7528,-56.2977 133.471,-47.766 129.5217,-53.5456"/>
</g>
<!-- Node9 -->
<g id="node3" class="node">
<title>Node9</title>
<g id="a_node3"><a xlink:href="config_8test_8cpp.html" target="_top" xlink:title=" ">
<polygon fill="none" stroke="#000000" points="162,-.5 162,-19.5 344,-19.5 344,-.5 162,-.5"/>
<text text-anchor="middle" x="253" y="-7.5" font-family="Helvetica,sans-Serif" font-size="10.00" fill="#000000">config/config.test.cpp</text>
</a>
</g>
</g>
<!-- Node7&#45;&gt;Node9 -->
<g id="edge2" class="edge">
<title>Node7&#45;&gt;Node9</title>
<path fill="none" stroke="#191970" d="M192.8085,-50.6789C208.3439,-40.1797 226.439,-27.9505 238.7015,-19.6633"/>
<polygon fill="#191970" stroke="#191970" points="190.8199,-47.7984 184.4944,-56.2977 194.7395,-53.5982 190.8199,-47.7984"/>
</g>
</g>
</svg>
