<?xml version="1.0" encoding="UTF-8" standalone="no"?>
<!DOCTYPE svg PUBLIC "-//W3C//DTD SVG 1.1//EN"
 "http://www.w3.org/Graphics/SVG/1.1/DTD/svg11.dtd">
<!-- Generated by graphviz version 2.40.1 (0)
 -->
<!-- Title: config/include/config/config.h Pages: 1 -->
<svg width="665pt" height="95pt"
 viewBox="0.00 0.00 664.50 95.00" xmlns="http://www.w3.org/2000/svg" xmlns:xlink="http://www.w3.org/1999/xlink">
<g id="graph0" class="graph" transform="scale(1 1) rotate(0) translate(4 91)">
<title>config/include/config/config.h</title>
<!-- Node0 -->
<g id="node1" class="node">
<title>Node0</title>
<g id="a_node1"><a xlink:title=" ">
<polygon fill="#bfbfbf" stroke="#000000" points="224.5,-56.5 224.5,-86.5 398.5,-86.5 398.5,-56.5 224.5,-56.5"/>
<text text-anchor="start" x="232.5" y="-74.5" font-family="Helvetica,sans-Serif" font-size="10.00" fill="#000000">config/include/config</text>
<text text-anchor="middle" x="311.5" y="-63.5" font-family="Helvetica,sans-Serif" font-size="10.00" fill="#000000">/config.h</text>
</a>
</g>
</g>
<!-- Node1 -->
<g id="node2" class="node">
<title>Node1</title>
<g id="a_node2"><a xlink:title=" ">
<polygon fill="none" stroke="#bfbfbf" points="0,-.5 0,-19.5 107,-19.5 107,-.5 0,-.5"/>
<text text-anchor="middle" x="53.5" y="-7.5" font-family="Helvetica,sans-Serif" font-size="10.00" fill="#000000">fmt/format.h</text>
</a>
</g>
</g>
<!-- Node0&#45;&gt;Node1 -->
<g id="edge1" class="edge">
<title>Node0&#45;&gt;Node1</title>
<path fill="none" stroke="#191970" d="M248.3861,-56.4554C203.7333,-45.8114 144.6834,-31.7356 103.3308,-21.8783"/>
<polygon fill="#191970" stroke="#191970" points="104.0199,-18.4445 93.4808,-19.5303 102.3967,-25.2538 104.0199,-18.4445"/>
</g>
<!-- Node2 -->
<g id="node3" class="node">
<title>Node2</title>
<g id="a_node3"><a xlink:title=" ">
<polygon fill="none" stroke="#bfbfbf" points="125,-.5 125,-19.5 194,-19.5 194,-.5 125,-.5"/>
<text text-anchor="middle" x="159.5" y="-7.5" font-family="Helvetica,sans-Serif" font-size="10.00" fill="#000000">cstdlib</text>
</a>
</g>
</g>
<!-- Node0&#45;&gt;Node2 -->
<g id="edge2" class="edge">
<title>Node0&#45;&gt;Node2</title>
<path fill="none" stroke="#191970" d="M274.3166,-56.4554C249.2887,-46.329 216.5837,-33.0964 192.4834,-23.3453"/>
<polygon fill="#191970" stroke="#191970" points="193.6373,-20.0366 183.0546,-19.5303 191.0118,-26.5256 193.6373,-20.0366"/>
</g>
<!-- Node3 -->
<g id="node4" class="node">
<title>Node3</title>
<g id="a_node4"><a xlink:title=" ">
<polygon fill="none" stroke="#bfbfbf" points="212.5,-.5 212.5,-19.5 304.5,-19.5 304.5,-.5 212.5,-.5"/>
<text text-anchor="middle" x="258.5" y="-7.5" font-family="Helvetica,sans-Serif" font-size="10.00" fill="#000000">filesystem</text>
</a>
</g>
</g>
<!-- Node0&#45;&gt;Node3 -->
<g id="edge3" class="edge">
<title>Node0&#45;&gt;Node3</title>
<path fill="none" stroke="#191970" d="M298.3989,-56.2977C290.8887,-47.5831 281.43,-36.6075 273.6073,-27.5302"/>
<polygon fill="#191970" stroke="#191970" points="276.1655,-25.1372 266.986,-19.8469 270.8629,-29.707 276.1655,-25.1372"/>
</g>
<!-- Node4 -->
<g id="node5" class="node">
<title>Node4</title>
<g id="a_node5"><a xlink:title=" ">
<polygon fill="none" stroke="#bfbfbf" points="322.5,-.5 322.5,-19.5 406.5,-19.5 406.5,-.5 322.5,-.5"/>
<text text-anchor="middle" x="364.5" y="-7.5" font-family="Helvetica,sans-Serif" font-size="10.00" fill="#000000">stdexcept</text>
</a>
</g>
</g>
<!-- Node0&#45;&gt;Node4 -->
<g id="edge4" class="edge">
<title>Node0&#45;&gt;Node4</title>
<path fill="none" stroke="#191970" d="M324.6011,-56.2977C332.1113,-47.5831 341.57,-36.6075 349.3927,-27.5302"/>
<polygon fill="#191970" stroke="#191970" points="352.1371,-29.707 356.014,-19.8469 346.8345,-25.1372 352.1371,-29.707"/>
</g>
<!-- Node5 -->
<g id="node6" class="node">
<title>Node5</title>
<g id="a_node6"><a xlink:title=" ">
<polygon fill="none" stroke="#bfbfbf" points="425,-.5 425,-19.5 524,-19.5 524,-.5 425,-.5"/>
<text text-anchor="middle" x="474.5" y="-7.5" font-family="Helvetica,sans-Serif" font-size="10.00" fill="#000000">type_traits</text>
</a>
</g>
</g>
<!-- Node0&#45;&gt;Node5 -->
<g id="edge5" class="edge">
<title>Node0&#45;&gt;Node5</title>
<path fill="none" stroke="#191970" d="M351.3743,-56.4554C378.452,-46.239 413.9094,-32.8609 439.8166,-23.0861"/>
<polygon fill="#191970" stroke="#191970" points="441.1201,-26.3352 449.2408,-19.5303 438.649,-19.7858 441.1201,-26.3352"/>
</g>
<!-- Node6 -->
<g id="node7" class="node">
<title>Node6</title>
<g id="a_node7"><a xlink:title=" ">
<polygon fill="none" stroke="#bfbfbf" points="542.5,-.5 542.5,-19.5 656.5,-19.5 656.5,-.5 542.5,-.5"/>
<text text-anchor="middle" x="599.5" y="-7.5" font-family="Helvetica,sans-Serif" font-size="10.00" fill="#000000">unordered_map</text>
</a>
</g>
</g>
<!-- Node0&#45;&gt;Node6 -->
<g id="edge6" class="edge">
<title>Node0&#45;&gt;Node6</title>
<path fill="none" stroke="#191970" d="M381.9527,-56.4554C432.2193,-45.7214 498.8299,-31.4973 545.0418,-21.6291"/>
<polygon fill="#191970" stroke="#191970" points="545.8217,-25.0416 554.8702,-19.5303 544.3598,-18.1959 545.8217,-25.0416"/>
</g>
</g>
</svg>
