<?xml version="1.0" encoding="UTF-8" standalone="no"?>
<!DOCTYPE svg PUBLIC "-//W3C//DTD SVG 1.1//EN"
 "http://www.w3.org/Graphics/SVG/1.1/DTD/svg11.dtd">
<!-- Generated by graphviz version 2.40.1 (0)
 -->
<!-- Title: utils/config.cpp Pages: 1 -->
<svg width="1087pt" height="196pt"
 viewBox="0.00 0.00 1086.50 196.00" xmlns="http://www.w3.org/2000/svg" xmlns:xlink="http://www.w3.org/1999/xlink">
<g id="graph0" class="graph" transform="scale(1 1) rotate(0) translate(4 192)">
<title>utils/config.cpp</title>
<!-- Node0 -->
<g id="node1" class="node">
<title>Node0</title>
<g id="a_node1"><a xlink:title=" ">
<polygon fill="#bfbfbf" stroke="#000000" points="743,-168.5 743,-187.5 880,-187.5 880,-168.5 743,-168.5"/>
<text text-anchor="middle" x="811.5" y="-175.5" font-family="Helvetica,sans-Serif" font-size="10.00" fill="#000000">utils/config.cpp</text>
</a>
</g>
</g>
<!-- Node1 -->
<g id="node2" class="node">
<title>Node1</title>
<g id="a_node2"><a xlink:href="config_8h.html" target="_top" xlink:title=" ">
<polygon fill="none" stroke="#000000" points="319.5,-112.5 319.5,-131.5 441.5,-131.5 441.5,-112.5 319.5,-112.5"/>
<text text-anchor="middle" x="380.5" y="-119.5" font-family="Helvetica,sans-Serif" font-size="10.00" fill="#000000">utils/config.h</text>
</a>
</g>
</g>
<!-- Node0&#45;&gt;Node1 -->
<g id="edge1" class="edge">
<title>Node0&#45;&gt;Node1</title>
<path fill="none" stroke="#191970" d="M742.7302,-169.0647C663.0741,-158.715 532.4817,-141.747 451.7754,-131.2608"/>
<polygon fill="#191970" stroke="#191970" points="452.0693,-127.7697 441.7017,-129.952 451.1674,-134.7113 452.0693,-127.7697"/>
</g>
<!-- Node10 -->
<g id="node11" class="node">
<title>Node10</title>
<g id="a_node11"><a xlink:href="paths_8h.html" target="_top" xlink:title=" ">
<polygon fill="none" stroke="#000000" points="569.5,-112.5 569.5,-131.5 683.5,-131.5 683.5,-112.5 569.5,-112.5"/>
<text text-anchor="middle" x="626.5" y="-119.5" font-family="Helvetica,sans-Serif" font-size="10.00" fill="#000000">utils/paths.h</text>
</a>
</g>
</g>
<!-- Node0&#45;&gt;Node10 -->
<g id="edge11" class="edge">
<title>Node0&#45;&gt;Node10</title>
<path fill="none" stroke="#191970" d="M779.6974,-168.3733C748.6683,-158.9807 701.3246,-144.6496 667.4853,-134.4064"/>
<polygon fill="#191970" stroke="#191970" points="668.4728,-131.0485 657.8876,-131.5011 666.4447,-137.7483 668.4728,-131.0485"/>
</g>
<!-- Node11 -->
<g id="node12" class="node">
<title>Node11</title>
<g id="a_node12"><a xlink:title=" ">
<polygon fill="none" stroke="#bfbfbf" points="702,-112.5 702,-131.5 809,-131.5 809,-112.5 702,-112.5"/>
<text text-anchor="middle" x="755.5" y="-119.5" font-family="Helvetica,sans-Serif" font-size="10.00" fill="#000000">fmt/printf.h</text>
</a>
</g>
</g>
<!-- Node0&#45;&gt;Node11 -->
<g id="edge14" class="edge">
<title>Node0&#45;&gt;Node11</title>
<path fill="none" stroke="#191970" d="M801.7455,-168.2455C793.6352,-160.1352 781.9075,-148.4075 772.2919,-138.7919"/>
<polygon fill="#191970" stroke="#191970" points="774.6887,-136.2389 765.1427,-131.6427 769.7389,-141.1887 774.6887,-136.2389"/>
</g>
<!-- Node12 -->
<g id="node13" class="node">
<title>Node12</title>
<g id="a_node13"><a xlink:title=" ">
<polygon fill="none" stroke="#bfbfbf" points="826.5,-112.5 826.5,-131.5 910.5,-131.5 910.5,-112.5 826.5,-112.5"/>
<text text-anchor="middle" x="868.5" y="-119.5" font-family="Helvetica,sans-Serif" font-size="10.00" fill="#000000">algorithm</text>
</a>
</g>
</g>
<!-- Node0&#45;&gt;Node12 -->
<g id="edge15" class="edge">
<title>Node0&#45;&gt;Node12</title>
<path fill="none" stroke="#191970" d="M821.4286,-168.2455C829.6838,-160.1352 841.6209,-148.4075 851.4082,-138.7919"/>
<polygon fill="#191970" stroke="#191970" points="854.0046,-141.1476 858.6851,-131.6427 849.0989,-136.1542 854.0046,-141.1476"/>
</g>
<!-- Node13 -->
<g id="node14" class="node">
<title>Node13</title>
<g id="a_node14"><a xlink:title=" ">
<polygon fill="none" stroke="#bfbfbf" points="929,-112.5 929,-131.5 998,-131.5 998,-112.5 929,-112.5"/>
<text text-anchor="middle" x="963.5" y="-119.5" font-family="Helvetica,sans-Serif" font-size="10.00" fill="#000000">fstream</text>
</a>
</g>
</g>
<!-- Node0&#45;&gt;Node13 -->
<g id="edge16" class="edge">
<title>Node0&#45;&gt;Node13</title>
<path fill="none" stroke="#191970" d="M837.6297,-168.3733C862.5768,-159.1822 900.3592,-145.2624 928.0206,-135.0713"/>
<polygon fill="#191970" stroke="#191970" points="929.5378,-138.2424 937.7112,-131.5011 927.1178,-131.674 929.5378,-138.2424"/>
</g>
<!-- Node14 -->
<g id="node15" class="node">
<title>Node14</title>
<g id="a_node15"><a xlink:title=" ">
<polygon fill="none" stroke="#bfbfbf" points="1016.5,-112.5 1016.5,-131.5 1078.5,-131.5 1078.5,-112.5 1016.5,-112.5"/>
<text text-anchor="middle" x="1047.5" y="-119.5" font-family="Helvetica,sans-Serif" font-size="10.00" fill="#000000">vector</text>
</a>
</g>
</g>
<!-- Node0&#45;&gt;Node14 -->
<g id="edge17" class="edge">
<title>Node0&#45;&gt;Node14</title>
<path fill="none" stroke="#191970" d="M852.8377,-168.4811C890.4397,-159.7815 947.7288,-146.4255 1006.2804,-132.2738"/>
<polygon fill="#191970" stroke="#191970" points="1007.1724,-135.6591 1016.0677,-129.9036 1005.5248,-128.8557 1007.1724,-135.6591"/>
</g>
<!-- Node2 -->
<g id="node3" class="node">
<title>Node2</title>
<g id="a_node3"><a xlink:href="exception_8h.html" target="_top" xlink:title=" ">
<polygon fill="none" stroke="#000000" points="81.5,-56.5 81.5,-75.5 225.5,-75.5 225.5,-56.5 81.5,-56.5"/>
<text text-anchor="middle" x="153.5" y="-63.5" font-family="Helvetica,sans-Serif" font-size="10.00" fill="#000000">utils/exception.h</text>
</a>
</g>
</g>
<!-- Node1&#45;&gt;Node2 -->
<g id="edge2" class="edge">
<title>Node1&#45;&gt;Node2</title>
<path fill="none" stroke="#191970" d="M341.7352,-112.4369C303.1308,-102.9133 243.7616,-88.2672 202.0428,-77.9753"/>
<polygon fill="#191970" stroke="#191970" points="202.6521,-74.5208 192.1049,-75.5237 200.9755,-81.317 202.6521,-74.5208"/>
</g>
<!-- Node3 -->
<g id="node4" class="node">
<title>Node3</title>
<g id="a_node4"><a xlink:title=" ">
<polygon fill="none" stroke="#bfbfbf" points="0,-.5 0,-19.5 107,-19.5 107,-.5 0,-.5"/>
<text text-anchor="middle" x="53.5" y="-7.5" font-family="Helvetica,sans-Serif" font-size="10.00" fill="#000000">fmt/format.h</text>
</a>
</g>
</g>
<!-- Node1&#45;&gt;Node3 -->
<g id="edge6" class="edge">
<title>Node1&#45;&gt;Node3</title>
<path fill="none" stroke="#191970" d="M319.212,-120.5019C240.0707,-117.3072 108.2378,-107.305 72.5,-76 59.4919,-64.6053 55.1245,-44.9385 53.7825,-30.0295"/>
<polygon fill="#191970" stroke="#191970" points="57.264,-29.5779 53.253,-19.7717 50.2733,-29.9389 57.264,-29.5779"/>
</g>
<!-- Node6 -->
<g id="node7" class="node">
<title>Node6</title>
<g id="a_node7"><a xlink:title=" ">
<polygon fill="none" stroke="#bfbfbf" points="244,-56.5 244,-75.5 313,-75.5 313,-56.5 244,-56.5"/>
<text text-anchor="middle" x="278.5" y="-63.5" font-family="Helvetica,sans-Serif" font-size="10.00" fill="#000000">cstdlib</text>
</a>
</g>
</g>
<!-- Node1&#45;&gt;Node6 -->
<g id="edge7" class="edge">
<title>Node1&#45;&gt;Node6</title>
<path fill="none" stroke="#191970" d="M362.733,-112.2455C346.7905,-103.4928 323.1741,-90.527 305.0011,-80.5496"/>
<polygon fill="#191970" stroke="#191970" points="306.5137,-77.3873 296.0634,-75.6427 303.1448,-83.5233 306.5137,-77.3873"/>
</g>
<!-- Node7 -->
<g id="node8" class="node">
<title>Node7</title>
<g id="a_node8"><a xlink:title=" ">
<polygon fill="none" stroke="#bfbfbf" points="580.5,-56.5 580.5,-75.5 672.5,-75.5 672.5,-56.5 580.5,-56.5"/>
<text text-anchor="middle" x="626.5" y="-63.5" font-family="Helvetica,sans-Serif" font-size="10.00" fill="#000000">filesystem</text>
</a>
</g>
</g>
<!-- Node1&#45;&gt;Node7 -->
<g id="edge8" class="edge">
<title>Node1&#45;&gt;Node7</title>
<path fill="none" stroke="#191970" d="M422.5094,-112.4369C464.6104,-102.8529 529.5005,-88.0812 574.7521,-77.78"/>
<polygon fill="#191970" stroke="#191970" points="575.6902,-81.1561 584.6639,-75.5237 574.1364,-74.3307 575.6902,-81.1561"/>
</g>
<!-- Node8 -->
<g id="node9" class="node">
<title>Node8</title>
<g id="a_node9"><a xlink:title=" ">
<polygon fill="none" stroke="#bfbfbf" points="331,-56.5 331,-75.5 430,-75.5 430,-56.5 331,-56.5"/>
<text text-anchor="middle" x="380.5" y="-63.5" font-family="Helvetica,sans-Serif" font-size="10.00" fill="#000000">type_traits</text>
</a>
</g>
</g>
<!-- Node1&#45;&gt;Node8 -->
<g id="edge9" class="edge">
<title>Node1&#45;&gt;Node8</title>
<path fill="none" stroke="#191970" d="M380.5,-112.2455C380.5,-104.9382 380.5,-94.6944 380.5,-85.7046"/>
<polygon fill="#191970" stroke="#191970" points="384.0001,-85.6426 380.5,-75.6427 377.0001,-85.6427 384.0001,-85.6426"/>
</g>
<!-- Node9 -->
<g id="node10" class="node">
<title>Node9</title>
<g id="a_node10"><a xlink:title=" ">
<polygon fill="none" stroke="#bfbfbf" points="448.5,-56.5 448.5,-75.5 562.5,-75.5 562.5,-56.5 448.5,-56.5"/>
<text text-anchor="middle" x="505.5" y="-63.5" font-family="Helvetica,sans-Serif" font-size="10.00" fill="#000000">unordered_map</text>
</a>
</g>
</g>
<!-- Node1&#45;&gt;Node9 -->
<g id="edge10" class="edge">
<title>Node1&#45;&gt;Node9</title>
<path fill="none" stroke="#191970" d="M401.9883,-112.3733C422.144,-103.3435 452.488,-89.7494 475.118,-79.6111"/>
<polygon fill="#191970" stroke="#191970" points="476.5971,-82.7838 484.2921,-75.5011 473.7351,-76.3955 476.5971,-82.7838"/>
</g>
<!-- Node2&#45;&gt;Node3 -->
<g id="edge3" class="edge">
<title>Node2&#45;&gt;Node3</title>
<path fill="none" stroke="#191970" d="M136.0813,-56.2455C120.4515,-47.4928 97.2981,-34.527 79.4815,-24.5496"/>
<polygon fill="#191970" stroke="#191970" points="81.1543,-21.475 70.7191,-19.6427 77.734,-27.5825 81.1543,-21.475"/>
</g>
<!-- Node4 -->
<g id="node5" class="node">
<title>Node4</title>
<g id="a_node5"><a xlink:title=" ">
<polygon fill="none" stroke="#bfbfbf" points="124.5,-.5 124.5,-19.5 208.5,-19.5 208.5,-.5 124.5,-.5"/>
<text text-anchor="middle" x="166.5" y="-7.5" font-family="Helvetica,sans-Serif" font-size="10.00" fill="#000000">stdexcept</text>
</a>
</g>
</g>
<!-- Node2&#45;&gt;Node4 -->
<g id="edge4" class="edge">
<title>Node2&#45;&gt;Node4</title>
<path fill="none" stroke="#191970" d="M155.7644,-56.2455C157.4794,-48.8579 159.8912,-38.4689 161.9944,-29.4087"/>
<polygon fill="#191970" stroke="#191970" points="165.4095,-30.1751 164.2615,-19.6427 158.5908,-28.5922 165.4095,-30.1751"/>
</g>
<!-- Node5 -->
<g id="node6" class="node">
<title>Node5</title>
<g id="a_node6"><a xlink:title=" ">
<polygon fill="none" stroke="#bfbfbf" points="439,-.5 439,-19.5 538,-19.5 538,-.5 439,-.5"/>
<text text-anchor="middle" x="488.5" y="-7.5" font-family="Helvetica,sans-Serif" font-size="10.00" fill="#000000">string_view</text>
</a>
</g>
</g>
<!-- Node2&#45;&gt;Node5 -->
<g id="edge5" class="edge">
<title>Node2&#45;&gt;Node5</title>
<path fill="none" stroke="#191970" d="M210.7079,-56.4369C271.5144,-46.2722 367.2294,-30.2721 428.9241,-19.959"/>
<polygon fill="#191970" stroke="#191970" points="429.6135,-23.3924 438.8996,-18.2914 428.4593,-16.4882 429.6135,-23.3924"/>
</g>
<!-- Node10&#45;&gt;Node5 -->
<g id="edge13" class="edge">
<title>Node10&#45;&gt;Node5</title>
<path fill="none" stroke="#191970" d="M644.7646,-112.2925C666.3952,-99.5386 697.584,-76.368 681.5,-56 665.0736,-35.1984 598.6477,-22.7828 548.2743,-16.1882"/>
<polygon fill="#191970" stroke="#191970" points="548.4725,-12.6856 538.1133,-14.9073 547.5969,-19.6306 548.4725,-12.6856"/>
</g>
<!-- Node10&#45;&gt;Node7 -->
<g id="edge12" class="edge">
<title>Node10&#45;&gt;Node7</title>
<path fill="none" stroke="#191970" d="M626.5,-112.2455C626.5,-104.9382 626.5,-94.6944 626.5,-85.7046"/>
<polygon fill="#191970" stroke="#191970" points="630.0001,-85.6426 626.5,-75.6427 623.0001,-85.6427 630.0001,-85.6426"/>
</g>
</g>
</svg>
