<?xml version="1.0" encoding="UTF-8" standalone="no"?>
<!DOCTYPE svg PUBLIC "-//W3C//DTD SVG 1.1//EN"
 "http://www.w3.org/Graphics/SVG/1.1/DTD/svg11.dtd">
<!-- Generated by graphviz version 2.40.1 (0)
 -->
<!-- Title: utils/include/utils/consume_queue.h Pages: 1 -->
<svg width="400pt" height="95pt"
 viewBox="0.00 0.00 400.00 95.00" xmlns="http://www.w3.org/2000/svg" xmlns:xlink="http://www.w3.org/1999/xlink">
<g id="graph0" class="graph" transform="scale(1 1) rotate(0) translate(4 91)">
<title>utils/include/utils/consume_queue.h</title>
<!-- Node0 -->
<g id="node1" class="node">
<title>Node0</title>
<g id="a_node1"><a xlink:title=" ">
<polygon fill="#bfbfbf" stroke="#000000" points="159.5,-56.5 159.5,-86.5 318.5,-86.5 318.5,-56.5 159.5,-56.5"/>
<text text-anchor="start" x="167.5" y="-74.5" font-family="Helvetica,sans-Serif" font-size="10.00" fill="#000000">utils/include/utils</text>
<text text-anchor="middle" x="239" y="-63.5" font-family="Helvetica,sans-Serif" font-size="10.00" fill="#000000">/consume_queue.h</text>
</a>
</g>
</g>
<!-- Node1 -->
<g id="node2" class="node">
<title>Node1</title>
<g id="a_node2"><a xlink:title=" ">
<polygon fill="none" stroke="#bfbfbf" points="0,-.5 0,-19.5 152,-19.5 152,-.5 0,-.5"/>
<text text-anchor="middle" x="76" y="-7.5" font-family="Helvetica,sans-Serif" font-size="10.00" fill="#000000">condition_variable</text>
</a>
</g>
</g>
<!-- Node0&#45;&gt;Node1 -->
<g id="edge1" class="edge">
<title>Node0&#45;&gt;Node1</title>
<path fill="none" stroke="#191970" d="M199.1257,-56.4554C172.048,-46.239 136.5906,-32.8609 110.6834,-23.0861"/>
<polygon fill="#191970" stroke="#191970" points="111.851,-19.7858 101.2592,-19.5303 109.3799,-26.3352 111.851,-19.7858"/>
</g>
<!-- Node2 -->
<g id="node3" class="node">
<title>Node2</title>
<g id="a_node3"><a xlink:title=" ">
<polygon fill="none" stroke="#bfbfbf" points="170,-.5 170,-19.5 224,-19.5 224,-.5 170,-.5"/>
<text text-anchor="middle" x="197" y="-7.5" font-family="Helvetica,sans-Serif" font-size="10.00" fill="#000000">mutex</text>
</a>
</g>
</g>
<!-- Node0&#45;&gt;Node2 -->
<g id="edge2" class="edge">
<title>Node0&#45;&gt;Node2</title>
<path fill="none" stroke="#191970" d="M228.618,-56.2977C222.8487,-47.8498 215.6284,-37.2773 209.5447,-28.369"/>
<polygon fill="#191970" stroke="#191970" points="212.2547,-26.1311 203.7247,-19.8469 206.4741,-30.0788 212.2547,-26.1311"/>
</g>
<!-- Node3 -->
<g id="node4" class="node">
<title>Node3</title>
<g id="a_node4"><a xlink:title=" ">
<polygon fill="none" stroke="#bfbfbf" points="242.5,-.5 242.5,-19.5 319.5,-19.5 319.5,-.5 242.5,-.5"/>
<text text-anchor="middle" x="281" y="-7.5" font-family="Helvetica,sans-Serif" font-size="10.00" fill="#000000">optional</text>
</a>
</g>
</g>
<!-- Node0&#45;&gt;Node3 -->
<g id="edge3" class="edge">
<title>Node0&#45;&gt;Node3</title>
<path fill="none" stroke="#191970" d="M249.382,-56.2977C255.1513,-47.8498 262.3716,-37.2773 268.4553,-28.369"/>
<polygon fill="#191970" stroke="#191970" points="271.5259,-30.0788 274.2753,-19.8469 265.7453,-26.1311 271.5259,-30.0788"/>
</g>
<!-- Node4 -->
<g id="node5" class="node">
<title>Node4</title>
<g id="a_node5"><a xlink:title=" ">
<polygon fill="none" stroke="#bfbfbf" points="338,-.5 338,-19.5 392,-19.5 392,-.5 338,-.5"/>
<text text-anchor="middle" x="365" y="-7.5" font-family="Helvetica,sans-Serif" font-size="10.00" fill="#000000">queue</text>
</a>
</g>
</g>
<!-- Node0&#45;&gt;Node4 -->
<g id="edge4" class="edge">
<title>Node0&#45;&gt;Node4</title>
<path fill="none" stroke="#191970" d="M269.8231,-56.4554C290.1088,-46.554 316.4788,-33.683 336.3162,-24.0004"/>
<polygon fill="#191970" stroke="#191970" points="338.023,-27.062 345.4745,-19.5303 334.9526,-20.7714 338.023,-27.062"/>
</g>
</g>
</svg>
