<?xml version="1.0" encoding="UTF-8" standalone="no"?>
<!DOCTYPE svg PUBLIC "-//W3C//DTD SVG 1.1//EN"
 "http://www.w3.org/Graphics/SVG/1.1/DTD/svg11.dtd">
<!-- Generated by graphviz version 2.40.1 (0)
 -->
<!-- Title: soe Pages: 1 -->
<svg width="95pt" height="188pt"
 viewBox="0.00 0.00 95.00 188.00" xmlns="http://www.w3.org/2000/svg" xmlns:xlink="http://www.w3.org/1999/xlink">
<g id="graph0" class="graph" transform="scale(1 1) rotate(0) translate(4 184)">
<title>soe</title>
<!-- dir_0ff2b490df89a24d0039962b9a00e96c -->
<g id="node1" class="node">
<title>dir_0ff2b490df89a24d0039962b9a00e96c</title>
<g id="a_node1"><a xlink:href="dir_0ff2b490df89a24d0039962b9a00e96c.html" target="_top" xlink:title="soe">
<polygon fill="#eeeeff" stroke="#000000" points="87,-180 33,-180 33,-144 87,-144 87,-180"/>
<text text-anchor="middle" x="60" y="-159.5" font-family="Helvetica,sans-Serif" font-size="10.00" fill="#000000">soe</text>
</a>
</g>
</g>
<!-- dir_e4f78d618dac59d2d1a530989ba5afb6 -->
<g id="node2" class="node">
<title>dir_e4f78d618dac59d2d1a530989ba5afb6</title>
<g id="a_node2"><a xlink:href="dir_e4f78d618dac59d2d1a530989ba5afb6.html" target="_top" xlink:title="libsoe">
<polygon fill="none" stroke="#ff0000" points="62,-108 0,-108 0,-72 62,-72 62,-108"/>
<text text-anchor="middle" x="31" y="-87.5" font-family="Helvetica,sans-Serif" font-size="10.00" fill="#000000">libsoe</text>
</a>
</g>
</g>
<!-- dir_0ff2b490df89a24d0039962b9a00e96c&#45;&gt;dir_e4f78d618dac59d2d1a530989ba5afb6 -->
<g id="edge2" class="edge">
<title>dir_0ff2b490df89a24d0039962b9a00e96c&#45;&gt;dir_e4f78d618dac59d2d1a530989ba5afb6</title>
<path fill="none" stroke="#000000" d="M52.6821,-143.8314C49.5124,-135.9617 45.73,-126.5712 42.2187,-117.8533"/>
<polygon fill="#000000" stroke="#000000" points="45.3992,-116.3815 38.4165,-108.4133 38.9061,-118.9968 45.3992,-116.3815"/>
<g id="a_edge2&#45;headlabel"><a xlink:href="dir_000003_000000.html" target="_top" xlink:title="2">
<text text-anchor="middle" x="49.3758" y="-116.155" font-family="Helvetica,sans-Serif" font-size="10.00" fill="#000000">2</text>
</a>
</g>
</g>
<!-- dir_cbdb8362360e11eafe2fa3bc74cf0ffd -->
<g id="node3" class="node">
<title>dir_cbdb8362360e11eafe2fa3bc74cf0ffd</title>
<g id="a_node3"><a xlink:href="dir_cbdb8362360e11eafe2fa3bc74cf0ffd.html" target="_top" xlink:title="utils">
<polygon fill="none" stroke="#ff0000" points="87,-36 33,-36 33,0 87,0 87,-36"/>
<text text-anchor="middle" x="60" y="-15.5" font-family="Helvetica,sans-Serif" font-size="10.00" fill="#000000">utils</text>
</a>
</g>
</g>
<!-- dir_0ff2b490df89a24d0039962b9a00e96c&#45;&gt;dir_cbdb8362360e11eafe2fa3bc74cf0ffd -->
<g id="edge3" class="edge">
<title>dir_0ff2b490df89a24d0039962b9a00e96c&#45;&gt;dir_cbdb8362360e11eafe2fa3bc74cf0ffd</title>
<path fill="none" stroke="#000000" d="M64.6934,-143.6463C67.1071,-133.2631 69.7908,-119.9943 71,-108 72.6049,-92.0807 72.6049,-87.9193 71,-72 70.1498,-63.5665 68.5706,-54.5029 66.8689,-46.2554"/>
<polygon fill="#000000" stroke="#000000" points="70.2578,-45.3697 64.6934,-36.3537 63.4209,-46.8719 70.2578,-45.3697"/>
<g id="a_edge3&#45;headlabel"><a xlink:href="dir_000003_000004.html" target="_top" xlink:title="3">
<text text-anchor="middle" x="73.8023" y="-45.7713" font-family="Helvetica,sans-Serif" font-size="10.00" fill="#000000">3</text>
</a>
</g>
</g>
<!-- dir_e4f78d618dac59d2d1a530989ba5afb6&#45;&gt;dir_cbdb8362360e11eafe2fa3bc74cf0ffd -->
<g id="edge1" class="edge">
<title>dir_e4f78d618dac59d2d1a530989ba5afb6&#45;&gt;dir_cbdb8362360e11eafe2fa3bc74cf0ffd</title>
<path fill="none" stroke="#000000" d="M38.3179,-71.8314C41.4876,-63.9617 45.27,-54.5712 48.7813,-45.8533"/>
<polygon fill="#000000" stroke="#000000" points="52.0939,-46.9968 52.5835,-36.4133 45.6008,-44.3815 52.0939,-46.9968"/>
<g id="a_edge1&#45;headlabel"><a xlink:href="dir_000000_000004.html" target="_top" xlink:title="1">
<text text-anchor="middle" x="53.3847" y="-48.8919" font-family="Helvetica,sans-Serif" font-size="10.00" fill="#000000">1</text>
</a>
</g>
</g>
</g>
</svg>
