<?xml version="1.0" encoding="UTF-8" standalone="no"?>
<!DOCTYPE svg PUBLIC "-//W3C//DTD SVG 1.1//EN"
 "http://www.w3.org/Graphics/SVG/1.1/DTD/svg11.dtd">
<!-- Generated by graphviz version 2.40.1 (0)
 -->
<!-- Title: utils/include/utils/exception.h Pages: 1 -->
<svg width="885pt" height="162pt"
 viewBox="0.00 0.00 884.50 162.00" xmlns="http://www.w3.org/2000/svg" xmlns:xlink="http://www.w3.org/1999/xlink">
<g id="graph0" class="graph" transform="scale(1 1) rotate(0) translate(4 158)">
<title>utils/include/utils/exception.h</title>
<!-- Node4 -->
<g id="node1" class="node">
<title>Node4</title>
<g id="a_node1"><a xlink:title=" ">
<polygon fill="#bfbfbf" stroke="#000000" points="380,-123.5 380,-153.5 539,-153.5 539,-123.5 380,-123.5"/>
<text text-anchor="start" x="388" y="-141.5" font-family="Helvetica,sans-Serif" font-size="10.00" fill="#000000">utils/include/utils</text>
<text text-anchor="middle" x="459.5" y="-130.5" font-family="Helvetica,sans-Serif" font-size="10.00" fill="#000000">/exception.h</text>
</a>
</g>
</g>
<!-- Node5 -->
<g id="node2" class="node">
<title>Node5</title>
<g id="a_node2"><a xlink:href="exception_8cpp.html" target="_top" xlink:title=" ">
<polygon fill="none" stroke="#000000" points="111,-62 111,-81 270,-81 270,-62 111,-62"/>
<text text-anchor="middle" x="190.5" y="-69" font-family="Helvetica,sans-Serif" font-size="10.00" fill="#000000">utils/exception.cpp</text>
</a>
</g>
</g>
<!-- Node4&#45;&gt;Node5 -->
<g id="edge1" class="edge">
<title>Node4&#45;&gt;Node5</title>
<path fill="none" stroke="#191970" d="M389.4222,-121.0457C338.092,-108.2608 270.3724,-91.3939 228.663,-81.0053"/>
<polygon fill="#191970" stroke="#191970" points="388.5817,-124.4432 399.1311,-123.4639 390.2735,-117.6507 388.5817,-124.4432"/>
</g>
<!-- Node6 -->
<g id="node3" class="node">
<title>Node6</title>
<g id="a_node3"><a xlink:href="config_8h.html" target="_top" xlink:title=" ">
<polygon fill="none" stroke="#000000" points="288,-56.5 288,-86.5 447,-86.5 447,-56.5 288,-56.5"/>
<text text-anchor="start" x="296" y="-74.5" font-family="Helvetica,sans-Serif" font-size="10.00" fill="#000000">utils/include/utils</text>
<text text-anchor="middle" x="367.5" y="-63.5" font-family="Helvetica,sans-Serif" font-size="10.00" fill="#000000">/config.h</text>
</a>
</g>
</g>
<!-- Node4&#45;&gt;Node6 -->
<g id="edge2" class="edge">
<title>Node4&#45;&gt;Node6</title>
<path fill="none" stroke="#191970" d="M430.454,-117.3469C416.7647,-107.3776 400.7464,-95.7121 388.2936,-86.6432"/>
<polygon fill="#191970" stroke="#191970" points="428.4798,-120.2389 438.6238,-123.2967 432.6006,-114.5804 428.4798,-120.2389"/>
</g>
<!-- Node10 -->
<g id="node7" class="node">
<title>Node10</title>
<g id="a_node7"><a xlink:href="thread__pool_8h.html" target="_top" xlink:title=" ">
<polygon fill="none" stroke="#000000" points="472,-56.5 472,-86.5 631,-86.5 631,-56.5 472,-56.5"/>
<text text-anchor="start" x="480" y="-74.5" font-family="Helvetica,sans-Serif" font-size="10.00" fill="#000000">utils/include/utils</text>
<text text-anchor="middle" x="551.5" y="-63.5" font-family="Helvetica,sans-Serif" font-size="10.00" fill="#000000">/thread_pool.h</text>
</a>
</g>
</g>
<!-- Node4&#45;&gt;Node10 -->
<g id="edge6" class="edge">
<title>Node4&#45;&gt;Node10</title>
<path fill="none" stroke="#191970" d="M488.546,-117.3469C502.2353,-107.3776 518.2536,-95.7121 530.7064,-86.6432"/>
<polygon fill="#191970" stroke="#191970" points="486.3994,-114.5804 480.3762,-123.2967 490.5202,-120.2389 486.3994,-114.5804"/>
</g>
<!-- Node13 -->
<g id="node10" class="node">
<title>Node13</title>
<g id="a_node10"><a xlink:href="paths_8cpp.html" target="_top" xlink:title=" ">
<polygon fill="none" stroke="#000000" points="649,-62 649,-81 778,-81 778,-62 649,-62"/>
<text text-anchor="middle" x="713.5" y="-69" font-family="Helvetica,sans-Serif" font-size="10.00" fill="#000000">utils/paths.cpp</text>
</a>
</g>
</g>
<!-- Node4&#45;&gt;Node13 -->
<g id="edge9" class="edge">
<title>Node4&#45;&gt;Node13</title>
<path fill="none" stroke="#191970" d="M526.2755,-120.886C574.6694,-108.1207 638.2452,-91.3507 677.465,-81.0053"/>
<polygon fill="#191970" stroke="#191970" points="525.2791,-117.529 516.5026,-123.4639 527.0645,-124.2975 525.2791,-117.529"/>
</g>
<!-- Node7 -->
<g id="node4" class="node">
<title>Node7</title>
<g id="a_node4"><a xlink:href="main_8cpp.html" target="_top" xlink:title=" ">
<polygon fill="none" stroke="#000000" points="0,-.5 0,-19.5 107,-19.5 107,-.5 0,-.5"/>
<text text-anchor="middle" x="53.5" y="-7.5" font-family="Helvetica,sans-Serif" font-size="10.00" fill="#000000">soe/main.cpp</text>
</a>
</g>
</g>
<!-- Node6&#45;&gt;Node7 -->
<g id="edge3" class="edge">
<title>Node6&#45;&gt;Node7</title>
<path fill="none" stroke="#191970" d="M280.8598,-54.5307C223.2683,-43.2508 149.7516,-28.8518 102.1589,-19.5303"/>
<polygon fill="#191970" stroke="#191970" points="280.2007,-57.968 290.687,-56.4554 281.5462,-51.0985 280.2007,-57.968"/>
</g>
<!-- Node8 -->
<g id="node5" class="node">
<title>Node8</title>
<g id="a_node5"><a xlink:href="config_8cpp.html" target="_top" xlink:title=" ">
<polygon fill="none" stroke="#000000" points="125,-.5 125,-19.5 262,-19.5 262,-.5 125,-.5"/>
<text text-anchor="middle" x="193.5" y="-7.5" font-family="Helvetica,sans-Serif" font-size="10.00" fill="#000000">utils/config.cpp</text>
</a>
</g>
</g>
<!-- Node6&#45;&gt;Node8 -->
<g id="edge4" class="edge">
<title>Node6&#45;&gt;Node8</title>
<path fill="none" stroke="#191970" d="M315.4893,-53.1169C284.2332,-42.0695 245.7471,-28.4666 220.4638,-19.5303"/>
<polygon fill="#191970" stroke="#191970" points="314.34,-56.4228 324.9348,-56.4554 316.6728,-49.8229 314.34,-56.4228"/>
</g>
<!-- Node9 -->
<g id="node6" class="node">
<title>Node9</title>
<g id="a_node6"><a xlink:href="config_8test_8cpp.html" target="_top" xlink:title=" ">
<polygon fill="none" stroke="#000000" points="280.5,-.5 280.5,-19.5 454.5,-19.5 454.5,-.5 280.5,-.5"/>
<text text-anchor="middle" x="367.5" y="-7.5" font-family="Helvetica,sans-Serif" font-size="10.00" fill="#000000">utils/config.test.cpp</text>
</a>
</g>
</g>
<!-- Node6&#45;&gt;Node9 -->
<g id="edge5" class="edge">
<title>Node6&#45;&gt;Node9</title>
<path fill="none" stroke="#191970" d="M367.5,-46.2849C367.5,-36.9858 367.5,-26.9883 367.5,-19.8469"/>
<polygon fill="#191970" stroke="#191970" points="364.0001,-46.2977 367.5,-56.2977 371.0001,-46.2978 364.0001,-46.2977"/>
</g>
<!-- Node11 -->
<g id="node8" class="node">
<title>Node11</title>
<g id="a_node8"><a xlink:href="thread__pool_8cpp.html" target="_top" xlink:title=" ">
<polygon fill="none" stroke="#000000" points="472.5,-.5 472.5,-19.5 646.5,-19.5 646.5,-.5 472.5,-.5"/>
<text text-anchor="middle" x="559.5" y="-7.5" font-family="Helvetica,sans-Serif" font-size="10.00" fill="#000000">utils/thread_pool.cpp</text>
</a>
</g>
</g>
<!-- Node10&#45;&gt;Node11 -->
<g id="edge7" class="edge">
<title>Node10&#45;&gt;Node11</title>
<path fill="none" stroke="#191970" d="M554.78,-46.2849C555.9897,-36.9858 557.2901,-26.9883 558.2191,-19.8469"/>
<polygon fill="#191970" stroke="#191970" points="551.2968,-45.9298 553.4775,-56.2977 558.2383,-46.8328 551.2968,-45.9298"/>
</g>
<!-- Node12 -->
<g id="node9" class="node">
<title>Node12</title>
<g id="a_node9"><a xlink:href="thread__pool_8test_8cpp.html" target="_top" xlink:title=" ">
<polygon fill="none" stroke="#000000" points="664.5,-.5 664.5,-19.5 876.5,-19.5 876.5,-.5 664.5,-.5"/>
<text text-anchor="middle" x="770.5" y="-7.5" font-family="Helvetica,sans-Serif" font-size="10.00" fill="#000000">utils/thread_pool.test.cpp</text>
</a>
</g>
</g>
<!-- Node10&#45;&gt;Node12 -->
<g id="edge8" class="edge">
<title>Node10&#45;&gt;Node12</title>
<path fill="none" stroke="#191970" d="M614.9351,-53.686C654.6261,-42.5399 704.1921,-28.6207 736.5628,-19.5303"/>
<polygon fill="#191970" stroke="#191970" points="613.7547,-50.382 605.0734,-56.4554 615.6473,-57.1214 613.7547,-50.382"/>
</g>
</g>
</svg>
