<?xml version="1.0" encoding="UTF-8" standalone="no"?>
<!DOCTYPE svg PUBLIC "-//W3C//DTD SVG 1.1//EN"
 "http://www.w3.org/Graphics/SVG/1.1/DTD/svg11.dtd">
<!-- Generated by graphviz version 2.40.1 (0)
 -->
<!-- Title: utils/include/utils/exception.h Pages: 1 -->
<svg width="526pt" height="162pt"
 viewBox="0.00 0.00 525.50 162.00" xmlns="http://www.w3.org/2000/svg" xmlns:xlink="http://www.w3.org/1999/xlink">
<g id="graph0" class="graph" transform="scale(1 1) rotate(0) translate(4 158)">
<title>utils/include/utils/exception.h</title>
<!-- Node4 -->
<g id="node1" class="node">
<title>Node4</title>
<g id="a_node1"><a xlink:title=" ">
<polygon fill="#bfbfbf" stroke="#000000" points="177,-123.5 177,-153.5 336,-153.5 336,-123.5 177,-123.5"/>
<text text-anchor="start" x="185" y="-141.5" font-family="Helvetica,sans-Serif" font-size="10.00" fill="#000000">utils/include/utils</text>
<text text-anchor="middle" x="256.5" y="-130.5" font-family="Helvetica,sans-Serif" font-size="10.00" fill="#000000">/exception.h</text>
</a>
</g>
</g>
<!-- Node5 -->
<g id="node2" class="node">
<title>Node5</title>
<g id="a_node2"><a xlink:href="exception_8cpp.html" target="_top" xlink:title=" ">
<polygon fill="none" stroke="#000000" points="0,-62 0,-81 159,-81 159,-62 0,-62"/>
<text text-anchor="middle" x="79.5" y="-69" font-family="Helvetica,sans-Serif" font-size="10.00" fill="#000000">utils/exception.cpp</text>
</a>
</g>
</g>
<!-- Node4&#45;&gt;Node5 -->
<g id="edge1" class="edge">
<title>Node4&#45;&gt;Node5</title>
<path fill="none" stroke="#191970" d="M207.1989,-119.838C173.8519,-107.2151 131.1996,-91.0699 104.611,-81.0053"/>
<polygon fill="#191970" stroke="#191970" points="206.1863,-123.197 216.7777,-123.4639 208.6644,-116.6503 206.1863,-123.197"/>
</g>
<!-- Node6 -->
<g id="node3" class="node">
<title>Node6</title>
<g id="a_node3"><a xlink:href="config_8h.html" target="_top" xlink:title=" ">
<polygon fill="none" stroke="#000000" points="177,-56.5 177,-86.5 336,-86.5 336,-56.5 177,-56.5"/>
<text text-anchor="start" x="185" y="-74.5" font-family="Helvetica,sans-Serif" font-size="10.00" fill="#000000">utils/include/utils</text>
<text text-anchor="middle" x="256.5" y="-63.5" font-family="Helvetica,sans-Serif" font-size="10.00" fill="#000000">/config.h</text>
</a>
</g>
</g>
<!-- Node4&#45;&gt;Node6 -->
<g id="edge2" class="edge">
<title>Node4&#45;&gt;Node6</title>
<path fill="none" stroke="#191970" d="M256.5,-113.0249C256.5,-104.128 256.5,-94.4287 256.5,-86.6432"/>
<polygon fill="#191970" stroke="#191970" points="253.0001,-113.2966 256.5,-123.2967 260.0001,-113.2967 253.0001,-113.2966"/>
</g>
<!-- Node10 -->
<g id="node7" class="node">
<title>Node10</title>
<g id="a_node7"><a xlink:href="paths_8cpp.html" target="_top" xlink:title=" ">
<polygon fill="none" stroke="#000000" points="354,-62 354,-81 483,-81 483,-62 354,-62"/>
<text text-anchor="middle" x="418.5" y="-69" font-family="Helvetica,sans-Serif" font-size="10.00" fill="#000000">utils/paths.cpp</text>
</a>
</g>
</g>
<!-- Node4&#45;&gt;Node10 -->
<g id="edge6" class="edge">
<title>Node4&#45;&gt;Node10</title>
<path fill="none" stroke="#191970" d="M302.3816,-119.5243C332.6883,-106.99 371.1292,-91.0916 395.2786,-81.1039"/>
<polygon fill="#191970" stroke="#191970" points="300.7592,-116.4077 292.856,-123.4639 303.4345,-122.8763 300.7592,-116.4077"/>
</g>
<!-- Node7 -->
<g id="node4" class="node">
<title>Node7</title>
<g id="a_node4"><a xlink:href="main_8cpp.html" target="_top" xlink:title=" ">
<polygon fill="none" stroke="#000000" points="63,-.5 63,-19.5 170,-19.5 170,-.5 63,-.5"/>
<text text-anchor="middle" x="116.5" y="-7.5" font-family="Helvetica,sans-Serif" font-size="10.00" fill="#000000">soe/main.cpp</text>
</a>
</g>
</g>
<!-- Node6&#45;&gt;Node7 -->
<g id="edge3" class="edge">
<title>Node6&#45;&gt;Node7</title>
<path fill="none" stroke="#191970" d="M213.0184,-52.3992C188.1739,-41.4853 158.0994,-28.274 138.195,-19.5303"/>
<polygon fill="#191970" stroke="#191970" points="211.6889,-55.6379 222.2521,-56.4554 214.5043,-49.229 211.6889,-55.6379"/>
</g>
<!-- Node8 -->
<g id="node5" class="node">
<title>Node8</title>
<g id="a_node5"><a xlink:href="config_8cpp.html" target="_top" xlink:title=" ">
<polygon fill="none" stroke="#000000" points="188,-.5 188,-19.5 325,-19.5 325,-.5 188,-.5"/>
<text text-anchor="middle" x="256.5" y="-7.5" font-family="Helvetica,sans-Serif" font-size="10.00" fill="#000000">utils/config.cpp</text>
</a>
</g>
</g>
<!-- Node6&#45;&gt;Node8 -->
<g id="edge4" class="edge">
<title>Node6&#45;&gt;Node8</title>
<path fill="none" stroke="#191970" d="M256.5,-46.2849C256.5,-36.9858 256.5,-26.9883 256.5,-19.8469"/>
<polygon fill="#191970" stroke="#191970" points="253.0001,-46.2977 256.5,-56.2977 260.0001,-46.2978 253.0001,-46.2977"/>
</g>
<!-- Node9 -->
<g id="node6" class="node">
<title>Node9</title>
<g id="a_node6"><a xlink:href="config_8test_8cpp.html" target="_top" xlink:title=" ">
<polygon fill="none" stroke="#000000" points="343.5,-.5 343.5,-19.5 517.5,-19.5 517.5,-.5 343.5,-.5"/>
<text text-anchor="middle" x="430.5" y="-7.5" font-family="Helvetica,sans-Serif" font-size="10.00" fill="#000000">utils/config.test.cpp</text>
</a>
</g>
</g>
<!-- Node6&#45;&gt;Node9 -->
<g id="edge5" class="edge">
<title>Node6&#45;&gt;Node9</title>
<path fill="none" stroke="#191970" d="M308.5107,-53.1169C339.7668,-42.0695 378.2529,-28.4666 403.5362,-19.5303"/>
<polygon fill="#191970" stroke="#191970" points="307.3272,-49.8229 299.0652,-56.4554 309.66,-56.4228 307.3272,-49.8229"/>
</g>
</g>
</svg>
