<?xml version="1.0" encoding="UTF-8" standalone="no"?>
<!DOCTYPE svg PUBLIC "-//W3C//DTD SVG 1.1//EN"
 "http://www.w3.org/Graphics/SVG/1.1/DTD/svg11.dtd">
<!-- Generated by graphviz version 2.40.1 (0)
 -->
<!-- Title: libsoe/include/soe/farneback_settings.h Pages: 1 -->
<svg width="499pt" height="173pt"
 viewBox="0.00 0.00 499.00 173.00" xmlns="http://www.w3.org/2000/svg" xmlns:xlink="http://www.w3.org/1999/xlink">
<g id="graph0" class="graph" transform="scale(1 1) rotate(0) translate(4 169)">
<title>libsoe/include/soe/farneback_settings.h</title>
<!-- Node2 -->
<g id="node1" class="node">
<title>Node2</title>
<g id="a_node1"><a xlink:title=" ">
<polygon fill="#bfbfbf" stroke="#000000" points="165.5,-134.5 165.5,-164.5 339.5,-164.5 339.5,-134.5 165.5,-134.5"/>
<text text-anchor="start" x="173.5" y="-152.5" font-family="Helvetica,sans-Serif" font-size="10.00" fill="#000000">libsoe/include/soe</text>
<text text-anchor="middle" x="252.5" y="-141.5" font-family="Helvetica,sans-Serif" font-size="10.00" fill="#000000">/farneback_settings.h</text>
</a>
</g>
</g>
<!-- Node3 -->
<g id="node2" class="node">
<title>Node3</title>
<g id="a_node2"><a xlink:href="frame__stream_8h.html" target="_top" xlink:title=" ">
<polygon fill="none" stroke="#000000" points="87.5,-67.5 87.5,-97.5 239.5,-97.5 239.5,-67.5 87.5,-67.5"/>
<text text-anchor="start" x="95.5" y="-85.5" font-family="Helvetica,sans-Serif" font-size="10.00" fill="#000000">libsoe/include/soe</text>
<text text-anchor="middle" x="163.5" y="-74.5" font-family="Helvetica,sans-Serif" font-size="10.00" fill="#000000">/frame_stream.h</text>
</a>
</g>
</g>
<!-- Node2&#45;&gt;Node3 -->
<g id="edge1" class="edge">
<title>Node2&#45;&gt;Node3</title>
<path fill="none" stroke="#191970" d="M224.0257,-128.0643C210.8662,-118.1577 195.5487,-106.6265 183.6156,-97.6432"/>
<polygon fill="#191970" stroke="#191970" points="222.2103,-131.0785 232.3045,-134.2967 226.4203,-125.486 222.2103,-131.0785"/>
</g>
<!-- Node6 -->
<g id="node5" class="node">
<title>Node6</title>
<g id="a_node5"><a xlink:href="frame__stream__cuda_8h.html" target="_top" xlink:title=" ">
<polygon fill="none" stroke="#000000" points="258,-67.5 258,-97.5 425,-97.5 425,-67.5 258,-67.5"/>
<text text-anchor="start" x="266" y="-85.5" font-family="Helvetica,sans-Serif" font-size="10.00" fill="#000000">libsoe/include/soe</text>
<text text-anchor="middle" x="341.5" y="-74.5" font-family="Helvetica,sans-Serif" font-size="10.00" fill="#000000">/frame_stream_cuda.h</text>
</a>
</g>
</g>
<!-- Node2&#45;&gt;Node6 -->
<g id="edge4" class="edge">
<title>Node2&#45;&gt;Node6</title>
<path fill="none" stroke="#191970" d="M280.9743,-128.0643C294.1338,-118.1577 309.4513,-106.6265 321.3844,-97.6432"/>
<polygon fill="#191970" stroke="#191970" points="278.5797,-125.486 272.6955,-134.2967 282.7897,-131.0785 278.5797,-125.486"/>
</g>
<!-- Node4 -->
<g id="node3" class="node">
<title>Node4</title>
<g id="a_node3"><a xlink:href="frame__stream_8cpp.html" target="_top" xlink:title=" ">
<polygon fill="none" stroke="#000000" points="0,-6 0,-25 189,-25 189,-6 0,-6"/>
<text text-anchor="middle" x="94.5" y="-13" font-family="Helvetica,sans-Serif" font-size="10.00" fill="#000000">libsoe/frame_stream.cpp</text>
</a>
</g>
</g>
<!-- Node3&#45;&gt;Node4 -->
<g id="edge2" class="edge">
<title>Node3&#45;&gt;Node4</title>
<path fill="none" stroke="#191970" d="M140.5377,-60.2032C128.2414,-48.2634 113.7352,-34.1776 104.3402,-25.055"/>
<polygon fill="#191970" stroke="#191970" points="138.2303,-62.8413 147.8428,-67.2967 143.1068,-57.8193 138.2303,-62.8413"/>
</g>
<!-- Node5 -->
<g id="node4" class="node">
<title>Node5</title>
<g id="a_node4"><a xlink:href="main_8cpp.html" target="_top" xlink:title=" ">
<polygon fill="none" stroke="#000000" points="207,-6 207,-25 314,-25 314,-6 207,-6"/>
<text text-anchor="middle" x="260.5" y="-13" font-family="Helvetica,sans-Serif" font-size="10.00" fill="#000000">soe/main.cpp</text>
</a>
</g>
</g>
<!-- Node3&#45;&gt;Node5 -->
<g id="edge3" class="edge">
<title>Node3&#45;&gt;Node5</title>
<path fill="none" stroke="#191970" d="M193.8373,-61.5454C211.5172,-49.3335 232.9608,-34.5219 246.6667,-25.055"/>
<polygon fill="#191970" stroke="#191970" points="191.7497,-58.7335 185.5108,-67.2967 195.728,-64.4932 191.7497,-58.7335"/>
</g>
<!-- Node6&#45;&gt;Node5 -->
<g id="edge6" class="edge">
<title>Node6&#45;&gt;Node5</title>
<path fill="none" stroke="#191970" d="M315.3585,-60.8767C300.7542,-48.7967 283.2885,-34.3498 272.0515,-25.055"/>
<polygon fill="#191970" stroke="#191970" points="313.1835,-63.6198 323.1198,-67.2967 317.6451,-58.2259 313.1835,-63.6198"/>
</g>
<!-- Node7 -->
<g id="node6" class="node">
<title>Node7</title>
<g id="a_node6"><a xlink:href="frame__stream__cuda_8cpp.html" target="_top" xlink:title=" ">
<polygon fill="none" stroke="#000000" points="332,-.5 332,-30.5 491,-30.5 491,-.5 332,-.5"/>
<text text-anchor="start" x="340" y="-18.5" font-family="Helvetica,sans-Serif" font-size="10.00" fill="#000000">libsoe/frame_stream</text>
<text text-anchor="middle" x="411.5" y="-7.5" font-family="Helvetica,sans-Serif" font-size="10.00" fill="#000000">_cuda.cpp</text>
</a>
</g>
</g>
<!-- Node6&#45;&gt;Node7 -->
<g id="edge5" class="edge">
<title>Node6&#45;&gt;Node7</title>
<path fill="none" stroke="#191970" d="M364.7867,-60.2113C374.9319,-50.5009 386.5614,-39.3698 395.6788,-30.6432"/>
<polygon fill="#191970" stroke="#191970" points="362.1882,-57.8536 357.3841,-67.2967 367.0284,-62.9105 362.1882,-57.8536"/>
</g>
</g>
</svg>
