<?xml version="1.0" encoding="UTF-8" standalone="no"?>
<!DOCTYPE svg PUBLIC "-//W3C//DTD SVG 1.1//EN"
 "http://www.w3.org/Graphics/SVG/1.1/DTD/svg11.dtd">
<!-- Generated by graphviz version 2.40.1 (0)
 -->
<!-- Title: libsoe/include/soe/frame_stream.h Pages: 1 -->
<svg width="405pt" height="151pt"
 viewBox="0.00 0.00 404.50 151.00" xmlns="http://www.w3.org/2000/svg" xmlns:xlink="http://www.w3.org/1999/xlink">
<g id="graph0" class="graph" transform="scale(1 1) rotate(0) translate(4 147)">
<title>libsoe/include/soe/frame_stream.h</title>
<!-- Node0 -->
<g id="node1" class="node">
<title>Node0</title>
<g id="a_node1"><a xlink:title=" ">
<polygon fill="#bfbfbf" stroke="#000000" points="157,-112.5 157,-142.5 309,-142.5 309,-112.5 157,-112.5"/>
<text text-anchor="start" x="165" y="-130.5" font-family="Helvetica,sans-Serif" font-size="10.00" fill="#000000">libsoe/include/soe</text>
<text text-anchor="middle" x="233" y="-119.5" font-family="Helvetica,sans-Serif" font-size="10.00" fill="#000000">/frame_stream.h</text>
</a>
</g>
</g>
<!-- Node1 -->
<g id="node2" class="node">
<title>Node1</title>
<g id="a_node2"><a xlink:href="farneback__settings_8h.html" target="_top" xlink:title=" ">
<polygon fill="none" stroke="#000000" points="7.5,-56.5 7.5,-75.5 204.5,-75.5 204.5,-56.5 7.5,-56.5"/>
<text text-anchor="middle" x="106" y="-63.5" font-family="Helvetica,sans-Serif" font-size="10.00" fill="#000000">soe/farneback_settings.h</text>
</a>
</g>
</g>
<!-- Node0&#45;&gt;Node1 -->
<g id="edge1" class="edge">
<title>Node0&#45;&gt;Node1</title>
<path fill="none" stroke="#191970" d="M201.9323,-112.4554C181.4855,-102.554 154.9063,-89.683 134.9115,-80.0004"/>
<polygon fill="#191970" stroke="#191970" points="136.2062,-76.7387 125.6805,-75.5303 133.1553,-83.0388 136.2062,-76.7387"/>
</g>
<!-- Node2 -->
<g id="node3" class="node">
<title>Node2</title>
<g id="a_node3"><a xlink:title=" ">
<polygon fill="none" stroke="#bfbfbf" points="0,-.5 0,-19.5 212,-19.5 212,-.5 0,-.5"/>
<text text-anchor="middle" x="106" y="-7.5" font-family="Helvetica,sans-Serif" font-size="10.00" fill="#000000">opencv2/video/tracking.hpp</text>
</a>
</g>
</g>
<!-- Node0&#45;&gt;Node2 -->
<g id="edge5" class="edge">
<title>Node0&#45;&gt;Node2</title>
<path fill="none" stroke="#191970" d="M232.727,-112.3123C231.6633,-96.4833 227.709,-71.823 214,-56 200.3005,-40.1879 180.2214,-29.6603 161.0821,-22.7216"/>
<polygon fill="#191970" stroke="#191970" points="162.0911,-19.3684 151.4971,-19.5038 159.8633,-26.0044 162.0911,-19.3684"/>
</g>
<!-- Node3 -->
<g id="node4" class="node">
<title>Node3</title>
<g id="a_node4"><a xlink:href="frame_8h.html" target="_top" xlink:title=" ">
<polygon fill="none" stroke="#000000" points="262.5,-56.5 262.5,-75.5 361.5,-75.5 361.5,-56.5 262.5,-56.5"/>
<text text-anchor="middle" x="312" y="-63.5" font-family="Helvetica,sans-Serif" font-size="10.00" fill="#000000">soe/frame.h</text>
</a>
</g>
</g>
<!-- Node0&#45;&gt;Node3 -->
<g id="edge3" class="edge">
<title>Node0&#45;&gt;Node3</title>
<path fill="none" stroke="#191970" d="M252.5281,-112.2977C264.2937,-103.1384 279.2675,-91.4816 291.2465,-82.1562"/>
<polygon fill="#191970" stroke="#191970" points="293.6103,-84.7516 299.3511,-75.8469 289.3102,-79.228 293.6103,-84.7516"/>
</g>
<!-- Node1&#45;&gt;Node2 -->
<g id="edge2" class="edge">
<title>Node1&#45;&gt;Node2</title>
<path fill="none" stroke="#191970" d="M106,-56.2455C106,-48.9382 106,-38.6944 106,-29.7046"/>
<polygon fill="#191970" stroke="#191970" points="109.5001,-29.6426 106,-19.6427 102.5001,-29.6427 109.5001,-29.6426"/>
</g>
<!-- Node4 -->
<g id="node5" class="node">
<title>Node4</title>
<g id="a_node5"><a xlink:title=" ">
<polygon fill="none" stroke="#bfbfbf" points="229.5,-.5 229.5,-19.5 396.5,-19.5 396.5,-.5 229.5,-.5"/>
<text text-anchor="middle" x="313" y="-7.5" font-family="Helvetica,sans-Serif" font-size="10.00" fill="#000000">opencv2/core/mat.hpp</text>
</a>
</g>
</g>
<!-- Node3&#45;&gt;Node4 -->
<g id="edge4" class="edge">
<title>Node3&#45;&gt;Node4</title>
<path fill="none" stroke="#191970" d="M312.1742,-56.2455C312.3047,-48.9382 312.4876,-38.6944 312.6481,-29.7046"/>
<polygon fill="#191970" stroke="#191970" points="316.1486,-29.7036 312.8278,-19.6427 309.1497,-29.5786 316.1486,-29.7036"/>
</g>
</g>
</svg>
