<?xml version="1.0" encoding="UTF-8" standalone="no"?>
<!DOCTYPE svg PUBLIC "-//W3C//DTD SVG 1.1//EN"
 "http://www.w3.org/Graphics/SVG/1.1/DTD/svg11.dtd">
<!-- Generated by graphviz version 2.40.1 (0)
 -->
<!-- Title: libsoe/frame_stream_cuda.cpp Pages: 1 -->
<svg width="1151pt" height="207pt"
 viewBox="0.00 0.00 1150.50 207.00" xmlns="http://www.w3.org/2000/svg" xmlns:xlink="http://www.w3.org/1999/xlink">
<g id="graph0" class="graph" transform="scale(1 1) rotate(0) translate(4 203)">
<title>libsoe/frame_stream_cuda.cpp</title>
<!-- Node0 -->
<g id="node1" class="node">
<title>Node0</title>
<g id="a_node1"><a xlink:title=" ">
<polygon fill="#bfbfbf" stroke="#000000" points="668.5,-168.5 668.5,-198.5 827.5,-198.5 827.5,-168.5 668.5,-168.5"/>
<text text-anchor="start" x="676.5" y="-186.5" font-family="Helvetica,sans-Serif" font-size="10.00" fill="#000000">libsoe/frame_stream</text>
<text text-anchor="middle" x="748" y="-175.5" font-family="Helvetica,sans-Serif" font-size="10.00" fill="#000000">_cuda.cpp</text>
</a>
</g>
</g>
<!-- Node1 -->
<g id="node2" class="node">
<title>Node1</title>
<g id="a_node2"><a xlink:href="frame__stream__cuda_8h.html" target="_top" xlink:title=" ">
<polygon fill="none" stroke="#000000" points="369.5,-112.5 369.5,-131.5 558.5,-131.5 558.5,-112.5 369.5,-112.5"/>
<text text-anchor="middle" x="464" y="-119.5" font-family="Helvetica,sans-Serif" font-size="10.00" fill="#000000">soe/frame_stream_cuda.h</text>
</a>
</g>
</g>
<!-- Node0&#45;&gt;Node1 -->
<g id="edge1" class="edge">
<title>Node0&#45;&gt;Node1</title>
<path fill="none" stroke="#191970" d="M678.5258,-168.4554C629.0613,-157.7439 563.5473,-143.5569 517.9887,-133.6912"/>
<polygon fill="#191970" stroke="#191970" points="518.5242,-130.2261 508.0099,-131.5303 517.0426,-137.0675 518.5242,-130.2261"/>
</g>
<!-- Node8 -->
<g id="node9" class="node">
<title>Node8</title>
<g id="a_node9"><a xlink:href="flow__to__map_8h.html" target="_top" xlink:title=" ">
<polygon fill="none" stroke="#000000" points="584,-112.5 584,-131.5 728,-131.5 728,-112.5 584,-112.5"/>
<text text-anchor="middle" x="656" y="-119.5" font-family="Helvetica,sans-Serif" font-size="10.00" fill="#000000">soe/flow_to_map.h</text>
</a>
</g>
</g>
<!-- Node0&#45;&gt;Node8 -->
<g id="edge8" class="edge">
<title>Node0&#45;&gt;Node8</title>
<path fill="none" stroke="#191970" d="M725.2584,-168.2977C711.2033,-158.9022 693.217,-146.8787 679.0964,-137.4395"/>
<polygon fill="#191970" stroke="#191970" points="680.7143,-134.311 670.4556,-131.6633 676.8241,-140.1305 680.7143,-134.311"/>
</g>
<!-- Node9 -->
<g id="node10" class="node">
<title>Node9</title>
<g id="a_node10"><a xlink:title=" ">
<polygon fill="none" stroke="#bfbfbf" points="746.5,-112.5 746.5,-131.5 935.5,-131.5 935.5,-112.5 746.5,-112.5"/>
<text text-anchor="middle" x="841" y="-119.5" font-family="Helvetica,sans-Serif" font-size="10.00" fill="#000000">opencv2/cudaimgproc.hpp</text>
</a>
</g>
</g>
<!-- Node0&#45;&gt;Node9 -->
<g id="edge10" class="edge">
<title>Node0&#45;&gt;Node9</title>
<path fill="none" stroke="#191970" d="M770.9888,-168.2977C785.1966,-158.9022 803.3785,-146.8787 817.6525,-137.4395"/>
<polygon fill="#191970" stroke="#191970" points="819.9767,-140.0986 826.3872,-131.6633 816.1155,-134.2598 819.9767,-140.0986"/>
</g>
<!-- Node10 -->
<g id="node11" class="node">
<title>Node10</title>
<g id="a_node11"><a xlink:title=" ">
<polygon fill="none" stroke="#bfbfbf" points="953.5,-112.5 953.5,-131.5 1142.5,-131.5 1142.5,-112.5 953.5,-112.5"/>
<text text-anchor="middle" x="1048" y="-119.5" font-family="Helvetica,sans-Serif" font-size="10.00" fill="#000000">opencv2/cudawarping.hpp</text>
</a>
</g>
</g>
<!-- Node0&#45;&gt;Node10 -->
<g id="edge11" class="edge">
<title>Node0&#45;&gt;Node10</title>
<path fill="none" stroke="#191970" d="M821.3883,-168.4554C873.859,-157.6989 943.4263,-143.4376 991.5752,-133.5671"/>
<polygon fill="#191970" stroke="#191970" points="992.4173,-136.9673 1001.5106,-131.5303 991.0115,-130.1099 992.4173,-136.9673"/>
</g>
<!-- Node2 -->
<g id="node3" class="node">
<title>Node2</title>
<g id="a_node3"><a xlink:href="farneback__settings_8h.html" target="_top" xlink:title=" ">
<polygon fill="none" stroke="#000000" points="27.5,-56.5 27.5,-75.5 224.5,-75.5 224.5,-56.5 27.5,-56.5"/>
<text text-anchor="middle" x="126" y="-63.5" font-family="Helvetica,sans-Serif" font-size="10.00" fill="#000000">soe/farneback_settings.h</text>
</a>
</g>
</g>
<!-- Node1&#45;&gt;Node2 -->
<g id="edge2" class="edge">
<title>Node1&#45;&gt;Node2</title>
<path fill="none" stroke="#191970" d="M406.2798,-112.4369C347.34,-102.6717 255.893,-87.5207 193.6034,-77.2006"/>
<polygon fill="#191970" stroke="#191970" points="193.9198,-73.7053 183.4822,-75.5237 192.7756,-80.6112 193.9198,-73.7053"/>
</g>
<!-- Node4 -->
<g id="node5" class="node">
<title>Node4</title>
<g id="a_node5"><a xlink:href="frame_8h.html" target="_top" xlink:title=" ">
<polygon fill="none" stroke="#000000" points="252.5,-56.5 252.5,-75.5 351.5,-75.5 351.5,-56.5 252.5,-56.5"/>
<text text-anchor="middle" x="302" y="-63.5" font-family="Helvetica,sans-Serif" font-size="10.00" fill="#000000">soe/frame.h</text>
</a>
</g>
</g>
<!-- Node1&#45;&gt;Node4 -->
<g id="edge4" class="edge">
<title>Node1&#45;&gt;Node4</title>
<path fill="none" stroke="#191970" d="M436.1512,-112.3733C409.3297,-103.1016 368.5873,-89.0178 339.0402,-78.804"/>
<polygon fill="#191970" stroke="#191970" points="340.0802,-75.4603 329.4854,-75.5011 337.7931,-82.0762 340.0802,-75.4603"/>
</g>
<!-- Node6 -->
<g id="node7" class="node">
<title>Node6</title>
<g id="a_node7"><a xlink:title=" ">
<polygon fill="none" stroke="#bfbfbf" points="577,-56.5 577,-75.5 751,-75.5 751,-56.5 577,-56.5"/>
<text text-anchor="middle" x="664" y="-63.5" font-family="Helvetica,sans-Serif" font-size="10.00" fill="#000000">opencv2/core/cuda.hpp</text>
</a>
</g>
</g>
<!-- Node1&#45;&gt;Node6 -->
<g id="edge6" class="edge">
<title>Node1&#45;&gt;Node6</title>
<path fill="none" stroke="#191970" d="M498.3812,-112.3733C532.0701,-102.9404 583.5482,-88.5265 620.1618,-78.2747"/>
<polygon fill="#191970" stroke="#191970" points="621.3815,-81.5679 630.0674,-75.5011 619.494,-74.8271 621.3815,-81.5679"/>
</g>
<!-- Node7 -->
<g id="node8" class="node">
<title>Node7</title>
<g id="a_node8"><a xlink:title=" ">
<polygon fill="none" stroke="#bfbfbf" points="369.5,-56.5 369.5,-75.5 558.5,-75.5 558.5,-56.5 369.5,-56.5"/>
<text text-anchor="middle" x="464" y="-63.5" font-family="Helvetica,sans-Serif" font-size="10.00" fill="#000000">opencv2/cudaoptflow.hpp</text>
</a>
</g>
</g>
<!-- Node1&#45;&gt;Node7 -->
<g id="edge7" class="edge">
<title>Node1&#45;&gt;Node7</title>
<path fill="none" stroke="#191970" d="M464,-112.2455C464,-104.9382 464,-94.6944 464,-85.7046"/>
<polygon fill="#191970" stroke="#191970" points="467.5001,-85.6426 464,-75.6427 460.5001,-85.6427 467.5001,-85.6426"/>
</g>
<!-- Node3 -->
<g id="node4" class="node">
<title>Node3</title>
<g id="a_node4"><a xlink:title=" ">
<polygon fill="none" stroke="#bfbfbf" points="0,-.5 0,-19.5 212,-19.5 212,-.5 0,-.5"/>
<text text-anchor="middle" x="106" y="-7.5" font-family="Helvetica,sans-Serif" font-size="10.00" fill="#000000">opencv2/video/tracking.hpp</text>
</a>
</g>
</g>
<!-- Node2&#45;&gt;Node3 -->
<g id="edge3" class="edge">
<title>Node2&#45;&gt;Node3</title>
<path fill="none" stroke="#191970" d="M122.5163,-56.2455C119.8492,-48.7776 116.0867,-38.2427 112.8263,-29.1137"/>
<polygon fill="#191970" stroke="#191970" points="116.1033,-27.8829 109.4438,-19.6427 109.5111,-30.2373 116.1033,-27.8829"/>
</g>
<!-- Node5 -->
<g id="node6" class="node">
<title>Node5</title>
<g id="a_node6"><a xlink:title=" ">
<polygon fill="none" stroke="#bfbfbf" points="229.5,-.5 229.5,-19.5 396.5,-19.5 396.5,-.5 229.5,-.5"/>
<text text-anchor="middle" x="313" y="-7.5" font-family="Helvetica,sans-Serif" font-size="10.00" fill="#000000">opencv2/core/mat.hpp</text>
</a>
</g>
</g>
<!-- Node4&#45;&gt;Node5 -->
<g id="edge5" class="edge">
<title>Node4&#45;&gt;Node5</title>
<path fill="none" stroke="#191970" d="M303.9161,-56.2455C305.3514,-48.9382 307.3636,-38.6944 309.1295,-29.7046"/>
<polygon fill="#191970" stroke="#191970" points="312.6127,-30.1298 311.1059,-19.6427 305.744,-28.7805 312.6127,-30.1298"/>
</g>
<!-- Node8&#45;&gt;Node6 -->
<g id="edge9" class="edge">
<title>Node8&#45;&gt;Node6</title>
<path fill="none" stroke="#191970" d="M657.3935,-112.2455C658.4374,-104.9382 659.9008,-94.6944 661.1851,-85.7046"/>
<polygon fill="#191970" stroke="#191970" points="664.673,-86.0372 662.6225,-75.6427 657.7434,-85.0472 664.673,-86.0372"/>
</g>
</g>
</svg>
