<?xml version="1.0" encoding="UTF-8" standalone="no"?>
<!DOCTYPE svg PUBLIC "-//W3C//DTD SVG 1.1//EN"
 "http://www.w3.org/Graphics/SVG/1.1/DTD/svg11.dtd">
<!-- Generated by graphviz version 2.40.1 (0)
 -->
<!-- Title: libsoe/frame_stream_cuda.cpp Pages: 1 -->
<svg width="1428pt" height="207pt"
 viewBox="0.00 0.00 1427.50 207.00" xmlns="http://www.w3.org/2000/svg" xmlns:xlink="http://www.w3.org/1999/xlink">
<g id="graph0" class="graph" transform="scale(1 1) rotate(0) translate(4 203)">
<title>libsoe/frame_stream_cuda.cpp</title>
<!-- Node0 -->
<g id="node1" class="node">
<title>Node0</title>
<g id="a_node1"><a xlink:title=" ">
<polygon fill="#bfbfbf" stroke="#000000" points="834.5,-168.5 834.5,-198.5 993.5,-198.5 993.5,-168.5 834.5,-168.5"/>
<text text-anchor="start" x="842.5" y="-186.5" font-family="Helvetica,sans-Serif" font-size="10.00" fill="#000000">libsoe/frame_stream</text>
<text text-anchor="middle" x="914" y="-175.5" font-family="Helvetica,sans-Serif" font-size="10.00" fill="#000000">_cuda.cpp</text>
</a>
</g>
</g>
<!-- Node1 -->
<g id="node2" class="node">
<title>Node1</title>
<g id="a_node2"><a xlink:href="frame__stream__cuda_8h.html" target="_top" xlink:title=" ">
<polygon fill="none" stroke="#000000" points="405.5,-112.5 405.5,-131.5 594.5,-131.5 594.5,-112.5 405.5,-112.5"/>
<text text-anchor="middle" x="500" y="-119.5" font-family="Helvetica,sans-Serif" font-size="10.00" fill="#000000">soe/frame_stream_cuda.h</text>
</a>
</g>
</g>
<!-- Node0&#45;&gt;Node1 -->
<g id="edge1" class="edge">
<title>Node0&#45;&gt;Node1</title>
<path fill="none" stroke="#191970" d="M834.1766,-171.6422C758.9984,-160.4744 647.2807,-143.8787 574.0484,-132.9999"/>
<polygon fill="#191970" stroke="#191970" points="574.384,-129.5115 563.9783,-131.504 573.3554,-136.4355 574.384,-129.5115"/>
</g>
<!-- Node9 -->
<g id="node10" class="node">
<title>Node9</title>
<g id="a_node10"><a xlink:href="flow__to__map_8h.html" target="_top" xlink:title=" ">
<polygon fill="none" stroke="#000000" points="661,-112.5 661,-131.5 805,-131.5 805,-112.5 661,-112.5"/>
<text text-anchor="middle" x="733" y="-119.5" font-family="Helvetica,sans-Serif" font-size="10.00" fill="#000000">soe/flow_to_map.h</text>
</a>
</g>
</g>
<!-- Node0&#45;&gt;Node9 -->
<g id="edge9" class="edge">
<title>Node0&#45;&gt;Node9</title>
<path fill="none" stroke="#191970" d="M869.7224,-168.4554C839.3896,-158.149 799.5871,-144.6249 770.7556,-134.8286"/>
<polygon fill="#191970" stroke="#191970" points="771.643,-131.4336 761.0486,-131.5303 769.3909,-138.0615 771.643,-131.4336"/>
</g>
<!-- Node10 -->
<g id="node11" class="node">
<title>Node10</title>
<g id="a_node11"><a xlink:title=" ">
<polygon fill="none" stroke="#bfbfbf" points="823,-112.5 823,-131.5 1005,-131.5 1005,-112.5 823,-112.5"/>
<text text-anchor="middle" x="914" y="-119.5" font-family="Helvetica,sans-Serif" font-size="10.00" fill="#000000">opencv2/cudaarithm.hpp</text>
</a>
</g>
</g>
<!-- Node0&#45;&gt;Node10 -->
<g id="edge11" class="edge">
<title>Node0&#45;&gt;Node10</title>
<path fill="none" stroke="#191970" d="M914,-168.2977C914,-160.3834 914,-150.6043 914,-142.0759"/>
<polygon fill="#191970" stroke="#191970" points="917.5001,-141.8469 914,-131.8469 910.5001,-141.847 917.5001,-141.8469"/>
</g>
<!-- Node11 -->
<g id="node12" class="node">
<title>Node11</title>
<g id="a_node12"><a xlink:title=" ">
<polygon fill="none" stroke="#bfbfbf" points="1023.5,-112.5 1023.5,-131.5 1212.5,-131.5 1212.5,-112.5 1023.5,-112.5"/>
<text text-anchor="middle" x="1118" y="-119.5" font-family="Helvetica,sans-Serif" font-size="10.00" fill="#000000">opencv2/cudaimgproc.hpp</text>
</a>
</g>
</g>
<!-- Node0&#45;&gt;Node11 -->
<g id="edge12" class="edge">
<title>Node0&#45;&gt;Node11</title>
<path fill="none" stroke="#191970" d="M963.904,-168.4554C998.5391,-158.0139 1044.1288,-144.27 1076.7174,-134.4455"/>
<polygon fill="#191970" stroke="#191970" points="1077.8231,-137.7678 1086.3872,-131.5303 1075.8026,-131.0657 1077.8231,-137.7678"/>
</g>
<!-- Node12 -->
<g id="node13" class="node">
<title>Node12</title>
<g id="a_node13"><a xlink:title=" ">
<polygon fill="none" stroke="#bfbfbf" points="1230.5,-112.5 1230.5,-131.5 1419.5,-131.5 1419.5,-112.5 1230.5,-112.5"/>
<text text-anchor="middle" x="1325" y="-119.5" font-family="Helvetica,sans-Serif" font-size="10.00" fill="#000000">opencv2/cudawarping.hpp</text>
</a>
</g>
</g>
<!-- Node0&#45;&gt;Node12 -->
<g id="edge13" class="edge">
<title>Node0&#45;&gt;Node12</title>
<path fill="none" stroke="#191970" d="M993.7323,-171.5693C1068.3101,-160.4098 1178.7951,-143.8774 1251.3409,-133.022"/>
<polygon fill="#191970" stroke="#191970" points="1251.946,-136.4705 1261.3179,-131.5291 1250.9101,-129.5476 1251.946,-136.4705"/>
</g>
<!-- Node2 -->
<g id="node3" class="node">
<title>Node2</title>
<g id="a_node3"><a xlink:href="farneback__settings_8h.html" target="_top" xlink:title=" ">
<polygon fill="none" stroke="#000000" points="27.5,-56.5 27.5,-75.5 224.5,-75.5 224.5,-56.5 27.5,-56.5"/>
<text text-anchor="middle" x="126" y="-63.5" font-family="Helvetica,sans-Serif" font-size="10.00" fill="#000000">soe/farneback_settings.h</text>
</a>
</g>
</g>
<!-- Node1&#45;&gt;Node2 -->
<g id="edge2" class="edge">
<title>Node1&#45;&gt;Node2</title>
<path fill="none" stroke="#191970" d="M436.1321,-112.4369C370.5112,-102.6113 268.4746,-87.3331 199.5285,-77.0096"/>
<polygon fill="#191970" stroke="#191970" points="200.0126,-73.5432 189.6045,-75.5237 198.976,-80.466 200.0126,-73.5432"/>
</g>
<!-- Node4 -->
<g id="node5" class="node">
<title>Node4</title>
<g id="a_node5"><a xlink:href="frame_8h.html" target="_top" xlink:title=" ">
<polygon fill="none" stroke="#000000" points="252.5,-56.5 252.5,-75.5 351.5,-75.5 351.5,-56.5 252.5,-56.5"/>
<text text-anchor="middle" x="302" y="-63.5" font-family="Helvetica,sans-Serif" font-size="10.00" fill="#000000">soe/frame.h</text>
</a>
</g>
</g>
<!-- Node1&#45;&gt;Node4 -->
<g id="edge4" class="edge">
<title>Node1&#45;&gt;Node4</title>
<path fill="none" stroke="#191970" d="M465.9626,-112.3733C432.6106,-102.9404 381.6473,-88.5265 345.3998,-78.2747"/>
<polygon fill="#191970" stroke="#191970" points="346.1684,-74.8548 335.5933,-75.5011 344.2632,-81.5906 346.1684,-74.8548"/>
</g>
<!-- Node6 -->
<g id="node7" class="node">
<title>Node6</title>
<g id="a_node7"><a xlink:href="vec_8h.html" target="_top" xlink:title=" ">
<polygon fill="none" stroke="#000000" points="369.5,-56.5 369.5,-75.5 468.5,-75.5 468.5,-56.5 369.5,-56.5"/>
<text text-anchor="middle" x="419" y="-63.5" font-family="Helvetica,sans-Serif" font-size="10.00" fill="#000000">utils/vec.h</text>
</a>
</g>
</g>
<!-- Node1&#45;&gt;Node6 -->
<g id="edge6" class="edge">
<title>Node1&#45;&gt;Node6</title>
<path fill="none" stroke="#191970" d="M485.8909,-112.2455C473.5791,-103.7337 455.5042,-91.2375 441.2462,-81.3801"/>
<polygon fill="#191970" stroke="#191970" points="443.1634,-78.4506 432.9474,-75.6427 439.1826,-84.2085 443.1634,-78.4506"/>
</g>
<!-- Node7 -->
<g id="node8" class="node">
<title>Node7</title>
<g id="a_node8"><a xlink:title=" ">
<polygon fill="none" stroke="#bfbfbf" points="694,-56.5 694,-75.5 868,-75.5 868,-56.5 694,-56.5"/>
<text text-anchor="middle" x="781" y="-63.5" font-family="Helvetica,sans-Serif" font-size="10.00" fill="#000000">opencv2/core/cuda.hpp</text>
</a>
</g>
</g>
<!-- Node1&#45;&gt;Node7 -->
<g id="edge7" class="edge">
<title>Node1&#45;&gt;Node7</title>
<path fill="none" stroke="#191970" d="M547.9863,-112.4369C596.4814,-102.7724 671.4473,-87.8326 723.1879,-77.5213"/>
<polygon fill="#191970" stroke="#191970" points="724.0885,-80.9107 733.2116,-75.5237 722.7203,-74.0457 724.0885,-80.9107"/>
</g>
<!-- Node8 -->
<g id="node9" class="node">
<title>Node8</title>
<g id="a_node9"><a xlink:title=" ">
<polygon fill="none" stroke="#bfbfbf" points="486.5,-56.5 486.5,-75.5 675.5,-75.5 675.5,-56.5 486.5,-56.5"/>
<text text-anchor="middle" x="581" y="-63.5" font-family="Helvetica,sans-Serif" font-size="10.00" fill="#000000">opencv2/cudaoptflow.hpp</text>
</a>
</g>
</g>
<!-- Node1&#45;&gt;Node8 -->
<g id="edge8" class="edge">
<title>Node1&#45;&gt;Node8</title>
<path fill="none" stroke="#191970" d="M514.1091,-112.2455C526.4209,-103.7337 544.4958,-91.2375 558.7538,-81.3801"/>
<polygon fill="#191970" stroke="#191970" points="560.8174,-84.2085 567.0526,-75.6427 556.8366,-78.4506 560.8174,-84.2085"/>
</g>
<!-- Node3 -->
<g id="node4" class="node">
<title>Node3</title>
<g id="a_node4"><a xlink:title=" ">
<polygon fill="none" stroke="#bfbfbf" points="0,-.5 0,-19.5 212,-19.5 212,-.5 0,-.5"/>
<text text-anchor="middle" x="106" y="-7.5" font-family="Helvetica,sans-Serif" font-size="10.00" fill="#000000">opencv2/video/tracking.hpp</text>
</a>
</g>
</g>
<!-- Node2&#45;&gt;Node3 -->
<g id="edge3" class="edge">
<title>Node2&#45;&gt;Node3</title>
<path fill="none" stroke="#191970" d="M122.5163,-56.2455C119.8492,-48.7776 116.0867,-38.2427 112.8263,-29.1137"/>
<polygon fill="#191970" stroke="#191970" points="116.1033,-27.8829 109.4438,-19.6427 109.5111,-30.2373 116.1033,-27.8829"/>
</g>
<!-- Node5 -->
<g id="node6" class="node">
<title>Node5</title>
<g id="a_node6"><a xlink:title=" ">
<polygon fill="none" stroke="#bfbfbf" points="229.5,-.5 229.5,-19.5 396.5,-19.5 396.5,-.5 229.5,-.5"/>
<text text-anchor="middle" x="313" y="-7.5" font-family="Helvetica,sans-Serif" font-size="10.00" fill="#000000">opencv2/core/mat.hpp</text>
</a>
</g>
</g>
<!-- Node4&#45;&gt;Node5 -->
<g id="edge5" class="edge">
<title>Node4&#45;&gt;Node5</title>
<path fill="none" stroke="#191970" d="M303.9161,-56.2455C305.3514,-48.9382 307.3636,-38.6944 309.1295,-29.7046"/>
<polygon fill="#191970" stroke="#191970" points="312.6127,-30.1298 311.1059,-19.6427 305.744,-28.7805 312.6127,-30.1298"/>
</g>
<!-- Node9&#45;&gt;Node7 -->
<g id="edge10" class="edge">
<title>Node9&#45;&gt;Node7</title>
<path fill="none" stroke="#191970" d="M741.361,-112.2455C748.175,-104.2958 757.9681,-92.8706 766.1152,-83.3656"/>
<polygon fill="#191970" stroke="#191970" points="768.8843,-85.513 772.7349,-75.6427 763.5695,-80.9575 768.8843,-85.513"/>
</g>
</g>
</svg>
