<?xml version="1.0" encoding="UTF-8" standalone="no"?>
<!DOCTYPE svg PUBLIC "-//W3C//DTD SVG 1.1//EN"
 "http://www.w3.org/Graphics/SVG/1.1/DTD/svg11.dtd">
<!-- Generated by graphviz version 2.40.1 (0)
 -->
<!-- Title: libsoe/frame_stream.cpp Pages: 1 -->
<svg width="555pt" height="196pt"
 viewBox="0.00 0.00 554.50 196.00" xmlns="http://www.w3.org/2000/svg" xmlns:xlink="http://www.w3.org/1999/xlink">
<g id="graph0" class="graph" transform="scale(1 1) rotate(0) translate(4 192)">
<title>libsoe/frame_stream.cpp</title>
<!-- Node0 -->
<g id="node1" class="node">
<title>Node0</title>
<g id="a_node1"><a xlink:title=" ">
<polygon fill="#bfbfbf" stroke="#000000" points="240.5,-168.5 240.5,-187.5 429.5,-187.5 429.5,-168.5 240.5,-168.5"/>
<text text-anchor="middle" x="335" y="-175.5" font-family="Helvetica,sans-Serif" font-size="10.00" fill="#000000">libsoe/frame_stream.cpp</text>
</a>
</g>
</g>
<!-- Node1 -->
<g id="node2" class="node">
<title>Node1</title>
<g id="a_node2"><a xlink:href="frame__stream_8h.html" target="_top" xlink:title=" ">
<polygon fill="none" stroke="#000000" points="157,-112.5 157,-131.5 309,-131.5 309,-112.5 157,-112.5"/>
<text text-anchor="middle" x="233" y="-119.5" font-family="Helvetica,sans-Serif" font-size="10.00" fill="#000000">soe/frame_stream.h</text>
</a>
</g>
</g>
<!-- Node0&#45;&gt;Node1 -->
<g id="edge1" class="edge">
<title>Node0&#45;&gt;Node1</title>
<path fill="none" stroke="#191970" d="M317.233,-168.2455C301.2905,-159.4928 277.6741,-146.527 259.5011,-136.5496"/>
<polygon fill="#191970" stroke="#191970" points="261.0137,-133.3873 250.5634,-131.6427 257.6448,-139.5233 261.0137,-133.3873"/>
</g>
<!-- Node6 -->
<g id="node7" class="node">
<title>Node6</title>
<g id="a_node7"><a xlink:title=" ">
<polygon fill="none" stroke="#bfbfbf" points="327.5,-112.5 327.5,-131.5 546.5,-131.5 546.5,-112.5 327.5,-112.5"/>
<text text-anchor="middle" x="437" y="-119.5" font-family="Helvetica,sans-Serif" font-size="10.00" fill="#000000">opencv2/imgproc/imgproc.hpp</text>
</a>
</g>
</g>
<!-- Node0&#45;&gt;Node6 -->
<g id="edge7" class="edge">
<title>Node0&#45;&gt;Node6</title>
<path fill="none" stroke="#191970" d="M352.767,-168.2455C368.7095,-159.4928 392.3259,-146.527 410.4989,-136.5496"/>
<polygon fill="#191970" stroke="#191970" points="412.3552,-139.5233 419.4366,-131.6427 408.9863,-133.3873 412.3552,-139.5233"/>
</g>
<!-- Node2 -->
<g id="node3" class="node">
<title>Node2</title>
<g id="a_node3"><a xlink:href="farneback__settings_8h.html" target="_top" xlink:title=" ">
<polygon fill="none" stroke="#000000" points="7.5,-56.5 7.5,-75.5 204.5,-75.5 204.5,-56.5 7.5,-56.5"/>
<text text-anchor="middle" x="106" y="-63.5" font-family="Helvetica,sans-Serif" font-size="10.00" fill="#000000">soe/farneback_settings.h</text>
</a>
</g>
</g>
<!-- Node1&#45;&gt;Node2 -->
<g id="edge2" class="edge">
<title>Node1&#45;&gt;Node2</title>
<path fill="none" stroke="#191970" d="M211.1679,-112.3733C190.6897,-103.3435 159.8601,-89.7494 136.8681,-79.6111"/>
<polygon fill="#191970" stroke="#191970" points="138.1093,-76.3333 127.5472,-75.5011 135.285,-82.7383 138.1093,-76.3333"/>
</g>
<!-- Node3 -->
<g id="node4" class="node">
<title>Node3</title>
<g id="a_node4"><a xlink:title=" ">
<polygon fill="none" stroke="#bfbfbf" points="0,-.5 0,-19.5 212,-19.5 212,-.5 0,-.5"/>
<text text-anchor="middle" x="106" y="-7.5" font-family="Helvetica,sans-Serif" font-size="10.00" fill="#000000">opencv2/video/tracking.hpp</text>
</a>
</g>
</g>
<!-- Node1&#45;&gt;Node3 -->
<g id="edge6" class="edge">
<title>Node1&#45;&gt;Node3</title>
<path fill="none" stroke="#191970" d="M232.7304,-112.2536C231.8365,-98.1744 228.2201,-72.0759 214,-56 200.0808,-40.2644 179.8598,-29.7427 160.6689,-22.7873"/>
<polygon fill="#191970" stroke="#191970" points="161.6596,-19.428 151.0656,-19.5595 159.4294,-26.0632 161.6596,-19.428"/>
</g>
<!-- Node4 -->
<g id="node5" class="node">
<title>Node4</title>
<g id="a_node5"><a xlink:href="frame_8h.html" target="_top" xlink:title=" ">
<polygon fill="none" stroke="#000000" points="262.5,-56.5 262.5,-75.5 361.5,-75.5 361.5,-56.5 262.5,-56.5"/>
<text text-anchor="middle" x="312" y="-63.5" font-family="Helvetica,sans-Serif" font-size="10.00" fill="#000000">soe/frame.h</text>
</a>
</g>
</g>
<!-- Node1&#45;&gt;Node4 -->
<g id="edge4" class="edge">
<title>Node1&#45;&gt;Node4</title>
<path fill="none" stroke="#191970" d="M246.7607,-112.2455C258.6552,-103.814 276.065,-91.4729 289.9085,-81.6598"/>
<polygon fill="#191970" stroke="#191970" points="292.2628,-84.2811 298.3969,-75.6427 288.2146,-78.5704 292.2628,-84.2811"/>
</g>
<!-- Node2&#45;&gt;Node3 -->
<g id="edge3" class="edge">
<title>Node2&#45;&gt;Node3</title>
<path fill="none" stroke="#191970" d="M106,-56.2455C106,-48.9382 106,-38.6944 106,-29.7046"/>
<polygon fill="#191970" stroke="#191970" points="109.5001,-29.6426 106,-19.6427 102.5001,-29.6427 109.5001,-29.6426"/>
</g>
<!-- Node5 -->
<g id="node6" class="node">
<title>Node5</title>
<g id="a_node6"><a xlink:title=" ">
<polygon fill="none" stroke="#bfbfbf" points="229.5,-.5 229.5,-19.5 396.5,-19.5 396.5,-.5 229.5,-.5"/>
<text text-anchor="middle" x="313" y="-7.5" font-family="Helvetica,sans-Serif" font-size="10.00" fill="#000000">opencv2/core/mat.hpp</text>
</a>
</g>
</g>
<!-- Node4&#45;&gt;Node5 -->
<g id="edge5" class="edge">
<title>Node4&#45;&gt;Node5</title>
<path fill="none" stroke="#191970" d="M312.1742,-56.2455C312.3047,-48.9382 312.4876,-38.6944 312.6481,-29.7046"/>
<polygon fill="#191970" stroke="#191970" points="316.1486,-29.7036 312.8278,-19.6427 309.1497,-29.5786 316.1486,-29.7036"/>
</g>
</g>
</svg>
