<?xml version="1.0" encoding="UTF-8" standalone="no"?>
<!DOCTYPE svg PUBLIC "-//W3C//DTD SVG 1.1//EN"
 "http://www.w3.org/Graphics/SVG/1.1/DTD/svg11.dtd">
<!-- Generated by graphviz version 2.40.1 (0)
 -->
<!-- Title: libsoe/include/soe/frame_stream.h Pages: 1 -->
<svg width="428pt" height="151pt"
 viewBox="0.00 0.00 428.00 151.00" xmlns="http://www.w3.org/2000/svg" xmlns:xlink="http://www.w3.org/1999/xlink">
<g id="graph0" class="graph" transform="scale(1 1) rotate(0) translate(4 147)">
<title>libsoe/include/soe/frame_stream.h</title>
<!-- Node0 -->
<g id="node1" class="node">
<title>Node0</title>
<g id="a_node1"><a xlink:title=" ">
<polygon fill="#bfbfbf" stroke="#000000" points="149.5,-112.5 149.5,-142.5 301.5,-142.5 301.5,-112.5 149.5,-112.5"/>
<text text-anchor="start" x="157.5" y="-130.5" font-family="Helvetica,sans-Serif" font-size="10.00" fill="#000000">libsoe/include/soe</text>
<text text-anchor="middle" x="225.5" y="-119.5" font-family="Helvetica,sans-Serif" font-size="10.00" fill="#000000">/frame_stream.h</text>
</a>
</g>
</g>
<!-- Node1 -->
<g id="node2" class="node">
<title>Node1</title>
<g id="a_node2"><a xlink:href="farneback__settings_8h.html" target="_top" xlink:title=" ">
<polygon fill="none" stroke="#000000" points="0,-56.5 0,-75.5 197,-75.5 197,-56.5 0,-56.5"/>
<text text-anchor="middle" x="98.5" y="-63.5" font-family="Helvetica,sans-Serif" font-size="10.00" fill="#000000">soe/farneback_settings.h</text>
</a>
</g>
</g>
<!-- Node0&#45;&gt;Node1 -->
<g id="edge1" class="edge">
<title>Node0&#45;&gt;Node1</title>
<path fill="none" stroke="#191970" d="M194.4323,-112.4554C173.9855,-102.554 147.4063,-89.683 127.4115,-80.0004"/>
<polygon fill="#191970" stroke="#191970" points="128.7062,-76.7387 118.1805,-75.5303 125.6553,-83.0388 128.7062,-76.7387"/>
</g>
<!-- Node2 -->
<g id="node3" class="node">
<title>Node2</title>
<g id="a_node3"><a xlink:title=" ">
<polygon fill="none" stroke="#bfbfbf" points="55.5,-.5 55.5,-19.5 267.5,-19.5 267.5,-.5 55.5,-.5"/>
<text text-anchor="middle" x="161.5" y="-7.5" font-family="Helvetica,sans-Serif" font-size="10.00" fill="#000000">opencv2/video/tracking.hpp</text>
</a>
</g>
</g>
<!-- Node0&#45;&gt;Node2 -->
<g id="edge4" class="edge">
<title>Node0&#45;&gt;Node2</title>
<path fill="none" stroke="#191970" d="M223.774,-112.4133C221.541,-97.3276 216.6588,-73.8639 206.5,-56 200.1575,-44.847 190.4494,-34.4432 181.6717,-26.3609"/>
<polygon fill="#191970" stroke="#191970" points="183.8237,-23.593 173.9955,-19.6362 179.2111,-28.8583 183.8237,-23.593"/>
</g>
<!-- Node3 -->
<g id="node4" class="node">
<title>Node3</title>
<g id="a_node4"><a xlink:title=" ">
<polygon fill="none" stroke="#bfbfbf" points="253,-56.5 253,-75.5 420,-75.5 420,-56.5 253,-56.5"/>
<text text-anchor="middle" x="336.5" y="-63.5" font-family="Helvetica,sans-Serif" font-size="10.00" fill="#000000">opencv2/core/mat.hpp</text>
</a>
</g>
</g>
<!-- Node0&#45;&gt;Node3 -->
<g id="edge3" class="edge">
<title>Node0&#45;&gt;Node3</title>
<path fill="none" stroke="#191970" d="M252.6537,-112.4554C270.1995,-102.734 292.9122,-90.15 310.2721,-80.5317"/>
<polygon fill="#191970" stroke="#191970" points="312.248,-83.4383 319.2989,-75.5303 308.8555,-77.3153 312.248,-83.4383"/>
</g>
<!-- Node1&#45;&gt;Node2 -->
<g id="edge2" class="edge">
<title>Node1&#45;&gt;Node2</title>
<path fill="none" stroke="#191970" d="M109.4738,-56.2455C118.6882,-48.0549 132.0532,-36.1749 142.9297,-26.5069"/>
<polygon fill="#191970" stroke="#191970" points="145.5032,-28.9023 150.652,-19.6427 140.8526,-23.6704 145.5032,-28.9023"/>
</g>
</g>
</svg>
