<?xml version="1.0" encoding="UTF-8" standalone="no"?>
<!DOCTYPE svg PUBLIC "-//W3C//DTD SVG 1.1//EN"
 "http://www.w3.org/Graphics/SVG/1.1/DTD/svg11.dtd">
<!-- Generated by graphviz version 2.40.1 (0)
 -->
<!-- Title: libsoe/include/soe/frame_stream_cuda.h Pages: 1 -->
<svg width="760pt" height="151pt"
 viewBox="0.00 0.00 759.50 151.00" xmlns="http://www.w3.org/2000/svg" xmlns:xlink="http://www.w3.org/1999/xlink">
<g id="graph0" class="graph" transform="scale(1 1) rotate(0) translate(4 147)">
<title>libsoe/include/soe/frame_stream_cuda.h</title>
<!-- Node0 -->
<g id="node1" class="node">
<title>Node0</title>
<g id="a_node1"><a xlink:title=" ">
<polygon fill="#bfbfbf" stroke="#000000" points="295.5,-112.5 295.5,-142.5 462.5,-142.5 462.5,-112.5 295.5,-112.5"/>
<text text-anchor="start" x="303.5" y="-130.5" font-family="Helvetica,sans-Serif" font-size="10.00" fill="#000000">libsoe/include/soe</text>
<text text-anchor="middle" x="379" y="-119.5" font-family="Helvetica,sans-Serif" font-size="10.00" fill="#000000">/frame_stream_cuda.h</text>
</a>
</g>
</g>
<!-- Node1 -->
<g id="node2" class="node">
<title>Node1</title>
<g id="a_node2"><a xlink:href="farneback__settings_8h.html" target="_top" xlink:title=" ">
<polygon fill="none" stroke="#000000" points="27.5,-56.5 27.5,-75.5 224.5,-75.5 224.5,-56.5 27.5,-56.5"/>
<text text-anchor="middle" x="126" y="-63.5" font-family="Helvetica,sans-Serif" font-size="10.00" fill="#000000">soe/farneback_settings.h</text>
</a>
</g>
</g>
<!-- Node0&#45;&gt;Node1 -->
<g id="edge1" class="edge">
<title>Node0&#45;&gt;Node1</title>
<path fill="none" stroke="#191970" d="M317.1092,-112.4554C273.4144,-101.8339 215.6611,-87.7951 175.1225,-77.9408"/>
<polygon fill="#191970" stroke="#191970" points="175.7498,-74.4915 165.206,-75.5303 174.0963,-81.2934 175.7498,-74.4915"/>
</g>
<!-- Node3 -->
<g id="node4" class="node">
<title>Node3</title>
<g id="a_node4"><a xlink:href="frame_8h.html" target="_top" xlink:title=" ">
<polygon fill="none" stroke="#000000" points="252.5,-56.5 252.5,-75.5 351.5,-75.5 351.5,-56.5 252.5,-56.5"/>
<text text-anchor="middle" x="302" y="-63.5" font-family="Helvetica,sans-Serif" font-size="10.00" fill="#000000">soe/frame.h</text>
</a>
</g>
</g>
<!-- Node0&#45;&gt;Node3 -->
<g id="edge3" class="edge">
<title>Node0&#45;&gt;Node3</title>
<path fill="none" stroke="#191970" d="M359.9663,-112.2977C348.4985,-103.1384 333.9038,-91.4816 322.2281,-82.1562"/>
<polygon fill="#191970" stroke="#191970" points="324.3266,-79.3529 314.3287,-75.8469 319.9581,-84.8225 324.3266,-79.3529"/>
</g>
<!-- Node5 -->
<g id="node6" class="node">
<title>Node5</title>
<g id="a_node6"><a xlink:title=" ">
<polygon fill="none" stroke="#bfbfbf" points="370,-56.5 370,-75.5 544,-75.5 544,-56.5 370,-56.5"/>
<text text-anchor="middle" x="457" y="-63.5" font-family="Helvetica,sans-Serif" font-size="10.00" fill="#000000">opencv2/core/cuda.hpp</text>
</a>
</g>
</g>
<!-- Node0&#45;&gt;Node5 -->
<g id="edge5" class="edge">
<title>Node0&#45;&gt;Node5</title>
<path fill="none" stroke="#191970" d="M398.2809,-112.2977C409.8976,-103.1384 424.6818,-91.4816 436.5092,-82.1562"/>
<polygon fill="#191970" stroke="#191970" points="438.8256,-84.787 444.5112,-75.8469 434.4914,-79.2901 438.8256,-84.787"/>
</g>
<!-- Node6 -->
<g id="node7" class="node">
<title>Node6</title>
<g id="a_node7"><a xlink:title=" ">
<polygon fill="none" stroke="#bfbfbf" points="562.5,-56.5 562.5,-75.5 751.5,-75.5 751.5,-56.5 562.5,-56.5"/>
<text text-anchor="middle" x="657" y="-63.5" font-family="Helvetica,sans-Serif" font-size="10.00" fill="#000000">opencv2/cudaoptflow.hpp</text>
</a>
</g>
</g>
<!-- Node0&#45;&gt;Node6 -->
<g id="edge6" class="edge">
<title>Node0&#45;&gt;Node6</title>
<path fill="none" stroke="#191970" d="M447.0065,-112.4554C495.4259,-101.7439 559.5558,-87.5569 604.1519,-77.6912"/>
<polygon fill="#191970" stroke="#191970" points="604.912,-81.1078 613.9199,-75.5303 603.3999,-74.273 604.912,-81.1078"/>
</g>
<!-- Node2 -->
<g id="node3" class="node">
<title>Node2</title>
<g id="a_node3"><a xlink:title=" ">
<polygon fill="none" stroke="#bfbfbf" points="0,-.5 0,-19.5 212,-19.5 212,-.5 0,-.5"/>
<text text-anchor="middle" x="106" y="-7.5" font-family="Helvetica,sans-Serif" font-size="10.00" fill="#000000">opencv2/video/tracking.hpp</text>
</a>
</g>
</g>
<!-- Node1&#45;&gt;Node2 -->
<g id="edge2" class="edge">
<title>Node1&#45;&gt;Node2</title>
<path fill="none" stroke="#191970" d="M122.5163,-56.2455C119.8492,-48.7776 116.0867,-38.2427 112.8263,-29.1137"/>
<polygon fill="#191970" stroke="#191970" points="116.1033,-27.8829 109.4438,-19.6427 109.5111,-30.2373 116.1033,-27.8829"/>
</g>
<!-- Node4 -->
<g id="node5" class="node">
<title>Node4</title>
<g id="a_node5"><a xlink:title=" ">
<polygon fill="none" stroke="#bfbfbf" points="229.5,-.5 229.5,-19.5 396.5,-19.5 396.5,-.5 229.5,-.5"/>
<text text-anchor="middle" x="313" y="-7.5" font-family="Helvetica,sans-Serif" font-size="10.00" fill="#000000">opencv2/core/mat.hpp</text>
</a>
</g>
</g>
<!-- Node3&#45;&gt;Node4 -->
<g id="edge4" class="edge">
<title>Node3&#45;&gt;Node4</title>
<path fill="none" stroke="#191970" d="M303.9161,-56.2455C305.3514,-48.9382 307.3636,-38.6944 309.1295,-29.7046"/>
<polygon fill="#191970" stroke="#191970" points="312.6127,-30.1298 311.1059,-19.6427 305.744,-28.7805 312.6127,-30.1298"/>
</g>
</g>
</svg>
