<?xml version="1.0" encoding="UTF-8" standalone="no"?>
<!DOCTYPE svg PUBLIC "-//W3C//DTD SVG 1.1//EN"
 "http://www.w3.org/Graphics/SVG/1.1/DTD/svg11.dtd">
<!-- Generated by graphviz version 2.40.1 (0)
 -->
<!-- Title: libsoe/frame_stream_cuda.cpp Pages: 1 -->
<svg width="1212pt" height="151pt"
 viewBox="0.00 0.00 1211.50 151.00" xmlns="http://www.w3.org/2000/svg" xmlns:xlink="http://www.w3.org/1999/xlink">
<g id="graph0" class="graph" transform="scale(1 1) rotate(0) translate(4 147)">
<title>libsoe/frame_stream_cuda.cpp</title>
<!-- Node0 -->
<g id="node1" class="node">
<title>Node0</title>
<g id="a_node1"><a xlink:title=" ">
<polygon fill="#bfbfbf" stroke="#000000" points="488,-112.5 488,-142.5 647,-142.5 647,-112.5 488,-112.5"/>
<text text-anchor="start" x="496" y="-130.5" font-family="Helvetica,sans-Serif" font-size="10.00" fill="#000000">libsoe/frame_stream</text>
<text text-anchor="middle" x="567.5" y="-119.5" font-family="Helvetica,sans-Serif" font-size="10.00" fill="#000000">_cuda.cpp</text>
</a>
</g>
</g>
<!-- Node1 -->
<g id="node2" class="node">
<title>Node1</title>
<g id="a_node2"><a xlink:href="frame__stream__cuda_8h.html" target="_top" xlink:title=" ">
<polygon fill="none" stroke="#000000" points="0,-56.5 0,-75.5 189,-75.5 189,-56.5 0,-56.5"/>
<text text-anchor="middle" x="94.5" y="-63.5" font-family="Helvetica,sans-Serif" font-size="10.00" fill="#000000">soe/frame_stream_cuda.h</text>
</a>
</g>
</g>
<!-- Node0&#45;&gt;Node1 -->
<g id="edge1" class="edge">
<title>Node0&#45;&gt;Node1</title>
<path fill="none" stroke="#191970" d="M487.7969,-117.1369C401.8163,-105.9576 265.5133,-88.2353 178.0618,-76.8648"/>
<polygon fill="#191970" stroke="#191970" points="178.2779,-73.3635 167.9101,-75.5449 177.3753,-80.3051 178.2779,-73.3635"/>
</g>
<!-- Node3 -->
<g id="node4" class="node">
<title>Node3</title>
<g id="a_node4"><a xlink:href="flow__to__map_8h.html" target="_top" xlink:title=" ">
<polygon fill="none" stroke="#000000" points="207.5,-56.5 207.5,-75.5 351.5,-75.5 351.5,-56.5 207.5,-56.5"/>
<text text-anchor="middle" x="279.5" y="-63.5" font-family="Helvetica,sans-Serif" font-size="10.00" fill="#000000">soe/flow_to_map.h</text>
</a>
</g>
</g>
<!-- Node0&#45;&gt;Node3 -->
<g id="edge3" class="edge">
<title>Node0&#45;&gt;Node3</title>
<path fill="none" stroke="#191970" d="M497.0473,-112.4554C446.7807,-101.7214 380.1701,-87.4973 333.9582,-77.6291"/>
<polygon fill="#191970" stroke="#191970" points="334.6402,-74.1959 324.1298,-75.5303 333.1783,-81.0416 334.6402,-74.1959"/>
</g>
<!-- Node4 -->
<g id="node5" class="node">
<title>Node4</title>
<g id="a_node5"><a xlink:title=" ">
<polygon fill="none" stroke="#bfbfbf" points="370,-56.5 370,-75.5 559,-75.5 559,-56.5 370,-56.5"/>
<text text-anchor="middle" x="464.5" y="-63.5" font-family="Helvetica,sans-Serif" font-size="10.00" fill="#000000">opencv2/cudaimgproc.hpp</text>
</a>
</g>
</g>
<!-- Node0&#45;&gt;Node4 -->
<g id="edge5" class="edge">
<title>Node0&#45;&gt;Node4</title>
<path fill="none" stroke="#191970" d="M542.3034,-112.4554C526.1728,-102.8241 505.3362,-90.3828 489.2864,-80.7996"/>
<polygon fill="#191970" stroke="#191970" points="490.8416,-77.6518 480.4613,-75.5303 487.253,-83.662 490.8416,-77.6518"/>
</g>
<!-- Node5 -->
<g id="node6" class="node">
<title>Node5</title>
<g id="a_node6"><a xlink:title=" ">
<polygon fill="none" stroke="#bfbfbf" points="577,-56.5 577,-75.5 766,-75.5 766,-56.5 577,-56.5"/>
<text text-anchor="middle" x="671.5" y="-63.5" font-family="Helvetica,sans-Serif" font-size="10.00" fill="#000000">opencv2/cudaoptflow.hpp</text>
</a>
</g>
</g>
<!-- Node0&#45;&gt;Node5 -->
<g id="edge6" class="edge">
<title>Node0&#45;&gt;Node5</title>
<path fill="none" stroke="#191970" d="M592.9413,-112.4554C609.2284,-102.8241 630.2673,-90.3828 646.473,-80.7996"/>
<polygon fill="#191970" stroke="#191970" points="648.5576,-83.6331 655.3837,-75.5303 644.9945,-77.6078 648.5576,-83.6331"/>
</g>
<!-- Node6 -->
<g id="node7" class="node">
<title>Node6</title>
<g id="a_node7"><a xlink:title=" ">
<polygon fill="none" stroke="#bfbfbf" points="784,-56.5 784,-75.5 973,-75.5 973,-56.5 784,-56.5"/>
<text text-anchor="middle" x="878.5" y="-63.5" font-family="Helvetica,sans-Serif" font-size="10.00" fill="#000000">opencv2/cudawarping.hpp</text>
</a>
</g>
</g>
<!-- Node0&#45;&gt;Node6 -->
<g id="edge7" class="edge">
<title>Node0&#45;&gt;Node6</title>
<path fill="none" stroke="#191970" d="M643.5792,-112.4554C698.0876,-101.6764 770.3937,-87.3779 820.3192,-77.5052"/>
<polygon fill="#191970" stroke="#191970" points="821.175,-80.9038 830.306,-75.5303 819.817,-74.0368 821.175,-80.9038"/>
</g>
<!-- Node7 -->
<g id="node8" class="node">
<title>Node7</title>
<g id="a_node8"><a xlink:title=" ">
<polygon fill="none" stroke="#bfbfbf" points="991.5,-56.5 991.5,-75.5 1203.5,-75.5 1203.5,-56.5 991.5,-56.5"/>
<text text-anchor="middle" x="1097.5" y="-63.5" font-family="Helvetica,sans-Serif" font-size="10.00" fill="#000000">opencv2/video/tracking.hpp</text>
</a>
</g>
</g>
<!-- Node0&#45;&gt;Node7 -->
<g id="edge8" class="edge">
<title>Node0&#45;&gt;Node7</title>
<path fill="none" stroke="#191970" d="M647.1331,-118.2596C743.1011,-107.1236 904.0495,-88.4476 1005.3079,-76.6978"/>
<polygon fill="#191970" stroke="#191970" points="1005.9945,-80.1417 1015.5244,-75.5123 1005.1876,-73.1883 1005.9945,-80.1417"/>
</g>
<!-- Node2 -->
<g id="node3" class="node">
<title>Node2</title>
<g id="a_node3"><a xlink:title=" ">
<polygon fill="none" stroke="#bfbfbf" points="99.5,-.5 99.5,-19.5 273.5,-19.5 273.5,-.5 99.5,-.5"/>
<text text-anchor="middle" x="186.5" y="-7.5" font-family="Helvetica,sans-Serif" font-size="10.00" fill="#000000">opencv2/core/cuda.hpp</text>
</a>
</g>
</g>
<!-- Node1&#45;&gt;Node2 -->
<g id="edge2" class="edge">
<title>Node1&#45;&gt;Node2</title>
<path fill="none" stroke="#191970" d="M110.5252,-56.2455C124.6408,-47.6534 145.4263,-35.0014 161.6899,-25.1018"/>
<polygon fill="#191970" stroke="#191970" points="163.9363,-27.8319 170.6585,-19.6427 160.2966,-21.8525 163.9363,-27.8319"/>
</g>
<!-- Node3&#45;&gt;Node2 -->
<g id="edge4" class="edge">
<title>Node3&#45;&gt;Node2</title>
<path fill="none" stroke="#191970" d="M263.3006,-56.2455C248.8982,-47.5731 227.6268,-34.7645 211.1201,-24.825"/>
<polygon fill="#191970" stroke="#191970" points="212.886,-21.8028 202.5137,-19.6427 209.275,-27.7996 212.886,-21.8028"/>
</g>
</g>
</svg>
