<?xml version="1.0" encoding="UTF-8" standalone="no"?>
<!DOCTYPE svg PUBLIC "-//W3C//DTD SVG 1.1//EN"
 "http://www.w3.org/Graphics/SVG/1.1/DTD/svg11.dtd">
<!-- Generated by graphviz version 2.40.1 (0)
 -->
<!-- Title: libsoe/include/soe/frame_stream_cuda.h Pages: 1 -->
<svg width="877pt" height="151pt"
 viewBox="0.00 0.00 876.50 151.00" xmlns="http://www.w3.org/2000/svg" xmlns:xlink="http://www.w3.org/1999/xlink">
<g id="graph0" class="graph" transform="scale(1 1) rotate(0) translate(4 147)">
<title>libsoe/include/soe/frame_stream_cuda.h</title>
<!-- Node0 -->
<g id="node1" class="node">
<title>Node0</title>
<g id="a_node1"><a xlink:title=" ">
<polygon fill="#bfbfbf" stroke="#000000" points="335.5,-112.5 335.5,-142.5 502.5,-142.5 502.5,-112.5 335.5,-112.5"/>
<text text-anchor="start" x="343.5" y="-130.5" font-family="Helvetica,sans-Serif" font-size="10.00" fill="#000000">libsoe/include/soe</text>
<text text-anchor="middle" x="419" y="-119.5" font-family="Helvetica,sans-Serif" font-size="10.00" fill="#000000">/frame_stream_cuda.h</text>
</a>
</g>
</g>
<!-- Node1 -->
<g id="node2" class="node">
<title>Node1</title>
<g id="a_node2"><a xlink:href="farneback__settings_8h.html" target="_top" xlink:title=" ">
<polygon fill="none" stroke="#000000" points="27.5,-56.5 27.5,-75.5 224.5,-75.5 224.5,-56.5 27.5,-56.5"/>
<text text-anchor="middle" x="126" y="-63.5" font-family="Helvetica,sans-Serif" font-size="10.00" fill="#000000">soe/farneback_settings.h</text>
</a>
</g>
</g>
<!-- Node0&#45;&gt;Node1 -->
<g id="edge1" class="edge">
<title>Node0&#45;&gt;Node1</title>
<path fill="none" stroke="#191970" d="M347.3241,-112.4554C296.1849,-101.7214 228.4179,-87.4973 181.4037,-77.6291"/>
<polygon fill="#191970" stroke="#191970" points="181.9103,-74.1592 171.4046,-75.5303 180.4723,-81.01 181.9103,-74.1592"/>
</g>
<!-- Node3 -->
<g id="node4" class="node">
<title>Node3</title>
<g id="a_node4"><a xlink:href="frame_8h.html" target="_top" xlink:title=" ">
<polygon fill="none" stroke="#000000" points="252.5,-56.5 252.5,-75.5 351.5,-75.5 351.5,-56.5 252.5,-56.5"/>
<text text-anchor="middle" x="302" y="-63.5" font-family="Helvetica,sans-Serif" font-size="10.00" fill="#000000">soe/frame.h</text>
</a>
</g>
</g>
<!-- Node0&#45;&gt;Node3 -->
<g id="edge3" class="edge">
<title>Node0&#45;&gt;Node3</title>
<path fill="none" stroke="#191970" d="M390.3786,-112.4554C371.713,-102.644 347.5001,-89.9167 329.1388,-80.2653"/>
<polygon fill="#191970" stroke="#191970" points="330.611,-77.0851 320.1308,-75.5303 327.354,-83.2812 330.611,-77.0851"/>
</g>
<!-- Node5 -->
<g id="node6" class="node">
<title>Node5</title>
<g id="a_node6"><a xlink:href="vec_8h.html" target="_top" xlink:title=" ">
<polygon fill="none" stroke="#000000" points="369.5,-56.5 369.5,-75.5 468.5,-75.5 468.5,-56.5 369.5,-56.5"/>
<text text-anchor="middle" x="419" y="-63.5" font-family="Helvetica,sans-Serif" font-size="10.00" fill="#000000">utils/vec.h</text>
</a>
</g>
</g>
<!-- Node0&#45;&gt;Node5 -->
<g id="edge5" class="edge">
<title>Node0&#45;&gt;Node5</title>
<path fill="none" stroke="#191970" d="M419,-112.2977C419,-104.3834 419,-94.6043 419,-86.0759"/>
<polygon fill="#191970" stroke="#191970" points="422.5001,-85.8469 419,-75.8469 415.5001,-85.847 422.5001,-85.8469"/>
</g>
<!-- Node6 -->
<g id="node7" class="node">
<title>Node6</title>
<g id="a_node7"><a xlink:title=" ">
<polygon fill="none" stroke="#bfbfbf" points="487,-56.5 487,-75.5 661,-75.5 661,-56.5 487,-56.5"/>
<text text-anchor="middle" x="574" y="-63.5" font-family="Helvetica,sans-Serif" font-size="10.00" fill="#000000">opencv2/core/cuda.hpp</text>
</a>
</g>
</g>
<!-- Node0&#45;&gt;Node6 -->
<g id="edge6" class="edge">
<title>Node0&#45;&gt;Node6</title>
<path fill="none" stroke="#191970" d="M456.9173,-112.4554C482.4391,-102.329 515.7896,-89.0964 540.3656,-79.3453"/>
<polygon fill="#191970" stroke="#191970" points="541.9763,-82.4717 549.9805,-75.5303 539.3946,-75.9651 541.9763,-82.4717"/>
</g>
<!-- Node7 -->
<g id="node8" class="node">
<title>Node7</title>
<g id="a_node8"><a xlink:title=" ">
<polygon fill="none" stroke="#bfbfbf" points="679.5,-56.5 679.5,-75.5 868.5,-75.5 868.5,-56.5 679.5,-56.5"/>
<text text-anchor="middle" x="774" y="-63.5" font-family="Helvetica,sans-Serif" font-size="10.00" fill="#000000">opencv2/cudaoptflow.hpp</text>
</a>
</g>
</g>
<!-- Node0&#45;&gt;Node7 -->
<g id="edge7" class="edge">
<title>Node0&#45;&gt;Node7</title>
<path fill="none" stroke="#191970" d="M502.6805,-113.0032C565.7213,-102.0821 650.9189,-87.3225 708.9119,-77.2758"/>
<polygon fill="#191970" stroke="#191970" points="709.7971,-80.6747 719.0529,-75.519 708.6022,-73.7774 709.7971,-80.6747"/>
</g>
<!-- Node2 -->
<g id="node3" class="node">
<title>Node2</title>
<g id="a_node3"><a xlink:title=" ">
<polygon fill="none" stroke="#bfbfbf" points="0,-.5 0,-19.5 212,-19.5 212,-.5 0,-.5"/>
<text text-anchor="middle" x="106" y="-7.5" font-family="Helvetica,sans-Serif" font-size="10.00" fill="#000000">opencv2/video/tracking.hpp</text>
</a>
</g>
</g>
<!-- Node1&#45;&gt;Node2 -->
<g id="edge2" class="edge">
<title>Node1&#45;&gt;Node2</title>
<path fill="none" stroke="#191970" d="M122.5163,-56.2455C119.8492,-48.7776 116.0867,-38.2427 112.8263,-29.1137"/>
<polygon fill="#191970" stroke="#191970" points="116.1033,-27.8829 109.4438,-19.6427 109.5111,-30.2373 116.1033,-27.8829"/>
</g>
<!-- Node4 -->
<g id="node5" class="node">
<title>Node4</title>
<g id="a_node5"><a xlink:title=" ">
<polygon fill="none" stroke="#bfbfbf" points="229.5,-.5 229.5,-19.5 396.5,-19.5 396.5,-.5 229.5,-.5"/>
<text text-anchor="middle" x="313" y="-7.5" font-family="Helvetica,sans-Serif" font-size="10.00" fill="#000000">opencv2/core/mat.hpp</text>
</a>
</g>
</g>
<!-- Node3&#45;&gt;Node4 -->
<g id="edge4" class="edge">
<title>Node3&#45;&gt;Node4</title>
<path fill="none" stroke="#191970" d="M303.9161,-56.2455C305.3514,-48.9382 307.3636,-38.6944 309.1295,-29.7046"/>
<polygon fill="#191970" stroke="#191970" points="312.6127,-30.1298 311.1059,-19.6427 305.744,-28.7805 312.6127,-30.1298"/>
</g>
</g>
</svg>
