<?xml version="1.0" encoding="UTF-8" standalone="no"?>
<!DOCTYPE svg PUBLIC "-//W3C//DTD SVG 1.1//EN"
 "http://www.w3.org/Graphics/SVG/1.1/DTD/svg11.dtd">
<!-- Generated by graphviz version 2.40.1 (0)
 -->
<!-- Title: libsoe/include/soe/frame_stream_cuda.h Pages: 1 -->
<svg width="613pt" height="151pt"
 viewBox="0.00 0.00 612.50 151.00" xmlns="http://www.w3.org/2000/svg" xmlns:xlink="http://www.w3.org/1999/xlink">
<g id="graph0" class="graph" transform="scale(1 1) rotate(0) translate(4 147)">
<title>libsoe/include/soe/frame_stream_cuda.h</title>
<!-- Node0 -->
<g id="node1" class="node">
<title>Node0</title>
<g id="a_node1"><a xlink:title=" ">
<polygon fill="#bfbfbf" stroke="#000000" points="226.5,-112.5 226.5,-142.5 393.5,-142.5 393.5,-112.5 226.5,-112.5"/>
<text text-anchor="start" x="234.5" y="-130.5" font-family="Helvetica,sans-Serif" font-size="10.00" fill="#000000">libsoe/include/soe</text>
<text text-anchor="middle" x="310" y="-119.5" font-family="Helvetica,sans-Serif" font-size="10.00" fill="#000000">/frame_stream_cuda.h</text>
</a>
</g>
</g>
<!-- Node1 -->
<g id="node2" class="node">
<title>Node1</title>
<g id="a_node2"><a xlink:href="farneback__settings_8h.html" target="_top" xlink:title=" ">
<polygon fill="none" stroke="#000000" points="7.5,-56.5 7.5,-75.5 204.5,-75.5 204.5,-56.5 7.5,-56.5"/>
<text text-anchor="middle" x="106" y="-63.5" font-family="Helvetica,sans-Serif" font-size="10.00" fill="#000000">soe/farneback_settings.h</text>
</a>
</g>
</g>
<!-- Node0&#45;&gt;Node1 -->
<g id="edge1" class="edge">
<title>Node0&#45;&gt;Node1</title>
<path fill="none" stroke="#191970" d="M260.096,-112.4554C225.4609,-102.0139 179.8712,-88.27 147.2826,-78.4455"/>
<polygon fill="#191970" stroke="#191970" points="148.1974,-75.0657 137.6128,-75.5303 146.1769,-81.7678 148.1974,-75.0657"/>
</g>
<!-- Node3 -->
<g id="node4" class="node">
<title>Node3</title>
<g id="a_node4"><a xlink:title=" ">
<polygon fill="none" stroke="#bfbfbf" points="223,-56.5 223,-75.5 397,-75.5 397,-56.5 223,-56.5"/>
<text text-anchor="middle" x="310" y="-63.5" font-family="Helvetica,sans-Serif" font-size="10.00" fill="#000000">opencv2/core/cuda.hpp</text>
</a>
</g>
</g>
<!-- Node0&#45;&gt;Node3 -->
<g id="edge3" class="edge">
<title>Node0&#45;&gt;Node3</title>
<path fill="none" stroke="#191970" d="M310,-112.2977C310,-104.3834 310,-94.6043 310,-86.0759"/>
<polygon fill="#191970" stroke="#191970" points="313.5001,-85.8469 310,-75.8469 306.5001,-85.847 313.5001,-85.8469"/>
</g>
<!-- Node4 -->
<g id="node5" class="node">
<title>Node4</title>
<g id="a_node5"><a xlink:title=" ">
<polygon fill="none" stroke="#bfbfbf" points="415.5,-56.5 415.5,-75.5 604.5,-75.5 604.5,-56.5 415.5,-56.5"/>
<text text-anchor="middle" x="510" y="-63.5" font-family="Helvetica,sans-Serif" font-size="10.00" fill="#000000">opencv2/cudaoptflow.hpp</text>
</a>
</g>
</g>
<!-- Node0&#45;&gt;Node4 -->
<g id="edge4" class="edge">
<title>Node0&#45;&gt;Node4</title>
<path fill="none" stroke="#191970" d="M358.9255,-112.4554C392.7351,-102.059 437.1921,-88.3884 469.113,-78.5727"/>
<polygon fill="#191970" stroke="#191970" points="470.4775,-81.815 479.0071,-75.5303 468.4201,-75.1242 470.4775,-81.815"/>
</g>
<!-- Node2 -->
<g id="node3" class="node">
<title>Node2</title>
<g id="a_node3"><a xlink:title=" ">
<polygon fill="none" stroke="#bfbfbf" points="0,-.5 0,-19.5 212,-19.5 212,-.5 0,-.5"/>
<text text-anchor="middle" x="106" y="-7.5" font-family="Helvetica,sans-Serif" font-size="10.00" fill="#000000">opencv2/video/tracking.hpp</text>
</a>
</g>
</g>
<!-- Node1&#45;&gt;Node2 -->
<g id="edge2" class="edge">
<title>Node1&#45;&gt;Node2</title>
<path fill="none" stroke="#191970" d="M106,-56.2455C106,-48.9382 106,-38.6944 106,-29.7046"/>
<polygon fill="#191970" stroke="#191970" points="109.5001,-29.6426 106,-19.6427 102.5001,-29.6427 109.5001,-29.6426"/>
</g>
</g>
</svg>
