<?xml version="1.0" encoding="UTF-8" standalone="no"?>
<!DOCTYPE svg PUBLIC "-//W3C//DTD SVG 1.1//EN"
 "http://www.w3.org/Graphics/SVG/1.1/DTD/svg11.dtd">
<!-- Generated by graphviz version 2.40.1 (0)
 -->
<!-- Title: libsoe/frame_stream_cuda.cpp Pages: 1 -->
<svg width="1008pt" height="207pt"
 viewBox="0.00 0.00 1007.50 207.00" xmlns="http://www.w3.org/2000/svg" xmlns:xlink="http://www.w3.org/1999/xlink">
<g id="graph0" class="graph" transform="scale(1 1) rotate(0) translate(4 203)">
<title>libsoe/frame_stream_cuda.cpp</title>
<!-- Node0 -->
<g id="node1" class="node">
<title>Node0</title>
<g id="a_node1"><a xlink:title=" ">
<polygon fill="#bfbfbf" stroke="#000000" points="525.5,-168.5 525.5,-198.5 684.5,-198.5 684.5,-168.5 525.5,-168.5"/>
<text text-anchor="start" x="533.5" y="-186.5" font-family="Helvetica,sans-Serif" font-size="10.00" fill="#000000">libsoe/frame_stream</text>
<text text-anchor="middle" x="605" y="-175.5" font-family="Helvetica,sans-Serif" font-size="10.00" fill="#000000">_cuda.cpp</text>
</a>
</g>
</g>
<!-- Node1 -->
<g id="node2" class="node">
<title>Node1</title>
<g id="a_node2"><a xlink:href="frame__stream__cuda_8h.html" target="_top" xlink:title=" ">
<polygon fill="none" stroke="#000000" points="229.5,-112.5 229.5,-131.5 418.5,-131.5 418.5,-112.5 229.5,-112.5"/>
<text text-anchor="middle" x="324" y="-119.5" font-family="Helvetica,sans-Serif" font-size="10.00" fill="#000000">soe/frame_stream_cuda.h</text>
</a>
</g>
</g>
<!-- Node0&#45;&gt;Node1 -->
<g id="edge1" class="edge">
<title>Node0&#45;&gt;Node1</title>
<path fill="none" stroke="#191970" d="M536.2597,-168.4554C487.3177,-157.7439 422.4957,-143.5569 377.4184,-133.6912"/>
<polygon fill="#191970" stroke="#191970" points="378.0621,-130.2493 367.545,-131.5303 376.5655,-137.0875 378.0621,-130.2493"/>
</g>
<!-- Node6 -->
<g id="node7" class="node">
<title>Node6</title>
<g id="a_node7"><a xlink:href="flow__to__map_8h.html" target="_top" xlink:title=" ">
<polygon fill="none" stroke="#000000" points="441,-112.5 441,-131.5 585,-131.5 585,-112.5 441,-112.5"/>
<text text-anchor="middle" x="513" y="-119.5" font-family="Helvetica,sans-Serif" font-size="10.00" fill="#000000">soe/flow_to_map.h</text>
</a>
</g>
</g>
<!-- Node0&#45;&gt;Node6 -->
<g id="edge6" class="edge">
<title>Node0&#45;&gt;Node6</title>
<path fill="none" stroke="#191970" d="M582.2584,-168.2977C568.2033,-158.9022 550.217,-146.8787 536.0964,-137.4395"/>
<polygon fill="#191970" stroke="#191970" points="537.7143,-134.311 527.4556,-131.6633 533.8241,-140.1305 537.7143,-134.311"/>
</g>
<!-- Node7 -->
<g id="node8" class="node">
<title>Node7</title>
<g id="a_node8"><a xlink:title=" ">
<polygon fill="none" stroke="#bfbfbf" points="603.5,-112.5 603.5,-131.5 792.5,-131.5 792.5,-112.5 603.5,-112.5"/>
<text text-anchor="middle" x="698" y="-119.5" font-family="Helvetica,sans-Serif" font-size="10.00" fill="#000000">opencv2/cudaimgproc.hpp</text>
</a>
</g>
</g>
<!-- Node0&#45;&gt;Node7 -->
<g id="edge8" class="edge">
<title>Node0&#45;&gt;Node7</title>
<path fill="none" stroke="#191970" d="M627.9888,-168.2977C642.1966,-158.9022 660.3785,-146.8787 674.6525,-137.4395"/>
<polygon fill="#191970" stroke="#191970" points="676.9767,-140.0986 683.3872,-131.6633 673.1155,-134.2598 676.9767,-140.0986"/>
</g>
<!-- Node8 -->
<g id="node9" class="node">
<title>Node8</title>
<g id="a_node9"><a xlink:title=" ">
<polygon fill="none" stroke="#bfbfbf" points="810.5,-112.5 810.5,-131.5 999.5,-131.5 999.5,-112.5 810.5,-112.5"/>
<text text-anchor="middle" x="905" y="-119.5" font-family="Helvetica,sans-Serif" font-size="10.00" fill="#000000">opencv2/cudawarping.hpp</text>
</a>
</g>
</g>
<!-- Node0&#45;&gt;Node8 -->
<g id="edge9" class="edge">
<title>Node0&#45;&gt;Node8</title>
<path fill="none" stroke="#191970" d="M678.3883,-168.4554C730.859,-157.6989 800.4263,-143.4376 848.5752,-133.5671"/>
<polygon fill="#191970" stroke="#191970" points="849.4173,-136.9673 858.5106,-131.5303 848.0115,-130.1099 849.4173,-136.9673"/>
</g>
<!-- Node2 -->
<g id="node3" class="node">
<title>Node2</title>
<g id="a_node3"><a xlink:href="farneback__settings_8h.html" target="_top" xlink:title=" ">
<polygon fill="none" stroke="#000000" points="7.5,-56.5 7.5,-75.5 204.5,-75.5 204.5,-56.5 7.5,-56.5"/>
<text text-anchor="middle" x="106" y="-63.5" font-family="Helvetica,sans-Serif" font-size="10.00" fill="#000000">soe/farneback_settings.h</text>
</a>
</g>
</g>
<!-- Node1&#45;&gt;Node2 -->
<g id="edge2" class="edge">
<title>Node1&#45;&gt;Node2</title>
<path fill="none" stroke="#191970" d="M286.5245,-112.3733C249.4897,-102.8598 192.7318,-88.2797 152.7639,-78.0127"/>
<polygon fill="#191970" stroke="#191970" points="153.5429,-74.5993 142.9865,-75.5011 151.8012,-81.3792 153.5429,-74.5993"/>
</g>
<!-- Node4 -->
<g id="node5" class="node">
<title>Node4</title>
<g id="a_node5"><a xlink:title=" ">
<polygon fill="none" stroke="#bfbfbf" points="430,-56.5 430,-75.5 604,-75.5 604,-56.5 430,-56.5"/>
<text text-anchor="middle" x="517" y="-63.5" font-family="Helvetica,sans-Serif" font-size="10.00" fill="#000000">opencv2/core/cuda.hpp</text>
</a>
</g>
</g>
<!-- Node1&#45;&gt;Node4 -->
<g id="edge4" class="edge">
<title>Node1&#45;&gt;Node4</title>
<path fill="none" stroke="#191970" d="M357.1779,-112.3733C389.5487,-102.9807 438.9398,-88.6496 474.2424,-78.4064"/>
<polygon fill="#191970" stroke="#191970" points="475.6265,-81.6492 484.2551,-75.5011 473.6758,-74.9264 475.6265,-81.6492"/>
</g>
<!-- Node5 -->
<g id="node6" class="node">
<title>Node5</title>
<g id="a_node6"><a xlink:title=" ">
<polygon fill="none" stroke="#bfbfbf" points="222.5,-56.5 222.5,-75.5 411.5,-75.5 411.5,-56.5 222.5,-56.5"/>
<text text-anchor="middle" x="317" y="-63.5" font-family="Helvetica,sans-Serif" font-size="10.00" fill="#000000">opencv2/cudaoptflow.hpp</text>
</a>
</g>
</g>
<!-- Node1&#45;&gt;Node5 -->
<g id="edge5" class="edge">
<title>Node1&#45;&gt;Node5</title>
<path fill="none" stroke="#191970" d="M322.7807,-112.2455C321.8673,-104.9382 320.5868,-94.6944 319.4631,-85.7046"/>
<polygon fill="#191970" stroke="#191970" points="322.9187,-85.1313 318.2053,-75.6427 315.9728,-85.9996 322.9187,-85.1313"/>
</g>
<!-- Node3 -->
<g id="node4" class="node">
<title>Node3</title>
<g id="a_node4"><a xlink:title=" ">
<polygon fill="none" stroke="#bfbfbf" points="0,-.5 0,-19.5 212,-19.5 212,-.5 0,-.5"/>
<text text-anchor="middle" x="106" y="-7.5" font-family="Helvetica,sans-Serif" font-size="10.00" fill="#000000">opencv2/video/tracking.hpp</text>
</a>
</g>
</g>
<!-- Node2&#45;&gt;Node3 -->
<g id="edge3" class="edge">
<title>Node2&#45;&gt;Node3</title>
<path fill="none" stroke="#191970" d="M106,-56.2455C106,-48.9382 106,-38.6944 106,-29.7046"/>
<polygon fill="#191970" stroke="#191970" points="109.5001,-29.6426 106,-19.6427 102.5001,-29.6427 109.5001,-29.6426"/>
</g>
<!-- Node6&#45;&gt;Node4 -->
<g id="edge7" class="edge">
<title>Node6&#45;&gt;Node4</title>
<path fill="none" stroke="#191970" d="M513.6967,-112.2455C514.2187,-104.9382 514.9504,-94.6944 515.5925,-85.7046"/>
<polygon fill="#191970" stroke="#191970" points="519.0898,-85.8667 516.3112,-75.6427 512.1076,-85.3679 519.0898,-85.8667"/>
</g>
</g>
</svg>
