<?xml version="1.0" encoding="UTF-8" standalone="no"?>
<!DOCTYPE svg PUBLIC "-//W3C//DTD SVG 1.1//EN"
 "http://www.w3.org/Graphics/SVG/1.1/DTD/svg11.dtd">
<!-- Generated by graphviz version 2.40.1 (0)
 -->
<!-- Title: libsoe/frame_stream.cpp Pages: 1 -->
<svg width="547pt" height="196pt"
 viewBox="0.00 0.00 547.00 196.00" xmlns="http://www.w3.org/2000/svg" xmlns:xlink="http://www.w3.org/1999/xlink">
<g id="graph0" class="graph" transform="scale(1 1) rotate(0) translate(4 192)">
<title>libsoe/frame_stream.cpp</title>
<!-- Node0 -->
<g id="node1" class="node">
<title>Node0</title>
<g id="a_node1"><a xlink:title=" ">
<polygon fill="#bfbfbf" stroke="#000000" points="233,-168.5 233,-187.5 422,-187.5 422,-168.5 233,-168.5"/>
<text text-anchor="middle" x="327.5" y="-175.5" font-family="Helvetica,sans-Serif" font-size="10.00" fill="#000000">libsoe/frame_stream.cpp</text>
</a>
</g>
</g>
<!-- Node1 -->
<g id="node2" class="node">
<title>Node1</title>
<g id="a_node2"><a xlink:href="frame__stream_8h.html" target="_top" xlink:title=" ">
<polygon fill="none" stroke="#000000" points="149.5,-112.5 149.5,-131.5 301.5,-131.5 301.5,-112.5 149.5,-112.5"/>
<text text-anchor="middle" x="225.5" y="-119.5" font-family="Helvetica,sans-Serif" font-size="10.00" fill="#000000">soe/frame_stream.h</text>
</a>
</g>
</g>
<!-- Node0&#45;&gt;Node1 -->
<g id="edge1" class="edge">
<title>Node0&#45;&gt;Node1</title>
<path fill="none" stroke="#191970" d="M309.733,-168.2455C293.7905,-159.4928 270.1741,-146.527 252.0011,-136.5496"/>
<polygon fill="#191970" stroke="#191970" points="253.5137,-133.3873 243.0634,-131.6427 250.1448,-139.5233 253.5137,-133.3873"/>
</g>
<!-- Node5 -->
<g id="node6" class="node">
<title>Node5</title>
<g id="a_node6"><a xlink:title=" ">
<polygon fill="none" stroke="#bfbfbf" points="320,-112.5 320,-131.5 539,-131.5 539,-112.5 320,-112.5"/>
<text text-anchor="middle" x="429.5" y="-119.5" font-family="Helvetica,sans-Serif" font-size="10.00" fill="#000000">opencv2/imgproc/imgproc.hpp</text>
</a>
</g>
</g>
<!-- Node0&#45;&gt;Node5 -->
<g id="edge6" class="edge">
<title>Node0&#45;&gt;Node5</title>
<path fill="none" stroke="#191970" d="M345.267,-168.2455C361.2095,-159.4928 384.8259,-146.527 402.9989,-136.5496"/>
<polygon fill="#191970" stroke="#191970" points="404.8552,-139.5233 411.9366,-131.6427 401.4863,-133.3873 404.8552,-139.5233"/>
</g>
<!-- Node2 -->
<g id="node3" class="node">
<title>Node2</title>
<g id="a_node3"><a xlink:href="farneback__settings_8h.html" target="_top" xlink:title=" ">
<polygon fill="none" stroke="#000000" points="0,-56.5 0,-75.5 197,-75.5 197,-56.5 0,-56.5"/>
<text text-anchor="middle" x="98.5" y="-63.5" font-family="Helvetica,sans-Serif" font-size="10.00" fill="#000000">soe/farneback_settings.h</text>
</a>
</g>
</g>
<!-- Node1&#45;&gt;Node2 -->
<g id="edge2" class="edge">
<title>Node1&#45;&gt;Node2</title>
<path fill="none" stroke="#191970" d="M203.6679,-112.3733C183.1897,-103.3435 152.3601,-89.7494 129.3681,-79.6111"/>
<polygon fill="#191970" stroke="#191970" points="130.6093,-76.3333 120.0472,-75.5011 127.785,-82.7383 130.6093,-76.3333"/>
</g>
<!-- Node3 -->
<g id="node4" class="node">
<title>Node3</title>
<g id="a_node4"><a xlink:title=" ">
<polygon fill="none" stroke="#bfbfbf" points="55.5,-.5 55.5,-19.5 267.5,-19.5 267.5,-.5 55.5,-.5"/>
<text text-anchor="middle" x="161.5" y="-7.5" font-family="Helvetica,sans-Serif" font-size="10.00" fill="#000000">opencv2/video/tracking.hpp</text>
</a>
</g>
</g>
<!-- Node1&#45;&gt;Node3 -->
<g id="edge5" class="edge">
<title>Node1&#45;&gt;Node3</title>
<path fill="none" stroke="#191970" d="M224.258,-112.4604C222.1945,-99.0847 217.181,-74.3407 206.5,-56 200.0432,-44.9128 190.3233,-34.5157 181.5674,-26.4209"/>
<polygon fill="#191970" stroke="#191970" points="183.7352,-23.6661 173.9187,-19.6804 179.1071,-28.9179 183.7352,-23.6661"/>
</g>
<!-- Node4 -->
<g id="node5" class="node">
<title>Node4</title>
<g id="a_node5"><a xlink:title=" ">
<polygon fill="none" stroke="#bfbfbf" points="253,-56.5 253,-75.5 420,-75.5 420,-56.5 253,-56.5"/>
<text text-anchor="middle" x="336.5" y="-63.5" font-family="Helvetica,sans-Serif" font-size="10.00" fill="#000000">opencv2/core/mat.hpp</text>
</a>
</g>
</g>
<!-- Node1&#45;&gt;Node4 -->
<g id="edge4" class="edge">
<title>Node1&#45;&gt;Node4</title>
<path fill="none" stroke="#191970" d="M244.5816,-112.3733C262.2402,-103.4644 288.7053,-90.1127 308.7098,-80.0203"/>
<polygon fill="#191970" stroke="#191970" points="310.3158,-83.1303 317.6674,-75.5011 307.1628,-76.8806 310.3158,-83.1303"/>
</g>
<!-- Node2&#45;&gt;Node3 -->
<g id="edge3" class="edge">
<title>Node2&#45;&gt;Node3</title>
<path fill="none" stroke="#191970" d="M109.4738,-56.2455C118.6882,-48.0549 132.0532,-36.1749 142.9297,-26.5069"/>
<polygon fill="#191970" stroke="#191970" points="145.5032,-28.9023 150.652,-19.6427 140.8526,-23.6704 145.5032,-28.9023"/>
</g>
</g>
</svg>
