<?xml version="1.0" encoding="UTF-8" standalone="no"?>
<!DOCTYPE svg PUBLIC "-//W3C//DTD SVG 1.1//EN"
 "http://www.w3.org/Graphics/SVG/1.1/DTD/svg11.dtd">
<!-- Generated by graphviz version 2.40.1 (0)
 -->
<!-- Title: libsoe/include/soe/frame_stream_cuda.h Pages: 1 -->
<svg width="390pt" height="95pt"
 viewBox="0.00 0.00 389.50 95.00" xmlns="http://www.w3.org/2000/svg" xmlns:xlink="http://www.w3.org/1999/xlink">
<g id="graph0" class="graph" transform="scale(1 1) rotate(0) translate(4 91)">
<title>libsoe/include/soe/frame_stream_cuda.h</title>
<!-- Node0 -->
<g id="node1" class="node">
<title>Node0</title>
<g id="a_node1"><a xlink:title=" ">
<polygon fill="#bfbfbf" stroke="#000000" points="103.5,-56.5 103.5,-86.5 270.5,-86.5 270.5,-56.5 103.5,-56.5"/>
<text text-anchor="start" x="111.5" y="-74.5" font-family="Helvetica,sans-Serif" font-size="10.00" fill="#000000">libsoe/include/soe</text>
<text text-anchor="middle" x="187" y="-63.5" font-family="Helvetica,sans-Serif" font-size="10.00" fill="#000000">/frame_stream_cuda.h</text>
</a>
</g>
</g>
<!-- Node1 -->
<g id="node2" class="node">
<title>Node1</title>
<g id="a_node2"><a xlink:title=" ">
<polygon fill="none" stroke="#bfbfbf" points="0,-.5 0,-19.5 174,-19.5 174,-.5 0,-.5"/>
<text text-anchor="middle" x="87" y="-7.5" font-family="Helvetica,sans-Serif" font-size="10.00" fill="#000000">opencv2/core/cuda.hpp</text>
</a>
</g>
</g>
<!-- Node0&#45;&gt;Node1 -->
<g id="edge1" class="edge">
<title>Node0&#45;&gt;Node1</title>
<path fill="none" stroke="#191970" d="M162.5372,-56.4554C146.8765,-46.8241 126.6468,-34.3828 111.0644,-24.7996"/>
<polygon fill="#191970" stroke="#191970" points="112.848,-21.7876 102.4965,-19.5303 109.181,-27.7503 112.848,-21.7876"/>
</g>
<!-- Node2 -->
<g id="node3" class="node">
<title>Node2</title>
<g id="a_node3"><a xlink:title=" ">
<polygon fill="none" stroke="#bfbfbf" points="192.5,-.5 192.5,-19.5 381.5,-19.5 381.5,-.5 192.5,-.5"/>
<text text-anchor="middle" x="287" y="-7.5" font-family="Helvetica,sans-Serif" font-size="10.00" fill="#000000">opencv2/cudaoptflow.hpp</text>
</a>
</g>
</g>
<!-- Node0&#45;&gt;Node2 -->
<g id="edge2" class="edge">
<title>Node0&#45;&gt;Node2</title>
<path fill="none" stroke="#191970" d="M211.4628,-56.4554C227.1235,-46.8241 247.3532,-34.3828 262.9356,-24.7996"/>
<polygon fill="#191970" stroke="#191970" points="264.819,-27.7503 271.5035,-19.5303 261.152,-21.7876 264.819,-27.7503"/>
</g>
</g>
</svg>
