<?xml version="1.0" encoding="UTF-8" standalone="no"?>
<!DOCTYPE svg PUBLIC "-//W3C//DTD SVG 1.1//EN"
 "http://www.w3.org/Graphics/SVG/1.1/DTD/svg11.dtd">
<!-- Generated by graphviz version 2.40.1 (0)
 -->
<!-- Title: libsoe/frame_stream_cuda.cpp Pages: 1 -->
<svg width="1019pt" height="151pt"
 viewBox="0.00 0.00 1019.00 151.00" xmlns="http://www.w3.org/2000/svg" xmlns:xlink="http://www.w3.org/1999/xlink">
<g id="graph0" class="graph" transform="scale(1 1) rotate(0) translate(4 147)">
<title>libsoe/frame_stream_cuda.cpp</title>
<!-- Node0 -->
<g id="node1" class="node">
<title>Node0</title>
<g id="a_node1"><a xlink:title=" ">
<polygon fill="#bfbfbf" stroke="#000000" points="399.5,-112.5 399.5,-142.5 558.5,-142.5 558.5,-112.5 399.5,-112.5"/>
<text text-anchor="start" x="407.5" y="-130.5" font-family="Helvetica,sans-Serif" font-size="10.00" fill="#000000">libsoe/frame_stream</text>
<text text-anchor="middle" x="479" y="-119.5" font-family="Helvetica,sans-Serif" font-size="10.00" fill="#000000">_cuda.cpp</text>
</a>
</g>
</g>
<!-- Node1 -->
<g id="node2" class="node">
<title>Node1</title>
<g id="a_node2"><a xlink:href="frame__stream__cuda_8h.html" target="_top" xlink:title=" ">
<polygon fill="none" stroke="#000000" points="177.5,-56.5 177.5,-75.5 366.5,-75.5 366.5,-56.5 177.5,-56.5"/>
<text text-anchor="middle" x="272" y="-63.5" font-family="Helvetica,sans-Serif" font-size="10.00" fill="#000000">soe/frame_stream_cuda.h</text>
</a>
</g>
</g>
<!-- Node0&#45;&gt;Node1 -->
<g id="edge1" class="edge">
<title>Node0&#45;&gt;Node1</title>
<path fill="none" stroke="#191970" d="M428.3621,-112.4554C393.2177,-102.0139 346.9576,-88.27 313.8897,-78.4455"/>
<polygon fill="#191970" stroke="#191970" points="314.6603,-75.0233 304.0777,-75.5303 312.6667,-81.7334 314.6603,-75.0233"/>
</g>
<!-- Node4 -->
<g id="node5" class="node">
<title>Node4</title>
<g id="a_node5"><a xlink:href="flow__to__map_8h.html" target="_top" xlink:title=" ">
<polygon fill="none" stroke="#000000" points="15,-56.5 15,-75.5 159,-75.5 159,-56.5 15,-56.5"/>
<text text-anchor="middle" x="87" y="-63.5" font-family="Helvetica,sans-Serif" font-size="10.00" fill="#000000">soe/flow_to_map.h</text>
</a>
</g>
</g>
<!-- Node0&#45;&gt;Node4 -->
<g id="edge4" class="edge">
<title>Node0&#45;&gt;Node4</title>
<path fill="none" stroke="#191970" d="M399.2005,-114.9804C328.4023,-103.8731 225.946,-87.7989 157.9559,-77.1321"/>
<polygon fill="#191970" stroke="#191970" points="158.1883,-73.6258 147.7666,-75.5335 157.1033,-80.5412 158.1883,-73.6258"/>
</g>
<!-- Node5 -->
<g id="node6" class="node">
<title>Node5</title>
<g id="a_node6"><a xlink:title=" ">
<polygon fill="none" stroke="#bfbfbf" points="384.5,-56.5 384.5,-75.5 573.5,-75.5 573.5,-56.5 384.5,-56.5"/>
<text text-anchor="middle" x="479" y="-63.5" font-family="Helvetica,sans-Serif" font-size="10.00" fill="#000000">opencv2/cudaimgproc.hpp</text>
</a>
</g>
</g>
<!-- Node0&#45;&gt;Node5 -->
<g id="edge6" class="edge">
<title>Node0&#45;&gt;Node5</title>
<path fill="none" stroke="#191970" d="M479,-112.2977C479,-104.3834 479,-94.6043 479,-86.0759"/>
<polygon fill="#191970" stroke="#191970" points="482.5001,-85.8469 479,-75.8469 475.5001,-85.847 482.5001,-85.8469"/>
</g>
<!-- Node6 -->
<g id="node7" class="node">
<title>Node6</title>
<g id="a_node7"><a xlink:title=" ">
<polygon fill="none" stroke="#bfbfbf" points="591.5,-56.5 591.5,-75.5 780.5,-75.5 780.5,-56.5 591.5,-56.5"/>
<text text-anchor="middle" x="686" y="-63.5" font-family="Helvetica,sans-Serif" font-size="10.00" fill="#000000">opencv2/cudawarping.hpp</text>
</a>
</g>
</g>
<!-- Node0&#45;&gt;Node6 -->
<g id="edge7" class="edge">
<title>Node0&#45;&gt;Node6</title>
<path fill="none" stroke="#191970" d="M529.6379,-112.4554C564.7823,-102.0139 611.0424,-88.27 644.1103,-78.4455"/>
<polygon fill="#191970" stroke="#191970" points="645.3333,-81.7334 653.9223,-75.5303 643.3397,-75.0233 645.3333,-81.7334"/>
</g>
<!-- Node7 -->
<g id="node8" class="node">
<title>Node7</title>
<g id="a_node8"><a xlink:title=" ">
<polygon fill="none" stroke="#bfbfbf" points="799,-56.5 799,-75.5 1011,-75.5 1011,-56.5 799,-56.5"/>
<text text-anchor="middle" x="905" y="-63.5" font-family="Helvetica,sans-Serif" font-size="10.00" fill="#000000">opencv2/video/tracking.hpp</text>
</a>
</g>
</g>
<!-- Node0&#45;&gt;Node7 -->
<g id="edge8" class="edge">
<title>Node0&#45;&gt;Node7</title>
<path fill="none" stroke="#191970" d="M558.6276,-116.0045C636.0663,-104.8249 752.8602,-87.9638 829.0295,-76.9676"/>
<polygon fill="#191970" stroke="#191970" points="829.6389,-80.416 839.0361,-75.523 828.6386,-73.4878 829.6389,-80.416"/>
</g>
<!-- Node2 -->
<g id="node3" class="node">
<title>Node2</title>
<g id="a_node3"><a xlink:title=" ">
<polygon fill="none" stroke="#bfbfbf" points="0,-.5 0,-19.5 174,-19.5 174,-.5 0,-.5"/>
<text text-anchor="middle" x="87" y="-7.5" font-family="Helvetica,sans-Serif" font-size="10.00" fill="#000000">opencv2/core/cuda.hpp</text>
</a>
</g>
</g>
<!-- Node1&#45;&gt;Node2 -->
<g id="edge2" class="edge">
<title>Node1&#45;&gt;Node2</title>
<path fill="none" stroke="#191970" d="M240.1974,-56.3733C209.1683,-46.9807 161.8246,-32.6496 127.9853,-22.4064"/>
<polygon fill="#191970" stroke="#191970" points="128.9728,-19.0485 118.3876,-19.5011 126.9447,-25.7483 128.9728,-19.0485"/>
</g>
<!-- Node3 -->
<g id="node4" class="node">
<title>Node3</title>
<g id="a_node4"><a xlink:title=" ">
<polygon fill="none" stroke="#bfbfbf" points="192.5,-.5 192.5,-19.5 381.5,-19.5 381.5,-.5 192.5,-.5"/>
<text text-anchor="middle" x="287" y="-7.5" font-family="Helvetica,sans-Serif" font-size="10.00" fill="#000000">opencv2/cudaoptflow.hpp</text>
</a>
</g>
</g>
<!-- Node1&#45;&gt;Node3 -->
<g id="edge3" class="edge">
<title>Node1&#45;&gt;Node3</title>
<path fill="none" stroke="#191970" d="M274.6128,-56.2455C276.5916,-48.8579 279.3744,-38.4689 281.8012,-29.4087"/>
<polygon fill="#191970" stroke="#191970" points="285.2105,-30.2078 284.4171,-19.6427 278.4489,-28.3966 285.2105,-30.2078"/>
</g>
<!-- Node4&#45;&gt;Node2 -->
<g id="edge5" class="edge">
<title>Node4&#45;&gt;Node2</title>
<path fill="none" stroke="#191970" d="M87,-56.2455C87,-48.9382 87,-38.6944 87,-29.7046"/>
<polygon fill="#191970" stroke="#191970" points="90.5001,-29.6426 87,-19.6427 83.5001,-29.6427 90.5001,-29.6426"/>
</g>
</g>
</svg>
