<?xml version="1.0" encoding="UTF-8" standalone="no"?>
<!DOCTYPE svg PUBLIC "-//W3C//DTD SVG 1.1//EN"
 "http://www.w3.org/Graphics/SVG/1.1/DTD/svg11.dtd">
<!-- Generated by graphviz version 2.40.1 (0)
 -->
<!-- Title: libsoe/frame_stream_cuda.cpp Pages: 1 -->
<svg width="1351pt" height="207pt"
 viewBox="0.00 0.00 1350.50 207.00" xmlns="http://www.w3.org/2000/svg" xmlns:xlink="http://www.w3.org/1999/xlink">
<g id="graph0" class="graph" transform="scale(1 1) rotate(0) translate(4 203)">
<title>libsoe/frame_stream_cuda.cpp</title>
<!-- Node0 -->
<g id="node1" class="node">
<title>Node0</title>
<g id="a_node1"><a xlink:title=" ">
<polygon fill="#bfbfbf" stroke="#000000" points="757.5,-168.5 757.5,-198.5 916.5,-198.5 916.5,-168.5 757.5,-168.5"/>
<text text-anchor="start" x="765.5" y="-186.5" font-family="Helvetica,sans-Serif" font-size="10.00" fill="#000000">libsoe/frame_stream</text>
<text text-anchor="middle" x="837" y="-175.5" font-family="Helvetica,sans-Serif" font-size="10.00" fill="#000000">_cuda.cpp</text>
</a>
</g>
</g>
<!-- Node1 -->
<g id="node2" class="node">
<title>Node1</title>
<g id="a_node2"><a xlink:href="frame__stream__cuda_8h.html" target="_top" xlink:title=" ">
<polygon fill="none" stroke="#000000" points="369.5,-112.5 369.5,-131.5 558.5,-131.5 558.5,-112.5 369.5,-112.5"/>
<text text-anchor="middle" x="464" y="-119.5" font-family="Helvetica,sans-Serif" font-size="10.00" fill="#000000">soe/frame_stream_cuda.h</text>
</a>
</g>
</g>
<!-- Node0&#45;&gt;Node1 -->
<g id="edge1" class="edge">
<title>Node0&#45;&gt;Node1</title>
<path fill="none" stroke="#191970" d="M757.4396,-170.3821C690.3177,-159.3151 595.283,-143.6459 531.7414,-133.1692"/>
<polygon fill="#191970" stroke="#191970" points="532.2591,-129.7073 521.8229,-131.5338 531.1203,-136.6141 532.2591,-129.7073"/>
</g>
<!-- Node8 -->
<g id="node9" class="node">
<title>Node8</title>
<g id="a_node9"><a xlink:href="flow__to__map_8h.html" target="_top" xlink:title=" ">
<polygon fill="none" stroke="#000000" points="584,-112.5 584,-131.5 728,-131.5 728,-112.5 584,-112.5"/>
<text text-anchor="middle" x="656" y="-119.5" font-family="Helvetica,sans-Serif" font-size="10.00" fill="#000000">soe/flow_to_map.h</text>
</a>
</g>
</g>
<!-- Node0&#45;&gt;Node8 -->
<g id="edge8" class="edge">
<title>Node0&#45;&gt;Node8</title>
<path fill="none" stroke="#191970" d="M792.7224,-168.4554C762.3896,-158.149 722.5871,-144.6249 693.7556,-134.8286"/>
<polygon fill="#191970" stroke="#191970" points="694.643,-131.4336 684.0486,-131.5303 692.3909,-138.0615 694.643,-131.4336"/>
</g>
<!-- Node9 -->
<g id="node10" class="node">
<title>Node9</title>
<g id="a_node10"><a xlink:title=" ">
<polygon fill="none" stroke="#bfbfbf" points="746,-112.5 746,-131.5 928,-131.5 928,-112.5 746,-112.5"/>
<text text-anchor="middle" x="837" y="-119.5" font-family="Helvetica,sans-Serif" font-size="10.00" fill="#000000">opencv2/cudaarithm.hpp</text>
</a>
</g>
</g>
<!-- Node0&#45;&gt;Node9 -->
<g id="edge10" class="edge">
<title>Node0&#45;&gt;Node9</title>
<path fill="none" stroke="#191970" d="M837,-168.2977C837,-160.3834 837,-150.6043 837,-142.0759"/>
<polygon fill="#191970" stroke="#191970" points="840.5001,-141.8469 837,-131.8469 833.5001,-141.847 840.5001,-141.8469"/>
</g>
<!-- Node10 -->
<g id="node11" class="node">
<title>Node10</title>
<g id="a_node11"><a xlink:title=" ">
<polygon fill="none" stroke="#bfbfbf" points="946.5,-112.5 946.5,-131.5 1135.5,-131.5 1135.5,-112.5 946.5,-112.5"/>
<text text-anchor="middle" x="1041" y="-119.5" font-family="Helvetica,sans-Serif" font-size="10.00" fill="#000000">opencv2/cudaimgproc.hpp</text>
</a>
</g>
</g>
<!-- Node0&#45;&gt;Node10 -->
<g id="edge11" class="edge">
<title>Node0&#45;&gt;Node10</title>
<path fill="none" stroke="#191970" d="M886.904,-168.4554C921.5391,-158.0139 967.1288,-144.27 999.7174,-134.4455"/>
<polygon fill="#191970" stroke="#191970" points="1000.8231,-137.7678 1009.3872,-131.5303 998.8026,-131.0657 1000.8231,-137.7678"/>
</g>
<!-- Node11 -->
<g id="node12" class="node">
<title>Node11</title>
<g id="a_node12"><a xlink:title=" ">
<polygon fill="none" stroke="#bfbfbf" points="1153.5,-112.5 1153.5,-131.5 1342.5,-131.5 1342.5,-112.5 1153.5,-112.5"/>
<text text-anchor="middle" x="1248" y="-119.5" font-family="Helvetica,sans-Serif" font-size="10.00" fill="#000000">opencv2/cudawarping.hpp</text>
</a>
</g>
</g>
<!-- Node0&#45;&gt;Node11 -->
<g id="edge12" class="edge">
<title>Node0&#45;&gt;Node11</title>
<path fill="none" stroke="#191970" d="M916.7323,-171.5693C991.3101,-160.4098 1101.7951,-143.8774 1174.3409,-133.022"/>
<polygon fill="#191970" stroke="#191970" points="1174.946,-136.4705 1184.3179,-131.5291 1173.9101,-129.5476 1174.946,-136.4705"/>
</g>
<!-- Node2 -->
<g id="node3" class="node">
<title>Node2</title>
<g id="a_node3"><a xlink:href="farneback__settings_8h.html" target="_top" xlink:title=" ">
<polygon fill="none" stroke="#000000" points="27.5,-56.5 27.5,-75.5 224.5,-75.5 224.5,-56.5 27.5,-56.5"/>
<text text-anchor="middle" x="126" y="-63.5" font-family="Helvetica,sans-Serif" font-size="10.00" fill="#000000">soe/farneback_settings.h</text>
</a>
</g>
</g>
<!-- Node1&#45;&gt;Node2 -->
<g id="edge2" class="edge">
<title>Node1&#45;&gt;Node2</title>
<path fill="none" stroke="#191970" d="M406.2798,-112.4369C347.34,-102.6717 255.893,-87.5207 193.6034,-77.2006"/>
<polygon fill="#191970" stroke="#191970" points="193.9198,-73.7053 183.4822,-75.5237 192.7756,-80.6112 193.9198,-73.7053"/>
</g>
<!-- Node4 -->
<g id="node5" class="node">
<title>Node4</title>
<g id="a_node5"><a xlink:href="frame_8h.html" target="_top" xlink:title=" ">
<polygon fill="none" stroke="#000000" points="252.5,-56.5 252.5,-75.5 351.5,-75.5 351.5,-56.5 252.5,-56.5"/>
<text text-anchor="middle" x="302" y="-63.5" font-family="Helvetica,sans-Serif" font-size="10.00" fill="#000000">soe/frame.h</text>
</a>
</g>
</g>
<!-- Node1&#45;&gt;Node4 -->
<g id="edge4" class="edge">
<title>Node1&#45;&gt;Node4</title>
<path fill="none" stroke="#191970" d="M436.1512,-112.3733C409.3297,-103.1016 368.5873,-89.0178 339.0402,-78.804"/>
<polygon fill="#191970" stroke="#191970" points="340.0802,-75.4603 329.4854,-75.5011 337.7931,-82.0762 340.0802,-75.4603"/>
</g>
<!-- Node6 -->
<g id="node7" class="node">
<title>Node6</title>
<g id="a_node7"><a xlink:title=" ">
<polygon fill="none" stroke="#bfbfbf" points="577,-56.5 577,-75.5 751,-75.5 751,-56.5 577,-56.5"/>
<text text-anchor="middle" x="664" y="-63.5" font-family="Helvetica,sans-Serif" font-size="10.00" fill="#000000">opencv2/core/cuda.hpp</text>
</a>
</g>
</g>
<!-- Node1&#45;&gt;Node6 -->
<g id="edge6" class="edge">
<title>Node1&#45;&gt;Node6</title>
<path fill="none" stroke="#191970" d="M498.3812,-112.3733C532.0701,-102.9404 583.5482,-88.5265 620.1618,-78.2747"/>
<polygon fill="#191970" stroke="#191970" points="621.3815,-81.5679 630.0674,-75.5011 619.494,-74.8271 621.3815,-81.5679"/>
</g>
<!-- Node7 -->
<g id="node8" class="node">
<title>Node7</title>
<g id="a_node8"><a xlink:title=" ">
<polygon fill="none" stroke="#bfbfbf" points="369.5,-56.5 369.5,-75.5 558.5,-75.5 558.5,-56.5 369.5,-56.5"/>
<text text-anchor="middle" x="464" y="-63.5" font-family="Helvetica,sans-Serif" font-size="10.00" fill="#000000">opencv2/cudaoptflow.hpp</text>
</a>
</g>
</g>
<!-- Node1&#45;&gt;Node7 -->
<g id="edge7" class="edge">
<title>Node1&#45;&gt;Node7</title>
<path fill="none" stroke="#191970" d="M464,-112.2455C464,-104.9382 464,-94.6944 464,-85.7046"/>
<polygon fill="#191970" stroke="#191970" points="467.5001,-85.6426 464,-75.6427 460.5001,-85.6427 467.5001,-85.6426"/>
</g>
<!-- Node3 -->
<g id="node4" class="node">
<title>Node3</title>
<g id="a_node4"><a xlink:title=" ">
<polygon fill="none" stroke="#bfbfbf" points="0,-.5 0,-19.5 212,-19.5 212,-.5 0,-.5"/>
<text text-anchor="middle" x="106" y="-7.5" font-family="Helvetica,sans-Serif" font-size="10.00" fill="#000000">opencv2/video/tracking.hpp</text>
</a>
</g>
</g>
<!-- Node2&#45;&gt;Node3 -->
<g id="edge3" class="edge">
<title>Node2&#45;&gt;Node3</title>
<path fill="none" stroke="#191970" d="M122.5163,-56.2455C119.8492,-48.7776 116.0867,-38.2427 112.8263,-29.1137"/>
<polygon fill="#191970" stroke="#191970" points="116.1033,-27.8829 109.4438,-19.6427 109.5111,-30.2373 116.1033,-27.8829"/>
</g>
<!-- Node5 -->
<g id="node6" class="node">
<title>Node5</title>
<g id="a_node6"><a xlink:title=" ">
<polygon fill="none" stroke="#bfbfbf" points="229.5,-.5 229.5,-19.5 396.5,-19.5 396.5,-.5 229.5,-.5"/>
<text text-anchor="middle" x="313" y="-7.5" font-family="Helvetica,sans-Serif" font-size="10.00" fill="#000000">opencv2/core/mat.hpp</text>
</a>
</g>
</g>
<!-- Node4&#45;&gt;Node5 -->
<g id="edge5" class="edge">
<title>Node4&#45;&gt;Node5</title>
<path fill="none" stroke="#191970" d="M303.9161,-56.2455C305.3514,-48.9382 307.3636,-38.6944 309.1295,-29.7046"/>
<polygon fill="#191970" stroke="#191970" points="312.6127,-30.1298 311.1059,-19.6427 305.744,-28.7805 312.6127,-30.1298"/>
</g>
<!-- Node8&#45;&gt;Node6 -->
<g id="edge9" class="edge">
<title>Node8&#45;&gt;Node6</title>
<path fill="none" stroke="#191970" d="M657.3935,-112.2455C658.4374,-104.9382 659.9008,-94.6944 661.1851,-85.7046"/>
<polygon fill="#191970" stroke="#191970" points="664.673,-86.0372 662.6225,-75.6427 657.7434,-85.0472 664.673,-86.0372"/>
</g>
</g>
</svg>
