<?xml version="1.0" encoding="UTF-8" standalone="no"?>
<!DOCTYPE svg PUBLIC "-//W3C//DTD SVG 1.1//EN"
 "http://www.w3.org/Graphics/SVG/1.1/DTD/svg11.dtd">
<!-- Generated by graphviz version 2.40.1 (0)
 -->
<!-- Title: soe/main.cpp Pages: 1 -->
<svg width="1180pt" height="207pt"
 viewBox="0.00 0.00 1179.50 207.00" xmlns="http://www.w3.org/2000/svg" xmlns:xlink="http://www.w3.org/1999/xlink">
<g id="graph0" class="graph" transform="scale(1 1) rotate(0) translate(4 203)">
<title>soe/main.cpp</title>
<!-- Node0 -->
<g id="node1" class="node">
<title>Node0</title>
<g id="a_node1"><a xlink:title=" ">
<polygon fill="#bfbfbf" stroke="#000000" points="697,-179.5 697,-198.5 804,-198.5 804,-179.5 697,-179.5"/>
<text text-anchor="middle" x="750.5" y="-186.5" font-family="Helvetica,sans-Serif" font-size="10.00" fill="#000000">soe/main.cpp</text>
</a>
</g>
</g>
<!-- Node1 -->
<g id="node2" class="node">
<title>Node1</title>
<g id="a_node2"><a xlink:href="config_8h.html" target="_top" xlink:title=" ">
<polygon fill="none" stroke="#000000" points="328.5,-118 328.5,-137 450.5,-137 450.5,-118 328.5,-118"/>
<text text-anchor="middle" x="389.5" y="-125" font-family="Helvetica,sans-Serif" font-size="10.00" fill="#000000">utils/config.h</text>
</a>
</g>
</g>
<!-- Node0&#45;&gt;Node1 -->
<g id="edge1" class="edge">
<title>Node0&#45;&gt;Node1</title>
<path fill="none" stroke="#191970" d="M696.8445,-179.8592C632.5392,-168.9042 524.8019,-150.55 455.472,-138.739"/>
<polygon fill="#191970" stroke="#191970" points="455.9772,-135.2747 445.5314,-137.0455 454.8016,-142.1753 455.9772,-135.2747"/>
</g>
<!-- Node7 -->
<g id="node8" class="node">
<title>Node7</title>
<g id="a_node8"><a xlink:title=" ">
<polygon fill="none" stroke="#bfbfbf" points="589.5,-56.5 589.5,-75.5 681.5,-75.5 681.5,-56.5 589.5,-56.5"/>
<text text-anchor="middle" x="635.5" y="-63.5" font-family="Helvetica,sans-Serif" font-size="10.00" fill="#000000">filesystem</text>
</a>
</g>
</g>
<!-- Node0&#45;&gt;Node7 -->
<g id="edge14" class="edge">
<title>Node0&#45;&gt;Node7</title>
<path fill="none" stroke="#191970" d="M696.7731,-182.1034C650.9913,-174.9934 590.3188,-162.2174 575.5,-143 567.0866,-132.0893 569.4037,-124.3556 575.5,-112 581.9793,-98.8681 594.2062,-88.4457 605.9407,-80.8651"/>
<polygon fill="#191970" stroke="#191970" points="607.9244,-83.7572 614.7148,-75.6244 604.3348,-77.7475 607.9244,-83.7572"/>
</g>
<!-- Node10 -->
<g id="node11" class="node">
<title>Node10</title>
<g id="a_node11"><a xlink:title=" ">
<polygon fill="none" stroke="#bfbfbf" points="584,-118 584,-137 743,-137 743,-118 584,-118"/>
<text text-anchor="middle" x="663.5" y="-125" font-family="Helvetica,sans-Serif" font-size="10.00" fill="#000000">opencv2/videoio.hpp</text>
</a>
</g>
</g>
<!-- Node0&#45;&gt;Node10 -->
<g id="edge11" class="edge">
<title>Node0&#45;&gt;Node10</title>
<path fill="none" stroke="#191970" d="M736.9063,-179.3906C723.1157,-169.6421 701.5528,-154.3994 685.359,-142.9521"/>
<polygon fill="#191970" stroke="#191970" points="687.1844,-139.9563 676.9983,-137.0419 683.1437,-145.6723 687.1844,-139.9563"/>
</g>
<!-- Node11 -->
<g id="node12" class="node">
<title>Node11</title>
<g id="a_node12"><a xlink:title=" ">
<polygon fill="none" stroke="#bfbfbf" points="761.5,-112.5 761.5,-142.5 913.5,-142.5 913.5,-112.5 761.5,-112.5"/>
<text text-anchor="start" x="769.5" y="-130.5" font-family="Helvetica,sans-Serif" font-size="10.00" fill="#000000">spdlog/sinks/basic</text>
<text text-anchor="middle" x="837.5" y="-119.5" font-family="Helvetica,sans-Serif" font-size="10.00" fill="#000000">_file_sink.h</text>
</a>
</g>
</g>
<!-- Node0&#45;&gt;Node11 -->
<g id="edge12" class="edge">
<title>Node0&#45;&gt;Node11</title>
<path fill="none" stroke="#191970" d="M764.0938,-179.3906C775.7591,-171.1444 792.9859,-158.9669 807.82,-148.4807"/>
<polygon fill="#191970" stroke="#191970" points="810.072,-151.175 816.2174,-142.5446 806.0313,-145.459 810.072,-151.175"/>
</g>
<!-- Node12 -->
<g id="node13" class="node">
<title>Node12</title>
<g id="a_node13"><a xlink:title=" ">
<polygon fill="none" stroke="#bfbfbf" points="932,-112.5 932,-142.5 1091,-142.5 1091,-112.5 932,-112.5"/>
<text text-anchor="start" x="940" y="-130.5" font-family="Helvetica,sans-Serif" font-size="10.00" fill="#000000">spdlog/sinks/stdout</text>
<text text-anchor="middle" x="1011.5" y="-119.5" font-family="Helvetica,sans-Serif" font-size="10.00" fill="#000000">_color_sinks.h</text>
</a>
</g>
</g>
<!-- Node0&#45;&gt;Node12 -->
<g id="edge13" class="edge">
<title>Node0&#45;&gt;Node12</title>
<path fill="none" stroke="#191970" d="M790.9949,-179.4581C830.0949,-170.2449 890.2126,-156.0792 937.8058,-144.8647"/>
<polygon fill="#191970" stroke="#191970" points="938.8288,-148.2196 947.7595,-142.5193 937.2233,-141.4062 938.8288,-148.2196"/>
</g>
<!-- Node13 -->
<g id="node14" class="node">
<title>Node13</title>
<g id="a_node14"><a xlink:title=" ">
<polygon fill="none" stroke="#bfbfbf" points="1109.5,-118 1109.5,-137 1171.5,-137 1171.5,-118 1109.5,-118"/>
<text text-anchor="middle" x="1140.5" y="-125" font-family="Helvetica,sans-Serif" font-size="10.00" fill="#000000">string</text>
</a>
</g>
</g>
<!-- Node0&#45;&gt;Node13 -->
<g id="edge15" class="edge">
<title>Node0&#45;&gt;Node13</title>
<path fill="none" stroke="#191970" d="M804.0217,-185.9493C873.336,-181.0966 997.4784,-169.3257 1100.5,-143 1103.2735,-142.2913 1106.116,-141.4459 1108.9441,-140.521"/>
<polygon fill="#191970" stroke="#191970" points="1110.1414,-143.8099 1118.3833,-137.1524 1107.7886,-137.2172 1110.1414,-143.8099"/>
</g>
<!-- Node2 -->
<g id="node3" class="node">
<title>Node2</title>
<g id="a_node3"><a xlink:href="exception_8h.html" target="_top" xlink:title=" ">
<polygon fill="none" stroke="#000000" points="90.5,-56.5 90.5,-75.5 234.5,-75.5 234.5,-56.5 90.5,-56.5"/>
<text text-anchor="middle" x="162.5" y="-63.5" font-family="Helvetica,sans-Serif" font-size="10.00" fill="#000000">utils/exception.h</text>
</a>
</g>
</g>
<!-- Node1&#45;&gt;Node2 -->
<g id="edge2" class="edge">
<title>Node1&#45;&gt;Node2</title>
<path fill="none" stroke="#191970" d="M354.0313,-117.8906C314.5507,-107.1944 250.6557,-89.8836 207.6395,-78.2294"/>
<polygon fill="#191970" stroke="#191970" points="208.287,-74.7787 197.7197,-75.5419 206.4565,-81.5352 208.287,-74.7787"/>
</g>
<!-- Node3 -->
<g id="node4" class="node">
<title>Node3</title>
<g id="a_node4"><a xlink:title=" ">
<polygon fill="none" stroke="#bfbfbf" points="0,-.5 0,-19.5 107,-19.5 107,-.5 0,-.5"/>
<text text-anchor="middle" x="53.5" y="-7.5" font-family="Helvetica,sans-Serif" font-size="10.00" fill="#000000">fmt/format.h</text>
</a>
</g>
</g>
<!-- Node1&#45;&gt;Node3 -->
<g id="edge6" class="edge">
<title>Node1&#45;&gt;Node3</title>
<path fill="none" stroke="#191970" d="M328.37,-124.1627C249.7475,-118.7272 118.8591,-105.4536 81.5,-76 67.185,-64.7142 60.0849,-44.7408 56.6297,-29.7135"/>
<polygon fill="#191970" stroke="#191970" points="60.054,-28.9869 54.7069,-19.8404 53.1831,-30.3251 60.054,-28.9869"/>
</g>
<!-- Node6 -->
<g id="node7" class="node">
<title>Node6</title>
<g id="a_node7"><a xlink:title=" ">
<polygon fill="none" stroke="#bfbfbf" points="253,-56.5 253,-75.5 322,-75.5 322,-56.5 253,-56.5"/>
<text text-anchor="middle" x="287.5" y="-63.5" font-family="Helvetica,sans-Serif" font-size="10.00" fill="#000000">cstdlib</text>
</a>
</g>
</g>
<!-- Node1&#45;&gt;Node6 -->
<g id="edge7" class="edge">
<title>Node1&#45;&gt;Node6</title>
<path fill="none" stroke="#191970" d="M373.5625,-117.8906C357.0949,-107.9616 331.1742,-92.333 312.0796,-80.8201"/>
<polygon fill="#191970" stroke="#191970" points="313.6966,-77.7081 303.3256,-75.5419 310.0822,-83.7027 313.6966,-77.7081"/>
</g>
<!-- Node1&#45;&gt;Node7 -->
<g id="edge8" class="edge">
<title>Node1&#45;&gt;Node7</title>
<path fill="none" stroke="#191970" d="M427.6676,-117.9581C470.667,-107.2082 540.6351,-89.7162 587.3542,-78.0365"/>
<polygon fill="#191970" stroke="#191970" points="588.3903,-81.3852 597.2429,-75.5643 586.6925,-74.5942 588.3903,-81.3852"/>
</g>
<!-- Node8 -->
<g id="node9" class="node">
<title>Node8</title>
<g id="a_node9"><a xlink:title=" ">
<polygon fill="none" stroke="#bfbfbf" points="340,-56.5 340,-75.5 439,-75.5 439,-56.5 340,-56.5"/>
<text text-anchor="middle" x="389.5" y="-63.5" font-family="Helvetica,sans-Serif" font-size="10.00" fill="#000000">type_traits</text>
</a>
</g>
</g>
<!-- Node1&#45;&gt;Node8 -->
<g id="edge9" class="edge">
<title>Node1&#45;&gt;Node8</title>
<path fill="none" stroke="#191970" d="M389.5,-117.8906C389.5,-109.3657 389.5,-96.6392 389.5,-85.9235"/>
<polygon fill="#191970" stroke="#191970" points="393.0001,-85.7448 389.5,-75.7449 386.0001,-85.7449 393.0001,-85.7448"/>
</g>
<!-- Node9 -->
<g id="node10" class="node">
<title>Node9</title>
<g id="a_node10"><a xlink:title=" ">
<polygon fill="none" stroke="#bfbfbf" points="457.5,-56.5 457.5,-75.5 571.5,-75.5 571.5,-56.5 457.5,-56.5"/>
<text text-anchor="middle" x="514.5" y="-63.5" font-family="Helvetica,sans-Serif" font-size="10.00" fill="#000000">unordered_map</text>
</a>
</g>
</g>
<!-- Node1&#45;&gt;Node9 -->
<g id="edge10" class="edge">
<title>Node1&#45;&gt;Node9</title>
<path fill="none" stroke="#191970" d="M409.0313,-117.8906C429.6708,-107.7359 462.4276,-91.6196 485.9602,-80.0416"/>
<polygon fill="#191970" stroke="#191970" points="487.6782,-83.0971 495.1059,-75.5419 484.588,-76.8161 487.6782,-83.0971"/>
</g>
<!-- Node2&#45;&gt;Node3 -->
<g id="edge3" class="edge">
<title>Node2&#45;&gt;Node3</title>
<path fill="none" stroke="#191970" d="M143.5136,-56.2455C126.3208,-47.4125 100.7762,-34.2887 81.2868,-24.2758"/>
<polygon fill="#191970" stroke="#191970" points="82.763,-21.0993 72.2688,-19.6427 79.5641,-27.3257 82.763,-21.0993"/>
</g>
<!-- Node4 -->
<g id="node5" class="node">
<title>Node4</title>
<g id="a_node5"><a xlink:title=" ">
<polygon fill="none" stroke="#bfbfbf" points="124.5,-.5 124.5,-19.5 208.5,-19.5 208.5,-.5 124.5,-.5"/>
<text text-anchor="middle" x="166.5" y="-7.5" font-family="Helvetica,sans-Serif" font-size="10.00" fill="#000000">stdexcept</text>
</a>
</g>
</g>
<!-- Node2&#45;&gt;Node4 -->
<g id="edge4" class="edge">
<title>Node2&#45;&gt;Node4</title>
<path fill="none" stroke="#191970" d="M163.1967,-56.2455C163.7187,-48.9382 164.4504,-38.6944 165.0925,-29.7046"/>
<polygon fill="#191970" stroke="#191970" points="168.5898,-29.8667 165.8112,-19.6427 161.6076,-29.3679 168.5898,-29.8667"/>
</g>
<!-- Node5 -->
<g id="node6" class="node">
<title>Node5</title>
<g id="a_node6"><a xlink:title=" ">
<polygon fill="none" stroke="#bfbfbf" points="227,-.5 227,-19.5 326,-19.5 326,-.5 227,-.5"/>
<text text-anchor="middle" x="276.5" y="-7.5" font-family="Helvetica,sans-Serif" font-size="10.00" fill="#000000">string_view</text>
</a>
</g>
</g>
<!-- Node2&#45;&gt;Node5 -->
<g id="edge5" class="edge">
<title>Node2&#45;&gt;Node5</title>
<path fill="none" stroke="#191970" d="M182.0973,-56.3733C200.2331,-47.4644 227.4135,-34.1127 247.9587,-24.0203"/>
<polygon fill="#191970" stroke="#191970" points="249.7261,-27.0517 257.1584,-19.5011 246.6397,-20.7688 249.7261,-27.0517"/>
</g>
</g>
</svg>
