<?xml version="1.0" encoding="UTF-8" standalone="no"?>
<!DOCTYPE svg PUBLIC "-//W3C//DTD SVG 1.1//EN"
 "http://www.w3.org/Graphics/SVG/1.1/DTD/svg11.dtd">
<!-- Generated by graphviz version 2.40.1 (0)
 -->
<!-- Title: soe/main.cpp Pages: 1 -->
<svg width="2510pt" height="207pt"
 viewBox="0.00 0.00 2510.00 207.00" xmlns="http://www.w3.org/2000/svg" xmlns:xlink="http://www.w3.org/1999/xlink">
<g id="graph0" class="graph" transform="scale(1 1) rotate(0) translate(4 203)">
<title>soe/main.cpp</title>
<!-- Node0 -->
<g id="node1" class="node">
<title>Node0</title>
<g id="a_node1"><a xlink:title=" ">
<polygon fill="#bfbfbf" stroke="#000000" points="1675.5,-179.5 1675.5,-198.5 1782.5,-198.5 1782.5,-179.5 1675.5,-179.5"/>
<text text-anchor="middle" x="1729" y="-186.5" font-family="Helvetica,sans-Serif" font-size="10.00" fill="#000000">soe/main.cpp</text>
</a>
</g>
</g>
<!-- Node1 -->
<g id="node2" class="node">
<title>Node1</title>
<g id="a_node2"><a xlink:href="frame__stream_8h.html" target="_top" xlink:title=" ">
<polygon fill="none" stroke="#000000" points="197,-118 197,-137 349,-137 349,-118 197,-118"/>
<text text-anchor="middle" x="273" y="-125" font-family="Helvetica,sans-Serif" font-size="10.00" fill="#000000">soe/frame_stream.h</text>
</a>
</g>
</g>
<!-- Node0&#45;&gt;Node1 -->
<g id="edge1" class="edge">
<title>Node0&#45;&gt;Node1</title>
<path fill="none" stroke="#191970" d="M1675.2329,-187.3986C1505.9128,-182.2589 968.584,-165.21 524,-143 469.1441,-140.2596 407.5888,-136.4695 359.1655,-133.3231"/>
<polygon fill="#191970" stroke="#191970" points="359.2457,-129.821 349.0389,-132.6621 358.7897,-136.8061 359.2457,-129.821"/>
</g>
<!-- Node6 -->
<g id="node7" class="node">
<title>Node6</title>
<g id="a_node7"><a xlink:href="frame__stream__cuda_8h.html" target="_top" xlink:title=" ">
<polygon fill="none" stroke="#000000" points="533.5,-118 533.5,-137 722.5,-137 722.5,-118 533.5,-118"/>
<text text-anchor="middle" x="628" y="-125" font-family="Helvetica,sans-Serif" font-size="10.00" fill="#000000">soe/frame_stream_cuda.h</text>
</a>
</g>
</g>
<!-- Node0&#45;&gt;Node6 -->
<g id="edge7" class="edge">
<title>Node0&#45;&gt;Node6</title>
<path fill="none" stroke="#191970" d="M1675.1512,-185.9921C1502.7542,-176.3623 962.3262,-146.1749 732.7911,-133.3535"/>
<polygon fill="#191970" stroke="#191970" points="732.9422,-129.8565 722.7625,-132.7933 732.5517,-136.8456 732.9422,-129.8565"/>
</g>
<!-- Node10 -->
<g id="node11" class="node">
<title>Node10</title>
<g id="a_node11"><a xlink:href="config_8h.html" target="_top" xlink:title=" ">
<polygon fill="none" stroke="#000000" points="1247,-118 1247,-137 1369,-137 1369,-118 1247,-118"/>
<text text-anchor="middle" x="1308" y="-125" font-family="Helvetica,sans-Serif" font-size="10.00" fill="#000000">utils/config.h</text>
</a>
</g>
</g>
<!-- Node0&#45;&gt;Node10 -->
<g id="edge13" class="edge">
<title>Node0&#45;&gt;Node10</title>
<path fill="none" stroke="#191970" d="M1675.2524,-181.1485C1599.9522,-170.1486 1462.9125,-150.1297 1379.2023,-137.9013"/>
<polygon fill="#191970" stroke="#191970" points="1379.6668,-134.4321 1369.2658,-136.4498 1378.6549,-141.3586 1379.6668,-134.4321"/>
</g>
<!-- Node16 -->
<g id="node17" class="node">
<title>Node16</title>
<g id="a_node17"><a xlink:title=" ">
<polygon fill="none" stroke="#bfbfbf" points="1478,-56.5 1478,-75.5 1570,-75.5 1570,-56.5 1478,-56.5"/>
<text text-anchor="middle" x="1524" y="-63.5" font-family="Helvetica,sans-Serif" font-size="10.00" fill="#000000">filesystem</text>
</a>
</g>
</g>
<!-- Node0&#45;&gt;Node16 -->
<g id="edge33" class="edge">
<title>Node0&#45;&gt;Node16</title>
<path fill="none" stroke="#191970" d="M1675.3467,-181.969C1627.2345,-174.5861 1561.4596,-161.4693 1543,-143 1527.989,-127.9811 1524.1685,-103.1137 1523.5035,-85.714"/>
<polygon fill="#191970" stroke="#191970" points="1527.0023,-85.5136 1523.4362,-75.537 1520.0025,-85.5599 1527.0023,-85.5136"/>
</g>
<!-- Node19 -->
<g id="node20" class="node">
<title>Node19</title>
<g id="a_node20"><a xlink:href="consume__queue_8h.html" target="_top" xlink:title=" ">
<polygon fill="none" stroke="#000000" points="1552,-118 1552,-137 1726,-137 1726,-118 1552,-118"/>
<text text-anchor="middle" x="1639" y="-125" font-family="Helvetica,sans-Serif" font-size="10.00" fill="#000000">utils/consume_queue.h</text>
</a>
</g>
</g>
<!-- Node0&#45;&gt;Node19 -->
<g id="edge23" class="edge">
<title>Node0&#45;&gt;Node19</title>
<path fill="none" stroke="#191970" d="M1714.9375,-179.3906C1700.6714,-169.6421 1678.365,-154.3994 1661.6128,-142.9521"/>
<polygon fill="#191970" stroke="#191970" points="1663.1949,-139.7941 1652.9638,-137.0419 1659.2455,-145.5736 1663.1949,-139.7941"/>
</g>
<!-- Node24 -->
<g id="node25" class="node">
<title>Node24</title>
<g id="a_node25"><a xlink:href="scope__exit_8h.html" target="_top" xlink:title=" ">
<polygon fill="none" stroke="#000000" points="1744,-118 1744,-137 1896,-137 1896,-118 1744,-118"/>
<text text-anchor="middle" x="1820" y="-125" font-family="Helvetica,sans-Serif" font-size="10.00" fill="#000000">utils/scope_exit.h</text>
</a>
</g>
</g>
<!-- Node0&#45;&gt;Node24 -->
<g id="edge28" class="edge">
<title>Node0&#45;&gt;Node24</title>
<path fill="none" stroke="#191970" d="M1743.2188,-179.3906C1757.6434,-169.6421 1780.1976,-154.3994 1797.136,-142.9521"/>
<polygon fill="#191970" stroke="#191970" points="1799.5556,-145.5412 1805.8811,-137.0419 1795.6359,-139.7415 1799.5556,-145.5412"/>
</g>
<!-- Node26 -->
<g id="node27" class="node">
<title>Node26</title>
<g id="a_node27"><a xlink:title=" ">
<polygon fill="none" stroke="#bfbfbf" points="1914.5,-118 1914.5,-137 2073.5,-137 2073.5,-118 1914.5,-118"/>
<text text-anchor="middle" x="1994" y="-125" font-family="Helvetica,sans-Serif" font-size="10.00" fill="#000000">opencv2/videoio.hpp</text>
</a>
</g>
</g>
<!-- Node0&#45;&gt;Node26 -->
<g id="edge30" class="edge">
<title>Node0&#45;&gt;Node26</title>
<path fill="none" stroke="#191970" d="M1770.1155,-179.4581C1816.6302,-168.6632 1892.4408,-151.0694 1942.7673,-139.3899"/>
<polygon fill="#191970" stroke="#191970" points="1943.8382,-142.7344 1952.7881,-137.0643 1942.2557,-135.9156 1943.8382,-142.7344"/>
</g>
<!-- Node27 -->
<g id="node28" class="node">
<title>Node27</title>
<g id="a_node28"><a xlink:title=" ">
<polygon fill="none" stroke="#bfbfbf" points="2092,-112.5 2092,-142.5 2244,-142.5 2244,-112.5 2092,-112.5"/>
<text text-anchor="start" x="2100" y="-130.5" font-family="Helvetica,sans-Serif" font-size="10.00" fill="#000000">spdlog/sinks/basic</text>
<text text-anchor="middle" x="2168" y="-119.5" font-family="Helvetica,sans-Serif" font-size="10.00" fill="#000000">_file_sink.h</text>
</a>
</g>
</g>
<!-- Node0&#45;&gt;Node27 -->
<g id="edge31" class="edge">
<title>Node0&#45;&gt;Node27</title>
<path fill="none" stroke="#191970" d="M1782.7976,-182.8773C1850.2477,-175.0077 1969.657,-160.4398 2081.4738,-143.1953"/>
<polygon fill="#191970" stroke="#191970" points="2082.2311,-146.6197 2091.5756,-141.6267 2081.157,-139.7026 2082.2311,-146.6197"/>
</g>
<!-- Node28 -->
<g id="node29" class="node">
<title>Node28</title>
<g id="a_node29"><a xlink:title=" ">
<polygon fill="none" stroke="#bfbfbf" points="2262.5,-112.5 2262.5,-142.5 2421.5,-142.5 2421.5,-112.5 2262.5,-112.5"/>
<text text-anchor="start" x="2270.5" y="-130.5" font-family="Helvetica,sans-Serif" font-size="10.00" fill="#000000">spdlog/sinks/stdout</text>
<text text-anchor="middle" x="2342" y="-119.5" font-family="Helvetica,sans-Serif" font-size="10.00" fill="#000000">_color_sinks.h</text>
</a>
</g>
</g>
<!-- Node0&#45;&gt;Node28 -->
<g id="edge32" class="edge">
<title>Node0&#45;&gt;Node28</title>
<path fill="none" stroke="#191970" d="M1782.7214,-185.7943C1876.0423,-179.8955 2074.3229,-165.9057 2252.3975,-143.0028"/>
<polygon fill="#191970" stroke="#191970" points="2253.0087,-146.4529 2262.4747,-141.6943 2252.1073,-139.5112 2253.0087,-146.4529"/>
</g>
<!-- Node29 -->
<g id="node30" class="node">
<title>Node29</title>
<g id="a_node30"><a xlink:title=" ">
<polygon fill="none" stroke="#bfbfbf" points="2440,-118 2440,-137 2502,-137 2502,-118 2440,-118"/>
<text text-anchor="middle" x="2471" y="-125" font-family="Helvetica,sans-Serif" font-size="10.00" fill="#000000">string</text>
</a>
</g>
</g>
<!-- Node0&#45;&gt;Node29 -->
<g id="edge34" class="edge">
<title>Node0&#45;&gt;Node29</title>
<path fill="none" stroke="#191970" d="M1782.7445,-187.5882C1924.7646,-183.5211 2307.5687,-170.2854 2431,-143 2434.0293,-142.3304 2437.1318,-141.4682 2440.2035,-140.494"/>
<polygon fill="#191970" stroke="#191970" points="2441.5269,-143.7384 2449.7831,-137.0986 2439.1884,-137.1405 2441.5269,-143.7384"/>
</g>
<!-- Node2 -->
<g id="node3" class="node">
<title>Node2</title>
<g id="a_node3"><a xlink:href="farneback__settings_8h.html" target="_top" xlink:title=" ">
<polygon fill="none" stroke="#000000" points="91.5,-56.5 91.5,-75.5 288.5,-75.5 288.5,-56.5 91.5,-56.5"/>
<text text-anchor="middle" x="190" y="-63.5" font-family="Helvetica,sans-Serif" font-size="10.00" fill="#000000">soe/farneback_settings.h</text>
</a>
</g>
</g>
<!-- Node1&#45;&gt;Node2 -->
<g id="edge2" class="edge">
<title>Node1&#45;&gt;Node2</title>
<path fill="none" stroke="#191970" d="M260.0313,-117.8906C246.9966,-108.2324 226.6836,-93.1812 211.2845,-81.771"/>
<polygon fill="#191970" stroke="#191970" points="212.9961,-78.6832 202.8777,-75.5419 208.8287,-84.3075 212.9961,-78.6832"/>
</g>
<!-- Node3 -->
<g id="node4" class="node">
<title>Node3</title>
<g id="a_node4"><a xlink:title=" ">
<polygon fill="none" stroke="#bfbfbf" points="0,-.5 0,-19.5 212,-19.5 212,-.5 0,-.5"/>
<text text-anchor="middle" x="106" y="-7.5" font-family="Helvetica,sans-Serif" font-size="10.00" fill="#000000">opencv2/video/tracking.hpp</text>
</a>
</g>
</g>
<!-- Node1&#45;&gt;Node3 -->
<g id="edge6" class="edge">
<title>Node1&#45;&gt;Node3</title>
<path fill="none" stroke="#191970" d="M204.9539,-117.9979C156.407,-109.6628 97.1423,-95.7659 82,-76 71.0703,-61.733 80.6846,-42.0136 90.808,-27.8511"/>
<polygon fill="#191970" stroke="#191970" points="93.6475,-29.9006 96.9979,-19.8495 88.1108,-25.6175 93.6475,-29.9006"/>
</g>
<!-- Node4 -->
<g id="node5" class="node">
<title>Node4</title>
<g id="a_node5"><a xlink:href="frame_8h.html" target="_top" xlink:title=" ">
<polygon fill="none" stroke="#000000" points="306.5,-56.5 306.5,-75.5 405.5,-75.5 405.5,-56.5 306.5,-56.5"/>
<text text-anchor="middle" x="356" y="-63.5" font-family="Helvetica,sans-Serif" font-size="10.00" fill="#000000">soe/frame.h</text>
</a>
</g>
</g>
<!-- Node1&#45;&gt;Node4 -->
<g id="edge4" class="edge">
<title>Node1&#45;&gt;Node4</title>
<path fill="none" stroke="#191970" d="M285.9688,-117.8906C299.0034,-108.2324 319.3164,-93.1812 334.7155,-81.771"/>
<polygon fill="#191970" stroke="#191970" points="337.1713,-84.3075 343.1223,-75.5419 333.0039,-78.6832 337.1713,-84.3075"/>
</g>
<!-- Node2&#45;&gt;Node3 -->
<g id="edge3" class="edge">
<title>Node2&#45;&gt;Node3</title>
<path fill="none" stroke="#191970" d="M175.3683,-56.2455C162.6006,-47.7337 143.8562,-35.2375 129.0701,-25.3801"/>
<polygon fill="#191970" stroke="#191970" points="130.726,-22.2775 120.464,-19.6427 126.8431,-28.1019 130.726,-22.2775"/>
</g>
<!-- Node5 -->
<g id="node6" class="node">
<title>Node5</title>
<g id="a_node6"><a xlink:title=" ">
<polygon fill="none" stroke="#bfbfbf" points="272.5,-.5 272.5,-19.5 439.5,-19.5 439.5,-.5 272.5,-.5"/>
<text text-anchor="middle" x="356" y="-7.5" font-family="Helvetica,sans-Serif" font-size="10.00" fill="#000000">opencv2/core/mat.hpp</text>
</a>
</g>
</g>
<!-- Node4&#45;&gt;Node5 -->
<g id="edge5" class="edge">
<title>Node4&#45;&gt;Node5</title>
<path fill="none" stroke="#191970" d="M356,-56.2455C356,-48.9382 356,-38.6944 356,-29.7046"/>
<polygon fill="#191970" stroke="#191970" points="359.5001,-29.6426 356,-19.6427 352.5001,-29.6427 359.5001,-29.6426"/>
</g>
<!-- Node6&#45;&gt;Node2 -->
<g id="edge8" class="edge">
<title>Node6&#45;&gt;Node2</title>
<path fill="none" stroke="#191970" d="M560.0431,-117.9581C481.0405,-106.8653 350.9076,-88.5932 267.8906,-76.9367"/>
<polygon fill="#191970" stroke="#191970" points="268.1455,-73.4382 257.756,-75.5137 267.1721,-80.3702 268.1455,-73.4382"/>
</g>
<!-- Node6&#45;&gt;Node4 -->
<g id="edge9" class="edge">
<title>Node6&#45;&gt;Node4</title>
<path fill="none" stroke="#191970" d="M585.7984,-117.9581C537.9553,-107.1406 459.9169,-89.4959 408.2628,-77.8168"/>
<polygon fill="#191970" stroke="#191970" points="408.8263,-74.3559 398.3006,-75.5643 407.2825,-81.1835 408.8263,-74.3559"/>
</g>
<!-- Node7 -->
<g id="node8" class="node">
<title>Node7</title>
<g id="a_node8"><a xlink:href="vec_8h.html" target="_top" xlink:title=" ">
<polygon fill="none" stroke="#000000" points="823.5,-56.5 823.5,-75.5 922.5,-75.5 922.5,-56.5 823.5,-56.5"/>
<text text-anchor="middle" x="873" y="-63.5" font-family="Helvetica,sans-Serif" font-size="10.00" fill="#000000">utils/vec.h</text>
</a>
</g>
</g>
<!-- Node6&#45;&gt;Node7 -->
<g id="edge10" class="edge">
<title>Node6&#45;&gt;Node7</title>
<path fill="none" stroke="#191970" d="M666.0124,-117.9581C708.8371,-107.2082 778.5208,-89.7162 825.0499,-78.0365"/>
<polygon fill="#191970" stroke="#191970" points="826.0515,-81.3937 834.8984,-75.5643 824.3471,-74.6043 826.0515,-81.3937"/>
</g>
<!-- Node8 -->
<g id="node9" class="node">
<title>Node8</title>
<g id="a_node9"><a xlink:title=" ">
<polygon fill="none" stroke="#bfbfbf" points="424,-56.5 424,-75.5 598,-75.5 598,-56.5 424,-56.5"/>
<text text-anchor="middle" x="511" y="-63.5" font-family="Helvetica,sans-Serif" font-size="10.00" fill="#000000">opencv2/core/cuda.hpp</text>
</a>
</g>
</g>
<!-- Node6&#45;&gt;Node8 -->
<g id="edge11" class="edge">
<title>Node6&#45;&gt;Node8</title>
<path fill="none" stroke="#191970" d="M609.7188,-117.8906C590.4859,-107.7811 560.0121,-91.7628 538.0075,-80.1962"/>
<polygon fill="#191970" stroke="#191970" points="539.633,-77.0967 529.1529,-75.5419 536.376,-83.2928 539.633,-77.0967"/>
</g>
<!-- Node9 -->
<g id="node10" class="node">
<title>Node9</title>
<g id="a_node10"><a xlink:title=" ">
<polygon fill="none" stroke="#bfbfbf" points="616.5,-56.5 616.5,-75.5 805.5,-75.5 805.5,-56.5 616.5,-56.5"/>
<text text-anchor="middle" x="711" y="-63.5" font-family="Helvetica,sans-Serif" font-size="10.00" fill="#000000">opencv2/cudaoptflow.hpp</text>
</a>
</g>
</g>
<!-- Node6&#45;&gt;Node9 -->
<g id="edge12" class="edge">
<title>Node6&#45;&gt;Node9</title>
<path fill="none" stroke="#191970" d="M640.9688,-117.8906C654.0034,-108.2324 674.3164,-93.1812 689.7155,-81.771"/>
<polygon fill="#191970" stroke="#191970" points="692.1713,-84.3075 698.1223,-75.5419 688.0039,-78.6832 692.1713,-84.3075"/>
</g>
<!-- Node11 -->
<g id="node12" class="node">
<title>Node11</title>
<g id="a_node12"><a xlink:href="exception_8h.html" target="_top" xlink:title=" ">
<polygon fill="none" stroke="#000000" points="1111,-56.5 1111,-75.5 1255,-75.5 1255,-56.5 1111,-56.5"/>
<text text-anchor="middle" x="1183" y="-63.5" font-family="Helvetica,sans-Serif" font-size="10.00" fill="#000000">utils/exception.h</text>
</a>
</g>
</g>
<!-- Node10&#45;&gt;Node11 -->
<g id="edge14" class="edge">
<title>Node10&#45;&gt;Node11</title>
<path fill="none" stroke="#191970" d="M1288.4688,-117.8906C1267.8292,-107.7359 1235.0724,-91.6196 1211.5398,-80.0416"/>
<polygon fill="#191970" stroke="#191970" points="1212.912,-76.8161 1202.3941,-75.5419 1209.8218,-83.0971 1212.912,-76.8161"/>
</g>
<!-- Node12 -->
<g id="node13" class="node">
<title>Node12</title>
<g id="a_node13"><a xlink:title=" ">
<polygon fill="none" stroke="#bfbfbf" points="1022.5,-.5 1022.5,-19.5 1129.5,-19.5 1129.5,-.5 1022.5,-.5"/>
<text text-anchor="middle" x="1076" y="-7.5" font-family="Helvetica,sans-Serif" font-size="10.00" fill="#000000">fmt/format.h</text>
</a>
</g>
</g>
<!-- Node10&#45;&gt;Node12 -->
<g id="edge18" class="edge">
<title>Node10&#45;&gt;Node12</title>
<path fill="none" stroke="#191970" d="M1246.8793,-118.5334C1194.2338,-109.7006 1123.4397,-94.8137 1102,-76 1088.5749,-64.2192 1082.0163,-44.6038 1078.853,-29.8118"/>
<polygon fill="#191970" stroke="#191970" points="1082.2419,-28.8792 1077.0384,-19.6502 1075.351,-30.1098 1082.2419,-28.8792"/>
</g>
<!-- Node15 -->
<g id="node16" class="node">
<title>Node15</title>
<g id="a_node16"><a xlink:title=" ">
<polygon fill="none" stroke="#bfbfbf" points="1273.5,-56.5 1273.5,-75.5 1342.5,-75.5 1342.5,-56.5 1273.5,-56.5"/>
<text text-anchor="middle" x="1308" y="-63.5" font-family="Helvetica,sans-Serif" font-size="10.00" fill="#000000">cstdlib</text>
</a>
</g>
</g>
<!-- Node10&#45;&gt;Node15 -->
<g id="edge19" class="edge">
<title>Node10&#45;&gt;Node15</title>
<path fill="none" stroke="#191970" d="M1308,-117.8906C1308,-109.3657 1308,-96.6392 1308,-85.9235"/>
<polygon fill="#191970" stroke="#191970" points="1311.5001,-85.7448 1308,-75.7449 1304.5001,-85.7449 1311.5001,-85.7448"/>
</g>
<!-- Node10&#45;&gt;Node16 -->
<g id="edge20" class="edge">
<title>Node10&#45;&gt;Node16</title>
<path fill="none" stroke="#191970" d="M1341.75,-117.8906C1379.2381,-107.2169 1439.8597,-89.9566 1480.7886,-78.3033"/>
<polygon fill="#191970" stroke="#191970" points="1481.8277,-81.6466 1490.487,-75.5419 1479.9108,-74.9141 1481.8277,-81.6466"/>
</g>
<!-- Node17 -->
<g id="node18" class="node">
<title>Node17</title>
<g id="a_node18"><a xlink:title=" ">
<polygon fill="none" stroke="#bfbfbf" points="1360.5,-56.5 1360.5,-75.5 1459.5,-75.5 1459.5,-56.5 1360.5,-56.5"/>
<text text-anchor="middle" x="1410" y="-63.5" font-family="Helvetica,sans-Serif" font-size="10.00" fill="#000000">type_traits</text>
</a>
</g>
</g>
<!-- Node10&#45;&gt;Node17 -->
<g id="edge21" class="edge">
<title>Node10&#45;&gt;Node17</title>
<path fill="none" stroke="#191970" d="M1323.9375,-117.8906C1340.4051,-107.9616 1366.3258,-92.333 1385.4204,-80.8201"/>
<polygon fill="#191970" stroke="#191970" points="1387.4178,-83.7027 1394.1744,-75.5419 1383.8034,-77.7081 1387.4178,-83.7027"/>
</g>
<!-- Node18 -->
<g id="node19" class="node">
<title>Node18</title>
<g id="a_node19"><a xlink:title=" ">
<polygon fill="none" stroke="#bfbfbf" points="941,-56.5 941,-75.5 1055,-75.5 1055,-56.5 941,-56.5"/>
<text text-anchor="middle" x="998" y="-63.5" font-family="Helvetica,sans-Serif" font-size="10.00" fill="#000000">unordered_map</text>
</a>
</g>
</g>
<!-- Node10&#45;&gt;Node18 -->
<g id="edge22" class="edge">
<title>Node10&#45;&gt;Node18</title>
<path fill="none" stroke="#191970" d="M1259.9026,-117.9581C1204.8408,-107.0345 1114.6868,-89.1492 1055.8409,-77.4749"/>
<polygon fill="#191970" stroke="#191970" points="1056.4451,-74.0266 1045.9551,-75.5137 1055.0829,-80.8928 1056.4451,-74.0266"/>
</g>
<!-- Node11&#45;&gt;Node12 -->
<g id="edge15" class="edge">
<title>Node11&#45;&gt;Node12</title>
<path fill="none" stroke="#191970" d="M1164.362,-56.2455C1147.5614,-47.4527 1122.6366,-34.4079 1103.5382,-24.4125"/>
<polygon fill="#191970" stroke="#191970" points="1104.9073,-21.1787 1094.4244,-19.6427 1101.6614,-27.3807 1104.9073,-21.1787"/>
</g>
<!-- Node13 -->
<g id="node14" class="node">
<title>Node13</title>
<g id="a_node14"><a xlink:title=" ">
<polygon fill="none" stroke="#bfbfbf" points="1147,-.5 1147,-19.5 1231,-19.5 1231,-.5 1147,-.5"/>
<text text-anchor="middle" x="1189" y="-7.5" font-family="Helvetica,sans-Serif" font-size="10.00" fill="#000000">stdexcept</text>
</a>
</g>
</g>
<!-- Node11&#45;&gt;Node13 -->
<g id="edge16" class="edge">
<title>Node11&#45;&gt;Node13</title>
<path fill="none" stroke="#191970" d="M1184.0451,-56.2455C1184.828,-48.9382 1185.9256,-38.6944 1186.8888,-29.7046"/>
<polygon fill="#191970" stroke="#191970" points="1190.3815,-29.9587 1187.9669,-19.6427 1183.4214,-29.2129 1190.3815,-29.9587"/>
</g>
<!-- Node14 -->
<g id="node15" class="node">
<title>Node14</title>
<g id="a_node15"><a xlink:title=" ">
<polygon fill="none" stroke="#bfbfbf" points="1249.5,-.5 1249.5,-19.5 1348.5,-19.5 1348.5,-.5 1249.5,-.5"/>
<text text-anchor="middle" x="1299" y="-7.5" font-family="Helvetica,sans-Serif" font-size="10.00" fill="#000000">string_view</text>
</a>
</g>
</g>
<!-- Node11&#45;&gt;Node14 -->
<g id="edge17" class="edge">
<title>Node11&#45;&gt;Node14</title>
<path fill="none" stroke="#191970" d="M1202.9411,-56.3733C1221.4786,-47.4241 1249.3028,-33.9917 1270.2413,-23.8835"/>
<polygon fill="#191970" stroke="#191970" points="1271.8352,-27.0006 1279.3191,-19.5011 1268.7919,-20.6967 1271.8352,-27.0006"/>
</g>
<!-- Node20 -->
<g id="node21" class="node">
<title>Node20</title>
<g id="a_node21"><a xlink:title=" ">
<polygon fill="none" stroke="#bfbfbf" points="1756,-56.5 1756,-75.5 1908,-75.5 1908,-56.5 1756,-56.5"/>
<text text-anchor="middle" x="1832" y="-63.5" font-family="Helvetica,sans-Serif" font-size="10.00" fill="#000000">condition_variable</text>
</a>
</g>
</g>
<!-- Node19&#45;&gt;Node20 -->
<g id="edge24" class="edge">
<title>Node19&#45;&gt;Node20</title>
<path fill="none" stroke="#191970" d="M1669.1563,-117.8906C1702.2985,-107.3298 1755.6762,-90.3208 1792.2242,-78.6747"/>
<polygon fill="#191970" stroke="#191970" points="1793.5902,-81.9129 1802.0555,-75.5419 1791.4649,-75.2433 1793.5902,-81.9129"/>
</g>
<!-- Node21 -->
<g id="node22" class="node">
<title>Node21</title>
<g id="a_node22"><a xlink:title=" ">
<polygon fill="none" stroke="#bfbfbf" points="1926,-56.5 1926,-75.5 1980,-75.5 1980,-56.5 1926,-56.5"/>
<text text-anchor="middle" x="1953" y="-63.5" font-family="Helvetica,sans-Serif" font-size="10.00" fill="#000000">mutex</text>
</a>
</g>
</g>
<!-- Node19&#45;&gt;Node21 -->
<g id="edge25" class="edge">
<title>Node19&#45;&gt;Node21</title>
<path fill="none" stroke="#191970" d="M1698.9656,-117.9552C1753.2735,-108.9566 1835.6492,-94.428 1916.1345,-76.0514"/>
<polygon fill="#191970" stroke="#191970" points="1916.9801,-79.4483 1925.9384,-73.7914 1915.4077,-72.6272 1916.9801,-79.4483"/>
</g>
<!-- Node22 -->
<g id="node23" class="node">
<title>Node22</title>
<g id="a_node23"><a xlink:title=" ">
<polygon fill="none" stroke="#bfbfbf" points="1588.5,-56.5 1588.5,-75.5 1665.5,-75.5 1665.5,-56.5 1588.5,-56.5"/>
<text text-anchor="middle" x="1627" y="-63.5" font-family="Helvetica,sans-Serif" font-size="10.00" fill="#000000">optional</text>
</a>
</g>
</g>
<!-- Node19&#45;&gt;Node22 -->
<g id="edge26" class="edge">
<title>Node19&#45;&gt;Node22</title>
<path fill="none" stroke="#191970" d="M1637.125,-117.8906C1635.4441,-109.276 1632.926,-96.3708 1630.8216,-85.5858"/>
<polygon fill="#191970" stroke="#191970" points="1634.2518,-84.8895 1628.9014,-75.7449 1627.3814,-86.2301 1634.2518,-84.8895"/>
</g>
<!-- Node23 -->
<g id="node24" class="node">
<title>Node23</title>
<g id="a_node24"><a xlink:title=" ">
<polygon fill="none" stroke="#bfbfbf" points="1684,-56.5 1684,-75.5 1738,-75.5 1738,-56.5 1684,-56.5"/>
<text text-anchor="middle" x="1711" y="-63.5" font-family="Helvetica,sans-Serif" font-size="10.00" fill="#000000">queue</text>
</a>
</g>
</g>
<!-- Node19&#45;&gt;Node23 -->
<g id="edge27" class="edge">
<title>Node19&#45;&gt;Node23</title>
<path fill="none" stroke="#191970" d="M1650.25,-117.8906C1661.386,-108.3786 1678.646,-93.6357 1691.9268,-82.2917"/>
<polygon fill="#191970" stroke="#191970" points="1694.2608,-84.9011 1699.5914,-75.7449 1689.7144,-79.5784 1694.2608,-84.9011"/>
</g>
<!-- Node25 -->
<g id="node26" class="node">
<title>Node25</title>
<g id="a_node26"><a xlink:title=" ">
<polygon fill="none" stroke="#bfbfbf" points="1998,-56.5 1998,-75.5 2090,-75.5 2090,-56.5 1998,-56.5"/>
<text text-anchor="middle" x="2044" y="-63.5" font-family="Helvetica,sans-Serif" font-size="10.00" fill="#000000">functional</text>
</a>
</g>
</g>
<!-- Node24&#45;&gt;Node25 -->
<g id="edge29" class="edge">
<title>Node24&#45;&gt;Node25</title>
<path fill="none" stroke="#191970" d="M1855,-117.8906C1893.9588,-107.1944 1957.0093,-89.8836 1999.4571,-78.2294"/>
<polygon fill="#191970" stroke="#191970" points="2000.5293,-81.5646 2009.2458,-75.5419 1998.6759,-74.8144 2000.5293,-81.5646"/>
</g>
</g>
</svg>
