<?xml version="1.0" encoding="UTF-8" standalone="no"?>
<!DOCTYPE svg PUBLIC "-//W3C//DTD SVG 1.1//EN"
 "http://www.w3.org/Graphics/SVG/1.1/DTD/svg11.dtd">
<!-- Generated by graphviz version 2.40.1 (0)
 -->
<!-- Title: soe/main.cpp Pages: 1 -->
<svg width="1325pt" height="207pt"
 viewBox="0.00 0.00 1324.50 207.00" xmlns="http://www.w3.org/2000/svg" xmlns:xlink="http://www.w3.org/1999/xlink">
<g id="graph0" class="graph" transform="scale(1 1) rotate(0) translate(4 203)">
<title>soe/main.cpp</title>
<!-- Node0 -->
<g id="node1" class="node">
<title>Node0</title>
<g id="a_node1"><a xlink:title=" ">
<polygon fill="#bfbfbf" stroke="#000000" points="701,-179.5 701,-198.5 808,-198.5 808,-179.5 701,-179.5"/>
<text text-anchor="middle" x="754.5" y="-186.5" font-family="Helvetica,sans-Serif" font-size="10.00" fill="#000000">soe/main.cpp</text>
</a>
</g>
</g>
<!-- Node1 -->
<g id="node2" class="node">
<title>Node1</title>
<g id="a_node2"><a xlink:href="frame__stream_8h.html" target="_top" xlink:title=" ">
<polygon fill="none" stroke="#000000" points="90.5,-118 90.5,-137 242.5,-137 242.5,-118 90.5,-118"/>
<text text-anchor="middle" x="166.5" y="-125" font-family="Helvetica,sans-Serif" font-size="10.00" fill="#000000">soe/frame_stream.h</text>
</a>
</g>
</g>
<!-- Node0&#45;&gt;Node1 -->
<g id="edge1" class="edge">
<title>Node0&#45;&gt;Node1</title>
<path fill="none" stroke="#191970" d="M700.723,-185.6627C608.5108,-179.5874 414.4068,-165.2572 251.5,-143 242.7534,-141.805 233.5361,-140.3403 224.5268,-138.793"/>
<polygon fill="#191970" stroke="#191970" points="224.9355,-135.3111 214.4795,-137.0209 223.7196,-142.2047 224.9355,-135.3111"/>
</g>
<!-- Node3 -->
<g id="node4" class="node">
<title>Node3</title>
<g id="a_node4"><a xlink:href="frame__stream__cuda_8h.html" target="_top" xlink:title=" ">
<polygon fill="none" stroke="#000000" points="261,-118 261,-137 450,-137 450,-118 261,-118"/>
<text text-anchor="middle" x="355.5" y="-125" font-family="Helvetica,sans-Serif" font-size="10.00" fill="#000000">soe/frame_stream_cuda.h</text>
</a>
</g>
</g>
<!-- Node0&#45;&gt;Node3 -->
<g id="edge3" class="edge">
<title>Node0&#45;&gt;Node3</title>
<path fill="none" stroke="#191970" d="M700.6891,-180.7058C630.1505,-169.8333 506.1821,-150.7254 427.5846,-138.6108"/>
<polygon fill="#191970" stroke="#191970" points="427.6978,-135.087 417.2813,-137.0227 426.6314,-142.0053 427.6978,-135.087"/>
</g>
<!-- Node5 -->
<g id="node6" class="node">
<title>Node5</title>
<g id="a_node6"><a xlink:href="config_8h.html" target="_top" xlink:title=" ">
<polygon fill="none" stroke="#000000" points="551.5,-118 551.5,-137 673.5,-137 673.5,-118 551.5,-118"/>
<text text-anchor="middle" x="612.5" y="-125" font-family="Helvetica,sans-Serif" font-size="10.00" fill="#000000">utils/config.h</text>
</a>
</g>
</g>
<!-- Node0&#45;&gt;Node5 -->
<g id="edge5" class="edge">
<title>Node0&#45;&gt;Node5</title>
<path fill="none" stroke="#191970" d="M732.3125,-179.3906C708.5533,-169.1005 670.6595,-152.6888 643.8575,-141.0809"/>
<polygon fill="#191970" stroke="#191970" points="645.0991,-137.8045 634.5317,-137.0419 642.317,-144.2279 645.0991,-137.8045"/>
</g>
<!-- Node11 -->
<g id="node12" class="node">
<title>Node11</title>
<g id="a_node12"><a xlink:title=" ">
<polygon fill="none" stroke="#bfbfbf" points="914.5,-56.5 914.5,-75.5 1006.5,-75.5 1006.5,-56.5 914.5,-56.5"/>
<text text-anchor="middle" x="960.5" y="-63.5" font-family="Helvetica,sans-Serif" font-size="10.00" fill="#000000">filesystem</text>
</a>
</g>
</g>
<!-- Node0&#45;&gt;Node11 -->
<g id="edge18" class="edge">
<title>Node0&#45;&gt;Node11</title>
<path fill="none" stroke="#191970" d="M743.8794,-179.0719C728.4287,-163.4363 703.3697,-132.7254 720.5,-112 721.9793,-110.2103 833.7619,-89.3399 904.2324,-76.3338"/>
<polygon fill="#191970" stroke="#191970" points="905.1124,-79.7306 914.3119,-74.4751 903.8429,-72.8467 905.1124,-79.7306"/>
</g>
<!-- Node14 -->
<g id="node15" class="node">
<title>Node14</title>
<g id="a_node15"><a xlink:title=" ">
<polygon fill="none" stroke="#bfbfbf" points="729,-118 729,-137 888,-137 888,-118 729,-118"/>
<text text-anchor="middle" x="808.5" y="-125" font-family="Helvetica,sans-Serif" font-size="10.00" fill="#000000">opencv2/videoio.hpp</text>
</a>
</g>
</g>
<!-- Node0&#45;&gt;Node14 -->
<g id="edge15" class="edge">
<title>Node0&#45;&gt;Node14</title>
<path fill="none" stroke="#191970" d="M762.9375,-179.3906C771.0531,-170.1478 783.5055,-155.966 793.3424,-144.7628"/>
<polygon fill="#191970" stroke="#191970" points="795.9755,-147.0686 799.9435,-137.2449 790.7154,-142.45 795.9755,-147.0686"/>
</g>
<!-- Node15 -->
<g id="node16" class="node">
<title>Node15</title>
<g id="a_node16"><a xlink:title=" ">
<polygon fill="none" stroke="#bfbfbf" points="906.5,-112.5 906.5,-142.5 1058.5,-142.5 1058.5,-112.5 906.5,-112.5"/>
<text text-anchor="start" x="914.5" y="-130.5" font-family="Helvetica,sans-Serif" font-size="10.00" fill="#000000">spdlog/sinks/basic</text>
<text text-anchor="middle" x="982.5" y="-119.5" font-family="Helvetica,sans-Serif" font-size="10.00" fill="#000000">_file_sink.h</text>
</a>
</g>
</g>
<!-- Node0&#45;&gt;Node15 -->
<g id="edge16" class="edge">
<title>Node0&#45;&gt;Node15</title>
<path fill="none" stroke="#191970" d="M790.125,-179.3906C823.982,-170.2581 875.715,-156.3038 917.0093,-145.1653"/>
<polygon fill="#191970" stroke="#191970" points="917.9815,-148.5282 926.7249,-142.5446 916.1585,-141.7697 917.9815,-148.5282"/>
</g>
<!-- Node16 -->
<g id="node17" class="node">
<title>Node16</title>
<g id="a_node17"><a xlink:title=" ">
<polygon fill="none" stroke="#bfbfbf" points="1077,-112.5 1077,-142.5 1236,-142.5 1236,-112.5 1077,-112.5"/>
<text text-anchor="start" x="1085" y="-130.5" font-family="Helvetica,sans-Serif" font-size="10.00" fill="#000000">spdlog/sinks/stdout</text>
<text text-anchor="middle" x="1156.5" y="-119.5" font-family="Helvetica,sans-Serif" font-size="10.00" fill="#000000">_color_sinks.h</text>
</a>
</g>
</g>
<!-- Node0&#45;&gt;Node16 -->
<g id="edge17" class="edge">
<title>Node0&#45;&gt;Node16</title>
<path fill="none" stroke="#191970" d="M808.0109,-181.5758C868.3123,-173.1109 969.5292,-158.607 1066.922,-143.0678"/>
<polygon fill="#191970" stroke="#191970" points="1067.6204,-146.5007 1076.9411,-141.4634 1066.5134,-139.5887 1067.6204,-146.5007"/>
</g>
<!-- Node17 -->
<g id="node18" class="node">
<title>Node17</title>
<g id="a_node18"><a xlink:title=" ">
<polygon fill="none" stroke="#bfbfbf" points="1254.5,-118 1254.5,-137 1316.5,-137 1316.5,-118 1254.5,-118"/>
<text text-anchor="middle" x="1285.5" y="-125" font-family="Helvetica,sans-Serif" font-size="10.00" fill="#000000">string</text>
</a>
</g>
</g>
<!-- Node0&#45;&gt;Node17 -->
<g id="edge19" class="edge">
<title>Node0&#45;&gt;Node17</title>
<path fill="none" stroke="#191970" d="M808.0556,-185.8545C917.5314,-179.1181 1163.5227,-162.3284 1245.5,-143 1248.3542,-142.327 1251.2767,-141.4944 1254.179,-140.5671"/>
<polygon fill="#191970" stroke="#191970" points="1255.5826,-143.7831 1263.8397,-137.1445 1253.245,-137.1849 1255.5826,-143.7831"/>
</g>
<!-- Node2 -->
<g id="node3" class="node">
<title>Node2</title>
<g id="a_node3"><a xlink:title=" ">
<polygon fill="none" stroke="#bfbfbf" points="0,-56.5 0,-75.5 167,-75.5 167,-56.5 0,-56.5"/>
<text text-anchor="middle" x="83.5" y="-63.5" font-family="Helvetica,sans-Serif" font-size="10.00" fill="#000000">opencv2/core/mat.hpp</text>
</a>
</g>
</g>
<!-- Node1&#45;&gt;Node2 -->
<g id="edge2" class="edge">
<title>Node1&#45;&gt;Node2</title>
<path fill="none" stroke="#191970" d="M153.5313,-117.8906C140.4966,-108.2324 120.1836,-93.1812 104.7845,-81.771"/>
<polygon fill="#191970" stroke="#191970" points="106.4961,-78.6832 96.3777,-75.5419 102.3287,-84.3075 106.4961,-78.6832"/>
</g>
<!-- Node4 -->
<g id="node5" class="node">
<title>Node4</title>
<g id="a_node5"><a xlink:title=" ">
<polygon fill="none" stroke="#bfbfbf" points="185.5,-56.5 185.5,-75.5 359.5,-75.5 359.5,-56.5 185.5,-56.5"/>
<text text-anchor="middle" x="272.5" y="-63.5" font-family="Helvetica,sans-Serif" font-size="10.00" fill="#000000">opencv2/core/cuda.hpp</text>
</a>
</g>
</g>
<!-- Node3&#45;&gt;Node4 -->
<g id="edge4" class="edge">
<title>Node3&#45;&gt;Node4</title>
<path fill="none" stroke="#191970" d="M342.5313,-117.8906C329.4966,-108.2324 309.1836,-93.1812 293.7845,-81.771"/>
<polygon fill="#191970" stroke="#191970" points="295.4961,-78.6832 285.3777,-75.5419 291.3287,-84.3075 295.4961,-78.6832"/>
</g>
<!-- Node6 -->
<g id="node7" class="node">
<title>Node6</title>
<g id="a_node7"><a xlink:href="exception_8h.html" target="_top" xlink:title=" ">
<polygon fill="none" stroke="#000000" points="415.5,-56.5 415.5,-75.5 559.5,-75.5 559.5,-56.5 415.5,-56.5"/>
<text text-anchor="middle" x="487.5" y="-63.5" font-family="Helvetica,sans-Serif" font-size="10.00" fill="#000000">utils/exception.h</text>
</a>
</g>
</g>
<!-- Node5&#45;&gt;Node6 -->
<g id="edge6" class="edge">
<title>Node5&#45;&gt;Node6</title>
<path fill="none" stroke="#191970" d="M592.9688,-117.8906C572.3292,-107.7359 539.5724,-91.6196 516.0398,-80.0416"/>
<polygon fill="#191970" stroke="#191970" points="517.412,-76.8161 506.8941,-75.5419 514.3218,-83.0971 517.412,-76.8161"/>
</g>
<!-- Node7 -->
<g id="node8" class="node">
<title>Node7</title>
<g id="a_node8"><a xlink:title=" ">
<polygon fill="none" stroke="#bfbfbf" points="327,-.5 327,-19.5 434,-19.5 434,-.5 327,-.5"/>
<text text-anchor="middle" x="380.5" y="-7.5" font-family="Helvetica,sans-Serif" font-size="10.00" fill="#000000">fmt/format.h</text>
</a>
</g>
</g>
<!-- Node5&#45;&gt;Node7 -->
<g id="edge10" class="edge">
<title>Node5&#45;&gt;Node7</title>
<path fill="none" stroke="#191970" d="M551.3793,-118.5334C498.7338,-109.7006 427.9397,-94.8137 406.5,-76 393.0749,-64.2192 386.5163,-44.6038 383.353,-29.8118"/>
<polygon fill="#191970" stroke="#191970" points="386.7419,-28.8792 381.5384,-19.6502 379.851,-30.1098 386.7419,-28.8792"/>
</g>
<!-- Node10 -->
<g id="node11" class="node">
<title>Node10</title>
<g id="a_node11"><a xlink:title=" ">
<polygon fill="none" stroke="#bfbfbf" points="578,-56.5 578,-75.5 647,-75.5 647,-56.5 578,-56.5"/>
<text text-anchor="middle" x="612.5" y="-63.5" font-family="Helvetica,sans-Serif" font-size="10.00" fill="#000000">cstdlib</text>
</a>
</g>
</g>
<!-- Node5&#45;&gt;Node10 -->
<g id="edge11" class="edge">
<title>Node5&#45;&gt;Node10</title>
<path fill="none" stroke="#191970" d="M612.5,-117.8906C612.5,-109.3657 612.5,-96.6392 612.5,-85.9235"/>
<polygon fill="#191970" stroke="#191970" points="616.0001,-85.7448 612.5,-75.7449 609.0001,-85.7449 616.0001,-85.7448"/>
</g>
<!-- Node5&#45;&gt;Node11 -->
<g id="edge12" class="edge">
<title>Node5&#45;&gt;Node11</title>
<path fill="none" stroke="#191970" d="M657.2569,-117.9438C667.199,-115.9066 677.6958,-113.8219 687.5,-112 780.9369,-94.6371 807.0775,-92.8834 904.3382,-76.1766"/>
<polygon fill="#191970" stroke="#191970" points="905.0377,-79.6077 914.2962,-74.4567 903.8463,-72.7098 905.0377,-79.6077"/>
</g>
<!-- Node12 -->
<g id="node13" class="node">
<title>Node12</title>
<g id="a_node13"><a xlink:title=" ">
<polygon fill="none" stroke="#bfbfbf" points="665,-56.5 665,-75.5 764,-75.5 764,-56.5 665,-56.5"/>
<text text-anchor="middle" x="714.5" y="-63.5" font-family="Helvetica,sans-Serif" font-size="10.00" fill="#000000">type_traits</text>
</a>
</g>
</g>
<!-- Node5&#45;&gt;Node12 -->
<g id="edge13" class="edge">
<title>Node5&#45;&gt;Node12</title>
<path fill="none" stroke="#191970" d="M628.4375,-117.8906C644.9051,-107.9616 670.8258,-92.333 689.9204,-80.8201"/>
<polygon fill="#191970" stroke="#191970" points="691.9178,-83.7027 698.6744,-75.5419 688.3034,-77.7081 691.9178,-83.7027"/>
</g>
<!-- Node13 -->
<g id="node14" class="node">
<title>Node13</title>
<g id="a_node14"><a xlink:title=" ">
<polygon fill="none" stroke="#bfbfbf" points="782.5,-56.5 782.5,-75.5 896.5,-75.5 896.5,-56.5 782.5,-56.5"/>
<text text-anchor="middle" x="839.5" y="-63.5" font-family="Helvetica,sans-Serif" font-size="10.00" fill="#000000">unordered_map</text>
</a>
</g>
</g>
<!-- Node5&#45;&gt;Node13 -->
<g id="edge14" class="edge">
<title>Node5&#45;&gt;Node13</title>
<path fill="none" stroke="#191970" d="M647.9688,-117.8906C687.4493,-107.1944 751.3443,-89.8836 794.3605,-78.2294"/>
<polygon fill="#191970" stroke="#191970" points="795.5435,-81.5352 804.2803,-75.5419 793.713,-74.7787 795.5435,-81.5352"/>
</g>
<!-- Node6&#45;&gt;Node7 -->
<g id="edge7" class="edge">
<title>Node6&#45;&gt;Node7</title>
<path fill="none" stroke="#191970" d="M468.862,-56.2455C452.0614,-47.4527 427.1366,-34.4079 408.0382,-24.4125"/>
<polygon fill="#191970" stroke="#191970" points="409.4073,-21.1787 398.9244,-19.6427 406.1614,-27.3807 409.4073,-21.1787"/>
</g>
<!-- Node8 -->
<g id="node9" class="node">
<title>Node8</title>
<g id="a_node9"><a xlink:title=" ">
<polygon fill="none" stroke="#bfbfbf" points="451.5,-.5 451.5,-19.5 535.5,-19.5 535.5,-.5 451.5,-.5"/>
<text text-anchor="middle" x="493.5" y="-7.5" font-family="Helvetica,sans-Serif" font-size="10.00" fill="#000000">stdexcept</text>
</a>
</g>
</g>
<!-- Node6&#45;&gt;Node8 -->
<g id="edge8" class="edge">
<title>Node6&#45;&gt;Node8</title>
<path fill="none" stroke="#191970" d="M488.5451,-56.2455C489.328,-48.9382 490.4256,-38.6944 491.3888,-29.7046"/>
<polygon fill="#191970" stroke="#191970" points="494.8815,-29.9587 492.4669,-19.6427 487.9214,-29.2129 494.8815,-29.9587"/>
</g>
<!-- Node9 -->
<g id="node10" class="node">
<title>Node9</title>
<g id="a_node10"><a xlink:title=" ">
<polygon fill="none" stroke="#bfbfbf" points="554,-.5 554,-19.5 653,-19.5 653,-.5 554,-.5"/>
<text text-anchor="middle" x="603.5" y="-7.5" font-family="Helvetica,sans-Serif" font-size="10.00" fill="#000000">string_view</text>
</a>
</g>
</g>
<!-- Node6&#45;&gt;Node9 -->
<g id="edge9" class="edge">
<title>Node6&#45;&gt;Node9</title>
<path fill="none" stroke="#191970" d="M507.4411,-56.3733C525.9786,-47.4241 553.8028,-33.9917 574.7413,-23.8835"/>
<polygon fill="#191970" stroke="#191970" points="576.3352,-27.0006 583.8191,-19.5011 573.2919,-20.6967 576.3352,-27.0006"/>
</g>
</g>
</svg>
