<?xml version="1.0" encoding="UTF-8" standalone="no"?>
<!DOCTYPE svg PUBLIC "-//W3C//DTD SVG 1.1//EN"
 "http://www.w3.org/Graphics/SVG/1.1/DTD/svg11.dtd">
<!-- Generated by graphviz version 2.40.1 (0)
 -->
<!-- Title: soe/main.cpp Pages: 1 -->
<svg width="1183pt" height="207pt"
 viewBox="0.00 0.00 1182.50 207.00" xmlns="http://www.w3.org/2000/svg" xmlns:xlink="http://www.w3.org/1999/xlink">
<g id="graph0" class="graph" transform="scale(1 1) rotate(0) translate(4 203)">
<title>soe/main.cpp</title>
<!-- Node0 -->
<g id="node1" class="node">
<title>Node0</title>
<g id="a_node1"><a xlink:title=" ">
<polygon fill="#bfbfbf" stroke="#000000" points="613,-179.5 613,-198.5 720,-198.5 720,-179.5 613,-179.5"/>
<text text-anchor="middle" x="666.5" y="-186.5" font-family="Helvetica,sans-Serif" font-size="10.00" fill="#000000">soe/main.cpp</text>
</a>
</g>
</g>
<!-- Node1 -->
<g id="node2" class="node">
<title>Node1</title>
<g id="a_node2"><a xlink:href="frame__stream_8h.html" target="_top" xlink:title=" ">
<polygon fill="none" stroke="#000000" points="149.5,-118 149.5,-137 301.5,-137 301.5,-118 149.5,-118"/>
<text text-anchor="middle" x="225.5" y="-125" font-family="Helvetica,sans-Serif" font-size="10.00" fill="#000000">soe/frame_stream.h</text>
</a>
</g>
</g>
<!-- Node0&#45;&gt;Node1 -->
<g id="edge1" class="edge">
<title>Node0&#45;&gt;Node1</title>
<path fill="none" stroke="#191970" d="M612.8656,-181.5204C535.7272,-170.763 392.9747,-150.8553 303.9695,-138.443"/>
<polygon fill="#191970" stroke="#191970" points="304.3128,-134.9571 293.9252,-137.0423 303.3459,-141.89 304.3128,-134.9571"/>
</g>
<!-- Node3 -->
<g id="node4" class="node">
<title>Node3</title>
<g id="a_node4"><a xlink:href="config_8h.html" target="_top" xlink:title=" ">
<polygon fill="none" stroke="#000000" points="409.5,-118 409.5,-137 531.5,-137 531.5,-118 409.5,-118"/>
<text text-anchor="middle" x="470.5" y="-125" font-family="Helvetica,sans-Serif" font-size="10.00" fill="#000000">utils/config.h</text>
</a>
</g>
</g>
<!-- Node0&#45;&gt;Node3 -->
<g id="edge3" class="edge">
<title>Node0&#45;&gt;Node3</title>
<path fill="none" stroke="#191970" d="M635.875,-179.3906C602.2176,-168.8298 548.0101,-151.8208 510.8941,-140.1747"/>
<polygon fill="#191970" stroke="#191970" points="511.4991,-136.6963 500.9099,-137.0419 509.4034,-143.3753 511.4991,-136.6963"/>
</g>
<!-- Node9 -->
<g id="node10" class="node">
<title>Node9</title>
<g id="a_node10"><a xlink:title=" ">
<polygon fill="none" stroke="#bfbfbf" points="721.5,-56.5 721.5,-75.5 813.5,-75.5 813.5,-56.5 721.5,-56.5"/>
<text text-anchor="middle" x="767.5" y="-63.5" font-family="Helvetica,sans-Serif" font-size="10.00" fill="#000000">filesystem</text>
</a>
</g>
</g>
<!-- Node0&#45;&gt;Node9 -->
<g id="edge16" class="edge">
<title>Node0&#45;&gt;Node9</title>
<path fill="none" stroke="#191970" d="M628.818,-179.3393C610.2287,-172.4646 589.4848,-161.137 578.5,-143 571.3625,-131.2151 569.9872,-122.8332 578.5,-112 582.7478,-106.5943 658.085,-89.4491 712.3404,-77.6891"/>
<polygon fill="#191970" stroke="#191970" points="713.1675,-81.0913 722.2038,-75.56 711.6904,-74.2489 713.1675,-81.0913"/>
</g>
<!-- Node12 -->
<g id="node13" class="node">
<title>Node12</title>
<g id="a_node13"><a xlink:title=" ">
<polygon fill="none" stroke="#bfbfbf" points="587,-118 587,-137 746,-137 746,-118 587,-118"/>
<text text-anchor="middle" x="666.5" y="-125" font-family="Helvetica,sans-Serif" font-size="10.00" fill="#000000">opencv2/videoio.hpp</text>
</a>
</g>
</g>
<!-- Node0&#45;&gt;Node12 -->
<g id="edge13" class="edge">
<title>Node0&#45;&gt;Node12</title>
<path fill="none" stroke="#191970" d="M666.5,-179.3906C666.5,-170.8657 666.5,-158.1392 666.5,-147.4235"/>
<polygon fill="#191970" stroke="#191970" points="670.0001,-147.2448 666.5,-137.2449 663.0001,-147.2449 670.0001,-147.2448"/>
</g>
<!-- Node13 -->
<g id="node14" class="node">
<title>Node13</title>
<g id="a_node14"><a xlink:title=" ">
<polygon fill="none" stroke="#bfbfbf" points="764.5,-112.5 764.5,-142.5 916.5,-142.5 916.5,-112.5 764.5,-112.5"/>
<text text-anchor="start" x="772.5" y="-130.5" font-family="Helvetica,sans-Serif" font-size="10.00" fill="#000000">spdlog/sinks/basic</text>
<text text-anchor="middle" x="840.5" y="-119.5" font-family="Helvetica,sans-Serif" font-size="10.00" fill="#000000">_file_sink.h</text>
</a>
</g>
</g>
<!-- Node0&#45;&gt;Node13 -->
<g id="edge14" class="edge">
<title>Node0&#45;&gt;Node13</title>
<path fill="none" stroke="#191970" d="M693.6875,-179.3906C718.8716,-170.4893 757.0159,-157.0073 788.1118,-146.0165"/>
<polygon fill="#191970" stroke="#191970" points="789.6728,-149.1771 797.9348,-142.5446 787.34,-142.5772 789.6728,-149.1771"/>
</g>
<!-- Node14 -->
<g id="node15" class="node">
<title>Node14</title>
<g id="a_node15"><a xlink:title=" ">
<polygon fill="none" stroke="#bfbfbf" points="935,-112.5 935,-142.5 1094,-142.5 1094,-112.5 935,-112.5"/>
<text text-anchor="start" x="943" y="-130.5" font-family="Helvetica,sans-Serif" font-size="10.00" fill="#000000">spdlog/sinks/stdout</text>
<text text-anchor="middle" x="1014.5" y="-119.5" font-family="Helvetica,sans-Serif" font-size="10.00" fill="#000000">_color_sinks.h</text>
</a>
</g>
</g>
<!-- Node0&#45;&gt;Node14 -->
<g id="edge15" class="edge">
<title>Node0&#45;&gt;Node14</title>
<path fill="none" stroke="#191970" d="M720.1123,-179.5254C774.5861,-169.8986 859.937,-154.815 924.7404,-143.3627"/>
<polygon fill="#191970" stroke="#191970" points="925.7183,-146.7442 934.9566,-141.5572 924.5001,-139.851 925.7183,-146.7442"/>
</g>
<!-- Node15 -->
<g id="node16" class="node">
<title>Node15</title>
<g id="a_node16"><a xlink:title=" ">
<polygon fill="none" stroke="#bfbfbf" points="1112.5,-118 1112.5,-137 1174.5,-137 1174.5,-118 1112.5,-118"/>
<text text-anchor="middle" x="1143.5" y="-125" font-family="Helvetica,sans-Serif" font-size="10.00" fill="#000000">string</text>
</a>
</g>
</g>
<!-- Node0&#45;&gt;Node15 -->
<g id="edge17" class="edge">
<title>Node0&#45;&gt;Node15</title>
<path fill="none" stroke="#191970" d="M720.0765,-187.9059C803.2551,-185.1956 967.9914,-175.7709 1103.5,-143 1106.3503,-142.3107 1109.2701,-141.4667 1112.1706,-140.532"/>
<polygon fill="#191970" stroke="#191970" points="1113.5794,-143.7458 1121.8285,-137.0972 1111.2337,-137.1505 1113.5794,-143.7458"/>
</g>
<!-- Node2 -->
<g id="node3" class="node">
<title>Node2</title>
<g id="a_node3"><a xlink:title=" ">
<polygon fill="none" stroke="#bfbfbf" points="0,-56.5 0,-75.5 167,-75.5 167,-56.5 0,-56.5"/>
<text text-anchor="middle" x="83.5" y="-63.5" font-family="Helvetica,sans-Serif" font-size="10.00" fill="#000000">opencv2/core/mat.hpp</text>
</a>
</g>
</g>
<!-- Node1&#45;&gt;Node2 -->
<g id="edge2" class="edge">
<title>Node1&#45;&gt;Node2</title>
<path fill="none" stroke="#191970" d="M203.3125,-117.8906C179.5533,-107.6005 141.6595,-91.1888 114.8575,-79.5809"/>
<polygon fill="#191970" stroke="#191970" points="116.0991,-76.3045 105.5317,-75.5419 113.317,-82.7279 116.0991,-76.3045"/>
</g>
<!-- Node4 -->
<g id="node5" class="node">
<title>Node4</title>
<g id="a_node5"><a xlink:href="exception_8h.html" target="_top" xlink:title=" ">
<polygon fill="none" stroke="#000000" points="222.5,-56.5 222.5,-75.5 366.5,-75.5 366.5,-56.5 222.5,-56.5"/>
<text text-anchor="middle" x="294.5" y="-63.5" font-family="Helvetica,sans-Serif" font-size="10.00" fill="#000000">utils/exception.h</text>
</a>
</g>
</g>
<!-- Node3&#45;&gt;Node4 -->
<g id="edge4" class="edge">
<title>Node3&#45;&gt;Node4</title>
<path fill="none" stroke="#191970" d="M443,-117.8906C413.0353,-107.42 364.9317,-90.6111 331.6302,-78.9745"/>
<polygon fill="#191970" stroke="#191970" points="332.4017,-75.5366 321.8069,-75.5419 330.0926,-82.1448 332.4017,-75.5366"/>
</g>
<!-- Node5 -->
<g id="node6" class="node">
<title>Node5</title>
<g id="a_node6"><a xlink:title=" ">
<polygon fill="none" stroke="#bfbfbf" points="134,-.5 134,-19.5 241,-19.5 241,-.5 134,-.5"/>
<text text-anchor="middle" x="187.5" y="-7.5" font-family="Helvetica,sans-Serif" font-size="10.00" fill="#000000">fmt/format.h</text>
</a>
</g>
</g>
<!-- Node3&#45;&gt;Node5 -->
<g id="edge8" class="edge">
<title>Node3&#45;&gt;Node5</title>
<path fill="none" stroke="#191970" d="M409.4784,-121.9947C343.1307,-114.8681 242.6434,-100.3806 213.5,-76 199.8005,-64.5394 193.2785,-44.8813 190.1984,-29.9923"/>
<polygon fill="#191970" stroke="#191970" points="193.5833,-29.0203 188.4521,-19.7509 186.6829,-30.197 193.5833,-29.0203"/>
</g>
<!-- Node8 -->
<g id="node9" class="node">
<title>Node8</title>
<g id="a_node9"><a xlink:title=" ">
<polygon fill="none" stroke="#bfbfbf" points="385,-56.5 385,-75.5 454,-75.5 454,-56.5 385,-56.5"/>
<text text-anchor="middle" x="419.5" y="-63.5" font-family="Helvetica,sans-Serif" font-size="10.00" fill="#000000">cstdlib</text>
</a>
</g>
</g>
<!-- Node3&#45;&gt;Node8 -->
<g id="edge9" class="edge">
<title>Node3&#45;&gt;Node8</title>
<path fill="none" stroke="#191970" d="M462.5313,-117.8906C454.9409,-108.7376 443.3339,-94.7409 434.0868,-83.59"/>
<polygon fill="#191970" stroke="#191970" points="436.6587,-81.2083 427.5811,-75.7449 431.2703,-85.6766 436.6587,-81.2083"/>
</g>
<!-- Node3&#45;&gt;Node9 -->
<g id="edge10" class="edge">
<title>Node3&#45;&gt;Node9</title>
<path fill="none" stroke="#191970" d="M516.5804,-117.9581C569.1473,-107.073 655.0983,-89.2751 711.4877,-77.5985"/>
<polygon fill="#191970" stroke="#191970" points="712.229,-81.0193 721.3115,-75.5643 710.8095,-74.1648 712.229,-81.0193"/>
</g>
<!-- Node10 -->
<g id="node11" class="node">
<title>Node10</title>
<g id="a_node11"><a xlink:title=" ">
<polygon fill="none" stroke="#bfbfbf" points="472,-56.5 472,-75.5 571,-75.5 571,-56.5 472,-56.5"/>
<text text-anchor="middle" x="521.5" y="-63.5" font-family="Helvetica,sans-Serif" font-size="10.00" fill="#000000">type_traits</text>
</a>
</g>
</g>
<!-- Node3&#45;&gt;Node10 -->
<g id="edge11" class="edge">
<title>Node3&#45;&gt;Node10</title>
<path fill="none" stroke="#191970" d="M478.4688,-117.8906C486.0591,-108.7376 497.6661,-94.7409 506.9132,-83.59"/>
<polygon fill="#191970" stroke="#191970" points="509.7297,-85.6766 513.4189,-75.7449 504.3413,-81.2083 509.7297,-85.6766"/>
</g>
<!-- Node11 -->
<g id="node12" class="node">
<title>Node11</title>
<g id="a_node12"><a xlink:title=" ">
<polygon fill="none" stroke="#bfbfbf" points="589.5,-56.5 589.5,-75.5 703.5,-75.5 703.5,-56.5 589.5,-56.5"/>
<text text-anchor="middle" x="646.5" y="-63.5" font-family="Helvetica,sans-Serif" font-size="10.00" fill="#000000">unordered_map</text>
</a>
</g>
</g>
<!-- Node3&#45;&gt;Node11 -->
<g id="edge12" class="edge">
<title>Node3&#45;&gt;Node11</title>
<path fill="none" stroke="#191970" d="M498,-117.8906C527.9647,-107.42 576.0683,-90.6111 609.3698,-78.9745"/>
<polygon fill="#191970" stroke="#191970" points="610.9074,-82.1448 619.1931,-75.5419 608.5983,-75.5366 610.9074,-82.1448"/>
</g>
<!-- Node4&#45;&gt;Node5 -->
<g id="edge5" class="edge">
<title>Node4&#45;&gt;Node5</title>
<path fill="none" stroke="#191970" d="M275.862,-56.2455C259.0614,-47.4527 234.1366,-34.4079 215.0382,-24.4125"/>
<polygon fill="#191970" stroke="#191970" points="216.4073,-21.1787 205.9244,-19.6427 213.1614,-27.3807 216.4073,-21.1787"/>
</g>
<!-- Node6 -->
<g id="node7" class="node">
<title>Node6</title>
<g id="a_node7"><a xlink:title=" ">
<polygon fill="none" stroke="#bfbfbf" points="258.5,-.5 258.5,-19.5 342.5,-19.5 342.5,-.5 258.5,-.5"/>
<text text-anchor="middle" x="300.5" y="-7.5" font-family="Helvetica,sans-Serif" font-size="10.00" fill="#000000">stdexcept</text>
</a>
</g>
</g>
<!-- Node4&#45;&gt;Node6 -->
<g id="edge6" class="edge">
<title>Node4&#45;&gt;Node6</title>
<path fill="none" stroke="#191970" d="M295.5451,-56.2455C296.328,-48.9382 297.4256,-38.6944 298.3888,-29.7046"/>
<polygon fill="#191970" stroke="#191970" points="301.8815,-29.9587 299.4669,-19.6427 294.9214,-29.2129 301.8815,-29.9587"/>
</g>
<!-- Node7 -->
<g id="node8" class="node">
<title>Node7</title>
<g id="a_node8"><a xlink:title=" ">
<polygon fill="none" stroke="#bfbfbf" points="361,-.5 361,-19.5 460,-19.5 460,-.5 361,-.5"/>
<text text-anchor="middle" x="410.5" y="-7.5" font-family="Helvetica,sans-Serif" font-size="10.00" fill="#000000">string_view</text>
</a>
</g>
</g>
<!-- Node4&#45;&gt;Node7 -->
<g id="edge7" class="edge">
<title>Node4&#45;&gt;Node7</title>
<path fill="none" stroke="#191970" d="M314.4411,-56.3733C332.9786,-47.4241 360.8028,-33.9917 381.7413,-23.8835"/>
<polygon fill="#191970" stroke="#191970" points="383.3352,-27.0006 390.8191,-19.5011 380.2919,-20.6967 383.3352,-27.0006"/>
</g>
</g>
</svg>
