<?xml version="1.0" encoding="UTF-8" standalone="no"?>
<!DOCTYPE svg PUBLIC "-//W3C//DTD SVG 1.1//EN"
 "http://www.w3.org/Graphics/SVG/1.1/DTD/svg11.dtd">
<!-- Generated by graphviz version 2.40.1 (0)
 -->
<!-- Title: soe/main.cpp Pages: 1 -->
<svg width="945pt" height="151pt"
 viewBox="0.00 0.00 945.00 151.00" xmlns="http://www.w3.org/2000/svg" xmlns:xlink="http://www.w3.org/1999/xlink">
<g id="graph0" class="graph" transform="scale(1 1) rotate(0) translate(4 147)">
<title>soe/main.cpp</title>
<!-- Node0 -->
<g id="node1" class="node">
<title>Node0</title>
<g id="a_node1"><a xlink:title=" ">
<polygon fill="#bfbfbf" stroke="#000000" points="462.5,-123.5 462.5,-142.5 569.5,-142.5 569.5,-123.5 462.5,-123.5"/>
<text text-anchor="middle" x="516" y="-130.5" font-family="Helvetica,sans-Serif" font-size="10.00" fill="#000000">soe/main.cpp</text>
</a>
</g>
</g>
<!-- Node1 -->
<g id="node2" class="node">
<title>Node1</title>
<g id="a_node2"><a xlink:href="config_8h.html" target="_top" xlink:title=" ">
<polygon fill="none" stroke="#000000" points="209,-62 209,-81 331,-81 331,-62 209,-62"/>
<text text-anchor="middle" x="270" y="-69" font-family="Helvetica,sans-Serif" font-size="10.00" fill="#000000">utils/config.h</text>
</a>
</g>
</g>
<!-- Node0&#45;&gt;Node1 -->
<g id="edge1" class="edge">
<title>Node0&#45;&gt;Node1</title>
<path fill="none" stroke="#191970" d="M477.8324,-123.4581C434.833,-112.7082 364.8649,-95.2162 318.1458,-83.5365"/>
<polygon fill="#191970" stroke="#191970" points="318.8075,-80.0942 308.2571,-81.0643 317.1097,-86.8852 318.8075,-80.0942"/>
</g>
<!-- Node4 -->
<g id="node5" class="node">
<title>Node4</title>
<g id="a_node5"><a xlink:title=" ">
<polygon fill="none" stroke="#bfbfbf" points="0,-.5 0,-19.5 92,-19.5 92,-.5 0,-.5"/>
<text text-anchor="middle" x="46" y="-7.5" font-family="Helvetica,sans-Serif" font-size="10.00" fill="#000000">filesystem</text>
</a>
</g>
</g>
<!-- Node0&#45;&gt;Node4 -->
<g id="edge11" class="edge">
<title>Node0&#45;&gt;Node4</title>
<path fill="none" stroke="#191970" d="M462.291,-130.3933C398.4745,-126.1156 289.3935,-115.0549 200,-87 151.3606,-71.7352 99.1814,-42.6361 69.765,-24.9096"/>
<polygon fill="#191970" stroke="#191970" points="71.406,-21.8107 61.0474,-19.5858 67.7576,-27.7848 71.406,-21.8107"/>
</g>
<!-- Node8 -->
<g id="node9" class="node">
<title>Node8</title>
<g id="a_node9"><a xlink:title=" ">
<polygon fill="none" stroke="#bfbfbf" points="349.5,-62 349.5,-81 508.5,-81 508.5,-62 349.5,-62"/>
<text text-anchor="middle" x="429" y="-69" font-family="Helvetica,sans-Serif" font-size="10.00" fill="#000000">opencv2/videoio.hpp</text>
</a>
</g>
</g>
<!-- Node0&#45;&gt;Node8 -->
<g id="edge8" class="edge">
<title>Node0&#45;&gt;Node8</title>
<path fill="none" stroke="#191970" d="M502.4063,-123.3906C488.6157,-113.6421 467.0528,-98.3994 450.859,-86.9521"/>
<polygon fill="#191970" stroke="#191970" points="452.6844,-83.9563 442.4983,-81.0419 448.6437,-89.6723 452.6844,-83.9563"/>
</g>
<!-- Node9 -->
<g id="node10" class="node">
<title>Node9</title>
<g id="a_node10"><a xlink:title=" ">
<polygon fill="none" stroke="#bfbfbf" points="527,-56.5 527,-86.5 679,-86.5 679,-56.5 527,-56.5"/>
<text text-anchor="start" x="535" y="-74.5" font-family="Helvetica,sans-Serif" font-size="10.00" fill="#000000">spdlog/sinks/basic</text>
<text text-anchor="middle" x="603" y="-63.5" font-family="Helvetica,sans-Serif" font-size="10.00" fill="#000000">_file_sink.h</text>
</a>
</g>
</g>
<!-- Node0&#45;&gt;Node9 -->
<g id="edge9" class="edge">
<title>Node0&#45;&gt;Node9</title>
<path fill="none" stroke="#191970" d="M529.5938,-123.3906C541.2591,-115.1444 558.4859,-102.9669 573.32,-92.4807"/>
<polygon fill="#191970" stroke="#191970" points="575.572,-95.175 581.7174,-86.5446 571.5313,-89.459 575.572,-95.175"/>
</g>
<!-- Node10 -->
<g id="node11" class="node">
<title>Node10</title>
<g id="a_node11"><a xlink:title=" ">
<polygon fill="none" stroke="#bfbfbf" points="697.5,-56.5 697.5,-86.5 856.5,-86.5 856.5,-56.5 697.5,-56.5"/>
<text text-anchor="start" x="705.5" y="-74.5" font-family="Helvetica,sans-Serif" font-size="10.00" fill="#000000">spdlog/sinks/stdout</text>
<text text-anchor="middle" x="777" y="-63.5" font-family="Helvetica,sans-Serif" font-size="10.00" fill="#000000">_color_sinks.h</text>
</a>
</g>
</g>
<!-- Node0&#45;&gt;Node10 -->
<g id="edge10" class="edge">
<title>Node0&#45;&gt;Node10</title>
<path fill="none" stroke="#191970" d="M556.4949,-123.4581C595.5949,-114.2449 655.7126,-100.0792 703.3058,-88.8647"/>
<polygon fill="#191970" stroke="#191970" points="704.3288,-92.2196 713.2595,-86.5193 702.7233,-85.4062 704.3288,-92.2196"/>
</g>
<!-- Node11 -->
<g id="node12" class="node">
<title>Node11</title>
<g id="a_node12"><a xlink:title=" ">
<polygon fill="none" stroke="#bfbfbf" points="875,-62 875,-81 937,-81 937,-62 875,-62"/>
<text text-anchor="middle" x="906" y="-69" font-family="Helvetica,sans-Serif" font-size="10.00" fill="#000000">string</text>
</a>
</g>
</g>
<!-- Node0&#45;&gt;Node11 -->
<g id="edge12" class="edge">
<title>Node0&#45;&gt;Node11</title>
<path fill="none" stroke="#191970" d="M569.5217,-129.9493C638.836,-125.0966 762.9784,-113.3257 866,-87 868.7735,-86.2913 871.616,-85.4459 874.4441,-84.521"/>
<polygon fill="#191970" stroke="#191970" points="875.6414,-87.8099 883.8833,-81.1524 873.2886,-81.2172 875.6414,-87.8099"/>
</g>
<!-- Node2 -->
<g id="node3" class="node">
<title>Node2</title>
<g id="a_node3"><a xlink:title=" ">
<polygon fill="none" stroke="#bfbfbf" points="110.5,-.5 110.5,-19.5 217.5,-19.5 217.5,-.5 110.5,-.5"/>
<text text-anchor="middle" x="164" y="-7.5" font-family="Helvetica,sans-Serif" font-size="10.00" fill="#000000">fmt/format.h</text>
</a>
</g>
</g>
<!-- Node1&#45;&gt;Node2 -->
<g id="edge2" class="edge">
<title>Node1&#45;&gt;Node2</title>
<path fill="none" stroke="#191970" d="M253.4375,-61.8906C236.2463,-51.9165 209.1418,-36.1908 189.2734,-24.6633"/>
<polygon fill="#191970" stroke="#191970" points="190.8523,-21.533 180.4462,-19.5419 187.3394,-27.5877 190.8523,-21.533"/>
</g>
<!-- Node3 -->
<g id="node4" class="node">
<title>Node3</title>
<g id="a_node4"><a xlink:title=" ">
<polygon fill="none" stroke="#bfbfbf" points="235.5,-.5 235.5,-19.5 304.5,-19.5 304.5,-.5 235.5,-.5"/>
<text text-anchor="middle" x="270" y="-7.5" font-family="Helvetica,sans-Serif" font-size="10.00" fill="#000000">cstdlib</text>
</a>
</g>
</g>
<!-- Node1&#45;&gt;Node3 -->
<g id="edge3" class="edge">
<title>Node1&#45;&gt;Node3</title>
<path fill="none" stroke="#191970" d="M270,-61.8906C270,-53.3657 270,-40.6392 270,-29.9235"/>
<polygon fill="#191970" stroke="#191970" points="273.5001,-29.7448 270,-19.7449 266.5001,-29.7449 273.5001,-29.7448"/>
</g>
<!-- Node1&#45;&gt;Node4 -->
<g id="edge4" class="edge">
<title>Node1&#45;&gt;Node4</title>
<path fill="none" stroke="#191970" d="M235,-61.8906C196.0412,-51.1944 132.9907,-33.8836 90.5429,-22.2294"/>
<polygon fill="#191970" stroke="#191970" points="91.3241,-18.8144 80.7542,-19.5419 89.4707,-25.5646 91.3241,-18.8144"/>
</g>
<!-- Node5 -->
<g id="node6" class="node">
<title>Node5</title>
<g id="a_node6"><a xlink:title=" ">
<polygon fill="none" stroke="#bfbfbf" points="323,-.5 323,-19.5 407,-19.5 407,-.5 323,-.5"/>
<text text-anchor="middle" x="365" y="-7.5" font-family="Helvetica,sans-Serif" font-size="10.00" fill="#000000">stdexcept</text>
</a>
</g>
</g>
<!-- Node1&#45;&gt;Node5 -->
<g id="edge5" class="edge">
<title>Node1&#45;&gt;Node5</title>
<path fill="none" stroke="#191970" d="M284.8438,-61.8906C300.0418,-52.0519 323.8848,-36.6167 341.6206,-25.1351"/>
<polygon fill="#191970" stroke="#191970" points="343.768,-27.9144 350.2605,-19.5419 339.9639,-22.0382 343.768,-27.9144"/>
</g>
<!-- Node6 -->
<g id="node7" class="node">
<title>Node6</title>
<g id="a_node7"><a xlink:title=" ">
<polygon fill="none" stroke="#bfbfbf" points="425.5,-.5 425.5,-19.5 524.5,-19.5 524.5,-.5 425.5,-.5"/>
<text text-anchor="middle" x="475" y="-7.5" font-family="Helvetica,sans-Serif" font-size="10.00" fill="#000000">type_traits</text>
</a>
</g>
</g>
<!-- Node1&#45;&gt;Node6 -->
<g id="edge6" class="edge">
<title>Node1&#45;&gt;Node6</title>
<path fill="none" stroke="#191970" d="M302.0313,-61.8906C337.3846,-51.2846 394.4157,-34.1753 433.2478,-22.5257"/>
<polygon fill="#191970" stroke="#191970" points="434.6212,-25.7678 443.1937,-19.5419 432.6097,-19.0631 434.6212,-25.7678"/>
</g>
<!-- Node7 -->
<g id="node8" class="node">
<title>Node7</title>
<g id="a_node8"><a xlink:title=" ">
<polygon fill="none" stroke="#bfbfbf" points="543,-.5 543,-19.5 657,-19.5 657,-.5 543,-.5"/>
<text text-anchor="middle" x="600" y="-7.5" font-family="Helvetica,sans-Serif" font-size="10.00" fill="#000000">unordered_map</text>
</a>
</g>
</g>
<!-- Node1&#45;&gt;Node7 -->
<g id="edge7" class="edge">
<title>Node1&#45;&gt;Node7</title>
<path fill="none" stroke="#191970" d="M312.3679,-61.9663C321.7799,-59.9278 331.7175,-57.8368 341,-56 405.8904,-43.1595 480.2637,-30.1235 532.6161,-21.2237"/>
<polygon fill="#191970" stroke="#191970" points="533.5093,-24.6223 542.7837,-19.5002 532.3394,-17.7208 533.5093,-24.6223"/>
</g>
</g>
</svg>
