<?xml version="1.0" encoding="UTF-8" standalone="no"?>
<!DOCTYPE svg PUBLIC "-//W3C//DTD SVG 1.1//EN"
 "http://www.w3.org/Graphics/SVG/1.1/DTD/svg11.dtd">
<!-- Generated by graphviz version 2.40.1 (0)
 -->
<!-- Title: soe/main.cpp Pages: 1 -->
<svg width="2418pt" height="207pt"
 viewBox="0.00 0.00 2418.00 207.00" xmlns="http://www.w3.org/2000/svg" xmlns:xlink="http://www.w3.org/1999/xlink">
<g id="graph0" class="graph" transform="scale(1 1) rotate(0) translate(4 203)">
<title>soe/main.cpp</title>
<!-- Node0 -->
<g id="node1" class="node">
<title>Node0</title>
<g id="a_node1"><a xlink:title=" ">
<polygon fill="#bfbfbf" stroke="#000000" points="1583.5,-179.5 1583.5,-198.5 1690.5,-198.5 1690.5,-179.5 1583.5,-179.5"/>
<text text-anchor="middle" x="1637" y="-186.5" font-family="Helvetica,sans-Serif" font-size="10.00" fill="#000000">soe/main.cpp</text>
</a>
</g>
</g>
<!-- Node1 -->
<g id="node2" class="node">
<title>Node1</title>
<g id="a_node2"><a xlink:href="frame__stream_8h.html" target="_top" xlink:title=" ">
<polygon fill="none" stroke="#000000" points="180,-118 180,-137 332,-137 332,-118 180,-118"/>
<text text-anchor="middle" x="256" y="-125" font-family="Helvetica,sans-Serif" font-size="10.00" fill="#000000">soe/frame_stream.h</text>
</a>
</g>
</g>
<!-- Node0&#45;&gt;Node1 -->
<g id="edge1" class="edge">
<title>Node0&#45;&gt;Node1</title>
<path fill="none" stroke="#191970" d="M1583.2836,-188.2355C1411.6782,-185.5269 861.3187,-174.7794 407,-143 386.1025,-141.5382 363.6235,-139.4897 342.5602,-137.3599"/>
<polygon fill="#191970" stroke="#191970" points="342.6524,-133.851 332.3468,-136.31 341.9365,-140.8143 342.6524,-133.851"/>
</g>
<!-- Node6 -->
<g id="node7" class="node">
<title>Node6</title>
<g id="a_node7"><a xlink:href="frame__stream__cuda_8h.html" target="_top" xlink:title=" ">
<polygon fill="none" stroke="#000000" points="416.5,-118 416.5,-137 605.5,-137 605.5,-118 416.5,-118"/>
<text text-anchor="middle" x="511" y="-125" font-family="Helvetica,sans-Serif" font-size="10.00" fill="#000000">soe/frame_stream_cuda.h</text>
</a>
</g>
</g>
<!-- Node0&#45;&gt;Node6 -->
<g id="edge7" class="edge">
<title>Node0&#45;&gt;Node6</title>
<path fill="none" stroke="#191970" d="M1583.4482,-186.0751C1408.2802,-176.5078 850.1897,-146.0259 616.0151,-133.2357"/>
<polygon fill="#191970" stroke="#191970" points="615.9644,-129.7278 605.7883,-132.6772 615.5825,-136.7174 615.9644,-129.7278"/>
</g>
<!-- Node9 -->
<g id="node10" class="node">
<title>Node9</title>
<g id="a_node10"><a xlink:href="config_8h.html" target="_top" xlink:title=" ">
<polygon fill="none" stroke="#000000" points="1122,-118 1122,-137 1244,-137 1244,-118 1122,-118"/>
<text text-anchor="middle" x="1183" y="-125" font-family="Helvetica,sans-Serif" font-size="10.00" fill="#000000">utils/config.h</text>
</a>
</g>
</g>
<!-- Node0&#45;&gt;Node9 -->
<g id="edge12" class="edge">
<title>Node0&#45;&gt;Node9</title>
<path fill="none" stroke="#191970" d="M1583.1374,-181.7036C1501.1822,-170.6018 1345.0972,-149.4581 1253.9807,-137.1152"/>
<polygon fill="#191970" stroke="#191970" points="1254.3942,-133.6394 1244.0148,-135.7652 1253.4545,-140.576 1254.3942,-133.6394"/>
</g>
<!-- Node15 -->
<g id="node16" class="node">
<title>Node15</title>
<g id="a_node16"><a xlink:title=" ">
<polygon fill="none" stroke="#bfbfbf" points="1361,-56.5 1361,-75.5 1453,-75.5 1453,-56.5 1361,-56.5"/>
<text text-anchor="middle" x="1407" y="-63.5" font-family="Helvetica,sans-Serif" font-size="10.00" fill="#000000">filesystem</text>
</a>
</g>
</g>
<!-- Node0&#45;&gt;Node15 -->
<g id="edge32" class="edge">
<title>Node0&#45;&gt;Node15</title>
<path fill="none" stroke="#191970" d="M1583.0504,-180.5067C1535.8288,-172.2138 1471.6354,-158.5912 1451,-143 1431.8746,-128.5496 1419.7381,-103.1968 1413.1634,-85.5468"/>
<polygon fill="#191970" stroke="#191970" points="1416.3436,-84.0323 1409.7757,-75.7188 1409.7257,-86.3136 1416.3436,-84.0323"/>
</g>
<!-- Node18 -->
<g id="node19" class="node">
<title>Node18</title>
<g id="a_node19"><a xlink:href="consume__queue_8h.html" target="_top" xlink:title=" ">
<polygon fill="none" stroke="#000000" points="1460,-118 1460,-137 1634,-137 1634,-118 1460,-118"/>
<text text-anchor="middle" x="1547" y="-125" font-family="Helvetica,sans-Serif" font-size="10.00" fill="#000000">utils/consume_queue.h</text>
</a>
</g>
</g>
<!-- Node0&#45;&gt;Node18 -->
<g id="edge22" class="edge">
<title>Node0&#45;&gt;Node18</title>
<path fill="none" stroke="#191970" d="M1622.9375,-179.3906C1608.6714,-169.6421 1586.365,-154.3994 1569.6128,-142.9521"/>
<polygon fill="#191970" stroke="#191970" points="1571.1949,-139.7941 1560.9638,-137.0419 1567.2455,-145.5736 1571.1949,-139.7941"/>
</g>
<!-- Node23 -->
<g id="node24" class="node">
<title>Node23</title>
<g id="a_node24"><a xlink:href="scope__exit_8h.html" target="_top" xlink:title=" ">
<polygon fill="none" stroke="#000000" points="1652,-118 1652,-137 1804,-137 1804,-118 1652,-118"/>
<text text-anchor="middle" x="1728" y="-125" font-family="Helvetica,sans-Serif" font-size="10.00" fill="#000000">utils/scope_exit.h</text>
</a>
</g>
</g>
<!-- Node0&#45;&gt;Node23 -->
<g id="edge27" class="edge">
<title>Node0&#45;&gt;Node23</title>
<path fill="none" stroke="#191970" d="M1651.2188,-179.3906C1665.6434,-169.6421 1688.1976,-154.3994 1705.136,-142.9521"/>
<polygon fill="#191970" stroke="#191970" points="1707.5556,-145.5412 1713.8811,-137.0419 1703.6359,-139.7415 1707.5556,-145.5412"/>
</g>
<!-- Node25 -->
<g id="node26" class="node">
<title>Node25</title>
<g id="a_node26"><a xlink:title=" ">
<polygon fill="none" stroke="#bfbfbf" points="1822.5,-118 1822.5,-137 1981.5,-137 1981.5,-118 1822.5,-118"/>
<text text-anchor="middle" x="1902" y="-125" font-family="Helvetica,sans-Serif" font-size="10.00" fill="#000000">opencv2/videoio.hpp</text>
</a>
</g>
</g>
<!-- Node0&#45;&gt;Node25 -->
<g id="edge29" class="edge">
<title>Node0&#45;&gt;Node25</title>
<path fill="none" stroke="#191970" d="M1678.1155,-179.4581C1724.6302,-168.6632 1800.4408,-151.0694 1850.7673,-139.3899"/>
<polygon fill="#191970" stroke="#191970" points="1851.8382,-142.7344 1860.7881,-137.0643 1850.2557,-135.9156 1851.8382,-142.7344"/>
</g>
<!-- Node26 -->
<g id="node27" class="node">
<title>Node26</title>
<g id="a_node27"><a xlink:title=" ">
<polygon fill="none" stroke="#bfbfbf" points="2000,-112.5 2000,-142.5 2152,-142.5 2152,-112.5 2000,-112.5"/>
<text text-anchor="start" x="2008" y="-130.5" font-family="Helvetica,sans-Serif" font-size="10.00" fill="#000000">spdlog/sinks/basic</text>
<text text-anchor="middle" x="2076" y="-119.5" font-family="Helvetica,sans-Serif" font-size="10.00" fill="#000000">_file_sink.h</text>
</a>
</g>
</g>
<!-- Node0&#45;&gt;Node26 -->
<g id="edge30" class="edge">
<title>Node0&#45;&gt;Node26</title>
<path fill="none" stroke="#191970" d="M1690.7976,-182.8773C1758.2477,-175.0077 1877.657,-160.4398 1989.4738,-143.1953"/>
<polygon fill="#191970" stroke="#191970" points="1990.2311,-146.6197 1999.5756,-141.6267 1989.157,-139.7026 1990.2311,-146.6197"/>
</g>
<!-- Node27 -->
<g id="node28" class="node">
<title>Node27</title>
<g id="a_node28"><a xlink:title=" ">
<polygon fill="none" stroke="#bfbfbf" points="2170.5,-112.5 2170.5,-142.5 2329.5,-142.5 2329.5,-112.5 2170.5,-112.5"/>
<text text-anchor="start" x="2178.5" y="-130.5" font-family="Helvetica,sans-Serif" font-size="10.00" fill="#000000">spdlog/sinks/stdout</text>
<text text-anchor="middle" x="2250" y="-119.5" font-family="Helvetica,sans-Serif" font-size="10.00" fill="#000000">_color_sinks.h</text>
</a>
</g>
</g>
<!-- Node0&#45;&gt;Node27 -->
<g id="edge31" class="edge">
<title>Node0&#45;&gt;Node27</title>
<path fill="none" stroke="#191970" d="M1690.7214,-185.7943C1784.0423,-179.8955 1982.3229,-165.9057 2160.3975,-143.0028"/>
<polygon fill="#191970" stroke="#191970" points="2161.0087,-146.4529 2170.4747,-141.6943 2160.1073,-139.5112 2161.0087,-146.4529"/>
</g>
<!-- Node28 -->
<g id="node29" class="node">
<title>Node28</title>
<g id="a_node29"><a xlink:title=" ">
<polygon fill="none" stroke="#bfbfbf" points="2348,-118 2348,-137 2410,-137 2410,-118 2348,-118"/>
<text text-anchor="middle" x="2379" y="-125" font-family="Helvetica,sans-Serif" font-size="10.00" fill="#000000">string</text>
</a>
</g>
</g>
<!-- Node0&#45;&gt;Node28 -->
<g id="edge33" class="edge">
<title>Node0&#45;&gt;Node28</title>
<path fill="none" stroke="#191970" d="M1690.7445,-187.5882C1832.7646,-183.5211 2215.5687,-170.2854 2339,-143 2342.0293,-142.3304 2345.1318,-141.4682 2348.2035,-140.494"/>
<polygon fill="#191970" stroke="#191970" points="2349.5269,-143.7384 2357.7831,-137.0986 2347.1884,-137.1405 2349.5269,-143.7384"/>
</g>
<!-- Node2 -->
<g id="node3" class="node">
<title>Node2</title>
<g id="a_node3"><a xlink:href="farneback__settings_8h.html" target="_top" xlink:title=" ">
<polygon fill="none" stroke="#000000" points="91.5,-56.5 91.5,-75.5 288.5,-75.5 288.5,-56.5 91.5,-56.5"/>
<text text-anchor="middle" x="190" y="-63.5" font-family="Helvetica,sans-Serif" font-size="10.00" fill="#000000">soe/farneback_settings.h</text>
</a>
</g>
</g>
<!-- Node1&#45;&gt;Node2 -->
<g id="edge2" class="edge">
<title>Node1&#45;&gt;Node2</title>
<path fill="none" stroke="#191970" d="M245.6875,-117.8906C235.5758,-108.4683 219.9558,-93.9134 207.8293,-82.6137"/>
<polygon fill="#191970" stroke="#191970" points="210.1601,-80.0015 200.4579,-75.7449 205.388,-85.1228 210.1601,-80.0015"/>
</g>
<!-- Node3 -->
<g id="node4" class="node">
<title>Node3</title>
<g id="a_node4"><a xlink:title=" ">
<polygon fill="none" stroke="#bfbfbf" points="0,-.5 0,-19.5 212,-19.5 212,-.5 0,-.5"/>
<text text-anchor="middle" x="106" y="-7.5" font-family="Helvetica,sans-Serif" font-size="10.00" fill="#000000">opencv2/video/tracking.hpp</text>
</a>
</g>
</g>
<!-- Node1&#45;&gt;Node3 -->
<g id="edge6" class="edge">
<title>Node1&#45;&gt;Node3</title>
<path fill="none" stroke="#191970" d="M198.0304,-117.9728C153.0656,-109.2616 96.092,-94.8672 82,-76 71.2451,-61.6008 80.8329,-41.9014 90.9024,-27.7797"/>
<polygon fill="#191970" stroke="#191970" points="93.718,-29.86 97.0567,-19.805 88.1763,-25.5833 93.718,-29.86"/>
</g>
<!-- Node4 -->
<g id="node5" class="node">
<title>Node4</title>
<g id="a_node5"><a xlink:href="frame_8h.html" target="_top" xlink:title=" ">
<polygon fill="none" stroke="#000000" points="306.5,-56.5 306.5,-75.5 405.5,-75.5 405.5,-56.5 306.5,-56.5"/>
<text text-anchor="middle" x="356" y="-63.5" font-family="Helvetica,sans-Serif" font-size="10.00" fill="#000000">soe/frame.h</text>
</a>
</g>
</g>
<!-- Node1&#45;&gt;Node4 -->
<g id="edge4" class="edge">
<title>Node1&#45;&gt;Node4</title>
<path fill="none" stroke="#191970" d="M271.625,-117.8906C287.7698,-107.9616 313.1822,-92.333 331.9023,-80.8201"/>
<polygon fill="#191970" stroke="#191970" points="333.8002,-83.7619 340.4847,-75.5419 330.1331,-77.7992 333.8002,-83.7619"/>
</g>
<!-- Node2&#45;&gt;Node3 -->
<g id="edge3" class="edge">
<title>Node2&#45;&gt;Node3</title>
<path fill="none" stroke="#191970" d="M175.3683,-56.2455C162.6006,-47.7337 143.8562,-35.2375 129.0701,-25.3801"/>
<polygon fill="#191970" stroke="#191970" points="130.726,-22.2775 120.464,-19.6427 126.8431,-28.1019 130.726,-22.2775"/>
</g>
<!-- Node5 -->
<g id="node6" class="node">
<title>Node5</title>
<g id="a_node6"><a xlink:title=" ">
<polygon fill="none" stroke="#bfbfbf" points="272.5,-.5 272.5,-19.5 439.5,-19.5 439.5,-.5 272.5,-.5"/>
<text text-anchor="middle" x="356" y="-7.5" font-family="Helvetica,sans-Serif" font-size="10.00" fill="#000000">opencv2/core/mat.hpp</text>
</a>
</g>
</g>
<!-- Node4&#45;&gt;Node5 -->
<g id="edge5" class="edge">
<title>Node4&#45;&gt;Node5</title>
<path fill="none" stroke="#191970" d="M356,-56.2455C356,-48.9382 356,-38.6944 356,-29.7046"/>
<polygon fill="#191970" stroke="#191970" points="359.5001,-29.6426 356,-19.6427 352.5001,-29.6427 359.5001,-29.6426"/>
</g>
<!-- Node6&#45;&gt;Node2 -->
<g id="edge8" class="edge">
<title>Node6&#45;&gt;Node2</title>
<path fill="none" stroke="#191970" d="M461.196,-117.9581C404.0625,-107.012 310.4414,-89.0752 249.516,-77.4026"/>
<polygon fill="#191970" stroke="#191970" points="250.1368,-73.9579 239.6568,-75.5137 248.8195,-80.8329 250.1368,-73.9579"/>
</g>
<!-- Node6&#45;&gt;Node4 -->
<g id="edge9" class="edge">
<title>Node6&#45;&gt;Node4</title>
<path fill="none" stroke="#191970" d="M486.7813,-117.8906C460.6194,-107.5103 418.7571,-90.9004 389.4612,-79.2766"/>
<polygon fill="#191970" stroke="#191970" points="390.6346,-75.9767 380.0487,-75.5419 388.0529,-82.4833 390.6346,-75.9767"/>
</g>
<!-- Node7 -->
<g id="node8" class="node">
<title>Node7</title>
<g id="a_node8"><a xlink:title=" ">
<polygon fill="none" stroke="#bfbfbf" points="424,-56.5 424,-75.5 598,-75.5 598,-56.5 424,-56.5"/>
<text text-anchor="middle" x="511" y="-63.5" font-family="Helvetica,sans-Serif" font-size="10.00" fill="#000000">opencv2/core/cuda.hpp</text>
</a>
</g>
</g>
<!-- Node6&#45;&gt;Node7 -->
<g id="edge10" class="edge">
<title>Node6&#45;&gt;Node7</title>
<path fill="none" stroke="#191970" d="M511,-117.8906C511,-109.3657 511,-96.6392 511,-85.9235"/>
<polygon fill="#191970" stroke="#191970" points="514.5001,-85.7448 511,-75.7449 507.5001,-85.7449 514.5001,-85.7448"/>
</g>
<!-- Node8 -->
<g id="node9" class="node">
<title>Node8</title>
<g id="a_node9"><a xlink:title=" ">
<polygon fill="none" stroke="#bfbfbf" points="616.5,-56.5 616.5,-75.5 805.5,-75.5 805.5,-56.5 616.5,-56.5"/>
<text text-anchor="middle" x="711" y="-63.5" font-family="Helvetica,sans-Serif" font-size="10.00" fill="#000000">opencv2/cudaoptflow.hpp</text>
</a>
</g>
</g>
<!-- Node6&#45;&gt;Node8 -->
<g id="edge11" class="edge">
<title>Node6&#45;&gt;Node8</title>
<path fill="none" stroke="#191970" d="M542.25,-117.8906C576.7411,-107.2846 632.3812,-90.1753 670.2662,-78.5257"/>
<polygon fill="#191970" stroke="#191970" points="671.4399,-81.8266 679.9694,-75.5419 669.3824,-75.1357 671.4399,-81.8266"/>
</g>
<!-- Node10 -->
<g id="node11" class="node">
<title>Node10</title>
<g id="a_node11"><a xlink:href="exception_8h.html" target="_top" xlink:title=" ">
<polygon fill="none" stroke="#000000" points="1111,-56.5 1111,-75.5 1255,-75.5 1255,-56.5 1111,-56.5"/>
<text text-anchor="middle" x="1183" y="-63.5" font-family="Helvetica,sans-Serif" font-size="10.00" fill="#000000">utils/exception.h</text>
</a>
</g>
</g>
<!-- Node9&#45;&gt;Node10 -->
<g id="edge13" class="edge">
<title>Node9&#45;&gt;Node10</title>
<path fill="none" stroke="#191970" d="M1183,-117.8906C1183,-109.3657 1183,-96.6392 1183,-85.9235"/>
<polygon fill="#191970" stroke="#191970" points="1186.5001,-85.7448 1183,-75.7449 1179.5001,-85.7449 1186.5001,-85.7448"/>
</g>
<!-- Node11 -->
<g id="node12" class="node">
<title>Node11</title>
<g id="a_node12"><a xlink:title=" ">
<polygon fill="none" stroke="#bfbfbf" points="1022.5,-.5 1022.5,-19.5 1129.5,-19.5 1129.5,-.5 1022.5,-.5"/>
<text text-anchor="middle" x="1076" y="-7.5" font-family="Helvetica,sans-Serif" font-size="10.00" fill="#000000">fmt/format.h</text>
</a>
</g>
</g>
<!-- Node9&#45;&gt;Node11 -->
<g id="edge17" class="edge">
<title>Node9&#45;&gt;Node11</title>
<path fill="none" stroke="#191970" d="M1160.2958,-117.8933C1142.3164,-109.2637 1117.6964,-95.0233 1102,-76 1090.9914,-62.6581 1084.2361,-44.0893 1080.3807,-30.0452"/>
<polygon fill="#191970" stroke="#191970" points="1083.6803,-28.8075 1077.8847,-19.9384 1076.8845,-30.4859 1083.6803,-28.8075"/>
</g>
<!-- Node14 -->
<g id="node15" class="node">
<title>Node14</title>
<g id="a_node15"><a xlink:title=" ">
<polygon fill="none" stroke="#bfbfbf" points="1273.5,-56.5 1273.5,-75.5 1342.5,-75.5 1342.5,-56.5 1273.5,-56.5"/>
<text text-anchor="middle" x="1308" y="-63.5" font-family="Helvetica,sans-Serif" font-size="10.00" fill="#000000">cstdlib</text>
</a>
</g>
</g>
<!-- Node9&#45;&gt;Node14 -->
<g id="edge18" class="edge">
<title>Node9&#45;&gt;Node14</title>
<path fill="none" stroke="#191970" d="M1202.5313,-117.8906C1223.1708,-107.7359 1255.9276,-91.6196 1279.4602,-80.0416"/>
<polygon fill="#191970" stroke="#191970" points="1281.1782,-83.0971 1288.6059,-75.5419 1278.088,-76.8161 1281.1782,-83.0971"/>
</g>
<!-- Node9&#45;&gt;Node15 -->
<g id="edge19" class="edge">
<title>Node9&#45;&gt;Node15</title>
<path fill="none" stroke="#191970" d="M1218,-117.8906C1256.9588,-107.1944 1320.0093,-89.8836 1362.4571,-78.2294"/>
<polygon fill="#191970" stroke="#191970" points="1363.5293,-81.5646 1372.2458,-75.5419 1361.6759,-74.8144 1363.5293,-81.5646"/>
</g>
<!-- Node16 -->
<g id="node17" class="node">
<title>Node16</title>
<g id="a_node17"><a xlink:title=" ">
<polygon fill="none" stroke="#bfbfbf" points="823.5,-56.5 823.5,-75.5 922.5,-75.5 922.5,-56.5 823.5,-56.5"/>
<text text-anchor="middle" x="873" y="-63.5" font-family="Helvetica,sans-Serif" font-size="10.00" fill="#000000">type_traits</text>
</a>
</g>
</g>
<!-- Node9&#45;&gt;Node16 -->
<g id="edge20" class="edge">
<title>Node9&#45;&gt;Node16</title>
<path fill="none" stroke="#191970" d="M1134.9026,-117.9581C1079.8408,-107.0345 989.6868,-89.1492 930.8409,-77.4749"/>
<polygon fill="#191970" stroke="#191970" points="931.4451,-74.0266 920.9551,-75.5137 930.0829,-80.8928 931.4451,-74.0266"/>
</g>
<!-- Node17 -->
<g id="node18" class="node">
<title>Node17</title>
<g id="a_node18"><a xlink:title=" ">
<polygon fill="none" stroke="#bfbfbf" points="941,-56.5 941,-75.5 1055,-75.5 1055,-56.5 941,-56.5"/>
<text text-anchor="middle" x="998" y="-63.5" font-family="Helvetica,sans-Serif" font-size="10.00" fill="#000000">unordered_map</text>
</a>
</g>
</g>
<!-- Node9&#45;&gt;Node17 -->
<g id="edge21" class="edge">
<title>Node9&#45;&gt;Node17</title>
<path fill="none" stroke="#191970" d="M1154.0938,-117.8906C1122.461,-107.3749 1071.597,-90.466 1036.5771,-78.8243"/>
<polygon fill="#191970" stroke="#191970" points="1037.2968,-75.3753 1026.7033,-75.5419 1035.0885,-82.0178 1037.2968,-75.3753"/>
</g>
<!-- Node10&#45;&gt;Node11 -->
<g id="edge14" class="edge">
<title>Node10&#45;&gt;Node11</title>
<path fill="none" stroke="#191970" d="M1164.362,-56.2455C1147.5614,-47.4527 1122.6366,-34.4079 1103.5382,-24.4125"/>
<polygon fill="#191970" stroke="#191970" points="1104.9073,-21.1787 1094.4244,-19.6427 1101.6614,-27.3807 1104.9073,-21.1787"/>
</g>
<!-- Node12 -->
<g id="node13" class="node">
<title>Node12</title>
<g id="a_node13"><a xlink:title=" ">
<polygon fill="none" stroke="#bfbfbf" points="1147,-.5 1147,-19.5 1231,-19.5 1231,-.5 1147,-.5"/>
<text text-anchor="middle" x="1189" y="-7.5" font-family="Helvetica,sans-Serif" font-size="10.00" fill="#000000">stdexcept</text>
</a>
</g>
</g>
<!-- Node10&#45;&gt;Node12 -->
<g id="edge15" class="edge">
<title>Node10&#45;&gt;Node12</title>
<path fill="none" stroke="#191970" d="M1184.0451,-56.2455C1184.828,-48.9382 1185.9256,-38.6944 1186.8888,-29.7046"/>
<polygon fill="#191970" stroke="#191970" points="1190.3815,-29.9587 1187.9669,-19.6427 1183.4214,-29.2129 1190.3815,-29.9587"/>
</g>
<!-- Node13 -->
<g id="node14" class="node">
<title>Node13</title>
<g id="a_node14"><a xlink:title=" ">
<polygon fill="none" stroke="#bfbfbf" points="1249.5,-.5 1249.5,-19.5 1348.5,-19.5 1348.5,-.5 1249.5,-.5"/>
<text text-anchor="middle" x="1299" y="-7.5" font-family="Helvetica,sans-Serif" font-size="10.00" fill="#000000">string_view</text>
</a>
</g>
</g>
<!-- Node10&#45;&gt;Node13 -->
<g id="edge16" class="edge">
<title>Node10&#45;&gt;Node13</title>
<path fill="none" stroke="#191970" d="M1202.9411,-56.3733C1221.4786,-47.4241 1249.3028,-33.9917 1270.2413,-23.8835"/>
<polygon fill="#191970" stroke="#191970" points="1271.8352,-27.0006 1279.3191,-19.5011 1268.7919,-20.6967 1271.8352,-27.0006"/>
</g>
<!-- Node19 -->
<g id="node20" class="node">
<title>Node19</title>
<g id="a_node20"><a xlink:title=" ">
<polygon fill="none" stroke="#bfbfbf" points="1471,-56.5 1471,-75.5 1623,-75.5 1623,-56.5 1471,-56.5"/>
<text text-anchor="middle" x="1547" y="-63.5" font-family="Helvetica,sans-Serif" font-size="10.00" fill="#000000">condition_variable</text>
</a>
</g>
</g>
<!-- Node18&#45;&gt;Node19 -->
<g id="edge23" class="edge">
<title>Node18&#45;&gt;Node19</title>
<path fill="none" stroke="#191970" d="M1547,-117.8906C1547,-109.3657 1547,-96.6392 1547,-85.9235"/>
<polygon fill="#191970" stroke="#191970" points="1550.5001,-85.7448 1547,-75.7449 1543.5001,-85.7449 1550.5001,-85.7448"/>
</g>
<!-- Node20 -->
<g id="node21" class="node">
<title>Node20</title>
<g id="a_node21"><a xlink:title=" ">
<polygon fill="none" stroke="#bfbfbf" points="1641,-56.5 1641,-75.5 1695,-75.5 1695,-56.5 1641,-56.5"/>
<text text-anchor="middle" x="1668" y="-63.5" font-family="Helvetica,sans-Serif" font-size="10.00" fill="#000000">mutex</text>
</a>
</g>
</g>
<!-- Node18&#45;&gt;Node20 -->
<g id="edge24" class="edge">
<title>Node18&#45;&gt;Node20</title>
<path fill="none" stroke="#191970" d="M1565.9063,-117.8906C1585.7966,-107.7811 1617.3123,-91.7628 1640.0692,-80.1962"/>
<polygon fill="#191970" stroke="#191970" points="1641.8978,-83.193 1649.2265,-75.5419 1638.726,-76.9528 1641.8978,-83.193"/>
</g>
<!-- Node21 -->
<g id="node22" class="node">
<title>Node21</title>
<g id="a_node22"><a xlink:title=" ">
<polygon fill="none" stroke="#bfbfbf" points="1713.5,-56.5 1713.5,-75.5 1790.5,-75.5 1790.5,-56.5 1713.5,-56.5"/>
<text text-anchor="middle" x="1752" y="-63.5" font-family="Helvetica,sans-Serif" font-size="10.00" fill="#000000">optional</text>
</a>
</g>
</g>
<!-- Node18&#45;&gt;Node21 -->
<g id="edge25" class="edge">
<title>Node18&#45;&gt;Node21</title>
<path fill="none" stroke="#191970" d="M1579.0313,-117.8906C1614.3846,-107.2846 1671.4157,-90.1753 1710.2478,-78.5257"/>
<polygon fill="#191970" stroke="#191970" points="1711.6212,-81.7678 1720.1937,-75.5419 1709.6097,-75.0631 1711.6212,-81.7678"/>
</g>
<!-- Node22 -->
<g id="node23" class="node">
<title>Node22</title>
<g id="a_node23"><a xlink:title=" ">
<polygon fill="none" stroke="#bfbfbf" points="1809,-56.5 1809,-75.5 1863,-75.5 1863,-56.5 1809,-56.5"/>
<text text-anchor="middle" x="1836" y="-63.5" font-family="Helvetica,sans-Serif" font-size="10.00" fill="#000000">queue</text>
</a>
</g>
</g>
<!-- Node18&#45;&gt;Node22 -->
<g id="edge26" class="edge">
<title>Node18&#45;&gt;Node22</title>
<path fill="none" stroke="#191970" d="M1599.5677,-117.9135C1648.6992,-108.7029 1724.2969,-93.8924 1798.8878,-76.1473"/>
<polygon fill="#191970" stroke="#191970" points="1800.0183,-79.4755 1808.9262,-73.7397 1798.3856,-72.6686 1800.0183,-79.4755"/>
</g>
<!-- Node24 -->
<g id="node25" class="node">
<title>Node24</title>
<g id="a_node25"><a xlink:title=" ">
<polygon fill="none" stroke="#bfbfbf" points="1881,-56.5 1881,-75.5 1973,-75.5 1973,-56.5 1881,-56.5"/>
<text text-anchor="middle" x="1927" y="-63.5" font-family="Helvetica,sans-Serif" font-size="10.00" fill="#000000">functional</text>
</a>
</g>
</g>
<!-- Node23&#45;&gt;Node24 -->
<g id="edge28" class="edge">
<title>Node23&#45;&gt;Node24</title>
<path fill="none" stroke="#191970" d="M1759.0938,-117.8906C1793.4124,-107.2846 1848.7743,-90.1753 1886.4698,-78.5257"/>
<polygon fill="#191970" stroke="#191970" points="1887.6039,-81.8386 1896.1246,-75.5419 1885.537,-75.1507 1887.6039,-81.8386"/>
</g>
</g>
</svg>
