<?xml version="1.0" encoding="UTF-8" standalone="no"?>
<!DOCTYPE svg PUBLIC "-//W3C//DTD SVG 1.1//EN"
 "http://www.w3.org/Graphics/SVG/1.1/DTD/svg11.dtd">
<!-- Generated by graphviz version 2.40.1 (0)
 -->
<!-- Title: soe/main.cpp Pages: 1 -->
<svg width="1533pt" height="207pt"
 viewBox="0.00 0.00 1532.50 207.00" xmlns="http://www.w3.org/2000/svg" xmlns:xlink="http://www.w3.org/1999/xlink">
<g id="graph0" class="graph" transform="scale(1 1) rotate(0) translate(4 203)">
<title>soe/main.cpp</title>
<!-- Node0 -->
<g id="node1" class="node">
<title>Node0</title>
<g id="a_node1"><a xlink:title=" ">
<polygon fill="#bfbfbf" stroke="#000000" points="909,-179.5 909,-198.5 1016,-198.5 1016,-179.5 909,-179.5"/>
<text text-anchor="middle" x="962.5" y="-186.5" font-family="Helvetica,sans-Serif" font-size="10.00" fill="#000000">soe/main.cpp</text>
</a>
</g>
</g>
<!-- Node1 -->
<g id="node2" class="node">
<title>Node1</title>
<g id="a_node2"><a xlink:href="frame__stream_8h.html" target="_top" xlink:title=" ">
<polygon fill="none" stroke="#000000" points="107.5,-118 107.5,-137 259.5,-137 259.5,-118 107.5,-118"/>
<text text-anchor="middle" x="183.5" y="-125" font-family="Helvetica,sans-Serif" font-size="10.00" fill="#000000">soe/frame_stream.h</text>
</a>
</g>
</g>
<!-- Node0&#45;&gt;Node1 -->
<g id="edge1" class="edge">
<title>Node0&#45;&gt;Node1</title>
<path fill="none" stroke="#191970" d="M908.8414,-184.9585C804.6638,-177.0867 567.7394,-159.061 368.5,-143 336.3172,-140.4057 300.9933,-137.4683 269.9146,-134.8536"/>
<polygon fill="#191970" stroke="#191970" points="269.8068,-131.3322 259.5483,-133.9802 269.2191,-138.3075 269.8068,-131.3322"/>
</g>
<!-- Node3 -->
<g id="node4" class="node">
<title>Node3</title>
<g id="a_node4"><a xlink:href="frame__stream__cuda_8h.html" target="_top" xlink:title=" ">
<polygon fill="none" stroke="#000000" points="378,-118 378,-137 567,-137 567,-118 378,-118"/>
<text text-anchor="middle" x="472.5" y="-125" font-family="Helvetica,sans-Serif" font-size="10.00" fill="#000000">soe/frame_stream_cuda.h</text>
</a>
</g>
</g>
<!-- Node0&#45;&gt;Node3 -->
<g id="edge3" class="edge">
<title>Node0&#45;&gt;Node3</title>
<path fill="none" stroke="#191970" d="M908.6598,-182.2425C824.1746,-171.6388 659.6959,-150.995 558.6304,-138.3102"/>
<polygon fill="#191970" stroke="#191970" points="558.8059,-134.8049 548.4478,-137.0322 557.9341,-141.7504 558.8059,-134.8049"/>
</g>
<!-- Node6 -->
<g id="node7" class="node">
<title>Node6</title>
<g id="a_node7"><a xlink:href="config_8h.html" target="_top" xlink:title=" ">
<polygon fill="none" stroke="#000000" points="759.5,-118 759.5,-137 881.5,-137 881.5,-118 759.5,-118"/>
<text text-anchor="middle" x="820.5" y="-125" font-family="Helvetica,sans-Serif" font-size="10.00" fill="#000000">utils/config.h</text>
</a>
</g>
</g>
<!-- Node0&#45;&gt;Node6 -->
<g id="edge6" class="edge">
<title>Node0&#45;&gt;Node6</title>
<path fill="none" stroke="#191970" d="M940.3125,-179.3906C916.5533,-169.1005 878.6595,-152.6888 851.8575,-141.0809"/>
<polygon fill="#191970" stroke="#191970" points="853.0991,-137.8045 842.5317,-137.0419 850.317,-144.2279 853.0991,-137.8045"/>
</g>
<!-- Node12 -->
<g id="node13" class="node">
<title>Node12</title>
<g id="a_node13"><a xlink:title=" ">
<polygon fill="none" stroke="#bfbfbf" points="1122.5,-56.5 1122.5,-75.5 1214.5,-75.5 1214.5,-56.5 1122.5,-56.5"/>
<text text-anchor="middle" x="1168.5" y="-63.5" font-family="Helvetica,sans-Serif" font-size="10.00" fill="#000000">filesystem</text>
</a>
</g>
</g>
<!-- Node0&#45;&gt;Node12 -->
<g id="edge19" class="edge">
<title>Node0&#45;&gt;Node12</title>
<path fill="none" stroke="#191970" d="M951.8794,-179.0719C936.4287,-163.4363 911.3697,-132.7254 928.5,-112 929.9793,-110.2103 1041.7619,-89.3399 1112.2324,-76.3338"/>
<polygon fill="#191970" stroke="#191970" points="1113.1124,-79.7306 1122.3119,-74.4751 1111.8429,-72.8467 1113.1124,-79.7306"/>
</g>
<!-- Node15 -->
<g id="node16" class="node">
<title>Node15</title>
<g id="a_node16"><a xlink:title=" ">
<polygon fill="none" stroke="#bfbfbf" points="937,-118 937,-137 1096,-137 1096,-118 937,-118"/>
<text text-anchor="middle" x="1016.5" y="-125" font-family="Helvetica,sans-Serif" font-size="10.00" fill="#000000">opencv2/videoio.hpp</text>
</a>
</g>
</g>
<!-- Node0&#45;&gt;Node15 -->
<g id="edge16" class="edge">
<title>Node0&#45;&gt;Node15</title>
<path fill="none" stroke="#191970" d="M970.9375,-179.3906C979.0531,-170.1478 991.5055,-155.966 1001.3424,-144.7628"/>
<polygon fill="#191970" stroke="#191970" points="1003.9755,-147.0686 1007.9435,-137.2449 998.7154,-142.45 1003.9755,-147.0686"/>
</g>
<!-- Node16 -->
<g id="node17" class="node">
<title>Node16</title>
<g id="a_node17"><a xlink:title=" ">
<polygon fill="none" stroke="#bfbfbf" points="1114.5,-112.5 1114.5,-142.5 1266.5,-142.5 1266.5,-112.5 1114.5,-112.5"/>
<text text-anchor="start" x="1122.5" y="-130.5" font-family="Helvetica,sans-Serif" font-size="10.00" fill="#000000">spdlog/sinks/basic</text>
<text text-anchor="middle" x="1190.5" y="-119.5" font-family="Helvetica,sans-Serif" font-size="10.00" fill="#000000">_file_sink.h</text>
</a>
</g>
</g>
<!-- Node0&#45;&gt;Node16 -->
<g id="edge17" class="edge">
<title>Node0&#45;&gt;Node16</title>
<path fill="none" stroke="#191970" d="M998.125,-179.3906C1031.982,-170.2581 1083.715,-156.3038 1125.0093,-145.1653"/>
<polygon fill="#191970" stroke="#191970" points="1125.9815,-148.5282 1134.7249,-142.5446 1124.1585,-141.7697 1125.9815,-148.5282"/>
</g>
<!-- Node17 -->
<g id="node18" class="node">
<title>Node17</title>
<g id="a_node18"><a xlink:title=" ">
<polygon fill="none" stroke="#bfbfbf" points="1285,-112.5 1285,-142.5 1444,-142.5 1444,-112.5 1285,-112.5"/>
<text text-anchor="start" x="1293" y="-130.5" font-family="Helvetica,sans-Serif" font-size="10.00" fill="#000000">spdlog/sinks/stdout</text>
<text text-anchor="middle" x="1364.5" y="-119.5" font-family="Helvetica,sans-Serif" font-size="10.00" fill="#000000">_color_sinks.h</text>
</a>
</g>
</g>
<!-- Node0&#45;&gt;Node17 -->
<g id="edge18" class="edge">
<title>Node0&#45;&gt;Node17</title>
<path fill="none" stroke="#191970" d="M1016.0109,-181.5758C1076.3123,-173.1109 1177.5292,-158.607 1274.922,-143.0678"/>
<polygon fill="#191970" stroke="#191970" points="1275.6204,-146.5007 1284.9411,-141.4634 1274.5134,-139.5887 1275.6204,-146.5007"/>
</g>
<!-- Node18 -->
<g id="node19" class="node">
<title>Node18</title>
<g id="a_node19"><a xlink:title=" ">
<polygon fill="none" stroke="#bfbfbf" points="1462.5,-118 1462.5,-137 1524.5,-137 1524.5,-118 1462.5,-118"/>
<text text-anchor="middle" x="1493.5" y="-125" font-family="Helvetica,sans-Serif" font-size="10.00" fill="#000000">string</text>
</a>
</g>
</g>
<!-- Node0&#45;&gt;Node18 -->
<g id="edge20" class="edge">
<title>Node0&#45;&gt;Node18</title>
<path fill="none" stroke="#191970" d="M1016.0556,-185.8545C1125.5314,-179.1181 1371.5227,-162.3284 1453.5,-143 1456.3542,-142.327 1459.2767,-141.4944 1462.179,-140.5671"/>
<polygon fill="#191970" stroke="#191970" points="1463.5826,-143.7831 1471.8397,-137.1445 1461.245,-137.1849 1463.5826,-143.7831"/>
</g>
<!-- Node2 -->
<g id="node3" class="node">
<title>Node2</title>
<g id="a_node3"><a xlink:title=" ">
<polygon fill="none" stroke="#bfbfbf" points="0,-56.5 0,-75.5 167,-75.5 167,-56.5 0,-56.5"/>
<text text-anchor="middle" x="83.5" y="-63.5" font-family="Helvetica,sans-Serif" font-size="10.00" fill="#000000">opencv2/core/mat.hpp</text>
</a>
</g>
</g>
<!-- Node1&#45;&gt;Node2 -->
<g id="edge2" class="edge">
<title>Node1&#45;&gt;Node2</title>
<path fill="none" stroke="#191970" d="M167.875,-117.8906C151.7302,-107.9616 126.3178,-92.333 107.5977,-80.8201"/>
<polygon fill="#191970" stroke="#191970" points="109.3669,-77.7992 99.0153,-75.5419 105.6998,-83.7619 109.3669,-77.7992"/>
</g>
<!-- Node4 -->
<g id="node5" class="node">
<title>Node4</title>
<g id="a_node5"><a xlink:title=" ">
<polygon fill="none" stroke="#bfbfbf" points="185.5,-56.5 185.5,-75.5 359.5,-75.5 359.5,-56.5 185.5,-56.5"/>
<text text-anchor="middle" x="272.5" y="-63.5" font-family="Helvetica,sans-Serif" font-size="10.00" fill="#000000">opencv2/core/cuda.hpp</text>
</a>
</g>
</g>
<!-- Node3&#45;&gt;Node4 -->
<g id="edge4" class="edge">
<title>Node3&#45;&gt;Node4</title>
<path fill="none" stroke="#191970" d="M441.25,-117.8906C406.7589,-107.2846 351.1188,-90.1753 313.2338,-78.5257"/>
<polygon fill="#191970" stroke="#191970" points="314.1176,-75.1357 303.5306,-75.5419 312.0601,-81.8266 314.1176,-75.1357"/>
</g>
<!-- Node5 -->
<g id="node6" class="node">
<title>Node5</title>
<g id="a_node6"><a xlink:title=" ">
<polygon fill="none" stroke="#bfbfbf" points="378,-56.5 378,-75.5 567,-75.5 567,-56.5 378,-56.5"/>
<text text-anchor="middle" x="472.5" y="-63.5" font-family="Helvetica,sans-Serif" font-size="10.00" fill="#000000">opencv2/cudaoptflow.hpp</text>
</a>
</g>
</g>
<!-- Node3&#45;&gt;Node5 -->
<g id="edge5" class="edge">
<title>Node3&#45;&gt;Node5</title>
<path fill="none" stroke="#191970" d="M472.5,-117.8906C472.5,-109.3657 472.5,-96.6392 472.5,-85.9235"/>
<polygon fill="#191970" stroke="#191970" points="476.0001,-85.7448 472.5,-75.7449 469.0001,-85.7449 476.0001,-85.7448"/>
</g>
<!-- Node7 -->
<g id="node8" class="node">
<title>Node7</title>
<g id="a_node8"><a xlink:href="exception_8h.html" target="_top" xlink:title=" ">
<polygon fill="none" stroke="#000000" points="623.5,-56.5 623.5,-75.5 767.5,-75.5 767.5,-56.5 623.5,-56.5"/>
<text text-anchor="middle" x="695.5" y="-63.5" font-family="Helvetica,sans-Serif" font-size="10.00" fill="#000000">utils/exception.h</text>
</a>
</g>
</g>
<!-- Node6&#45;&gt;Node7 -->
<g id="edge7" class="edge">
<title>Node6&#45;&gt;Node7</title>
<path fill="none" stroke="#191970" d="M800.9688,-117.8906C780.3292,-107.7359 747.5724,-91.6196 724.0398,-80.0416"/>
<polygon fill="#191970" stroke="#191970" points="725.412,-76.8161 714.8941,-75.5419 722.3218,-83.0971 725.412,-76.8161"/>
</g>
<!-- Node8 -->
<g id="node9" class="node">
<title>Node8</title>
<g id="a_node9"><a xlink:title=" ">
<polygon fill="none" stroke="#bfbfbf" points="535,-.5 535,-19.5 642,-19.5 642,-.5 535,-.5"/>
<text text-anchor="middle" x="588.5" y="-7.5" font-family="Helvetica,sans-Serif" font-size="10.00" fill="#000000">fmt/format.h</text>
</a>
</g>
</g>
<!-- Node6&#45;&gt;Node8 -->
<g id="edge11" class="edge">
<title>Node6&#45;&gt;Node8</title>
<path fill="none" stroke="#191970" d="M759.3793,-118.5334C706.7338,-109.7006 635.9397,-94.8137 614.5,-76 601.0749,-64.2192 594.5163,-44.6038 591.353,-29.8118"/>
<polygon fill="#191970" stroke="#191970" points="594.7419,-28.8792 589.5384,-19.6502 587.851,-30.1098 594.7419,-28.8792"/>
</g>
<!-- Node11 -->
<g id="node12" class="node">
<title>Node11</title>
<g id="a_node12"><a xlink:title=" ">
<polygon fill="none" stroke="#bfbfbf" points="786,-56.5 786,-75.5 855,-75.5 855,-56.5 786,-56.5"/>
<text text-anchor="middle" x="820.5" y="-63.5" font-family="Helvetica,sans-Serif" font-size="10.00" fill="#000000">cstdlib</text>
</a>
</g>
</g>
<!-- Node6&#45;&gt;Node11 -->
<g id="edge12" class="edge">
<title>Node6&#45;&gt;Node11</title>
<path fill="none" stroke="#191970" d="M820.5,-117.8906C820.5,-109.3657 820.5,-96.6392 820.5,-85.9235"/>
<polygon fill="#191970" stroke="#191970" points="824.0001,-85.7448 820.5,-75.7449 817.0001,-85.7449 824.0001,-85.7448"/>
</g>
<!-- Node6&#45;&gt;Node12 -->
<g id="edge13" class="edge">
<title>Node6&#45;&gt;Node12</title>
<path fill="none" stroke="#191970" d="M865.2569,-117.9438C875.199,-115.9066 885.6958,-113.8219 895.5,-112 988.9369,-94.6371 1015.0775,-92.8834 1112.3382,-76.1766"/>
<polygon fill="#191970" stroke="#191970" points="1113.0377,-79.6077 1122.2962,-74.4567 1111.8463,-72.7098 1113.0377,-79.6077"/>
</g>
<!-- Node13 -->
<g id="node14" class="node">
<title>Node13</title>
<g id="a_node14"><a xlink:title=" ">
<polygon fill="none" stroke="#bfbfbf" points="873,-56.5 873,-75.5 972,-75.5 972,-56.5 873,-56.5"/>
<text text-anchor="middle" x="922.5" y="-63.5" font-family="Helvetica,sans-Serif" font-size="10.00" fill="#000000">type_traits</text>
</a>
</g>
</g>
<!-- Node6&#45;&gt;Node13 -->
<g id="edge14" class="edge">
<title>Node6&#45;&gt;Node13</title>
<path fill="none" stroke="#191970" d="M836.4375,-117.8906C852.9051,-107.9616 878.8258,-92.333 897.9204,-80.8201"/>
<polygon fill="#191970" stroke="#191970" points="899.9178,-83.7027 906.6744,-75.5419 896.3034,-77.7081 899.9178,-83.7027"/>
</g>
<!-- Node14 -->
<g id="node15" class="node">
<title>Node14</title>
<g id="a_node15"><a xlink:title=" ">
<polygon fill="none" stroke="#bfbfbf" points="990.5,-56.5 990.5,-75.5 1104.5,-75.5 1104.5,-56.5 990.5,-56.5"/>
<text text-anchor="middle" x="1047.5" y="-63.5" font-family="Helvetica,sans-Serif" font-size="10.00" fill="#000000">unordered_map</text>
</a>
</g>
</g>
<!-- Node6&#45;&gt;Node14 -->
<g id="edge15" class="edge">
<title>Node6&#45;&gt;Node14</title>
<path fill="none" stroke="#191970" d="M855.9688,-117.8906C895.4493,-107.1944 959.3443,-89.8836 1002.3605,-78.2294"/>
<polygon fill="#191970" stroke="#191970" points="1003.5435,-81.5352 1012.2803,-75.5419 1001.713,-74.7787 1003.5435,-81.5352"/>
</g>
<!-- Node7&#45;&gt;Node8 -->
<g id="edge8" class="edge">
<title>Node7&#45;&gt;Node8</title>
<path fill="none" stroke="#191970" d="M676.862,-56.2455C660.0614,-47.4527 635.1366,-34.4079 616.0382,-24.4125"/>
<polygon fill="#191970" stroke="#191970" points="617.4073,-21.1787 606.9244,-19.6427 614.1614,-27.3807 617.4073,-21.1787"/>
</g>
<!-- Node9 -->
<g id="node10" class="node">
<title>Node9</title>
<g id="a_node10"><a xlink:title=" ">
<polygon fill="none" stroke="#bfbfbf" points="659.5,-.5 659.5,-19.5 743.5,-19.5 743.5,-.5 659.5,-.5"/>
<text text-anchor="middle" x="701.5" y="-7.5" font-family="Helvetica,sans-Serif" font-size="10.00" fill="#000000">stdexcept</text>
</a>
</g>
</g>
<!-- Node7&#45;&gt;Node9 -->
<g id="edge9" class="edge">
<title>Node7&#45;&gt;Node9</title>
<path fill="none" stroke="#191970" d="M696.5451,-56.2455C697.328,-48.9382 698.4256,-38.6944 699.3888,-29.7046"/>
<polygon fill="#191970" stroke="#191970" points="702.8815,-29.9587 700.4669,-19.6427 695.9214,-29.2129 702.8815,-29.9587"/>
</g>
<!-- Node10 -->
<g id="node11" class="node">
<title>Node10</title>
<g id="a_node11"><a xlink:title=" ">
<polygon fill="none" stroke="#bfbfbf" points="762,-.5 762,-19.5 861,-19.5 861,-.5 762,-.5"/>
<text text-anchor="middle" x="811.5" y="-7.5" font-family="Helvetica,sans-Serif" font-size="10.00" fill="#000000">string_view</text>
</a>
</g>
</g>
<!-- Node7&#45;&gt;Node10 -->
<g id="edge10" class="edge">
<title>Node7&#45;&gt;Node10</title>
<path fill="none" stroke="#191970" d="M715.4411,-56.3733C733.9786,-47.4241 761.8028,-33.9917 782.7413,-23.8835"/>
<polygon fill="#191970" stroke="#191970" points="784.3352,-27.0006 791.8191,-19.5011 781.2919,-20.6967 784.3352,-27.0006"/>
</g>
</g>
</svg>
