<?xml version="1.0" encoding="UTF-8" standalone="no"?>
<!DOCTYPE svg PUBLIC "-//W3C//DTD SVG 1.1//EN"
 "http://www.w3.org/Graphics/SVG/1.1/DTD/svg11.dtd">
<!-- Generated by graphviz version 2.40.1 (0)
 -->
<!-- Title: soe/main.cpp Pages: 1 -->
<svg width="1019pt" height="151pt"
 viewBox="0.00 0.00 1018.50 151.00" xmlns="http://www.w3.org/2000/svg" xmlns:xlink="http://www.w3.org/1999/xlink">
<g id="graph0" class="graph" transform="scale(1 1) rotate(0) translate(4 147)">
<title>soe/main.cpp</title>
<!-- Node0 -->
<g id="node1" class="node">
<title>Node0</title>
<g id="a_node1"><a xlink:title=" ">
<polygon fill="#bfbfbf" stroke="#000000" points="427,-123.5 427,-142.5 534,-142.5 534,-123.5 427,-123.5"/>
<text text-anchor="middle" x="480.5" y="-130.5" font-family="Helvetica,sans-Serif" font-size="10.00" fill="#000000">soe/main.cpp</text>
</a>
</g>
</g>
<!-- Node1 -->
<g id="node2" class="node">
<title>Node1</title>
<g id="a_node2"><a xlink:title=" ">
<polygon fill="none" stroke="#bfbfbf" points="0,-62 0,-81 159,-81 159,-62 0,-62"/>
<text text-anchor="middle" x="79.5" y="-69" font-family="Helvetica,sans-Serif" font-size="10.00" fill="#000000">opencv2/videoio.hpp</text>
</a>
</g>
</g>
<!-- Node0&#45;&gt;Node1 -->
<g id="edge1" class="edge">
<title>Node0&#45;&gt;Node1</title>
<path fill="none" stroke="#191970" d="M426.8828,-125.5277C364.6735,-116.7577 259.0473,-101.5572 168.5,-87 160.2639,-85.6759 151.6083,-84.2329 143.0631,-82.7776"/>
<polygon fill="#191970" stroke="#191970" points="143.5623,-79.3122 133.1143,-81.07 142.378,-86.2113 143.5623,-79.3122"/>
</g>
<!-- Node2 -->
<g id="node3" class="node">
<title>Node2</title>
<g id="a_node3"><a xlink:title=" ">
<polygon fill="none" stroke="#bfbfbf" points="177.5,-56.5 177.5,-86.5 329.5,-86.5 329.5,-56.5 177.5,-56.5"/>
<text text-anchor="start" x="185.5" y="-74.5" font-family="Helvetica,sans-Serif" font-size="10.00" fill="#000000">spdlog/sinks/basic</text>
<text text-anchor="middle" x="253.5" y="-63.5" font-family="Helvetica,sans-Serif" font-size="10.00" fill="#000000">_file_sink.h</text>
</a>
</g>
</g>
<!-- Node0&#45;&gt;Node2 -->
<g id="edge2" class="edge">
<title>Node0&#45;&gt;Node2</title>
<path fill="none" stroke="#191970" d="M445.0313,-123.3906C411.3227,-114.2581 359.8166,-100.3038 318.7035,-89.1653"/>
<polygon fill="#191970" stroke="#191970" points="319.5978,-85.7814 309.0304,-86.5446 317.7672,-92.5379 319.5978,-85.7814"/>
</g>
<!-- Node3 -->
<g id="node4" class="node">
<title>Node3</title>
<g id="a_node4"><a xlink:title=" ">
<polygon fill="none" stroke="#bfbfbf" points="348,-56.5 348,-86.5 507,-86.5 507,-56.5 348,-56.5"/>
<text text-anchor="start" x="356" y="-74.5" font-family="Helvetica,sans-Serif" font-size="10.00" fill="#000000">spdlog/sinks/stdout</text>
<text text-anchor="middle" x="427.5" y="-63.5" font-family="Helvetica,sans-Serif" font-size="10.00" fill="#000000">_color_sinks.h</text>
</a>
</g>
</g>
<!-- Node0&#45;&gt;Node3 -->
<g id="edge3" class="edge">
<title>Node0&#45;&gt;Node3</title>
<path fill="none" stroke="#191970" d="M472.2188,-123.3906C465.5108,-115.6068 455.7841,-104.3202 447.1141,-94.2597"/>
<polygon fill="#191970" stroke="#191970" points="449.6448,-91.8349 440.4653,-86.5446 444.3422,-96.4046 449.6448,-91.8349"/>
</g>
<!-- Node4 -->
<g id="node5" class="node">
<title>Node4</title>
<g id="a_node5"><a xlink:href="config_8h.html" target="_top" xlink:title=" ">
<polygon fill="none" stroke="#000000" points="562.5,-62 562.5,-81 684.5,-81 684.5,-62 562.5,-62"/>
<text text-anchor="middle" x="623.5" y="-69" font-family="Helvetica,sans-Serif" font-size="10.00" fill="#000000">utils/config.h</text>
</a>
</g>
</g>
<!-- Node0&#45;&gt;Node4 -->
<g id="edge4" class="edge">
<title>Node0&#45;&gt;Node4</title>
<path fill="none" stroke="#191970" d="M502.8438,-123.3906C526.7703,-113.1005 564.9309,-96.6888 591.9216,-85.0809"/>
<polygon fill="#191970" stroke="#191970" points="593.5095,-88.208 601.3131,-81.0419 590.7439,-81.7775 593.5095,-88.208"/>
</g>
<!-- Node7 -->
<g id="node8" class="node">
<title>Node7</title>
<g id="a_node8"><a xlink:title=" ">
<polygon fill="none" stroke="#bfbfbf" points="353.5,-.5 353.5,-19.5 445.5,-19.5 445.5,-.5 353.5,-.5"/>
<text text-anchor="middle" x="399.5" y="-7.5" font-family="Helvetica,sans-Serif" font-size="10.00" fill="#000000">filesystem</text>
</a>
</g>
</g>
<!-- Node0&#45;&gt;Node7 -->
<g id="edge11" class="edge">
<title>Node0&#45;&gt;Node7</title>
<path fill="none" stroke="#191970" d="M490.8509,-123.4576C505.9582,-108.3508 530.6809,-78.351 515.5,-56 507.1157,-43.6558 474.1649,-31.2766 445.5146,-22.4747"/>
<polygon fill="#191970" stroke="#191970" points="446.1907,-19.0239 435.6073,-19.5164 444.1879,-25.7313 446.1907,-19.0239"/>
</g>
<!-- Node11 -->
<g id="node12" class="node">
<title>Node11</title>
<g id="a_node12"><a xlink:title=" ">
<polygon fill="none" stroke="#bfbfbf" points="702.5,-62 702.5,-81 764.5,-81 764.5,-62 702.5,-62"/>
<text text-anchor="middle" x="733.5" y="-69" font-family="Helvetica,sans-Serif" font-size="10.00" fill="#000000">string</text>
</a>
</g>
</g>
<!-- Node0&#45;&gt;Node11 -->
<g id="edge12" class="edge">
<title>Node0&#45;&gt;Node11</title>
<path fill="none" stroke="#191970" d="M534.0462,-123.8484C577.4801,-115.8505 640.0474,-103.0203 693.5,-87 695.9345,-86.2704 698.4307,-85.4598 700.929,-84.6029"/>
<polygon fill="#191970" stroke="#191970" points="702.2464,-87.8481 710.448,-81.1412 699.854,-81.2696 702.2464,-87.8481"/>
</g>
<!-- Node5 -->
<g id="node6" class="node">
<title>Node5</title>
<g id="a_node6"><a xlink:title=" ">
<polygon fill="none" stroke="#bfbfbf" points="464,-.5 464,-19.5 571,-19.5 571,-.5 464,-.5"/>
<text text-anchor="middle" x="517.5" y="-7.5" font-family="Helvetica,sans-Serif" font-size="10.00" fill="#000000">fmt/format.h</text>
</a>
</g>
</g>
<!-- Node4&#45;&gt;Node5 -->
<g id="edge5" class="edge">
<title>Node4&#45;&gt;Node5</title>
<path fill="none" stroke="#191970" d="M606.9375,-61.8906C589.7463,-51.9165 562.6418,-36.1908 542.7734,-24.6633"/>
<polygon fill="#191970" stroke="#191970" points="544.3523,-21.533 533.9462,-19.5419 540.8394,-27.5877 544.3523,-21.533"/>
</g>
<!-- Node6 -->
<g id="node7" class="node">
<title>Node6</title>
<g id="a_node7"><a xlink:title=" ">
<polygon fill="none" stroke="#bfbfbf" points="589,-.5 589,-19.5 658,-19.5 658,-.5 589,-.5"/>
<text text-anchor="middle" x="623.5" y="-7.5" font-family="Helvetica,sans-Serif" font-size="10.00" fill="#000000">cstdlib</text>
</a>
</g>
</g>
<!-- Node4&#45;&gt;Node6 -->
<g id="edge6" class="edge">
<title>Node4&#45;&gt;Node6</title>
<path fill="none" stroke="#191970" d="M623.5,-61.8906C623.5,-53.3657 623.5,-40.6392 623.5,-29.9235"/>
<polygon fill="#191970" stroke="#191970" points="627.0001,-29.7448 623.5,-19.7449 620.0001,-29.7449 627.0001,-29.7448"/>
</g>
<!-- Node4&#45;&gt;Node7 -->
<g id="edge7" class="edge">
<title>Node4&#45;&gt;Node7</title>
<path fill="none" stroke="#191970" d="M588.5,-61.8906C549.5412,-51.1944 486.4907,-33.8836 444.0429,-22.2294"/>
<polygon fill="#191970" stroke="#191970" points="444.8241,-18.8144 434.2542,-19.5419 442.9707,-25.5646 444.8241,-18.8144"/>
</g>
<!-- Node8 -->
<g id="node9" class="node">
<title>Node8</title>
<g id="a_node9"><a xlink:title=" ">
<polygon fill="none" stroke="#bfbfbf" points="676.5,-.5 676.5,-19.5 760.5,-19.5 760.5,-.5 676.5,-.5"/>
<text text-anchor="middle" x="718.5" y="-7.5" font-family="Helvetica,sans-Serif" font-size="10.00" fill="#000000">stdexcept</text>
</a>
</g>
</g>
<!-- Node4&#45;&gt;Node8 -->
<g id="edge8" class="edge">
<title>Node4&#45;&gt;Node8</title>
<path fill="none" stroke="#191970" d="M638.3438,-61.8906C653.5418,-52.0519 677.3848,-36.6167 695.1206,-25.1351"/>
<polygon fill="#191970" stroke="#191970" points="697.268,-27.9144 703.7605,-19.5419 693.4639,-22.0382 697.268,-27.9144"/>
</g>
<!-- Node9 -->
<g id="node10" class="node">
<title>Node9</title>
<g id="a_node10"><a xlink:title=" ">
<polygon fill="none" stroke="#bfbfbf" points="779,-.5 779,-19.5 878,-19.5 878,-.5 779,-.5"/>
<text text-anchor="middle" x="828.5" y="-7.5" font-family="Helvetica,sans-Serif" font-size="10.00" fill="#000000">type_traits</text>
</a>
</g>
</g>
<!-- Node4&#45;&gt;Node9 -->
<g id="edge9" class="edge">
<title>Node4&#45;&gt;Node9</title>
<path fill="none" stroke="#191970" d="M655.5313,-61.8906C690.8846,-51.2846 747.9157,-34.1753 786.7478,-22.5257"/>
<polygon fill="#191970" stroke="#191970" points="788.1212,-25.7678 796.6937,-19.5419 786.1097,-19.0631 788.1212,-25.7678"/>
</g>
<!-- Node10 -->
<g id="node11" class="node">
<title>Node10</title>
<g id="a_node11"><a xlink:title=" ">
<polygon fill="none" stroke="#bfbfbf" points="896.5,-.5 896.5,-19.5 1010.5,-19.5 1010.5,-.5 896.5,-.5"/>
<text text-anchor="middle" x="953.5" y="-7.5" font-family="Helvetica,sans-Serif" font-size="10.00" fill="#000000">unordered_map</text>
</a>
</g>
</g>
<!-- Node4&#45;&gt;Node10 -->
<g id="edge10" class="edge">
<title>Node4&#45;&gt;Node10</title>
<path fill="none" stroke="#191970" d="M665.2654,-61.9451C674.5451,-59.9078 684.3443,-57.8227 693.5,-56 758.8596,-42.9881 833.8352,-29.9199 886.4265,-21.0556"/>
<polygon fill="#191970" stroke="#191970" points="887.0257,-24.5041 896.3074,-19.3953 885.8656,-17.6009 887.0257,-24.5041"/>
</g>
</g>
</svg>
