<?xml version="1.0" encoding="UTF-8" standalone="no"?>
<!DOCTYPE svg PUBLIC "-//W3C//DTD SVG 1.1//EN"
 "http://www.w3.org/Graphics/SVG/1.1/DTD/svg11.dtd">
<!-- Generated by graphviz version 2.40.1 (0)
 -->
<!-- Title: soe/main.cpp Pages: 1 -->
<svg width="1763pt" height="207pt"
 viewBox="0.00 0.00 1763.44 207.00" xmlns="http://www.w3.org/2000/svg" xmlns:xlink="http://www.w3.org/1999/xlink">
<g id="graph0" class="graph" transform="scale(1 1) rotate(0) translate(4 203)">
<title>soe/main.cpp</title>
<!-- Node0 -->
<g id="node1" class="node">
<title>Node0</title>
<g id="a_node1"><a xlink:title=" ">
<polygon fill="#bfbfbf" stroke="#000000" points="1139.936,-179.5 1139.936,-198.5 1246.936,-198.5 1246.936,-179.5 1139.936,-179.5"/>
<text text-anchor="middle" x="1193.436" y="-186.5" font-family="Helvetica,sans-Serif" font-size="10.00" fill="#000000">soe/main.cpp</text>
</a>
</g>
</g>
<!-- Node1 -->
<g id="node2" class="node">
<title>Node1</title>
<g id="a_node2"><a xlink:href="frame__stream_8h.html" target="_top" xlink:title=" ">
<polygon fill="none" stroke="#000000" points="123.436,-118 123.436,-137 275.436,-137 275.436,-118 123.436,-118"/>
<text text-anchor="middle" x="199.436" y="-125" font-family="Helvetica,sans-Serif" font-size="10.00" fill="#000000">soe/frame_stream.h</text>
</a>
</g>
</g>
<!-- Node0&#45;&gt;Node1 -->
<g id="edge1" class="edge">
<title>Node0&#45;&gt;Node1</title>
<path fill="none" stroke="#191970" d="M1139.6418,-185.6717C976.4578,-175.5753 486.0172,-145.2311 285.8931,-132.8492"/>
<polygon fill="#191970" stroke="#191970" points="285.9181,-129.3442 275.721,-132.2199 285.4858,-136.3308 285.9181,-129.3442"/>
</g>
<!-- Node5 -->
<g id="node6" class="node">
<title>Node5</title>
<g id="a_node6"><a xlink:href="frame__stream__cuda_8h.html" target="_top" xlink:title=" ">
<polygon fill="none" stroke="#000000" points="508.936,-118 508.936,-137 697.936,-137 697.936,-118 508.936,-118"/>
<text text-anchor="middle" x="603.436" y="-125" font-family="Helvetica,sans-Serif" font-size="10.00" fill="#000000">soe/frame_stream_cuda.h</text>
</a>
</g>
</g>
<!-- Node0&#45;&gt;Node5 -->
<g id="edge6" class="edge">
<title>Node0&#45;&gt;Node5</title>
<path fill="none" stroke="#191970" d="M1139.7753,-183.4066C1041.4528,-173.1577 830.9532,-151.2158 704.881,-138.0744"/>
<polygon fill="#191970" stroke="#191970" points="705.1371,-134.5822 694.8281,-137.0265 704.4113,-141.5445 705.1371,-134.5822"/>
</g>
<!-- Node8 -->
<g id="node9" class="node">
<title>Node8</title>
<g id="a_node9"><a xlink:href="config_8h.html" target="_top" xlink:title=" ">
<polygon fill="none" stroke="#000000" points="990.436,-118 990.436,-137 1112.436,-137 1112.436,-118 990.436,-118"/>
<text text-anchor="middle" x="1051.436" y="-125" font-family="Helvetica,sans-Serif" font-size="10.00" fill="#000000">utils/config.h</text>
</a>
</g>
</g>
<!-- Node0&#45;&gt;Node8 -->
<g id="edge10" class="edge">
<title>Node0&#45;&gt;Node8</title>
<path fill="none" stroke="#191970" d="M1171.2485,-179.3906C1147.4893,-169.1005 1109.5955,-152.6888 1082.7935,-141.0809"/>
<polygon fill="#191970" stroke="#191970" points="1084.035,-137.8045 1073.4677,-137.0419 1081.253,-144.2279 1084.035,-137.8045"/>
</g>
<!-- Node14 -->
<g id="node15" class="node">
<title>Node14</title>
<g id="a_node15"><a xlink:title=" ">
<polygon fill="none" stroke="#bfbfbf" points="1353.436,-56.5 1353.436,-75.5 1445.436,-75.5 1445.436,-56.5 1353.436,-56.5"/>
<text text-anchor="middle" x="1399.436" y="-63.5" font-family="Helvetica,sans-Serif" font-size="10.00" fill="#000000">filesystem</text>
</a>
</g>
</g>
<!-- Node0&#45;&gt;Node14 -->
<g id="edge23" class="edge">
<title>Node0&#45;&gt;Node14</title>
<path fill="none" stroke="#191970" d="M1182.8153,-179.0719C1167.3646,-163.4363 1142.3057,-132.7254 1159.436,-112 1160.9152,-110.2103 1272.6979,-89.3399 1343.1684,-76.3338"/>
<polygon fill="#191970" stroke="#191970" points="1344.0484,-79.7306 1353.2478,-74.4751 1342.7789,-72.8467 1344.0484,-79.7306"/>
</g>
<!-- Node17 -->
<g id="node18" class="node">
<title>Node17</title>
<g id="a_node18"><a xlink:title=" ">
<polygon fill="none" stroke="#bfbfbf" points="1167.936,-118 1167.936,-137 1326.936,-137 1326.936,-118 1167.936,-118"/>
<text text-anchor="middle" x="1247.436" y="-125" font-family="Helvetica,sans-Serif" font-size="10.00" fill="#000000">opencv2/videoio.hpp</text>
</a>
</g>
</g>
<!-- Node0&#45;&gt;Node17 -->
<g id="edge20" class="edge">
<title>Node0&#45;&gt;Node17</title>
<path fill="none" stroke="#191970" d="M1201.8735,-179.3906C1209.9891,-170.1478 1222.4414,-155.966 1232.2783,-144.7628"/>
<polygon fill="#191970" stroke="#191970" points="1234.9115,-147.0686 1238.8795,-137.2449 1229.6514,-142.45 1234.9115,-147.0686"/>
</g>
<!-- Node18 -->
<g id="node19" class="node">
<title>Node18</title>
<g id="a_node19"><a xlink:title=" ">
<polygon fill="none" stroke="#bfbfbf" points="1345.436,-112.5 1345.436,-142.5 1497.436,-142.5 1497.436,-112.5 1345.436,-112.5"/>
<text text-anchor="start" x="1353.436" y="-130.5" font-family="Helvetica,sans-Serif" font-size="10.00" fill="#000000">spdlog/sinks/basic</text>
<text text-anchor="middle" x="1421.436" y="-119.5" font-family="Helvetica,sans-Serif" font-size="10.00" fill="#000000">_file_sink.h</text>
</a>
</g>
</g>
<!-- Node0&#45;&gt;Node18 -->
<g id="edge21" class="edge">
<title>Node0&#45;&gt;Node18</title>
<path fill="none" stroke="#191970" d="M1229.061,-179.3906C1262.918,-170.2581 1314.651,-156.3038 1355.9452,-145.1653"/>
<polygon fill="#191970" stroke="#191970" points="1356.9175,-148.5282 1365.6609,-142.5446 1355.0944,-141.7697 1356.9175,-148.5282"/>
</g>
<!-- Node19 -->
<g id="node20" class="node">
<title>Node19</title>
<g id="a_node20"><a xlink:title=" ">
<polygon fill="none" stroke="#bfbfbf" points="1515.936,-112.5 1515.936,-142.5 1674.936,-142.5 1674.936,-112.5 1515.936,-112.5"/>
<text text-anchor="start" x="1523.936" y="-130.5" font-family="Helvetica,sans-Serif" font-size="10.00" fill="#000000">spdlog/sinks/stdout</text>
<text text-anchor="middle" x="1595.436" y="-119.5" font-family="Helvetica,sans-Serif" font-size="10.00" fill="#000000">_color_sinks.h</text>
</a>
</g>
</g>
<!-- Node0&#45;&gt;Node19 -->
<g id="edge22" class="edge">
<title>Node0&#45;&gt;Node19</title>
<path fill="none" stroke="#191970" d="M1246.9469,-181.5758C1307.2483,-173.1109 1408.4652,-158.607 1505.858,-143.0678"/>
<polygon fill="#191970" stroke="#191970" points="1506.5564,-146.5007 1515.8771,-141.4634 1505.4494,-139.5887 1506.5564,-146.5007"/>
</g>
<!-- Node20 -->
<g id="node21" class="node">
<title>Node20</title>
<g id="a_node21"><a xlink:title=" ">
<polygon fill="none" stroke="#bfbfbf" points="1693.436,-118 1693.436,-137 1755.436,-137 1755.436,-118 1693.436,-118"/>
<text text-anchor="middle" x="1724.436" y="-125" font-family="Helvetica,sans-Serif" font-size="10.00" fill="#000000">string</text>
</a>
</g>
</g>
<!-- Node0&#45;&gt;Node20 -->
<g id="edge24" class="edge">
<title>Node0&#45;&gt;Node20</title>
<path fill="none" stroke="#191970" d="M1246.9916,-185.8545C1356.4674,-179.1181 1602.4587,-162.3284 1684.436,-143 1687.2902,-142.327 1690.2127,-141.4944 1693.1149,-140.5671"/>
<polygon fill="#191970" stroke="#191970" points="1694.5186,-143.7831 1702.7757,-137.1445 1692.1809,-137.1849 1694.5186,-143.7831"/>
</g>
<!-- Node2 -->
<g id="node3" class="node">
<title>Node2</title>
<g id="a_node3"><a xlink:href="farneback__settings_8h.html" target="_top" xlink:title=" ">
<polygon fill="none" stroke="#000000" points="200.936,-56.5 200.936,-75.5 397.936,-75.5 397.936,-56.5 200.936,-56.5"/>
<text text-anchor="middle" x="299.436" y="-63.5" font-family="Helvetica,sans-Serif" font-size="10.00" fill="#000000">soe/farneback_settings.h</text>
</a>
</g>
</g>
<!-- Node1&#45;&gt;Node2 -->
<g id="edge2" class="edge">
<title>Node1&#45;&gt;Node2</title>
<path fill="none" stroke="#191970" d="M215.061,-117.8906C231.2057,-107.9616 256.6181,-92.333 275.3383,-80.8201"/>
<polygon fill="#191970" stroke="#191970" points="277.2361,-83.7619 283.9207,-75.5419 273.5691,-77.7992 277.2361,-83.7619"/>
</g>
<!-- Node3 -->
<g id="node4" class="node">
<title>Node3</title>
<g id="a_node4"><a xlink:title=" ">
<polygon fill="none" stroke="#bfbfbf" points="38.436,-.5 38.436,-19.5 250.436,-19.5 250.436,-.5 38.436,-.5"/>
<text text-anchor="middle" x="144.436" y="-7.5" font-family="Helvetica,sans-Serif" font-size="10.00" fill="#000000">opencv2/video/tracking.hpp</text>
</a>
</g>
</g>
<!-- Node1&#45;&gt;Node3 -->
<g id="edge5" class="edge">
<title>Node1&#45;&gt;Node3</title>
<path fill="none" stroke="#191970" d="M129.924,-117.9665C81.0171,-109.6692 21.6729,-95.8358 6.436,-76 -15.0565,-48.0205 22.9216,-31.3066 64.4344,-21.7008"/>
<polygon fill="#191970" stroke="#191970" points="65.4277,-25.0668 74.4579,-19.5255 63.943,-18.2261 65.4277,-25.0668"/>
</g>
<!-- Node4 -->
<g id="node5" class="node">
<title>Node4</title>
<g id="a_node5"><a xlink:title=" ">
<polygon fill="none" stroke="#bfbfbf" points="15.936,-56.5 15.936,-75.5 182.936,-75.5 182.936,-56.5 15.936,-56.5"/>
<text text-anchor="middle" x="99.436" y="-63.5" font-family="Helvetica,sans-Serif" font-size="10.00" fill="#000000">opencv2/core/mat.hpp</text>
</a>
</g>
</g>
<!-- Node1&#45;&gt;Node4 -->
<g id="edge4" class="edge">
<title>Node1&#45;&gt;Node4</title>
<path fill="none" stroke="#191970" d="M183.811,-117.8906C167.6662,-107.9616 142.2538,-92.333 123.5336,-80.8201"/>
<polygon fill="#191970" stroke="#191970" points="125.3028,-77.7992 114.9512,-75.5419 121.6358,-83.7619 125.3028,-77.7992"/>
</g>
<!-- Node2&#45;&gt;Node3 -->
<g id="edge3" class="edge">
<title>Node2&#45;&gt;Node3</title>
<path fill="none" stroke="#191970" d="M272.7905,-56.3733C247.2395,-47.1419 208.4847,-33.1402 180.245,-22.9375"/>
<polygon fill="#191970" stroke="#191970" points="181.328,-19.6074 170.7337,-19.5011 178.9494,-26.1909 181.328,-19.6074"/>
</g>
<!-- Node5&#45;&gt;Node2 -->
<g id="edge7" class="edge">
<title>Node5&#45;&gt;Node2</title>
<path fill="none" stroke="#191970" d="M556.2695,-117.9581C502.4636,-107.073 414.4868,-89.2751 356.7684,-77.5985"/>
<polygon fill="#191970" stroke="#191970" points="357.2085,-74.1167 346.7131,-75.5643 355.8205,-80.9777 357.2085,-74.1167"/>
</g>
<!-- Node6 -->
<g id="node7" class="node">
<title>Node6</title>
<g id="a_node7"><a xlink:title=" ">
<polygon fill="none" stroke="#bfbfbf" points="416.436,-56.5 416.436,-75.5 590.436,-75.5 590.436,-56.5 416.436,-56.5"/>
<text text-anchor="middle" x="503.436" y="-63.5" font-family="Helvetica,sans-Serif" font-size="10.00" fill="#000000">opencv2/core/cuda.hpp</text>
</a>
</g>
</g>
<!-- Node5&#45;&gt;Node6 -->
<g id="edge8" class="edge">
<title>Node5&#45;&gt;Node6</title>
<path fill="none" stroke="#191970" d="M587.811,-117.8906C571.6662,-107.9616 546.2538,-92.333 527.5336,-80.8201"/>
<polygon fill="#191970" stroke="#191970" points="529.3028,-77.7992 518.9512,-75.5419 525.6358,-83.7619 529.3028,-77.7992"/>
</g>
<!-- Node7 -->
<g id="node8" class="node">
<title>Node7</title>
<g id="a_node8"><a xlink:title=" ">
<polygon fill="none" stroke="#bfbfbf" points="608.936,-56.5 608.936,-75.5 797.936,-75.5 797.936,-56.5 608.936,-56.5"/>
<text text-anchor="middle" x="703.436" y="-63.5" font-family="Helvetica,sans-Serif" font-size="10.00" fill="#000000">opencv2/cudaoptflow.hpp</text>
</a>
</g>
</g>
<!-- Node5&#45;&gt;Node7 -->
<g id="edge9" class="edge">
<title>Node5&#45;&gt;Node7</title>
<path fill="none" stroke="#191970" d="M619.061,-117.8906C635.2057,-107.9616 660.6181,-92.333 679.3383,-80.8201"/>
<polygon fill="#191970" stroke="#191970" points="681.2361,-83.7619 687.9207,-75.5419 677.5691,-77.7992 681.2361,-83.7619"/>
</g>
<!-- Node9 -->
<g id="node10" class="node">
<title>Node9</title>
<g id="a_node10"><a xlink:href="exception_8h.html" target="_top" xlink:title=" ">
<polygon fill="none" stroke="#000000" points="854.436,-56.5 854.436,-75.5 998.436,-75.5 998.436,-56.5 854.436,-56.5"/>
<text text-anchor="middle" x="926.436" y="-63.5" font-family="Helvetica,sans-Serif" font-size="10.00" fill="#000000">utils/exception.h</text>
</a>
</g>
</g>
<!-- Node8&#45;&gt;Node9 -->
<g id="edge11" class="edge">
<title>Node8&#45;&gt;Node9</title>
<path fill="none" stroke="#191970" d="M1031.9047,-117.8906C1011.2651,-107.7359 978.5084,-91.6196 954.9758,-80.0416"/>
<polygon fill="#191970" stroke="#191970" points="956.348,-76.8161 945.8301,-75.5419 953.2577,-83.0971 956.348,-76.8161"/>
</g>
<!-- Node10 -->
<g id="node11" class="node">
<title>Node10</title>
<g id="a_node11"><a xlink:title=" ">
<polygon fill="none" stroke="#bfbfbf" points="765.936,-.5 765.936,-19.5 872.936,-19.5 872.936,-.5 765.936,-.5"/>
<text text-anchor="middle" x="819.436" y="-7.5" font-family="Helvetica,sans-Serif" font-size="10.00" fill="#000000">fmt/format.h</text>
</a>
</g>
</g>
<!-- Node8&#45;&gt;Node10 -->
<g id="edge15" class="edge">
<title>Node8&#45;&gt;Node10</title>
<path fill="none" stroke="#191970" d="M990.3152,-118.5334C937.6698,-109.7006 866.8757,-94.8137 845.436,-76 832.0108,-64.2192 825.4523,-44.6038 822.289,-29.8118"/>
<polygon fill="#191970" stroke="#191970" points="825.6779,-28.8792 820.4743,-19.6502 818.7869,-30.1098 825.6779,-28.8792"/>
</g>
<!-- Node13 -->
<g id="node14" class="node">
<title>Node13</title>
<g id="a_node14"><a xlink:title=" ">
<polygon fill="none" stroke="#bfbfbf" points="1016.936,-56.5 1016.936,-75.5 1085.936,-75.5 1085.936,-56.5 1016.936,-56.5"/>
<text text-anchor="middle" x="1051.436" y="-63.5" font-family="Helvetica,sans-Serif" font-size="10.00" fill="#000000">cstdlib</text>
</a>
</g>
</g>
<!-- Node8&#45;&gt;Node13 -->
<g id="edge16" class="edge">
<title>Node8&#45;&gt;Node13</title>
<path fill="none" stroke="#191970" d="M1051.436,-117.8906C1051.436,-109.3657 1051.436,-96.6392 1051.436,-85.9235"/>
<polygon fill="#191970" stroke="#191970" points="1054.9361,-85.7448 1051.436,-75.7449 1047.9361,-85.7449 1054.9361,-85.7448"/>
</g>
<!-- Node8&#45;&gt;Node14 -->
<g id="edge17" class="edge">
<title>Node8&#45;&gt;Node14</title>
<path fill="none" stroke="#191970" d="M1096.1928,-117.9438C1106.135,-115.9066 1116.6318,-113.8219 1126.436,-112 1219.8728,-94.6371 1246.0135,-92.8834 1343.2742,-76.1766"/>
<polygon fill="#191970" stroke="#191970" points="1343.9737,-79.6077 1353.2321,-74.4567 1342.7823,-72.7098 1343.9737,-79.6077"/>
</g>
<!-- Node15 -->
<g id="node16" class="node">
<title>Node15</title>
<g id="a_node16"><a xlink:title=" ">
<polygon fill="none" stroke="#bfbfbf" points="1103.936,-56.5 1103.936,-75.5 1202.936,-75.5 1202.936,-56.5 1103.936,-56.5"/>
<text text-anchor="middle" x="1153.436" y="-63.5" font-family="Helvetica,sans-Serif" font-size="10.00" fill="#000000">type_traits</text>
</a>
</g>
</g>
<!-- Node8&#45;&gt;Node15 -->
<g id="edge18" class="edge">
<title>Node8&#45;&gt;Node15</title>
<path fill="none" stroke="#191970" d="M1067.3735,-117.8906C1083.8411,-107.9616 1109.7618,-92.333 1128.8563,-80.8201"/>
<polygon fill="#191970" stroke="#191970" points="1130.8538,-83.7027 1137.6104,-75.5419 1127.2393,-77.7081 1130.8538,-83.7027"/>
</g>
<!-- Node16 -->
<g id="node17" class="node">
<title>Node16</title>
<g id="a_node17"><a xlink:title=" ">
<polygon fill="none" stroke="#bfbfbf" points="1221.436,-56.5 1221.436,-75.5 1335.436,-75.5 1335.436,-56.5 1221.436,-56.5"/>
<text text-anchor="middle" x="1278.436" y="-63.5" font-family="Helvetica,sans-Serif" font-size="10.00" fill="#000000">unordered_map</text>
</a>
</g>
</g>
<!-- Node8&#45;&gt;Node16 -->
<g id="edge19" class="edge">
<title>Node8&#45;&gt;Node16</title>
<path fill="none" stroke="#191970" d="M1086.9047,-117.8906C1126.3852,-107.1944 1190.2802,-89.8836 1233.2965,-78.2294"/>
<polygon fill="#191970" stroke="#191970" points="1234.4795,-81.5352 1243.2163,-75.5419 1232.649,-74.7787 1234.4795,-81.5352"/>
</g>
<!-- Node9&#45;&gt;Node10 -->
<g id="edge12" class="edge">
<title>Node9&#45;&gt;Node10</title>
<path fill="none" stroke="#191970" d="M907.798,-56.2455C890.9973,-47.4527 866.0725,-34.4079 846.9741,-24.4125"/>
<polygon fill="#191970" stroke="#191970" points="848.3433,-21.1787 837.8604,-19.6427 845.0973,-27.3807 848.3433,-21.1787"/>
</g>
<!-- Node11 -->
<g id="node12" class="node">
<title>Node11</title>
<g id="a_node12"><a xlink:title=" ">
<polygon fill="none" stroke="#bfbfbf" points="890.436,-.5 890.436,-19.5 974.436,-19.5 974.436,-.5 890.436,-.5"/>
<text text-anchor="middle" x="932.436" y="-7.5" font-family="Helvetica,sans-Serif" font-size="10.00" fill="#000000">stdexcept</text>
</a>
</g>
</g>
<!-- Node9&#45;&gt;Node11 -->
<g id="edge13" class="edge">
<title>Node9&#45;&gt;Node11</title>
<path fill="none" stroke="#191970" d="M927.4811,-56.2455C928.264,-48.9382 929.3616,-38.6944 930.3248,-29.7046"/>
<polygon fill="#191970" stroke="#191970" points="933.8175,-29.9587 931.4028,-19.6427 926.8573,-29.2129 933.8175,-29.9587"/>
</g>
<!-- Node12 -->
<g id="node13" class="node">
<title>Node12</title>
<g id="a_node13"><a xlink:title=" ">
<polygon fill="none" stroke="#bfbfbf" points="992.936,-.5 992.936,-19.5 1091.936,-19.5 1091.936,-.5 992.936,-.5"/>
<text text-anchor="middle" x="1042.436" y="-7.5" font-family="Helvetica,sans-Serif" font-size="10.00" fill="#000000">string_view</text>
</a>
</g>
</g>
<!-- Node9&#45;&gt;Node12 -->
<g id="edge14" class="edge">
<title>Node9&#45;&gt;Node12</title>
<path fill="none" stroke="#191970" d="M946.3771,-56.3733C964.9146,-47.4241 992.7388,-33.9917 1013.6773,-23.8835"/>
<polygon fill="#191970" stroke="#191970" points="1015.2712,-27.0006 1022.7551,-19.5011 1012.2279,-20.6967 1015.2712,-27.0006"/>
</g>
</g>
</svg>
