<?xml version="1.0" encoding="UTF-8" standalone="no"?>
<!DOCTYPE svg PUBLIC "-//W3C//DTD SVG 1.1//EN"
 "http://www.w3.org/Graphics/SVG/1.1/DTD/svg11.dtd">
<!-- Generated by graphviz version 2.40.1 (0)
 -->
<!-- Title: soe::anonymous_namespace{main::cpp}::main_impl Pages: 1 -->
<svg width="1076pt" height="280pt"
 viewBox="0.00 0.00 1076.00 279.50" xmlns="http://www.w3.org/2000/svg" xmlns:xlink="http://www.w3.org/1999/xlink">
<g id="graph0" class="graph" transform="scale(1 1) rotate(0) translate(4 275.5)">
<title>soe::anonymous_namespace{main::cpp}::main_impl</title>
<!-- Node15 -->
<g id="node1" class="node">
<title>Node15</title>
<g id="a_node1"><a xlink:title=" ">
<polygon fill="#bfbfbf" stroke="#000000" points="0,-120.5 0,-150.5 197,-150.5 197,-120.5 0,-120.5"/>
<text text-anchor="start" x="8" y="-138.5" font-family="Helvetica,sans-Serif" font-size="10.00" fill="#000000">soe::anonymous_namespace</text>
<text text-anchor="middle" x="98.5" y="-127.5" font-family="Helvetica,sans-Serif" font-size="10.00" fill="#000000">{main::cpp}::main_impl</text>
</a>
</g>
</g>
<!-- Node16 -->
<g id="node2" class="node">
<title>Node16</title>
<g id="a_node2"><a xlink:href="structutils_1_1_config.html#ab48651341ab189a185bb4a995703deeb" target="_top" xlink:title=" ">
<polygon fill="none" stroke="#000000" points="259,-252 259,-271 411,-271 411,-252 259,-252"/>
<text text-anchor="middle" x="335" y="-259" font-family="Helvetica,sans-Serif" font-size="10.00" fill="#000000">utils::Config::set</text>
</a>
</g>
</g>
<!-- Node15&#45;&gt;Node16 -->
<g id="edge1" class="edge">
<title>Node15&#45;&gt;Node16</title>
<path fill="none" stroke="#191970" d="M112.5799,-150.722C135.4211,-174.4031 183.0515,-219.708 233,-242.5 238.4591,-244.991 244.2246,-247.1555 250.1243,-249.0362"/>
<polygon fill="#191970" stroke="#191970" points="249.5704,-252.5196 260.1495,-251.9409 251.5186,-245.7961 249.5704,-252.5196"/>
</g>
<!-- Node17 -->
<g id="node3" class="node">
<title>Node17</title>
<g id="a_node3"><a xlink:href="structutils_1_1_config.html#a721b70a9e01d9b680b6976b2d25ef26d" target="_top" xlink:title=" ">
<polygon fill="none" stroke="#000000" points="251.5,-202.5 251.5,-232.5 418.5,-232.5 418.5,-202.5 251.5,-202.5"/>
<text text-anchor="start" x="259.5" y="-220.5" font-family="Helvetica,sans-Serif" font-size="10.00" fill="#000000">utils::Config::parse</text>
<text text-anchor="middle" x="335" y="-209.5" font-family="Helvetica,sans-Serif" font-size="10.00" fill="#000000">_global_config</text>
</a>
</g>
</g>
<!-- Node15&#45;&gt;Node17 -->
<g id="edge2" class="edge">
<title>Node15&#45;&gt;Node17</title>
<path fill="none" stroke="#191970" d="M130.0134,-150.5585C156.9251,-163.0027 196.8968,-180.5116 233,-192.5 240.8352,-195.1018 249.0899,-197.5653 257.3704,-199.8581"/>
<polygon fill="#191970" stroke="#191970" points="256.5136,-203.2519 267.0795,-202.4692 258.3316,-196.4921 256.5136,-203.2519"/>
</g>
<!-- Node22 -->
<g id="node8" class="node">
<title>Node22</title>
<g id="a_node8"><a xlink:href="structutils_1_1_config.html#af1e5a2746bab1560d5f0fb7c1a50b939" target="_top" xlink:title=" ">
<polygon fill="none" stroke="#000000" points="233,-164 233,-183 437,-183 437,-164 233,-164"/>
<text text-anchor="middle" x="335" y="-171" font-family="Helvetica,sans-Serif" font-size="10.00" fill="#000000">utils::Config::parse_args</text>
</a>
</g>
</g>
<!-- Node15&#45;&gt;Node22 -->
<g id="edge7" class="edge">
<title>Node15&#45;&gt;Node22</title>
<path fill="none" stroke="#191970" d="M191.9711,-150.5186C216.6019,-154.4762 242.7344,-158.6751 265.8302,-162.386"/>
<polygon fill="#191970" stroke="#191970" points="265.4406,-165.8683 275.8693,-163.9991 266.5512,-158.9569 265.4406,-165.8683"/>
</g>
<!-- Node23 -->
<g id="node9" class="node">
<title>Node23</title>
<g id="a_node9"><a xlink:href="structutils_1_1_config.html#a08878c232b78de572a701258e234e0ca" target="_top" xlink:title=" ">
<polygon fill="none" stroke="#000000" points="236.5,-126 236.5,-145 433.5,-145 433.5,-126 236.5,-126"/>
<text text-anchor="middle" x="335" y="-133" font-family="Helvetica,sans-Serif" font-size="10.00" fill="#000000">utils::Config::show_help</text>
</a>
</g>
</g>
<!-- Node15&#45;&gt;Node23 -->
<g id="edge10" class="edge">
<title>Node15&#45;&gt;Node23</title>
<path fill="none" stroke="#191970" d="M197.0848,-135.5C206.6797,-135.5 216.4523,-135.5 226.1403,-135.5"/>
<polygon fill="#191970" stroke="#191970" points="226.1947,-139.0001 236.1947,-135.5 226.1947,-132.0001 226.1947,-139.0001"/>
</g>
<!-- Node25 -->
<g id="node11" class="node">
<title>Node25</title>
<g id="a_node11"><a xlink:href="structutils_1_1_config.html#a934b0d1f82647c9a599e6a928d9fe2a7" target="_top" xlink:title=" ">
<polygon fill="none" stroke="#000000" points="259,-88 259,-107 411,-107 411,-88 259,-88"/>
<text text-anchor="middle" x="335" y="-95" font-family="Helvetica,sans-Serif" font-size="10.00" fill="#000000">utils::Config::get</text>
</a>
</g>
</g>
<!-- Node15&#45;&gt;Node25 -->
<g id="edge12" class="edge">
<title>Node15&#45;&gt;Node25</title>
<path fill="none" stroke="#191970" d="M191.9711,-120.4814C216.6019,-116.5238 242.7344,-112.3249 265.8302,-108.614"/>
<polygon fill="#191970" stroke="#191970" points="266.5512,-112.0431 275.8693,-107.0009 265.4406,-105.1317 266.5512,-112.0431"/>
</g>
<!-- Node26 -->
<g id="node12" class="node">
<title>Node26</title>
<g id="a_node12"><a xlink:href="structutils_1_1_config.html#ad8dbc16f40140649ec5e01964d70cbd3" target="_top" xlink:title=" ">
<polygon fill="none" stroke="#000000" points="484,-69 484,-88 666,-88 666,-69 484,-69"/>
<text text-anchor="middle" x="575" y="-76" font-family="Helvetica,sans-Serif" font-size="10.00" fill="#000000">utils::Config::get_raw</text>
</a>
</g>
</g>
<!-- Node15&#45;&gt;Node26 -->
<g id="edge15" class="edge">
<title>Node15&#45;&gt;Node26</title>
<path fill="none" stroke="#191970" d="M125.2765,-120.3432C151.7014,-106.3202 193.7317,-86.4774 233,-78.5 314.2474,-61.9945 408.6104,-63.4946 477.6099,-68.2687"/>
<polygon fill="#191970" stroke="#191970" points="477.3741,-71.7607 487.6015,-68.9951 477.8817,-64.7791 477.3741,-71.7607"/>
</g>
<!-- Node27 -->
<g id="node13" class="node">
<title>Node27</title>
<g id="a_node13"><a xlink:href="namespacesoe_1_1anonymous__namespace_02main_8cpp_03.html#a4778e772620621fd2654514d839cae12" target="_top" xlink:title=" ">
<polygon fill="none" stroke="#000000" points="233,-.5 233,-30.5 437,-30.5 437,-.5 233,-.5"/>
<text text-anchor="start" x="241" y="-18.5" font-family="Helvetica,sans-Serif" font-size="10.00" fill="#000000">soe::anonymous_namespace</text>
<text text-anchor="middle" x="335" y="-7.5" font-family="Helvetica,sans-Serif" font-size="10.00" fill="#000000">{main::cpp}::parse_fourcc</text>
</a>
</g>
</g>
<!-- Node15&#45;&gt;Node27 -->
<g id="edge14" class="edge">
<title>Node15&#45;&gt;Node27</title>
<path fill="none" stroke="#191970" d="M117.0007,-120.4329C141.9694,-100.7503 188.4707,-66.3485 233,-45.5 242.4378,-41.0812 252.6738,-37.1524 262.8968,-33.7122"/>
<polygon fill="#191970" stroke="#191970" points="264.2232,-36.9621 272.6678,-30.5637 262.0762,-30.2995 264.2232,-36.9621"/>
</g>
<!-- Node18 -->
<g id="node4" class="node">
<title>Node18</title>
<g id="a_node4"><a xlink:href="structutils_1_1_config.html#a459561479c9c1ad0816a6ea6de85fd1f" target="_top" xlink:title=" ">
<polygon fill="none" stroke="#000000" points="473,-205 473,-224 677,-224 677,-205 473,-205"/>
<text text-anchor="middle" x="575" y="-212" font-family="Helvetica,sans-Serif" font-size="10.00" fill="#000000">utils::Config::parse_file</text>
</a>
</g>
</g>
<!-- Node17&#45;&gt;Node18 -->
<g id="edge3" class="edge">
<title>Node17&#45;&gt;Node18</title>
<path fill="none" stroke="#191970" d="M418.6034,-216.455C432.7826,-216.2777 447.7105,-216.0911 462.4865,-215.9064"/>
<polygon fill="#191970" stroke="#191970" points="462.7253,-219.4038 472.6807,-215.779 462.6377,-212.4044 462.7253,-219.4038"/>
</g>
<!-- Node21 -->
<g id="node7" class="node">
<title>Node21</title>
<g id="a_node7"><a xlink:href="namespaceutils.html#a5064b3980eb7aa98e3daf3bb12b3c3d8" target="_top" xlink:title=" ">
<polygon fill="none" stroke="#000000" points="484,-243 484,-262 666,-262 666,-243 484,-243"/>
<text text-anchor="middle" x="575" y="-250" font-family="Helvetica,sans-Serif" font-size="10.00" fill="#000000">utils::get_kiwixz_home</text>
</a>
</g>
</g>
<!-- Node17&#45;&gt;Node21 -->
<g id="edge6" class="edge">
<title>Node17&#45;&gt;Node21</title>
<path fill="none" stroke="#191970" d="M418.6034,-229.6922C444.9969,-233.5412 473.9851,-237.7687 499.758,-241.5272"/>
<polygon fill="#191970" stroke="#191970" points="499.4376,-245.0174 509.838,-242.9972 500.4478,-238.0907 499.4376,-245.0174"/>
</g>
<!-- Node19 -->
<g id="node5" class="node">
<title>Node19</title>
<g id="a_node5"><a xlink:href="structutils_1_1_config.html#ab5ca15af8b27ceafb626caf6080cc147" target="_top" xlink:title=" ">
<polygon fill="none" stroke="#000000" points="713,-202.5 713,-232.5 880,-232.5 880,-202.5 713,-202.5"/>
<text text-anchor="start" x="721" y="-220.5" font-family="Helvetica,sans-Serif" font-size="10.00" fill="#000000">utils::Config::parse</text>
<text text-anchor="middle" x="796.5" y="-209.5" font-family="Helvetica,sans-Serif" font-size="10.00" fill="#000000">_file_content</text>
</a>
</g>
</g>
<!-- Node18&#45;&gt;Node19 -->
<g id="edge4" class="edge">
<title>Node18&#45;&gt;Node19</title>
<path fill="none" stroke="#191970" d="M677.3212,-215.8858C685.7829,-216.0004 694.3105,-216.1159 702.7051,-216.2296"/>
<polygon fill="#191970" stroke="#191970" points="702.8187,-219.7314 712.8652,-216.3672 702.9135,-212.732 702.8187,-219.7314"/>
</g>
<!-- Node20 -->
<g id="node6" class="node">
<title>Node20</title>
<g id="a_node6"><a xlink:href="structutils_1_1_config.html#a582f735328e8c0b4766654c6b8ccbacd" target="_top" xlink:title=" ">
<polygon fill="none" stroke="#000000" points="916,-180.5 916,-210.5 1068,-210.5 1068,-180.5 916,-180.5"/>
<text text-anchor="start" x="924" y="-198.5" font-family="Helvetica,sans-Serif" font-size="10.00" fill="#000000">utils::Config::set</text>
<text text-anchor="middle" x="992" y="-187.5" font-family="Helvetica,sans-Serif" font-size="10.00" fill="#000000">_parsed_option</text>
</a>
</g>
</g>
<!-- Node19&#45;&gt;Node20 -->
<g id="edge5" class="edge">
<title>Node19&#45;&gt;Node20</title>
<path fill="none" stroke="#191970" d="M880.2604,-208.0743C888.6598,-207.1291 897.1999,-206.168 905.6258,-205.2199"/>
<polygon fill="#191970" stroke="#191970" points="906.2838,-208.668 915.8296,-204.0716 905.5009,-201.7119 906.2838,-208.668"/>
</g>
<!-- Node22&#45;&gt;Node18 -->
<g id="edge9" class="edge">
<title>Node22&#45;&gt;Node18</title>
<path fill="none" stroke="#191970" d="M390.6641,-183.0093C425.9781,-189.0421 471.8458,-196.8778 508.9926,-203.2237"/>
<polygon fill="#191970" stroke="#191970" points="508.776,-206.7374 519.2226,-204.9714 509.9548,-199.8373 508.776,-206.7374"/>
</g>
<!-- Node22&#45;&gt;Node20 -->
<g id="edge8" class="edge">
<title>Node22&#45;&gt;Node20</title>
<path fill="none" stroke="#191970" d="M437.2956,-176.9254C565.9111,-181.2322 784.4575,-188.5503 905.2693,-192.5958"/>
<polygon fill="#191970" stroke="#191970" points="905.4674,-196.1043 915.579,-192.941 905.7018,-189.1082 905.4674,-196.1043"/>
</g>
<!-- Node24 -->
<g id="node10" class="node">
<title>Node24</title>
<g id="a_node10"><a xlink:href="structutils_1_1_config.html#a7b2ef78d2e668f8a8c87c22349bcf654" target="_top" xlink:title=" ">
<polygon fill="none" stroke="#000000" points="495.5,-126 495.5,-145 654.5,-145 654.5,-126 495.5,-126"/>
<text text-anchor="middle" x="575" y="-133" font-family="Helvetica,sans-Serif" font-size="10.00" fill="#000000">utils::Config::dump</text>
</a>
</g>
</g>
<!-- Node23&#45;&gt;Node24 -->
<g id="edge11" class="edge">
<title>Node23&#45;&gt;Node24</title>
<path fill="none" stroke="#191970" d="M433.6562,-135.5C450.6797,-135.5 468.2954,-135.5 485.0728,-135.5"/>
<polygon fill="#191970" stroke="#191970" points="485.398,-139.0001 495.398,-135.5 485.3979,-132.0001 485.398,-139.0001"/>
</g>
<!-- Node25&#45;&gt;Node26 -->
<g id="edge13" class="edge">
<title>Node25&#45;&gt;Node26</title>
<path fill="none" stroke="#191970" d="M411.2673,-91.4622C431.0837,-89.8934 452.7434,-88.1786 473.6312,-86.525"/>
<polygon fill="#191970" stroke="#191970" points="474.1192,-89.9974 483.8117,-85.7191 473.5667,-83.0193 474.1192,-89.9974"/>
</g>
</g>
</svg>
