<?xml version="1.0" encoding="UTF-8" standalone="no"?>
<!DOCTYPE svg PUBLIC "-//W3C//DTD SVG 1.1//EN"
 "http://www.w3.org/Graphics/SVG/1.1/DTD/svg11.dtd">
<!-- Generated by graphviz version 2.40.1 (0)
 -->
<!-- Title: utils::anonymous_namespace{rand::cpp}::rotl Pages: 1 -->
<svg width="648pt" height="66pt"
 viewBox="0.00 0.00 648.00 66.00" xmlns="http://www.w3.org/2000/svg" xmlns:xlink="http://www.w3.org/1999/xlink">
<g id="graph0" class="graph" transform="scale(1 1) rotate(0) translate(4 62)">
<title>utils::anonymous_namespace{rand::cpp}::rotl</title>
<!-- Node1 -->
<g id="node1" class="node">
<title>Node1</title>
<g id="a_node1"><a xlink:title=" ">
<polygon fill="#bfbfbf" stroke="#000000" points="428,-14 428,-44 640,-44 640,-14 428,-14"/>
<text text-anchor="start" x="436" y="-32" font-family="Helvetica,sans-Serif" font-size="10.00" fill="#000000">utils::anonymous_namespace</text>
<text text-anchor="middle" x="534" y="-21" font-family="Helvetica,sans-Serif" font-size="10.00" fill="#000000">{rand::cpp}::rotl</text>
</a>
</g>
</g>
<!-- Node2 -->
<g id="node2" class="node">
<title>Node2</title>
<g id="a_node2"><a xlink:href="structutils_1_1_rand64.html#a981da814462c185b46443a2a283d92ea" target="_top" xlink:title=" ">
<polygon fill="none" stroke="#000000" points="240,-38.5 240,-57.5 392,-57.5 392,-38.5 240,-38.5"/>
<text text-anchor="middle" x="316" y="-45.5" font-family="Helvetica,sans-Serif" font-size="10.00" fill="#000000">utils::Rand64::gen</text>
</a>
</g>
</g>
<!-- Node1&#45;&gt;Node2 -->
<g id="edge1" class="edge">
<title>Node1&#45;&gt;Node2</title>
<path fill="none" stroke="#191970" d="M417.7343,-39.1332C409.1098,-39.8849 400.5462,-40.6313 392.2608,-41.3534"/>
<polygon fill="#191970" stroke="#191970" points="418.2154,-42.6047 427.8737,-38.2495 417.6076,-35.6311 418.2154,-42.6047"/>
</g>
<!-- Node4 -->
<g id="node4" class="node">
<title>Node4</title>
<g id="a_node4"><a xlink:href="structutils_1_1_rand_f.html#a4fe9346c319a1f33ee6b4dc1a202c99b" target="_top" xlink:title=" ">
<polygon fill="none" stroke="#000000" points="244,-.5 244,-19.5 388,-19.5 388,-.5 244,-.5"/>
<text text-anchor="middle" x="316" y="-7.5" font-family="Helvetica,sans-Serif" font-size="10.00" fill="#000000">utils::RandF::gen</text>
</a>
</g>
</g>
<!-- Node1&#45;&gt;Node4 -->
<g id="edge3" class="edge">
<title>Node1&#45;&gt;Node4</title>
<path fill="none" stroke="#191970" d="M417.8052,-18.8729C407.7514,-17.9967 397.7794,-17.1276 388.2337,-16.2956"/>
<polygon fill="#191970" stroke="#191970" points="417.6076,-22.3689 427.8737,-19.7505 418.2154,-15.3953 417.6076,-22.3689"/>
</g>
<!-- Node3 -->
<g id="node3" class="node">
<title>Node3</title>
<g id="a_node3"><a xlink:href="structutils_1_1_rand64.html#a385fc7eb4e9bac80d921582bb0891727" target="_top" xlink:title=" ">
<polygon fill="none" stroke="#000000" points="0,-38.5 0,-57.5 204,-57.5 204,-38.5 0,-38.5"/>
<text text-anchor="middle" x="102" y="-45.5" font-family="Helvetica,sans-Serif" font-size="10.00" fill="#000000">utils::Rand64::operator()</text>
</a>
</g>
</g>
<!-- Node2&#45;&gt;Node3 -->
<g id="edge2" class="edge">
<title>Node2&#45;&gt;Node3</title>
<path fill="none" stroke="#191970" d="M229.7242,-48C221.2562,-48 212.6081,-48 204.0031,-48"/>
<polygon fill="#191970" stroke="#191970" points="229.9491,-51.5001 239.9491,-48 229.949,-44.5001 229.9491,-51.5001"/>
</g>
<!-- Node5 -->
<g id="node5" class="node">
<title>Node5</title>
<g id="a_node5"><a xlink:href="structutils_1_1_rand_f.html#a0272f1e6ec5fae2450b756908bb72dc7" target="_top" xlink:title=" ">
<polygon fill="none" stroke="#000000" points="3.5,-.5 3.5,-19.5 200.5,-19.5 200.5,-.5 3.5,-.5"/>
<text text-anchor="middle" x="102" y="-7.5" font-family="Helvetica,sans-Serif" font-size="10.00" fill="#000000">utils::RandF::operator()</text>
</a>
</g>
</g>
<!-- Node4&#45;&gt;Node5 -->
<g id="edge4" class="edge">
<title>Node4&#45;&gt;Node5</title>
<path fill="none" stroke="#191970" d="M233.659,-10C222.9039,-10 211.7972,-10 200.8065,-10"/>
<polygon fill="#191970" stroke="#191970" points="233.8477,-13.5001 243.8477,-10 233.8477,-6.5001 233.8477,-13.5001"/>
</g>
</g>
</svg>
