<?xml version="1.0" encoding="UTF-8" standalone="no"?>
<!DOCTYPE svg PUBLIC "-//W3C//DTD SVG 1.1//EN"
 "http://www.w3.org/Graphics/SVG/1.1/DTD/svg11.dtd">
<!-- Generated by graphviz version 2.40.1 (0)
 -->
<!-- Title: soe::anonymous_namespace{main::cpp}::main Pages: 1 -->
<svg width="1309pt" height="280pt"
 viewBox="0.00 0.00 1309.00 279.50" xmlns="http://www.w3.org/2000/svg" xmlns:xlink="http://www.w3.org/1999/xlink">
<g id="graph0" class="graph" transform="scale(1 1) rotate(0) translate(4 275.5)">
<title>soe::anonymous_namespace{main::cpp}::main</title>
<!-- Node0 -->
<g id="node1" class="node">
<title>Node0</title>
<g id="a_node1"><a xlink:title=" ">
<polygon fill="#bfbfbf" stroke="#000000" points="0,-120.5 0,-150.5 197,-150.5 197,-120.5 0,-120.5"/>
<text text-anchor="start" x="8" y="-138.5" font-family="Helvetica,sans-Serif" font-size="10.00" fill="#000000">soe::anonymous_namespace</text>
<text text-anchor="middle" x="98.5" y="-127.5" font-family="Helvetica,sans-Serif" font-size="10.00" fill="#000000">{main::cpp}::main</text>
</a>
</g>
</g>
<!-- Node1 -->
<g id="node2" class="node">
<title>Node1</title>
<g id="a_node2"><a xlink:href="namespacesoe_1_1anonymous__namespace_02main_8cpp_03.html#a0a1c3f9ecefea3a3fa41db8ad79733bc" target="_top" xlink:title=" ">
<polygon fill="none" stroke="#000000" points="233,-120.5 233,-150.5 430,-150.5 430,-120.5 233,-120.5"/>
<text text-anchor="start" x="241" y="-138.5" font-family="Helvetica,sans-Serif" font-size="10.00" fill="#000000">soe::anonymous_namespace</text>
<text text-anchor="middle" x="331.5" y="-127.5" font-family="Helvetica,sans-Serif" font-size="10.00" fill="#000000">{main::cpp}::main_impl</text>
</a>
</g>
</g>
<!-- Node0&#45;&gt;Node1 -->
<g id="edge1" class="edge">
<title>Node0&#45;&gt;Node1</title>
<path fill="none" stroke="#191970" d="M197.313,-135.5C205.69,-135.5 214.1918,-135.5 222.6399,-135.5"/>
<polygon fill="#191970" stroke="#191970" points="222.9061,-139.0001 232.906,-135.5 222.906,-132.0001 222.9061,-139.0001"/>
</g>
<!-- Node2 -->
<g id="node3" class="node">
<title>Node2</title>
<g id="a_node3"><a xlink:href="structutils_1_1_config.html#ab48651341ab189a185bb4a995703deeb" target="_top" xlink:title=" ">
<polygon fill="none" stroke="#000000" points="492,-252 492,-271 644,-271 644,-252 492,-252"/>
<text text-anchor="middle" x="568" y="-259" font-family="Helvetica,sans-Serif" font-size="10.00" fill="#000000">utils::Config::set</text>
</a>
</g>
</g>
<!-- Node1&#45;&gt;Node2 -->
<g id="edge2" class="edge">
<title>Node1&#45;&gt;Node2</title>
<path fill="none" stroke="#191970" d="M345.5799,-150.722C368.4211,-174.4031 416.0515,-219.708 466,-242.5 471.4591,-244.991 477.2246,-247.1555 483.1243,-249.0362"/>
<polygon fill="#191970" stroke="#191970" points="482.5704,-252.5196 493.1495,-251.9409 484.5186,-245.7961 482.5704,-252.5196"/>
</g>
<!-- Node3 -->
<g id="node4" class="node">
<title>Node3</title>
<g id="a_node4"><a xlink:href="structutils_1_1_config.html#a721b70a9e01d9b680b6976b2d25ef26d" target="_top" xlink:title=" ">
<polygon fill="none" stroke="#000000" points="484.5,-202.5 484.5,-232.5 651.5,-232.5 651.5,-202.5 484.5,-202.5"/>
<text text-anchor="start" x="492.5" y="-220.5" font-family="Helvetica,sans-Serif" font-size="10.00" fill="#000000">utils::Config::parse</text>
<text text-anchor="middle" x="568" y="-209.5" font-family="Helvetica,sans-Serif" font-size="10.00" fill="#000000">_global_config</text>
</a>
</g>
</g>
<!-- Node1&#45;&gt;Node3 -->
<g id="edge3" class="edge">
<title>Node1&#45;&gt;Node3</title>
<path fill="none" stroke="#191970" d="M363.0134,-150.5585C389.9251,-163.0027 429.8968,-180.5116 466,-192.5 473.8352,-195.1018 482.0899,-197.5653 490.3704,-199.8581"/>
<polygon fill="#191970" stroke="#191970" points="489.5136,-203.2519 500.0795,-202.4692 491.3316,-196.4921 489.5136,-203.2519"/>
</g>
<!-- Node8 -->
<g id="node9" class="node">
<title>Node8</title>
<g id="a_node9"><a xlink:href="structutils_1_1_config.html#af1e5a2746bab1560d5f0fb7c1a50b939" target="_top" xlink:title=" ">
<polygon fill="none" stroke="#000000" points="466,-164 466,-183 670,-183 670,-164 466,-164"/>
<text text-anchor="middle" x="568" y="-171" font-family="Helvetica,sans-Serif" font-size="10.00" fill="#000000">utils::Config::parse_args</text>
</a>
</g>
</g>
<!-- Node1&#45;&gt;Node8 -->
<g id="edge8" class="edge">
<title>Node1&#45;&gt;Node8</title>
<path fill="none" stroke="#191970" d="M424.9711,-150.5186C449.6019,-154.4762 475.7344,-158.6751 498.8302,-162.386"/>
<polygon fill="#191970" stroke="#191970" points="498.4406,-165.8683 508.8693,-163.9991 499.5512,-158.9569 498.4406,-165.8683"/>
</g>
<!-- Node9 -->
<g id="node10" class="node">
<title>Node9</title>
<g id="a_node10"><a xlink:href="structutils_1_1_config.html#a08878c232b78de572a701258e234e0ca" target="_top" xlink:title=" ">
<polygon fill="none" stroke="#000000" points="469.5,-126 469.5,-145 666.5,-145 666.5,-126 469.5,-126"/>
<text text-anchor="middle" x="568" y="-133" font-family="Helvetica,sans-Serif" font-size="10.00" fill="#000000">utils::Config::show_help</text>
</a>
</g>
</g>
<!-- Node1&#45;&gt;Node9 -->
<g id="edge11" class="edge">
<title>Node1&#45;&gt;Node9</title>
<path fill="none" stroke="#191970" d="M430.0848,-135.5C439.6797,-135.5 449.4523,-135.5 459.1403,-135.5"/>
<polygon fill="#191970" stroke="#191970" points="459.1947,-139.0001 469.1947,-135.5 459.1947,-132.0001 459.1947,-139.0001"/>
</g>
<!-- Node11 -->
<g id="node12" class="node">
<title>Node11</title>
<g id="a_node12"><a xlink:href="structutils_1_1_config.html#a934b0d1f82647c9a599e6a928d9fe2a7" target="_top" xlink:title=" ">
<polygon fill="none" stroke="#000000" points="492,-88 492,-107 644,-107 644,-88 492,-88"/>
<text text-anchor="middle" x="568" y="-95" font-family="Helvetica,sans-Serif" font-size="10.00" fill="#000000">utils::Config::get</text>
</a>
</g>
</g>
<!-- Node1&#45;&gt;Node11 -->
<g id="edge13" class="edge">
<title>Node1&#45;&gt;Node11</title>
<path fill="none" stroke="#191970" d="M424.9711,-120.4814C449.6019,-116.5238 475.7344,-112.3249 498.8302,-108.614"/>
<polygon fill="#191970" stroke="#191970" points="499.5512,-112.0431 508.8693,-107.0009 498.4406,-105.1317 499.5512,-112.0431"/>
</g>
<!-- Node12 -->
<g id="node13" class="node">
<title>Node12</title>
<g id="a_node13"><a xlink:href="structutils_1_1_config.html#ad8dbc16f40140649ec5e01964d70cbd3" target="_top" xlink:title=" ">
<polygon fill="none" stroke="#000000" points="717,-69 717,-88 899,-88 899,-69 717,-69"/>
<text text-anchor="middle" x="808" y="-76" font-family="Helvetica,sans-Serif" font-size="10.00" fill="#000000">utils::Config::get_raw</text>
</a>
</g>
</g>
<!-- Node1&#45;&gt;Node12 -->
<g id="edge16" class="edge">
<title>Node1&#45;&gt;Node12</title>
<path fill="none" stroke="#191970" d="M358.2765,-120.3432C384.7014,-106.3202 426.7317,-86.4774 466,-78.5 547.2474,-61.9945 641.6104,-63.4946 710.6099,-68.2687"/>
<polygon fill="#191970" stroke="#191970" points="710.3741,-71.7607 720.6015,-68.9951 710.8817,-64.7791 710.3741,-71.7607"/>
</g>
<!-- Node13 -->
<g id="node14" class="node">
<title>Node13</title>
<g id="a_node14"><a xlink:href="namespacesoe_1_1anonymous__namespace_02main_8cpp_03.html#a4778e772620621fd2654514d839cae12" target="_top" xlink:title=" ">
<polygon fill="none" stroke="#000000" points="466,-.5 466,-30.5 670,-30.5 670,-.5 466,-.5"/>
<text text-anchor="start" x="474" y="-18.5" font-family="Helvetica,sans-Serif" font-size="10.00" fill="#000000">soe::anonymous_namespace</text>
<text text-anchor="middle" x="568" y="-7.5" font-family="Helvetica,sans-Serif" font-size="10.00" fill="#000000">{main::cpp}::parse_fourcc</text>
</a>
</g>
</g>
<!-- Node1&#45;&gt;Node13 -->
<g id="edge15" class="edge">
<title>Node1&#45;&gt;Node13</title>
<path fill="none" stroke="#191970" d="M350.0007,-120.4329C374.9694,-100.7503 421.4707,-66.3485 466,-45.5 475.4378,-41.0812 485.6738,-37.1524 495.8968,-33.7122"/>
<polygon fill="#191970" stroke="#191970" points="497.2232,-36.9621 505.6678,-30.5637 495.0762,-30.2995 497.2232,-36.9621"/>
</g>
<!-- Node4 -->
<g id="node5" class="node">
<title>Node4</title>
<g id="a_node5"><a xlink:href="structutils_1_1_config.html#a459561479c9c1ad0816a6ea6de85fd1f" target="_top" xlink:title=" ">
<polygon fill="none" stroke="#000000" points="706,-205 706,-224 910,-224 910,-205 706,-205"/>
<text text-anchor="middle" x="808" y="-212" font-family="Helvetica,sans-Serif" font-size="10.00" fill="#000000">utils::Config::parse_file</text>
</a>
</g>
</g>
<!-- Node3&#45;&gt;Node4 -->
<g id="edge4" class="edge">
<title>Node3&#45;&gt;Node4</title>
<path fill="none" stroke="#191970" d="M651.6034,-216.455C665.7826,-216.2777 680.7105,-216.0911 695.4865,-215.9064"/>
<polygon fill="#191970" stroke="#191970" points="695.7253,-219.4038 705.6807,-215.779 695.6377,-212.4044 695.7253,-219.4038"/>
</g>
<!-- Node7 -->
<g id="node8" class="node">
<title>Node7</title>
<g id="a_node8"><a xlink:href="namespaceutils.html#a5064b3980eb7aa98e3daf3bb12b3c3d8" target="_top" xlink:title=" ">
<polygon fill="none" stroke="#000000" points="717,-243 717,-262 899,-262 899,-243 717,-243"/>
<text text-anchor="middle" x="808" y="-250" font-family="Helvetica,sans-Serif" font-size="10.00" fill="#000000">utils::get_kiwixz_home</text>
</a>
</g>
</g>
<!-- Node3&#45;&gt;Node7 -->
<g id="edge7" class="edge">
<title>Node3&#45;&gt;Node7</title>
<path fill="none" stroke="#191970" d="M651.6034,-229.6922C677.9969,-233.5412 706.9851,-237.7687 732.758,-241.5272"/>
<polygon fill="#191970" stroke="#191970" points="732.4376,-245.0174 742.838,-242.9972 733.4478,-238.0907 732.4376,-245.0174"/>
</g>
<!-- Node5 -->
<g id="node6" class="node">
<title>Node5</title>
<g id="a_node6"><a xlink:href="structutils_1_1_config.html#ab5ca15af8b27ceafb626caf6080cc147" target="_top" xlink:title=" ">
<polygon fill="none" stroke="#000000" points="946,-202.5 946,-232.5 1113,-232.5 1113,-202.5 946,-202.5"/>
<text text-anchor="start" x="954" y="-220.5" font-family="Helvetica,sans-Serif" font-size="10.00" fill="#000000">utils::Config::parse</text>
<text text-anchor="middle" x="1029.5" y="-209.5" font-family="Helvetica,sans-Serif" font-size="10.00" fill="#000000">_file_content</text>
</a>
</g>
</g>
<!-- Node4&#45;&gt;Node5 -->
<g id="edge5" class="edge">
<title>Node4&#45;&gt;Node5</title>
<path fill="none" stroke="#191970" d="M910.3212,-215.8858C918.7829,-216.0004 927.3105,-216.1159 935.7051,-216.2296"/>
<polygon fill="#191970" stroke="#191970" points="935.8187,-219.7314 945.8652,-216.3672 935.9135,-212.732 935.8187,-219.7314"/>
</g>
<!-- Node6 -->
<g id="node7" class="node">
<title>Node6</title>
<g id="a_node7"><a xlink:href="structutils_1_1_config.html#a582f735328e8c0b4766654c6b8ccbacd" target="_top" xlink:title=" ">
<polygon fill="none" stroke="#000000" points="1149,-180.5 1149,-210.5 1301,-210.5 1301,-180.5 1149,-180.5"/>
<text text-anchor="start" x="1157" y="-198.5" font-family="Helvetica,sans-Serif" font-size="10.00" fill="#000000">utils::Config::set</text>
<text text-anchor="middle" x="1225" y="-187.5" font-family="Helvetica,sans-Serif" font-size="10.00" fill="#000000">_parsed_option</text>
</a>
</g>
</g>
<!-- Node5&#45;&gt;Node6 -->
<g id="edge6" class="edge">
<title>Node5&#45;&gt;Node6</title>
<path fill="none" stroke="#191970" d="M1113.2604,-208.0743C1121.6598,-207.1291 1130.1999,-206.168 1138.6258,-205.2199"/>
<polygon fill="#191970" stroke="#191970" points="1139.2838,-208.668 1148.8296,-204.0716 1138.5009,-201.7119 1139.2838,-208.668"/>
</g>
<!-- Node8&#45;&gt;Node4 -->
<g id="edge10" class="edge">
<title>Node8&#45;&gt;Node4</title>
<path fill="none" stroke="#191970" d="M623.6641,-183.0093C658.9781,-189.0421 704.8458,-196.8778 741.9926,-203.2237"/>
<polygon fill="#191970" stroke="#191970" points="741.776,-206.7374 752.2226,-204.9714 742.9548,-199.8373 741.776,-206.7374"/>
</g>
<!-- Node8&#45;&gt;Node6 -->
<g id="edge9" class="edge">
<title>Node8&#45;&gt;Node6</title>
<path fill="none" stroke="#191970" d="M670.2956,-176.9254C798.9111,-181.2322 1017.4575,-188.5503 1138.2693,-192.5958"/>
<polygon fill="#191970" stroke="#191970" points="1138.4674,-196.1043 1148.579,-192.941 1138.7018,-189.1082 1138.4674,-196.1043"/>
</g>
<!-- Node10 -->
<g id="node11" class="node">
<title>Node10</title>
<g id="a_node11"><a xlink:href="structutils_1_1_config.html#a7b2ef78d2e668f8a8c87c22349bcf654" target="_top" xlink:title=" ">
<polygon fill="none" stroke="#000000" points="728.5,-126 728.5,-145 887.5,-145 887.5,-126 728.5,-126"/>
<text text-anchor="middle" x="808" y="-133" font-family="Helvetica,sans-Serif" font-size="10.00" fill="#000000">utils::Config::dump</text>
</a>
</g>
</g>
<!-- Node9&#45;&gt;Node10 -->
<g id="edge12" class="edge">
<title>Node9&#45;&gt;Node10</title>
<path fill="none" stroke="#191970" d="M666.6562,-135.5C683.6797,-135.5 701.2954,-135.5 718.0728,-135.5"/>
<polygon fill="#191970" stroke="#191970" points="718.398,-139.0001 728.398,-135.5 718.3979,-132.0001 718.398,-139.0001"/>
</g>
<!-- Node11&#45;&gt;Node12 -->
<g id="edge14" class="edge">
<title>Node11&#45;&gt;Node12</title>
<path fill="none" stroke="#191970" d="M644.2673,-91.4622C664.0837,-89.8934 685.7434,-88.1786 706.6312,-86.525"/>
<polygon fill="#191970" stroke="#191970" points="707.1192,-89.9974 716.8117,-85.7191 706.5667,-83.0193 707.1192,-89.9974"/>
</g>
</g>
</svg>
