<?xml version="1.0" encoding="UTF-8" standalone="no"?>
<!DOCTYPE svg PUBLIC "-//W3C//DTD SVG 1.1//EN"
 "http://www.w3.org/Graphics/SVG/1.1/DTD/svg11.dtd">
<!-- Generated by graphviz version 2.40.1 (0)
 -->
<!-- Title: soe::anonymous_namespace{main::cpp}::main_impl Pages: 1 -->
<svg width="1076pt" height="329pt"
 viewBox="0.00 0.00 1076.00 328.50" xmlns="http://www.w3.org/2000/svg" xmlns:xlink="http://www.w3.org/1999/xlink">
<g id="graph0" class="graph" transform="scale(1 1) rotate(0) translate(4 324.5)">
<title>soe::anonymous_namespace{main::cpp}::main_impl</title>
<!-- Node16 -->
<g id="node1" class="node">
<title>Node16</title>
<g id="a_node1"><a xlink:title=" ">
<polygon fill="#bfbfbf" stroke="#000000" points="0,-150.5 0,-180.5 197,-180.5 197,-150.5 0,-150.5"/>
<text text-anchor="start" x="8" y="-168.5" font-family="Helvetica,sans-Serif" font-size="10.00" fill="#000000">soe::anonymous_namespace</text>
<text text-anchor="middle" x="98.5" y="-157.5" font-family="Helvetica,sans-Serif" font-size="10.00" fill="#000000">{main::cpp}::main_impl</text>
</a>
</g>
</g>
<!-- Node17 -->
<g id="node2" class="node">
<title>Node17</title>
<g id="a_node2"><a xlink:href="structutils_1_1_config.html#ab48651341ab189a185bb4a995703deeb" target="_top" xlink:title=" ">
<polygon fill="none" stroke="#000000" points="259,-301 259,-320 411,-320 411,-301 259,-301"/>
<text text-anchor="middle" x="335" y="-308" font-family="Helvetica,sans-Serif" font-size="10.00" fill="#000000">utils::Config::set</text>
</a>
</g>
</g>
<!-- Node16&#45;&gt;Node17 -->
<g id="edge1" class="edge">
<title>Node16&#45;&gt;Node17</title>
<path fill="none" stroke="#191970" d="M109.8937,-180.8328C130.9425,-207.9402 178.7567,-264.0505 233,-291.5 238.1481,-294.1052 243.6048,-296.3559 249.2123,-298.3"/>
<polygon fill="#191970" stroke="#191970" points="248.1747,-301.6427 258.7637,-301.291 250.2666,-294.9625 248.1747,-301.6427"/>
</g>
<!-- Node18 -->
<g id="node3" class="node">
<title>Node18</title>
<g id="a_node3"><a xlink:href="structutils_1_1_config.html#a721b70a9e01d9b680b6976b2d25ef26d" target="_top" xlink:title=" ">
<polygon fill="none" stroke="#000000" points="251.5,-251.5 251.5,-281.5 418.5,-281.5 418.5,-251.5 251.5,-251.5"/>
<text text-anchor="start" x="259.5" y="-269.5" font-family="Helvetica,sans-Serif" font-size="10.00" fill="#000000">utils::Config::parse</text>
<text text-anchor="middle" x="335" y="-258.5" font-family="Helvetica,sans-Serif" font-size="10.00" fill="#000000">_global_config</text>
</a>
</g>
</g>
<!-- Node16&#45;&gt;Node18 -->
<g id="edge2" class="edge">
<title>Node16&#45;&gt;Node18</title>
<path fill="none" stroke="#191970" d="M120.8675,-180.6863C146.8108,-197.6831 191.3607,-224.9968 233,-241.5 239.3773,-244.0276 246.0834,-246.3522 252.8838,-248.4789"/>
<polygon fill="#191970" stroke="#191970" points="252.3045,-251.9581 262.8873,-251.4539 254.2999,-245.2485 252.3045,-251.9581"/>
</g>
<!-- Node23 -->
<g id="node8" class="node">
<title>Node23</title>
<g id="a_node8"><a xlink:href="structutils_1_1_config.html#af1e5a2746bab1560d5f0fb7c1a50b939" target="_top" xlink:title=" ">
<polygon fill="none" stroke="#000000" points="233,-213 233,-232 437,-232 437,-213 233,-213"/>
<text text-anchor="middle" x="335" y="-220" font-family="Helvetica,sans-Serif" font-size="10.00" fill="#000000">utils::Config::parse_args</text>
</a>
</g>
</g>
<!-- Node16&#45;&gt;Node23 -->
<g id="edge7" class="edge">
<title>Node16&#45;&gt;Node23</title>
<path fill="none" stroke="#191970" d="M147.7253,-180.5714C173.0611,-188.0316 204.5293,-196.8411 233,-203.5 244.5104,-206.1921 256.8222,-208.7526 268.7683,-211.072"/>
<polygon fill="#191970" stroke="#191970" points="268.2132,-214.5291 278.6914,-212.9611 269.5224,-207.6526 268.2132,-214.5291"/>
</g>
<!-- Node24 -->
<g id="node9" class="node">
<title>Node24</title>
<g id="a_node9"><a xlink:href="structutils_1_1_config.html#a08878c232b78de572a701258e234e0ca" target="_top" xlink:title=" ">
<polygon fill="none" stroke="#000000" points="236.5,-175 236.5,-194 433.5,-194 433.5,-175 236.5,-175"/>
<text text-anchor="middle" x="335" y="-182" font-family="Helvetica,sans-Serif" font-size="10.00" fill="#000000">utils::Config::show_help</text>
</a>
</g>
</g>
<!-- Node16&#45;&gt;Node24 -->
<g id="edge10" class="edge">
<title>Node16&#45;&gt;Node24</title>
<path fill="none" stroke="#191970" d="M197.0848,-173.4201C206.6797,-174.191 216.4523,-174.9761 226.1403,-175.7544"/>
<polygon fill="#191970" stroke="#191970" points="225.9465,-179.25 236.1947,-176.5622 226.5071,-172.2725 225.9465,-179.25"/>
</g>
<!-- Node26 -->
<g id="node11" class="node">
<title>Node26</title>
<g id="a_node11"><a xlink:href="structutils_1_1_config.html#a934b0d1f82647c9a599e6a928d9fe2a7" target="_top" xlink:title=" ">
<polygon fill="none" stroke="#000000" points="259,-137 259,-156 411,-156 411,-137 259,-137"/>
<text text-anchor="middle" x="335" y="-144" font-family="Helvetica,sans-Serif" font-size="10.00" fill="#000000">utils::Config::get</text>
</a>
</g>
</g>
<!-- Node16&#45;&gt;Node26 -->
<g id="edge12" class="edge">
<title>Node16&#45;&gt;Node26</title>
<path fill="none" stroke="#191970" d="M197.0848,-157.5799C214.1932,-156.2054 231.8667,-154.7855 248.6182,-153.4398"/>
<polygon fill="#191970" stroke="#191970" points="249.2283,-156.9021 258.9159,-152.6125 248.6677,-149.9246 249.2283,-156.9021"/>
</g>
<!-- Node27 -->
<g id="node12" class="node">
<title>Node27</title>
<g id="a_node12"><a xlink:href="structutils_1_1_config.html#ad8dbc16f40140649ec5e01964d70cbd3" target="_top" xlink:title=" ">
<polygon fill="none" stroke="#000000" points="484,-118 484,-137 666,-137 666,-118 484,-118"/>
<text text-anchor="middle" x="575" y="-125" font-family="Helvetica,sans-Serif" font-size="10.00" fill="#000000">utils::Config::get_raw</text>
</a>
</g>
</g>
<!-- Node16&#45;&gt;Node27 -->
<g id="edge15" class="edge">
<title>Node16&#45;&gt;Node27</title>
<path fill="none" stroke="#191970" d="M140.2678,-150.4843C166.5056,-141.8614 201.2736,-131.8958 233,-127.5 313.276,-116.3776 405.1722,-117.1156 473.4768,-120.2285"/>
<polygon fill="#191970" stroke="#191970" points="473.648,-123.7407 483.8047,-120.7254 473.9845,-116.7488 473.648,-123.7407"/>
</g>
<!-- Node28 -->
<g id="node13" class="node">
<title>Node28</title>
<g id="a_node13"><a xlink:href="namespacesoe_1_1anonymous__namespace_02main_8cpp_03.html#a4778e772620621fd2654514d839cae12" target="_top" xlink:title=" ">
<polygon fill="none" stroke="#000000" points="233,-49.5 233,-79.5 437,-79.5 437,-49.5 233,-49.5"/>
<text text-anchor="start" x="241" y="-67.5" font-family="Helvetica,sans-Serif" font-size="10.00" fill="#000000">soe::anonymous_namespace</text>
<text text-anchor="middle" x="335" y="-56.5" font-family="Helvetica,sans-Serif" font-size="10.00" fill="#000000">{main::cpp}::parse_fourcc</text>
</a>
</g>
</g>
<!-- Node16&#45;&gt;Node28 -->
<g id="edge14" class="edge">
<title>Node16&#45;&gt;Node28</title>
<path fill="none" stroke="#191970" d="M123.5558,-150.3237C150.0361,-134.7551 193.3701,-110.5994 233,-94.5 243.8218,-90.1037 255.5261,-86.0478 267.0153,-82.4325"/>
<polygon fill="#191970" stroke="#191970" points="268.0538,-85.775 276.5916,-79.5016 266.0051,-79.0815 268.0538,-85.775"/>
</g>
<!-- Node29 -->
<g id="node14" class="node">
<title>Node29</title>
<g id="a_node14"><a xlink:href="structsoe_1_1_frame_stream.html#a6d42a02785fe83aba31d2e83152bf0ad" target="_top" xlink:title=" ">
<polygon fill="none" stroke="#000000" points="240.5,-.5 240.5,-30.5 429.5,-30.5 429.5,-.5 240.5,-.5"/>
<text text-anchor="start" x="248.5" y="-18.5" font-family="Helvetica,sans-Serif" font-size="10.00" fill="#000000">soe::FrameStream::input</text>
<text text-anchor="middle" x="335" y="-7.5" font-family="Helvetica,sans-Serif" font-size="10.00" fill="#000000">_frame</text>
</a>
</g>
</g>
<!-- Node16&#45;&gt;Node29 -->
<g id="edge16" class="edge">
<title>Node16&#45;&gt;Node29</title>
<path fill="none" stroke="#191970" d="M110.0251,-150.4194C131.2823,-123.7121 179.4156,-68.2146 233,-39.5 236.5076,-37.6204 240.1605,-35.8867 243.9083,-34.2878"/>
<polygon fill="#191970" stroke="#191970" points="245.3492,-37.4826 253.3909,-30.5846 242.8028,-30.9622 245.3492,-37.4826"/>
</g>
<!-- Node19 -->
<g id="node4" class="node">
<title>Node19</title>
<g id="a_node4"><a xlink:href="structutils_1_1_config.html#a459561479c9c1ad0816a6ea6de85fd1f" target="_top" xlink:title=" ">
<polygon fill="none" stroke="#000000" points="473,-254 473,-273 677,-273 677,-254 473,-254"/>
<text text-anchor="middle" x="575" y="-261" font-family="Helvetica,sans-Serif" font-size="10.00" fill="#000000">utils::Config::parse_file</text>
</a>
</g>
</g>
<!-- Node18&#45;&gt;Node19 -->
<g id="edge3" class="edge">
<title>Node18&#45;&gt;Node19</title>
<path fill="none" stroke="#191970" d="M418.6034,-265.455C432.7826,-265.2777 447.7105,-265.0911 462.4865,-264.9064"/>
<polygon fill="#191970" stroke="#191970" points="462.7253,-268.4038 472.6807,-264.779 462.6377,-261.4044 462.7253,-268.4038"/>
</g>
<!-- Node22 -->
<g id="node7" class="node">
<title>Node22</title>
<g id="a_node7"><a xlink:href="namespaceutils.html#a5064b3980eb7aa98e3daf3bb12b3c3d8" target="_top" xlink:title=" ">
<polygon fill="none" stroke="#000000" points="484,-292 484,-311 666,-311 666,-292 484,-292"/>
<text text-anchor="middle" x="575" y="-299" font-family="Helvetica,sans-Serif" font-size="10.00" fill="#000000">utils::get_kiwixz_home</text>
</a>
</g>
</g>
<!-- Node18&#45;&gt;Node22 -->
<g id="edge6" class="edge">
<title>Node18&#45;&gt;Node22</title>
<path fill="none" stroke="#191970" d="M418.6034,-278.6922C444.9969,-282.5412 473.9851,-286.7687 499.758,-290.5272"/>
<polygon fill="#191970" stroke="#191970" points="499.4376,-294.0174 509.838,-291.9972 500.4478,-287.0907 499.4376,-294.0174"/>
</g>
<!-- Node20 -->
<g id="node5" class="node">
<title>Node20</title>
<g id="a_node5"><a xlink:href="structutils_1_1_config.html#ab5ca15af8b27ceafb626caf6080cc147" target="_top" xlink:title=" ">
<polygon fill="none" stroke="#000000" points="713,-251.5 713,-281.5 880,-281.5 880,-251.5 713,-251.5"/>
<text text-anchor="start" x="721" y="-269.5" font-family="Helvetica,sans-Serif" font-size="10.00" fill="#000000">utils::Config::parse</text>
<text text-anchor="middle" x="796.5" y="-258.5" font-family="Helvetica,sans-Serif" font-size="10.00" fill="#000000">_file_content</text>
</a>
</g>
</g>
<!-- Node19&#45;&gt;Node20 -->
<g id="edge4" class="edge">
<title>Node19&#45;&gt;Node20</title>
<path fill="none" stroke="#191970" d="M677.3212,-264.8858C685.7829,-265.0004 694.3105,-265.1159 702.7051,-265.2296"/>
<polygon fill="#191970" stroke="#191970" points="702.8187,-268.7314 712.8652,-265.3672 702.9135,-261.732 702.8187,-268.7314"/>
</g>
<!-- Node21 -->
<g id="node6" class="node">
<title>Node21</title>
<g id="a_node6"><a xlink:href="structutils_1_1_config.html#a582f735328e8c0b4766654c6b8ccbacd" target="_top" xlink:title=" ">
<polygon fill="none" stroke="#000000" points="916,-229.5 916,-259.5 1068,-259.5 1068,-229.5 916,-229.5"/>
<text text-anchor="start" x="924" y="-247.5" font-family="Helvetica,sans-Serif" font-size="10.00" fill="#000000">utils::Config::set</text>
<text text-anchor="middle" x="992" y="-236.5" font-family="Helvetica,sans-Serif" font-size="10.00" fill="#000000">_parsed_option</text>
</a>
</g>
</g>
<!-- Node20&#45;&gt;Node21 -->
<g id="edge5" class="edge">
<title>Node20&#45;&gt;Node21</title>
<path fill="none" stroke="#191970" d="M880.2604,-257.0743C888.6598,-256.1291 897.1999,-255.168 905.6258,-254.2199"/>
<polygon fill="#191970" stroke="#191970" points="906.2838,-257.668 915.8296,-253.0716 905.5009,-250.7119 906.2838,-257.668"/>
</g>
<!-- Node23&#45;&gt;Node19 -->
<g id="edge9" class="edge">
<title>Node23&#45;&gt;Node19</title>
<path fill="none" stroke="#191970" d="M390.6641,-232.0093C425.9781,-238.0421 471.8458,-245.8778 508.9926,-252.2237"/>
<polygon fill="#191970" stroke="#191970" points="508.776,-255.7374 519.2226,-253.9714 509.9548,-248.8373 508.776,-255.7374"/>
</g>
<!-- Node23&#45;&gt;Node21 -->
<g id="edge8" class="edge">
<title>Node23&#45;&gt;Node21</title>
<path fill="none" stroke="#191970" d="M437.2956,-225.9254C565.9111,-230.2322 784.4575,-237.5503 905.2693,-241.5958"/>
<polygon fill="#191970" stroke="#191970" points="905.4674,-245.1043 915.579,-241.941 905.7018,-238.1082 905.4674,-245.1043"/>
</g>
<!-- Node25 -->
<g id="node10" class="node">
<title>Node25</title>
<g id="a_node10"><a xlink:href="structutils_1_1_config.html#a7b2ef78d2e668f8a8c87c22349bcf654" target="_top" xlink:title=" ">
<polygon fill="none" stroke="#000000" points="495.5,-175 495.5,-194 654.5,-194 654.5,-175 495.5,-175"/>
<text text-anchor="middle" x="575" y="-182" font-family="Helvetica,sans-Serif" font-size="10.00" fill="#000000">utils::Config::dump</text>
</a>
</g>
</g>
<!-- Node24&#45;&gt;Node25 -->
<g id="edge11" class="edge">
<title>Node24&#45;&gt;Node25</title>
<path fill="none" stroke="#191970" d="M433.6562,-184.5C450.6797,-184.5 468.2954,-184.5 485.0728,-184.5"/>
<polygon fill="#191970" stroke="#191970" points="485.398,-188.0001 495.398,-184.5 485.3979,-181.0001 485.398,-188.0001"/>
</g>
<!-- Node26&#45;&gt;Node27 -->
<g id="edge13" class="edge">
<title>Node26&#45;&gt;Node27</title>
<path fill="none" stroke="#191970" d="M411.2673,-140.4622C431.0837,-138.8934 452.7434,-137.1786 473.6312,-135.525"/>
<polygon fill="#191970" stroke="#191970" points="474.1192,-138.9974 483.8117,-134.7191 473.5667,-132.0193 474.1192,-138.9974"/>
</g>
</g>
</svg>
