<?xml version="1.0" encoding="UTF-8" standalone="no"?>
<!DOCTYPE svg PUBLIC "-//W3C//DTD SVG 1.1//EN"
 "http://www.w3.org/Graphics/SVG/1.1/DTD/svg11.dtd">
<!-- Generated by graphviz version 2.40.1 (0)
 -->
<!-- Title: soe::anonymous_namespace{main::cpp}::main_impl Pages: 1 -->
<svg width="1076pt" height="242pt"
 viewBox="0.00 0.00 1076.00 242.00" xmlns="http://www.w3.org/2000/svg" xmlns:xlink="http://www.w3.org/1999/xlink">
<g id="graph0" class="graph" transform="scale(1 1) rotate(0) translate(4 238)">
<title>soe::anonymous_namespace{main::cpp}::main_impl</title>
<!-- Node14 -->
<g id="node1" class="node">
<title>Node14</title>
<g id="a_node1"><a xlink:title=" ">
<polygon fill="#bfbfbf" stroke="#000000" points="0,-102 0,-132 197,-132 197,-102 0,-102"/>
<text text-anchor="start" x="8" y="-120" font-family="Helvetica,sans-Serif" font-size="10.00" fill="#000000">soe::anonymous_namespace</text>
<text text-anchor="middle" x="98.5" y="-109" font-family="Helvetica,sans-Serif" font-size="10.00" fill="#000000">{main::cpp}::main_impl</text>
</a>
</g>
</g>
<!-- Node15 -->
<g id="node2" class="node">
<title>Node15</title>
<g id="a_node2"><a xlink:href="structutils_1_1_config.html#ab48651341ab189a185bb4a995703deeb" target="_top" xlink:title=" ">
<polygon fill="none" stroke="#000000" points="259,-214.5 259,-233.5 411,-233.5 411,-214.5 259,-214.5"/>
<text text-anchor="middle" x="335" y="-221.5" font-family="Helvetica,sans-Serif" font-size="10.00" fill="#000000">utils::Config::set</text>
</a>
</g>
</g>
<!-- Node14&#45;&gt;Node15 -->
<g id="edge1" class="edge">
<title>Node14&#45;&gt;Node15</title>
<path fill="none" stroke="#191970" d="M116.3426,-132.0496C140.9425,-151.9704 187.4237,-186.7027 233,-205 239.6656,-207.676 246.7293,-209.9793 253.9056,-211.9612"/>
<polygon fill="#191970" stroke="#191970" points="253.1792,-215.3879 263.7342,-214.4692 254.9101,-208.6053 253.1792,-215.3879"/>
</g>
<!-- Node16 -->
<g id="node3" class="node">
<title>Node16</title>
<g id="a_node3"><a xlink:href="structutils_1_1_config.html#a721b70a9e01d9b680b6976b2d25ef26d" target="_top" xlink:title=" ">
<polygon fill="none" stroke="#000000" points="251.5,-165 251.5,-195 418.5,-195 418.5,-165 251.5,-165"/>
<text text-anchor="start" x="259.5" y="-183" font-family="Helvetica,sans-Serif" font-size="10.00" fill="#000000">utils::Config::parse</text>
<text text-anchor="middle" x="335" y="-172" font-family="Helvetica,sans-Serif" font-size="10.00" fill="#000000">_global_config</text>
</a>
</g>
</g>
<!-- Node14&#45;&gt;Node16 -->
<g id="edge2" class="edge">
<title>Node14&#45;&gt;Node16</title>
<path fill="none" stroke="#191970" d="M150.1185,-132.0402C175.0957,-139.2009 205.5488,-147.7604 233,-155 242.4539,-157.4933 252.4228,-160.0389 262.2761,-162.5057"/>
<polygon fill="#191970" stroke="#191970" points="261.5183,-165.9238 272.0675,-164.9413 263.2081,-159.1308 261.5183,-165.9238"/>
</g>
<!-- Node21 -->
<g id="node8" class="node">
<title>Node21</title>
<g id="a_node8"><a xlink:href="structutils_1_1_config.html#af1e5a2746bab1560d5f0fb7c1a50b939" target="_top" xlink:title=" ">
<polygon fill="none" stroke="#000000" points="233,-126.5 233,-145.5 437,-145.5 437,-126.5 233,-126.5"/>
<text text-anchor="middle" x="335" y="-133.5" font-family="Helvetica,sans-Serif" font-size="10.00" fill="#000000">utils::Config::parse_args</text>
</a>
</g>
</g>
<!-- Node14&#45;&gt;Node21 -->
<g id="edge7" class="edge">
<title>Node14&#45;&gt;Node21</title>
<path fill="none" stroke="#191970" d="M197.0848,-124.9201C205.5568,-125.6008 214.1674,-126.2925 222.736,-126.9809"/>
<polygon fill="#191970" stroke="#191970" points="222.5164,-130.4745 232.7646,-127.7866 223.0771,-123.4969 222.5164,-130.4745"/>
</g>
<!-- Node22 -->
<g id="node9" class="node">
<title>Node22</title>
<g id="a_node9"><a xlink:href="structutils_1_1_config.html#a08878c232b78de572a701258e234e0ca" target="_top" xlink:title=" ">
<polygon fill="none" stroke="#000000" points="236.5,-88.5 236.5,-107.5 433.5,-107.5 433.5,-88.5 236.5,-88.5"/>
<text text-anchor="middle" x="335" y="-95.5" font-family="Helvetica,sans-Serif" font-size="10.00" fill="#000000">utils::Config::show_help</text>
</a>
</g>
</g>
<!-- Node14&#45;&gt;Node22 -->
<g id="edge10" class="edge">
<title>Node14&#45;&gt;Node22</title>
<path fill="none" stroke="#191970" d="M197.0848,-109.0799C206.6797,-108.309 216.4523,-107.5239 226.1403,-106.7456"/>
<polygon fill="#191970" stroke="#191970" points="226.5071,-110.2275 236.1947,-105.9378 225.9465,-103.25 226.5071,-110.2275"/>
</g>
<!-- Node24 -->
<g id="node11" class="node">
<title>Node24</title>
<g id="a_node11"><a xlink:href="namespacesoe_1_1anonymous__namespace_02main_8cpp_03.html#a4778e772620621fd2654514d839cae12" target="_top" xlink:title=" ">
<polygon fill="none" stroke="#000000" points="233,-39 233,-69 437,-69 437,-39 233,-39"/>
<text text-anchor="start" x="241" y="-57" font-family="Helvetica,sans-Serif" font-size="10.00" fill="#000000">soe::anonymous_namespace</text>
<text text-anchor="middle" x="335" y="-46" font-family="Helvetica,sans-Serif" font-size="10.00" fill="#000000">{main::cpp}::parse_fourcc</text>
</a>
</g>
</g>
<!-- Node14&#45;&gt;Node24 -->
<g id="edge12" class="edge">
<title>Node14&#45;&gt;Node24</title>
<path fill="none" stroke="#191970" d="M150.1185,-101.9598C175.0957,-94.7991 205.5488,-86.2396 233,-79 242.4539,-76.5067 252.4228,-73.9611 262.2761,-71.4943"/>
<polygon fill="#191970" stroke="#191970" points="263.2081,-74.8692 272.0675,-69.0587 261.5183,-68.0762 263.2081,-74.8692"/>
</g>
<!-- Node25 -->
<g id="node12" class="node">
<title>Node25</title>
<g id="a_node12"><a xlink:href="structutils_1_1_config.html#ab1f757d6d1368f9fcdffcdca110aaa1f" target="_top" xlink:title=" ">
<polygon fill="none" stroke="#000000" points="244,-.5 244,-19.5 426,-19.5 426,-.5 244,-.5"/>
<text text-anchor="middle" x="335" y="-7.5" font-family="Helvetica,sans-Serif" font-size="10.00" fill="#000000">utils::Config::get_raw</text>
</a>
</g>
</g>
<!-- Node14&#45;&gt;Node25 -->
<g id="edge13" class="edge">
<title>Node14&#45;&gt;Node25</title>
<path fill="none" stroke="#191970" d="M116.3426,-101.9504C140.9425,-82.0296 187.4237,-47.2973 233,-29 239.6656,-26.324 246.7293,-24.0207 253.9056,-22.0388"/>
<polygon fill="#191970" stroke="#191970" points="254.9101,-25.3947 263.7342,-19.5308 253.1792,-18.6121 254.9101,-25.3947"/>
</g>
<!-- Node17 -->
<g id="node4" class="node">
<title>Node17</title>
<g id="a_node4"><a xlink:href="structutils_1_1_config.html#a164a833c182bcaeaa765fe07b394b5a8" target="_top" xlink:title=" ">
<polygon fill="none" stroke="#000000" points="473,-167.5 473,-186.5 677,-186.5 677,-167.5 473,-167.5"/>
<text text-anchor="middle" x="575" y="-174.5" font-family="Helvetica,sans-Serif" font-size="10.00" fill="#000000">utils::Config::parse_file</text>
</a>
</g>
</g>
<!-- Node16&#45;&gt;Node17 -->
<g id="edge3" class="edge">
<title>Node16&#45;&gt;Node17</title>
<path fill="none" stroke="#191970" d="M418.6034,-178.955C432.7826,-178.7777 447.7105,-178.5911 462.4865,-178.4064"/>
<polygon fill="#191970" stroke="#191970" points="462.7253,-181.9038 472.6807,-178.279 462.6377,-174.9044 462.7253,-181.9038"/>
</g>
<!-- Node20 -->
<g id="node7" class="node">
<title>Node20</title>
<g id="a_node7"><a xlink:href="namespaceutils.html#a5064b3980eb7aa98e3daf3bb12b3c3d8" target="_top" xlink:title=" ">
<polygon fill="none" stroke="#000000" points="484,-205.5 484,-224.5 666,-224.5 666,-205.5 484,-205.5"/>
<text text-anchor="middle" x="575" y="-212.5" font-family="Helvetica,sans-Serif" font-size="10.00" fill="#000000">utils::get_kiwixz_home</text>
</a>
</g>
</g>
<!-- Node16&#45;&gt;Node20 -->
<g id="edge6" class="edge">
<title>Node16&#45;&gt;Node20</title>
<path fill="none" stroke="#191970" d="M418.6034,-192.1922C444.9969,-196.0412 473.9851,-200.2687 499.758,-204.0272"/>
<polygon fill="#191970" stroke="#191970" points="499.4376,-207.5174 509.838,-205.4972 500.4478,-200.5907 499.4376,-207.5174"/>
</g>
<!-- Node18 -->
<g id="node5" class="node">
<title>Node18</title>
<g id="a_node5"><a xlink:href="structutils_1_1_config.html#ab5ca15af8b27ceafb626caf6080cc147" target="_top" xlink:title=" ">
<polygon fill="none" stroke="#000000" points="713,-165 713,-195 880,-195 880,-165 713,-165"/>
<text text-anchor="start" x="721" y="-183" font-family="Helvetica,sans-Serif" font-size="10.00" fill="#000000">utils::Config::parse</text>
<text text-anchor="middle" x="796.5" y="-172" font-family="Helvetica,sans-Serif" font-size="10.00" fill="#000000">_file_content</text>
</a>
</g>
</g>
<!-- Node17&#45;&gt;Node18 -->
<g id="edge4" class="edge">
<title>Node17&#45;&gt;Node18</title>
<path fill="none" stroke="#191970" d="M677.3212,-178.3858C685.7829,-178.5004 694.3105,-178.6159 702.7051,-178.7296"/>
<polygon fill="#191970" stroke="#191970" points="702.8187,-182.2314 712.8652,-178.8672 702.9135,-175.232 702.8187,-182.2314"/>
</g>
<!-- Node19 -->
<g id="node6" class="node">
<title>Node19</title>
<g id="a_node6"><a xlink:href="structutils_1_1_config.html#a582f735328e8c0b4766654c6b8ccbacd" target="_top" xlink:title=" ">
<polygon fill="none" stroke="#000000" points="916,-143 916,-173 1068,-173 1068,-143 916,-143"/>
<text text-anchor="start" x="924" y="-161" font-family="Helvetica,sans-Serif" font-size="10.00" fill="#000000">utils::Config::set</text>
<text text-anchor="middle" x="992" y="-150" font-family="Helvetica,sans-Serif" font-size="10.00" fill="#000000">_parsed_option</text>
</a>
</g>
</g>
<!-- Node18&#45;&gt;Node19 -->
<g id="edge5" class="edge">
<title>Node18&#45;&gt;Node19</title>
<path fill="none" stroke="#191970" d="M880.2604,-170.5743C888.6598,-169.6291 897.1999,-168.668 905.6258,-167.7199"/>
<polygon fill="#191970" stroke="#191970" points="906.2838,-171.168 915.8296,-166.5716 905.5009,-164.2119 906.2838,-171.168"/>
</g>
<!-- Node21&#45;&gt;Node17 -->
<g id="edge9" class="edge">
<title>Node21&#45;&gt;Node17</title>
<path fill="none" stroke="#191970" d="M390.6641,-145.5093C425.9781,-151.5421 471.8458,-159.3778 508.9926,-165.7237"/>
<polygon fill="#191970" stroke="#191970" points="508.776,-169.2374 519.2226,-167.4714 509.9548,-162.3373 508.776,-169.2374"/>
</g>
<!-- Node21&#45;&gt;Node19 -->
<g id="edge8" class="edge">
<title>Node21&#45;&gt;Node19</title>
<path fill="none" stroke="#191970" d="M437.2956,-139.4254C565.9111,-143.7322 784.4575,-151.0503 905.2693,-155.0958"/>
<polygon fill="#191970" stroke="#191970" points="905.4674,-158.6043 915.579,-155.441 905.7018,-151.6082 905.4674,-158.6043"/>
</g>
<!-- Node23 -->
<g id="node10" class="node">
<title>Node23</title>
<g id="a_node10"><a xlink:href="structutils_1_1_config.html#a7b2ef78d2e668f8a8c87c22349bcf654" target="_top" xlink:title=" ">
<polygon fill="none" stroke="#000000" points="495.5,-88.5 495.5,-107.5 654.5,-107.5 654.5,-88.5 495.5,-88.5"/>
<text text-anchor="middle" x="575" y="-95.5" font-family="Helvetica,sans-Serif" font-size="10.00" fill="#000000">utils::Config::dump</text>
</a>
</g>
</g>
<!-- Node22&#45;&gt;Node23 -->
<g id="edge11" class="edge">
<title>Node22&#45;&gt;Node23</title>
<path fill="none" stroke="#191970" d="M433.6562,-98C450.6797,-98 468.2954,-98 485.0728,-98"/>
<polygon fill="#191970" stroke="#191970" points="485.398,-101.5001 495.398,-98 485.3979,-94.5001 485.398,-101.5001"/>
</g>
</g>
</svg>
