<?xml version="1.0" encoding="UTF-8" standalone="no"?>
<!DOCTYPE svg PUBLIC "-//W3C//DTD SVG 1.1//EN"
 "http://www.w3.org/Graphics/SVG/1.1/DTD/svg11.dtd">
<!-- Generated by graphviz version 2.40.1 (0)
 -->
<!-- Title: soe::anonymous_namespace{main::cpp}::main Pages: 1 -->
<svg width="1309pt" height="242pt"
 viewBox="0.00 0.00 1309.00 242.00" xmlns="http://www.w3.org/2000/svg" xmlns:xlink="http://www.w3.org/1999/xlink">
<g id="graph0" class="graph" transform="scale(1 1) rotate(0) translate(4 238)">
<title>soe::anonymous_namespace{main::cpp}::main</title>
<!-- Node0 -->
<g id="node1" class="node">
<title>Node0</title>
<g id="a_node1"><a xlink:title=" ">
<polygon fill="#bfbfbf" stroke="#000000" points="0,-102 0,-132 197,-132 197,-102 0,-102"/>
<text text-anchor="start" x="8" y="-120" font-family="Helvetica,sans-Serif" font-size="10.00" fill="#000000">soe::anonymous_namespace</text>
<text text-anchor="middle" x="98.5" y="-109" font-family="Helvetica,sans-Serif" font-size="10.00" fill="#000000">{main::cpp}::main</text>
</a>
</g>
</g>
<!-- Node1 -->
<g id="node2" class="node">
<title>Node1</title>
<g id="a_node2"><a xlink:href="namespacesoe_1_1anonymous__namespace_02main_8cpp_03.html#a0a1c3f9ecefea3a3fa41db8ad79733bc" target="_top" xlink:title=" ">
<polygon fill="none" stroke="#000000" points="233,-102 233,-132 430,-132 430,-102 233,-102"/>
<text text-anchor="start" x="241" y="-120" font-family="Helvetica,sans-Serif" font-size="10.00" fill="#000000">soe::anonymous_namespace</text>
<text text-anchor="middle" x="331.5" y="-109" font-family="Helvetica,sans-Serif" font-size="10.00" fill="#000000">{main::cpp}::main_impl</text>
</a>
</g>
</g>
<!-- Node0&#45;&gt;Node1 -->
<g id="edge1" class="edge">
<title>Node0&#45;&gt;Node1</title>
<path fill="none" stroke="#191970" d="M197.313,-117C205.69,-117 214.1918,-117 222.6399,-117"/>
<polygon fill="#191970" stroke="#191970" points="222.9061,-120.5001 232.906,-117 222.906,-113.5001 222.9061,-120.5001"/>
</g>
<!-- Node2 -->
<g id="node3" class="node">
<title>Node2</title>
<g id="a_node3"><a xlink:href="structutils_1_1_config.html#ab48651341ab189a185bb4a995703deeb" target="_top" xlink:title=" ">
<polygon fill="none" stroke="#000000" points="492,-214.5 492,-233.5 644,-233.5 644,-214.5 492,-214.5"/>
<text text-anchor="middle" x="568" y="-221.5" font-family="Helvetica,sans-Serif" font-size="10.00" fill="#000000">utils::Config::set</text>
</a>
</g>
</g>
<!-- Node1&#45;&gt;Node2 -->
<g id="edge2" class="edge">
<title>Node1&#45;&gt;Node2</title>
<path fill="none" stroke="#191970" d="M349.3426,-132.0496C373.9425,-151.9704 420.4237,-186.7027 466,-205 472.6656,-207.676 479.7293,-209.9793 486.9056,-211.9612"/>
<polygon fill="#191970" stroke="#191970" points="486.1792,-215.3879 496.7342,-214.4692 487.9101,-208.6053 486.1792,-215.3879"/>
</g>
<!-- Node3 -->
<g id="node4" class="node">
<title>Node3</title>
<g id="a_node4"><a xlink:href="structutils_1_1_config.html#a721b70a9e01d9b680b6976b2d25ef26d" target="_top" xlink:title=" ">
<polygon fill="none" stroke="#000000" points="484.5,-165 484.5,-195 651.5,-195 651.5,-165 484.5,-165"/>
<text text-anchor="start" x="492.5" y="-183" font-family="Helvetica,sans-Serif" font-size="10.00" fill="#000000">utils::Config::parse</text>
<text text-anchor="middle" x="568" y="-172" font-family="Helvetica,sans-Serif" font-size="10.00" fill="#000000">_global_config</text>
</a>
</g>
</g>
<!-- Node1&#45;&gt;Node3 -->
<g id="edge3" class="edge">
<title>Node1&#45;&gt;Node3</title>
<path fill="none" stroke="#191970" d="M383.1185,-132.0402C408.0957,-139.2009 438.5488,-147.7604 466,-155 475.4539,-157.4933 485.4228,-160.0389 495.2761,-162.5057"/>
<polygon fill="#191970" stroke="#191970" points="494.5183,-165.9238 505.0675,-164.9413 496.2081,-159.1308 494.5183,-165.9238"/>
</g>
<!-- Node8 -->
<g id="node9" class="node">
<title>Node8</title>
<g id="a_node9"><a xlink:href="structutils_1_1_config.html#af1e5a2746bab1560d5f0fb7c1a50b939" target="_top" xlink:title=" ">
<polygon fill="none" stroke="#000000" points="466,-126.5 466,-145.5 670,-145.5 670,-126.5 466,-126.5"/>
<text text-anchor="middle" x="568" y="-133.5" font-family="Helvetica,sans-Serif" font-size="10.00" fill="#000000">utils::Config::parse_args</text>
</a>
</g>
</g>
<!-- Node1&#45;&gt;Node8 -->
<g id="edge8" class="edge">
<title>Node1&#45;&gt;Node8</title>
<path fill="none" stroke="#191970" d="M430.0848,-124.9201C438.5568,-125.6008 447.1674,-126.2925 455.736,-126.9809"/>
<polygon fill="#191970" stroke="#191970" points="455.5164,-130.4745 465.7646,-127.7866 456.0771,-123.4969 455.5164,-130.4745"/>
</g>
<!-- Node9 -->
<g id="node10" class="node">
<title>Node9</title>
<g id="a_node10"><a xlink:href="structutils_1_1_config.html#a08878c232b78de572a701258e234e0ca" target="_top" xlink:title=" ">
<polygon fill="none" stroke="#000000" points="469.5,-88.5 469.5,-107.5 666.5,-107.5 666.5,-88.5 469.5,-88.5"/>
<text text-anchor="middle" x="568" y="-95.5" font-family="Helvetica,sans-Serif" font-size="10.00" fill="#000000">utils::Config::show_help</text>
</a>
</g>
</g>
<!-- Node1&#45;&gt;Node9 -->
<g id="edge11" class="edge">
<title>Node1&#45;&gt;Node9</title>
<path fill="none" stroke="#191970" d="M430.0848,-109.0799C439.6797,-108.309 449.4523,-107.5239 459.1403,-106.7456"/>
<polygon fill="#191970" stroke="#191970" points="459.5071,-110.2275 469.1947,-105.9378 458.9465,-103.25 459.5071,-110.2275"/>
</g>
<!-- Node11 -->
<g id="node12" class="node">
<title>Node11</title>
<g id="a_node12"><a xlink:href="namespacesoe_1_1anonymous__namespace_02main_8cpp_03.html#a4778e772620621fd2654514d839cae12" target="_top" xlink:title=" ">
<polygon fill="none" stroke="#000000" points="466,-39 466,-69 670,-69 670,-39 466,-39"/>
<text text-anchor="start" x="474" y="-57" font-family="Helvetica,sans-Serif" font-size="10.00" fill="#000000">soe::anonymous_namespace</text>
<text text-anchor="middle" x="568" y="-46" font-family="Helvetica,sans-Serif" font-size="10.00" fill="#000000">{main::cpp}::parse_fourcc</text>
</a>
</g>
</g>
<!-- Node1&#45;&gt;Node11 -->
<g id="edge13" class="edge">
<title>Node1&#45;&gt;Node11</title>
<path fill="none" stroke="#191970" d="M383.1185,-101.9598C408.0957,-94.7991 438.5488,-86.2396 466,-79 475.4539,-76.5067 485.4228,-73.9611 495.2761,-71.4943"/>
<polygon fill="#191970" stroke="#191970" points="496.2081,-74.8692 505.0675,-69.0587 494.5183,-68.0762 496.2081,-74.8692"/>
</g>
<!-- Node12 -->
<g id="node13" class="node">
<title>Node12</title>
<g id="a_node13"><a xlink:href="structutils_1_1_config.html#ad8dbc16f40140649ec5e01964d70cbd3" target="_top" xlink:title=" ">
<polygon fill="none" stroke="#000000" points="477,-.5 477,-19.5 659,-19.5 659,-.5 477,-.5"/>
<text text-anchor="middle" x="568" y="-7.5" font-family="Helvetica,sans-Serif" font-size="10.00" fill="#000000">utils::Config::get_raw</text>
</a>
</g>
</g>
<!-- Node1&#45;&gt;Node12 -->
<g id="edge14" class="edge">
<title>Node1&#45;&gt;Node12</title>
<path fill="none" stroke="#191970" d="M349.3426,-101.9504C373.9425,-82.0296 420.4237,-47.2973 466,-29 472.6656,-26.324 479.7293,-24.0207 486.9056,-22.0388"/>
<polygon fill="#191970" stroke="#191970" points="487.9101,-25.3947 496.7342,-19.5308 486.1792,-18.6121 487.9101,-25.3947"/>
</g>
<!-- Node4 -->
<g id="node5" class="node">
<title>Node4</title>
<g id="a_node5"><a xlink:href="structutils_1_1_config.html#a459561479c9c1ad0816a6ea6de85fd1f" target="_top" xlink:title=" ">
<polygon fill="none" stroke="#000000" points="706,-167.5 706,-186.5 910,-186.5 910,-167.5 706,-167.5"/>
<text text-anchor="middle" x="808" y="-174.5" font-family="Helvetica,sans-Serif" font-size="10.00" fill="#000000">utils::Config::parse_file</text>
</a>
</g>
</g>
<!-- Node3&#45;&gt;Node4 -->
<g id="edge4" class="edge">
<title>Node3&#45;&gt;Node4</title>
<path fill="none" stroke="#191970" d="M651.6034,-178.955C665.7826,-178.7777 680.7105,-178.5911 695.4865,-178.4064"/>
<polygon fill="#191970" stroke="#191970" points="695.7253,-181.9038 705.6807,-178.279 695.6377,-174.9044 695.7253,-181.9038"/>
</g>
<!-- Node7 -->
<g id="node8" class="node">
<title>Node7</title>
<g id="a_node8"><a xlink:href="namespaceutils.html#a5064b3980eb7aa98e3daf3bb12b3c3d8" target="_top" xlink:title=" ">
<polygon fill="none" stroke="#000000" points="717,-205.5 717,-224.5 899,-224.5 899,-205.5 717,-205.5"/>
<text text-anchor="middle" x="808" y="-212.5" font-family="Helvetica,sans-Serif" font-size="10.00" fill="#000000">utils::get_kiwixz_home</text>
</a>
</g>
</g>
<!-- Node3&#45;&gt;Node7 -->
<g id="edge7" class="edge">
<title>Node3&#45;&gt;Node7</title>
<path fill="none" stroke="#191970" d="M651.6034,-192.1922C677.9969,-196.0412 706.9851,-200.2687 732.758,-204.0272"/>
<polygon fill="#191970" stroke="#191970" points="732.4376,-207.5174 742.838,-205.4972 733.4478,-200.5907 732.4376,-207.5174"/>
</g>
<!-- Node5 -->
<g id="node6" class="node">
<title>Node5</title>
<g id="a_node6"><a xlink:href="structutils_1_1_config.html#ab5ca15af8b27ceafb626caf6080cc147" target="_top" xlink:title=" ">
<polygon fill="none" stroke="#000000" points="946,-165 946,-195 1113,-195 1113,-165 946,-165"/>
<text text-anchor="start" x="954" y="-183" font-family="Helvetica,sans-Serif" font-size="10.00" fill="#000000">utils::Config::parse</text>
<text text-anchor="middle" x="1029.5" y="-172" font-family="Helvetica,sans-Serif" font-size="10.00" fill="#000000">_file_content</text>
</a>
</g>
</g>
<!-- Node4&#45;&gt;Node5 -->
<g id="edge5" class="edge">
<title>Node4&#45;&gt;Node5</title>
<path fill="none" stroke="#191970" d="M910.3212,-178.3858C918.7829,-178.5004 927.3105,-178.6159 935.7051,-178.7296"/>
<polygon fill="#191970" stroke="#191970" points="935.8187,-182.2314 945.8652,-178.8672 935.9135,-175.232 935.8187,-182.2314"/>
</g>
<!-- Node6 -->
<g id="node7" class="node">
<title>Node6</title>
<g id="a_node7"><a xlink:href="structutils_1_1_config.html#a582f735328e8c0b4766654c6b8ccbacd" target="_top" xlink:title=" ">
<polygon fill="none" stroke="#000000" points="1149,-143 1149,-173 1301,-173 1301,-143 1149,-143"/>
<text text-anchor="start" x="1157" y="-161" font-family="Helvetica,sans-Serif" font-size="10.00" fill="#000000">utils::Config::set</text>
<text text-anchor="middle" x="1225" y="-150" font-family="Helvetica,sans-Serif" font-size="10.00" fill="#000000">_parsed_option</text>
</a>
</g>
</g>
<!-- Node5&#45;&gt;Node6 -->
<g id="edge6" class="edge">
<title>Node5&#45;&gt;Node6</title>
<path fill="none" stroke="#191970" d="M1113.2604,-170.5743C1121.6598,-169.6291 1130.1999,-168.668 1138.6258,-167.7199"/>
<polygon fill="#191970" stroke="#191970" points="1139.2838,-171.168 1148.8296,-166.5716 1138.5009,-164.2119 1139.2838,-171.168"/>
</g>
<!-- Node8&#45;&gt;Node4 -->
<g id="edge10" class="edge">
<title>Node8&#45;&gt;Node4</title>
<path fill="none" stroke="#191970" d="M623.6641,-145.5093C658.9781,-151.5421 704.8458,-159.3778 741.9926,-165.7237"/>
<polygon fill="#191970" stroke="#191970" points="741.776,-169.2374 752.2226,-167.4714 742.9548,-162.3373 741.776,-169.2374"/>
</g>
<!-- Node8&#45;&gt;Node6 -->
<g id="edge9" class="edge">
<title>Node8&#45;&gt;Node6</title>
<path fill="none" stroke="#191970" d="M670.2956,-139.4254C798.9111,-143.7322 1017.4575,-151.0503 1138.2693,-155.0958"/>
<polygon fill="#191970" stroke="#191970" points="1138.4674,-158.6043 1148.579,-155.441 1138.7018,-151.6082 1138.4674,-158.6043"/>
</g>
<!-- Node10 -->
<g id="node11" class="node">
<title>Node10</title>
<g id="a_node11"><a xlink:href="structutils_1_1_config.html#a7b2ef78d2e668f8a8c87c22349bcf654" target="_top" xlink:title=" ">
<polygon fill="none" stroke="#000000" points="728.5,-88.5 728.5,-107.5 887.5,-107.5 887.5,-88.5 728.5,-88.5"/>
<text text-anchor="middle" x="808" y="-95.5" font-family="Helvetica,sans-Serif" font-size="10.00" fill="#000000">utils::Config::dump</text>
</a>
</g>
</g>
<!-- Node9&#45;&gt;Node10 -->
<g id="edge12" class="edge">
<title>Node9&#45;&gt;Node10</title>
<path fill="none" stroke="#191970" d="M666.6562,-98C683.6797,-98 701.2954,-98 718.0728,-98"/>
<polygon fill="#191970" stroke="#191970" points="718.398,-101.5001 728.398,-98 718.3979,-94.5001 718.398,-101.5001"/>
</g>
</g>
</svg>
