<?xml version="1.0" encoding="UTF-8" standalone="no"?>
<!DOCTYPE svg PUBLIC "-//W3C//DTD SVG 1.1//EN"
 "http://www.w3.org/Graphics/SVG/1.1/DTD/svg11.dtd">
<!-- Generated by graphviz version 2.40.1 (0)
 -->
<!-- Title: soe::anonymous_namespace{main::cpp}::main Pages: 1 -->
<svg width="1309pt" height="329pt"
 viewBox="0.00 0.00 1309.00 328.50" xmlns="http://www.w3.org/2000/svg" xmlns:xlink="http://www.w3.org/1999/xlink">
<g id="graph0" class="graph" transform="scale(1 1) rotate(0) translate(4 324.5)">
<title>soe::anonymous_namespace{main::cpp}::main</title>
<!-- Node0 -->
<g id="node1" class="node">
<title>Node0</title>
<g id="a_node1"><a xlink:title=" ">
<polygon fill="#bfbfbf" stroke="#000000" points="0,-150.5 0,-180.5 197,-180.5 197,-150.5 0,-150.5"/>
<text text-anchor="start" x="8" y="-168.5" font-family="Helvetica,sans-Serif" font-size="10.00" fill="#000000">soe::anonymous_namespace</text>
<text text-anchor="middle" x="98.5" y="-157.5" font-family="Helvetica,sans-Serif" font-size="10.00" fill="#000000">{main::cpp}::main</text>
</a>
</g>
</g>
<!-- Node1 -->
<g id="node2" class="node">
<title>Node1</title>
<g id="a_node2"><a xlink:href="namespacesoe_1_1anonymous__namespace_02main_8cpp_03.html#a0a1c3f9ecefea3a3fa41db8ad79733bc" target="_top" xlink:title=" ">
<polygon fill="none" stroke="#000000" points="233,-150.5 233,-180.5 430,-180.5 430,-150.5 233,-150.5"/>
<text text-anchor="start" x="241" y="-168.5" font-family="Helvetica,sans-Serif" font-size="10.00" fill="#000000">soe::anonymous_namespace</text>
<text text-anchor="middle" x="331.5" y="-157.5" font-family="Helvetica,sans-Serif" font-size="10.00" fill="#000000">{main::cpp}::main_impl</text>
</a>
</g>
</g>
<!-- Node0&#45;&gt;Node1 -->
<g id="edge1" class="edge">
<title>Node0&#45;&gt;Node1</title>
<path fill="none" stroke="#191970" d="M197.313,-165.5C205.69,-165.5 214.1918,-165.5 222.6399,-165.5"/>
<polygon fill="#191970" stroke="#191970" points="222.9061,-169.0001 232.906,-165.5 222.906,-162.0001 222.9061,-169.0001"/>
</g>
<!-- Node2 -->
<g id="node3" class="node">
<title>Node2</title>
<g id="a_node3"><a xlink:href="structutils_1_1_config.html#ab48651341ab189a185bb4a995703deeb" target="_top" xlink:title=" ">
<polygon fill="none" stroke="#000000" points="492,-301 492,-320 644,-320 644,-301 492,-301"/>
<text text-anchor="middle" x="568" y="-308" font-family="Helvetica,sans-Serif" font-size="10.00" fill="#000000">utils::Config::set</text>
</a>
</g>
</g>
<!-- Node1&#45;&gt;Node2 -->
<g id="edge2" class="edge">
<title>Node1&#45;&gt;Node2</title>
<path fill="none" stroke="#191970" d="M342.8937,-180.8328C363.9425,-207.9402 411.7567,-264.0505 466,-291.5 471.1481,-294.1052 476.6048,-296.3559 482.2123,-298.3"/>
<polygon fill="#191970" stroke="#191970" points="481.1747,-301.6427 491.7637,-301.291 483.2666,-294.9625 481.1747,-301.6427"/>
</g>
<!-- Node3 -->
<g id="node4" class="node">
<title>Node3</title>
<g id="a_node4"><a xlink:href="structutils_1_1_config.html#a721b70a9e01d9b680b6976b2d25ef26d" target="_top" xlink:title=" ">
<polygon fill="none" stroke="#000000" points="484.5,-251.5 484.5,-281.5 651.5,-281.5 651.5,-251.5 484.5,-251.5"/>
<text text-anchor="start" x="492.5" y="-269.5" font-family="Helvetica,sans-Serif" font-size="10.00" fill="#000000">utils::Config::parse</text>
<text text-anchor="middle" x="568" y="-258.5" font-family="Helvetica,sans-Serif" font-size="10.00" fill="#000000">_global_config</text>
</a>
</g>
</g>
<!-- Node1&#45;&gt;Node3 -->
<g id="edge3" class="edge">
<title>Node1&#45;&gt;Node3</title>
<path fill="none" stroke="#191970" d="M353.8675,-180.6863C379.8108,-197.6831 424.3607,-224.9968 466,-241.5 472.3773,-244.0276 479.0834,-246.3522 485.8838,-248.4789"/>
<polygon fill="#191970" stroke="#191970" points="485.3045,-251.9581 495.8873,-251.4539 487.2999,-245.2485 485.3045,-251.9581"/>
</g>
<!-- Node8 -->
<g id="node9" class="node">
<title>Node8</title>
<g id="a_node9"><a xlink:href="structutils_1_1_config.html#af1e5a2746bab1560d5f0fb7c1a50b939" target="_top" xlink:title=" ">
<polygon fill="none" stroke="#000000" points="466,-213 466,-232 670,-232 670,-213 466,-213"/>
<text text-anchor="middle" x="568" y="-220" font-family="Helvetica,sans-Serif" font-size="10.00" fill="#000000">utils::Config::parse_args</text>
</a>
</g>
</g>
<!-- Node1&#45;&gt;Node8 -->
<g id="edge8" class="edge">
<title>Node1&#45;&gt;Node8</title>
<path fill="none" stroke="#191970" d="M380.7253,-180.5714C406.0611,-188.0316 437.5293,-196.8411 466,-203.5 477.5104,-206.1921 489.8222,-208.7526 501.7683,-211.072"/>
<polygon fill="#191970" stroke="#191970" points="501.2132,-214.5291 511.6914,-212.9611 502.5224,-207.6526 501.2132,-214.5291"/>
</g>
<!-- Node9 -->
<g id="node10" class="node">
<title>Node9</title>
<g id="a_node10"><a xlink:href="structutils_1_1_config.html#a08878c232b78de572a701258e234e0ca" target="_top" xlink:title=" ">
<polygon fill="none" stroke="#000000" points="469.5,-175 469.5,-194 666.5,-194 666.5,-175 469.5,-175"/>
<text text-anchor="middle" x="568" y="-182" font-family="Helvetica,sans-Serif" font-size="10.00" fill="#000000">utils::Config::show_help</text>
</a>
</g>
</g>
<!-- Node1&#45;&gt;Node9 -->
<g id="edge11" class="edge">
<title>Node1&#45;&gt;Node9</title>
<path fill="none" stroke="#191970" d="M430.0848,-173.4201C439.6797,-174.191 449.4523,-174.9761 459.1403,-175.7544"/>
<polygon fill="#191970" stroke="#191970" points="458.9465,-179.25 469.1947,-176.5622 459.5071,-172.2725 458.9465,-179.25"/>
</g>
<!-- Node11 -->
<g id="node12" class="node">
<title>Node11</title>
<g id="a_node12"><a xlink:href="structutils_1_1_config.html#a934b0d1f82647c9a599e6a928d9fe2a7" target="_top" xlink:title=" ">
<polygon fill="none" stroke="#000000" points="492,-137 492,-156 644,-156 644,-137 492,-137"/>
<text text-anchor="middle" x="568" y="-144" font-family="Helvetica,sans-Serif" font-size="10.00" fill="#000000">utils::Config::get</text>
</a>
</g>
</g>
<!-- Node1&#45;&gt;Node11 -->
<g id="edge13" class="edge">
<title>Node1&#45;&gt;Node11</title>
<path fill="none" stroke="#191970" d="M430.0848,-157.5799C447.1932,-156.2054 464.8667,-154.7855 481.6182,-153.4398"/>
<polygon fill="#191970" stroke="#191970" points="482.2283,-156.9021 491.9159,-152.6125 481.6677,-149.9246 482.2283,-156.9021"/>
</g>
<!-- Node12 -->
<g id="node13" class="node">
<title>Node12</title>
<g id="a_node13"><a xlink:href="structutils_1_1_config.html#ad8dbc16f40140649ec5e01964d70cbd3" target="_top" xlink:title=" ">
<polygon fill="none" stroke="#000000" points="717,-118 717,-137 899,-137 899,-118 717,-118"/>
<text text-anchor="middle" x="808" y="-125" font-family="Helvetica,sans-Serif" font-size="10.00" fill="#000000">utils::Config::get_raw</text>
</a>
</g>
</g>
<!-- Node1&#45;&gt;Node12 -->
<g id="edge16" class="edge">
<title>Node1&#45;&gt;Node12</title>
<path fill="none" stroke="#191970" d="M373.2678,-150.4843C399.5056,-141.8614 434.2736,-131.8958 466,-127.5 546.276,-116.3776 638.1722,-117.1156 706.4768,-120.2285"/>
<polygon fill="#191970" stroke="#191970" points="706.648,-123.7407 716.8047,-120.7254 706.9845,-116.7488 706.648,-123.7407"/>
</g>
<!-- Node13 -->
<g id="node14" class="node">
<title>Node13</title>
<g id="a_node14"><a xlink:href="namespacesoe_1_1anonymous__namespace_02main_8cpp_03.html#a4778e772620621fd2654514d839cae12" target="_top" xlink:title=" ">
<polygon fill="none" stroke="#000000" points="466,-49.5 466,-79.5 670,-79.5 670,-49.5 466,-49.5"/>
<text text-anchor="start" x="474" y="-67.5" font-family="Helvetica,sans-Serif" font-size="10.00" fill="#000000">soe::anonymous_namespace</text>
<text text-anchor="middle" x="568" y="-56.5" font-family="Helvetica,sans-Serif" font-size="10.00" fill="#000000">{main::cpp}::parse_fourcc</text>
</a>
</g>
</g>
<!-- Node1&#45;&gt;Node13 -->
<g id="edge15" class="edge">
<title>Node1&#45;&gt;Node13</title>
<path fill="none" stroke="#191970" d="M356.5558,-150.3237C383.0361,-134.7551 426.3701,-110.5994 466,-94.5 476.8218,-90.1037 488.5261,-86.0478 500.0153,-82.4325"/>
<polygon fill="#191970" stroke="#191970" points="501.0538,-85.775 509.5916,-79.5016 499.0051,-79.0815 501.0538,-85.775"/>
</g>
<!-- Node14 -->
<g id="node15" class="node">
<title>Node14</title>
<g id="a_node15"><a xlink:href="structsoe_1_1_frame_stream.html#a6d42a02785fe83aba31d2e83152bf0ad" target="_top" xlink:title=" ">
<polygon fill="none" stroke="#000000" points="473.5,-.5 473.5,-30.5 662.5,-30.5 662.5,-.5 473.5,-.5"/>
<text text-anchor="start" x="481.5" y="-18.5" font-family="Helvetica,sans-Serif" font-size="10.00" fill="#000000">soe::FrameStream::input</text>
<text text-anchor="middle" x="568" y="-7.5" font-family="Helvetica,sans-Serif" font-size="10.00" fill="#000000">_frame</text>
</a>
</g>
</g>
<!-- Node1&#45;&gt;Node14 -->
<g id="edge17" class="edge">
<title>Node1&#45;&gt;Node14</title>
<path fill="none" stroke="#191970" d="M343.0251,-150.4194C364.2823,-123.7121 412.4156,-68.2146 466,-39.5 469.5076,-37.6204 473.1605,-35.8867 476.9083,-34.2878"/>
<polygon fill="#191970" stroke="#191970" points="478.3492,-37.4826 486.3909,-30.5846 475.8028,-30.9622 478.3492,-37.4826"/>
</g>
<!-- Node4 -->
<g id="node5" class="node">
<title>Node4</title>
<g id="a_node5"><a xlink:href="structutils_1_1_config.html#a459561479c9c1ad0816a6ea6de85fd1f" target="_top" xlink:title=" ">
<polygon fill="none" stroke="#000000" points="706,-254 706,-273 910,-273 910,-254 706,-254"/>
<text text-anchor="middle" x="808" y="-261" font-family="Helvetica,sans-Serif" font-size="10.00" fill="#000000">utils::Config::parse_file</text>
</a>
</g>
</g>
<!-- Node3&#45;&gt;Node4 -->
<g id="edge4" class="edge">
<title>Node3&#45;&gt;Node4</title>
<path fill="none" stroke="#191970" d="M651.6034,-265.455C665.7826,-265.2777 680.7105,-265.0911 695.4865,-264.9064"/>
<polygon fill="#191970" stroke="#191970" points="695.7253,-268.4038 705.6807,-264.779 695.6377,-261.4044 695.7253,-268.4038"/>
</g>
<!-- Node7 -->
<g id="node8" class="node">
<title>Node7</title>
<g id="a_node8"><a xlink:href="namespaceutils.html#a5064b3980eb7aa98e3daf3bb12b3c3d8" target="_top" xlink:title=" ">
<polygon fill="none" stroke="#000000" points="717,-292 717,-311 899,-311 899,-292 717,-292"/>
<text text-anchor="middle" x="808" y="-299" font-family="Helvetica,sans-Serif" font-size="10.00" fill="#000000">utils::get_kiwixz_home</text>
</a>
</g>
</g>
<!-- Node3&#45;&gt;Node7 -->
<g id="edge7" class="edge">
<title>Node3&#45;&gt;Node7</title>
<path fill="none" stroke="#191970" d="M651.6034,-278.6922C677.9969,-282.5412 706.9851,-286.7687 732.758,-290.5272"/>
<polygon fill="#191970" stroke="#191970" points="732.4376,-294.0174 742.838,-291.9972 733.4478,-287.0907 732.4376,-294.0174"/>
</g>
<!-- Node5 -->
<g id="node6" class="node">
<title>Node5</title>
<g id="a_node6"><a xlink:href="structutils_1_1_config.html#ab5ca15af8b27ceafb626caf6080cc147" target="_top" xlink:title=" ">
<polygon fill="none" stroke="#000000" points="946,-251.5 946,-281.5 1113,-281.5 1113,-251.5 946,-251.5"/>
<text text-anchor="start" x="954" y="-269.5" font-family="Helvetica,sans-Serif" font-size="10.00" fill="#000000">utils::Config::parse</text>
<text text-anchor="middle" x="1029.5" y="-258.5" font-family="Helvetica,sans-Serif" font-size="10.00" fill="#000000">_file_content</text>
</a>
</g>
</g>
<!-- Node4&#45;&gt;Node5 -->
<g id="edge5" class="edge">
<title>Node4&#45;&gt;Node5</title>
<path fill="none" stroke="#191970" d="M910.3212,-264.8858C918.7829,-265.0004 927.3105,-265.1159 935.7051,-265.2296"/>
<polygon fill="#191970" stroke="#191970" points="935.8187,-268.7314 945.8652,-265.3672 935.9135,-261.732 935.8187,-268.7314"/>
</g>
<!-- Node6 -->
<g id="node7" class="node">
<title>Node6</title>
<g id="a_node7"><a xlink:href="structutils_1_1_config.html#a582f735328e8c0b4766654c6b8ccbacd" target="_top" xlink:title=" ">
<polygon fill="none" stroke="#000000" points="1149,-229.5 1149,-259.5 1301,-259.5 1301,-229.5 1149,-229.5"/>
<text text-anchor="start" x="1157" y="-247.5" font-family="Helvetica,sans-Serif" font-size="10.00" fill="#000000">utils::Config::set</text>
<text text-anchor="middle" x="1225" y="-236.5" font-family="Helvetica,sans-Serif" font-size="10.00" fill="#000000">_parsed_option</text>
</a>
</g>
</g>
<!-- Node5&#45;&gt;Node6 -->
<g id="edge6" class="edge">
<title>Node5&#45;&gt;Node6</title>
<path fill="none" stroke="#191970" d="M1113.2604,-257.0743C1121.6598,-256.1291 1130.1999,-255.168 1138.6258,-254.2199"/>
<polygon fill="#191970" stroke="#191970" points="1139.2838,-257.668 1148.8296,-253.0716 1138.5009,-250.7119 1139.2838,-257.668"/>
</g>
<!-- Node8&#45;&gt;Node4 -->
<g id="edge10" class="edge">
<title>Node8&#45;&gt;Node4</title>
<path fill="none" stroke="#191970" d="M623.6641,-232.0093C658.9781,-238.0421 704.8458,-245.8778 741.9926,-252.2237"/>
<polygon fill="#191970" stroke="#191970" points="741.776,-255.7374 752.2226,-253.9714 742.9548,-248.8373 741.776,-255.7374"/>
</g>
<!-- Node8&#45;&gt;Node6 -->
<g id="edge9" class="edge">
<title>Node8&#45;&gt;Node6</title>
<path fill="none" stroke="#191970" d="M670.2956,-225.9254C798.9111,-230.2322 1017.4575,-237.5503 1138.2693,-241.5958"/>
<polygon fill="#191970" stroke="#191970" points="1138.4674,-245.1043 1148.579,-241.941 1138.7018,-238.1082 1138.4674,-245.1043"/>
</g>
<!-- Node10 -->
<g id="node11" class="node">
<title>Node10</title>
<g id="a_node11"><a xlink:href="structutils_1_1_config.html#a7b2ef78d2e668f8a8c87c22349bcf654" target="_top" xlink:title=" ">
<polygon fill="none" stroke="#000000" points="728.5,-175 728.5,-194 887.5,-194 887.5,-175 728.5,-175"/>
<text text-anchor="middle" x="808" y="-182" font-family="Helvetica,sans-Serif" font-size="10.00" fill="#000000">utils::Config::dump</text>
</a>
</g>
</g>
<!-- Node9&#45;&gt;Node10 -->
<g id="edge12" class="edge">
<title>Node9&#45;&gt;Node10</title>
<path fill="none" stroke="#191970" d="M666.6562,-184.5C683.6797,-184.5 701.2954,-184.5 718.0728,-184.5"/>
<polygon fill="#191970" stroke="#191970" points="718.398,-188.0001 728.398,-184.5 718.3979,-181.0001 718.398,-188.0001"/>
</g>
<!-- Node11&#45;&gt;Node12 -->
<g id="edge14" class="edge">
<title>Node11&#45;&gt;Node12</title>
<path fill="none" stroke="#191970" d="M644.2673,-140.4622C664.0837,-138.8934 685.7434,-137.1786 706.6312,-135.525"/>
<polygon fill="#191970" stroke="#191970" points="707.1192,-138.9974 716.8117,-134.7191 706.5667,-132.0193 707.1192,-138.9974"/>
</g>
</g>
</svg>
