<?xml version="1.0" encoding="UTF-8" standalone="no"?>
<!DOCTYPE svg PUBLIC "-//W3C//DTD SVG 1.1//EN"
 "http://www.w3.org/Graphics/SVG/1.1/DTD/svg11.dtd">
<!-- Generated by graphviz version 2.40.1 (0)
 -->
<!-- Title: utils/include/utils/paths.h Pages: 1 -->
<svg width="292pt" height="95pt"
 viewBox="0.00 0.00 292.00 95.00" xmlns="http://www.w3.org/2000/svg" xmlns:xlink="http://www.w3.org/1999/xlink">
<g id="graph0" class="graph" transform="scale(1 1) rotate(0) translate(4 91)">
<title>utils/include/utils/paths.h</title>
<!-- Node3 -->
<g id="node1" class="node">
<title>Node3</title>
<g id="a_node1"><a xlink:title=" ">
<polygon fill="#bfbfbf" stroke="#000000" points="64,-56.5 64,-86.5 223,-86.5 223,-56.5 64,-56.5"/>
<text text-anchor="start" x="72" y="-74.5" font-family="Helvetica,sans-Serif" font-size="10.00" fill="#000000">utils/include/utils</text>
<text text-anchor="middle" x="143.5" y="-63.5" font-family="Helvetica,sans-Serif" font-size="10.00" fill="#000000">/paths.h</text>
</a>
</g>
</g>
<!-- Node4 -->
<g id="node2" class="node">
<title>Node4</title>
<g id="a_node2"><a xlink:href="config_8cpp.html" target="_top" xlink:title=" ">
<polygon fill="none" stroke="#000000" points="0,-.5 0,-19.5 137,-19.5 137,-.5 0,-.5"/>
<text text-anchor="middle" x="68.5" y="-7.5" font-family="Helvetica,sans-Serif" font-size="10.00" fill="#000000">utils/config.cpp</text>
</a>
</g>
</g>
<!-- Node3&#45;&gt;Node4 -->
<g id="edge1" class="edge">
<title>Node3&#45;&gt;Node4</title>
<path fill="none" stroke="#191970" d="M117.0879,-49.8421C104.6138,-39.6133 90.3411,-27.9097 80.5084,-19.8469"/>
<polygon fill="#191970" stroke="#191970" points="115.0087,-52.6634 124.9607,-56.2977 119.4473,-47.2505 115.0087,-52.6634"/>
</g>
<!-- Node5 -->
<g id="node3" class="node">
<title>Node5</title>
<g id="a_node3"><a xlink:href="paths_8cpp.html" target="_top" xlink:title=" ">
<polygon fill="none" stroke="#000000" points="155,-.5 155,-19.5 284,-19.5 284,-.5 155,-.5"/>
<text text-anchor="middle" x="219.5" y="-7.5" font-family="Helvetica,sans-Serif" font-size="10.00" fill="#000000">utils/paths.cpp</text>
</a>
</g>
</g>
<!-- Node3&#45;&gt;Node5 -->
<g id="edge2" class="edge">
<title>Node3&#45;&gt;Node5</title>
<path fill="none" stroke="#191970" d="M170.2643,-49.8421C182.9047,-39.6133 197.3677,-27.9097 207.3314,-19.8469"/>
<polygon fill="#191970" stroke="#191970" points="167.8585,-47.2864 162.2865,-56.2977 172.2619,-52.728 167.8585,-47.2864"/>
</g>
</g>
</svg>
