<?xml version="1.0" encoding="UTF-8" standalone="no"?>
<!DOCTYPE svg PUBLIC "-//W3C//DTD SVG 1.1//EN"
 "http://www.w3.org/Graphics/SVG/1.1/DTD/svg11.dtd">
<!-- Generated by graphviz version 2.40.1 (0)
 -->
<!-- Title: utils/include/utils/paths.h Pages: 1 -->
<svg width="300pt" height="95pt"
 viewBox="0.00 0.00 299.50 95.00" xmlns="http://www.w3.org/2000/svg" xmlns:xlink="http://www.w3.org/1999/xlink">
<g id="graph0" class="graph" transform="scale(1 1) rotate(0) translate(4 91)">
<title>utils/include/utils/paths.h</title>
<!-- Node3 -->
<g id="node1" class="node">
<title>Node3</title>
<g id="a_node1"><a xlink:title=" ">
<polygon fill="#bfbfbf" stroke="#000000" points="69.5,-56.5 69.5,-86.5 228.5,-86.5 228.5,-56.5 69.5,-56.5"/>
<text text-anchor="start" x="77.5" y="-74.5" font-family="Helvetica,sans-Serif" font-size="10.00" fill="#000000">utils/include/utils</text>
<text text-anchor="middle" x="149" y="-63.5" font-family="Helvetica,sans-Serif" font-size="10.00" fill="#000000">/paths.h</text>
</a>
</g>
</g>
<!-- Node4 -->
<g id="node2" class="node">
<title>Node4</title>
<g id="a_node2"><a xlink:href="config_8cpp.html" target="_top" xlink:title=" ">
<polygon fill="none" stroke="#000000" points="0,-.5 0,-19.5 144,-19.5 144,-.5 0,-.5"/>
<text text-anchor="middle" x="72" y="-7.5" font-family="Helvetica,sans-Serif" font-size="10.00" fill="#000000">config/config.cpp</text>
</a>
</g>
</g>
<!-- Node3&#45;&gt;Node4 -->
<g id="edge1" class="edge">
<title>Node3&#45;&gt;Node4</title>
<path fill="none" stroke="#191970" d="M121.8836,-49.8421C109.0768,-39.6133 94.4236,-27.9097 84.3287,-19.8469"/>
<polygon fill="#191970" stroke="#191970" points="119.9684,-52.7917 129.9663,-56.2977 124.3369,-47.3222 119.9684,-52.7917"/>
</g>
<!-- Node5 -->
<g id="node3" class="node">
<title>Node5</title>
<g id="a_node3"><a xlink:href="paths_8cpp.html" target="_top" xlink:title=" ">
<polygon fill="none" stroke="#000000" points="162.5,-.5 162.5,-19.5 291.5,-19.5 291.5,-.5 162.5,-.5"/>
<text text-anchor="middle" x="227" y="-7.5" font-family="Helvetica,sans-Serif" font-size="10.00" fill="#000000">utils/paths.cpp</text>
</a>
</g>
</g>
<!-- Node3&#45;&gt;Node5 -->
<g id="edge2" class="edge">
<title>Node3&#45;&gt;Node5</title>
<path fill="none" stroke="#191970" d="M176.4686,-49.8421C189.4416,-39.6133 204.2852,-27.9097 214.5112,-19.8469"/>
<polygon fill="#191970" stroke="#191970" points="173.9666,-47.3577 168.2809,-56.2977 178.3007,-52.8546 173.9666,-47.3577"/>
</g>
</g>
</svg>
