<?xml version="1.0" encoding="UTF-8" standalone="no"?>
<!DOCTYPE svg PUBLIC "-//W3C//DTD SVG 1.1//EN"
 "http://www.w3.org/Graphics/SVG/1.1/DTD/svg11.dtd">
<!-- Generated by graphviz version 2.40.1 (0)
 -->
<!-- Title: utils/paths.cpp Pages: 1 -->
<svg width="880pt" height="140pt"
 viewBox="0.00 0.00 880.00 140.00" xmlns="http://www.w3.org/2000/svg" xmlns:xlink="http://www.w3.org/1999/xlink">
<g id="graph0" class="graph" transform="scale(1 1) rotate(0) translate(4 136)">
<title>utils/paths.cpp</title>
<!-- Node0 -->
<g id="node1" class="node">
<title>Node0</title>
<g id="a_node1"><a xlink:title=" ">
<polygon fill="#bfbfbf" stroke="#000000" points="524.5,-112.5 524.5,-131.5 653.5,-131.5 653.5,-112.5 524.5,-112.5"/>
<text text-anchor="middle" x="589" y="-119.5" font-family="Helvetica,sans-Serif" font-size="10.00" fill="#000000">utils/paths.cpp</text>
</a>
</g>
</g>
<!-- Node1 -->
<g id="node2" class="node">
<title>Node1</title>
<g id="a_node2"><a xlink:href="paths_8h.html" target="_top" xlink:title=" ">
<polygon fill="none" stroke="#000000" points="90,-56.5 90,-75.5 204,-75.5 204,-56.5 90,-56.5"/>
<text text-anchor="middle" x="147" y="-63.5" font-family="Helvetica,sans-Serif" font-size="10.00" fill="#000000">utils/paths.h</text>
</a>
</g>
</g>
<!-- Node0&#45;&gt;Node1 -->
<g id="edge1" class="edge">
<title>Node0&#45;&gt;Node1</title>
<path fill="none" stroke="#191970" d="M524.3903,-114.6653C451.5487,-106.2677 329.3053,-91.7899 214.2622,-76.1436"/>
<polygon fill="#191970" stroke="#191970" points="214.6046,-72.6579 204.223,-74.7726 213.6574,-79.5935 214.6046,-72.6579"/>
</g>
<!-- Node4 -->
<g id="node5" class="node">
<title>Node4</title>
<g id="a_node5"><a xlink:href="exception_8h.html" target="_top" xlink:title=" ">
<polygon fill="none" stroke="#000000" points="222,-56.5 222,-75.5 366,-75.5 366,-56.5 222,-56.5"/>
<text text-anchor="middle" x="294" y="-63.5" font-family="Helvetica,sans-Serif" font-size="10.00" fill="#000000">utils/exception.h</text>
</a>
</g>
</g>
<!-- Node0&#45;&gt;Node4 -->
<g id="edge4" class="edge">
<title>Node0&#45;&gt;Node4</title>
<path fill="none" stroke="#191970" d="M538.6229,-112.4369C487.4995,-102.7321 408.3545,-87.708 354.0147,-77.3926"/>
<polygon fill="#191970" stroke="#191970" points="354.6467,-73.9502 344.1693,-75.5237 353.3411,-80.8273 354.6467,-73.9502"/>
</g>
<!-- Node7 -->
<g id="node8" class="node">
<title>Node7</title>
<g id="a_node8"><a xlink:href="scope__exit_8h.html" target="_top" xlink:title=" ">
<polygon fill="none" stroke="#000000" points="384,-56.5 384,-75.5 536,-75.5 536,-56.5 384,-56.5"/>
<text text-anchor="middle" x="460" y="-63.5" font-family="Helvetica,sans-Serif" font-size="10.00" fill="#000000">utils/scope_exit.h</text>
</a>
</g>
</g>
<!-- Node0&#45;&gt;Node7 -->
<g id="edge8" class="edge">
<title>Node0&#45;&gt;Node7</title>
<path fill="none" stroke="#191970" d="M566.8241,-112.3733C546.0234,-103.3435 514.7083,-89.7494 491.3542,-79.6111"/>
<polygon fill="#191970" stroke="#191970" points="492.4532,-76.2727 481.8865,-75.5011 489.6657,-82.6938 492.4532,-76.2727"/>
</g>
<!-- Node9 -->
<g id="node10" class="node">
<title>Node9</title>
<g id="a_node10"><a xlink:title=" ">
<polygon fill="none" stroke="#bfbfbf" points="554.5,-56.5 554.5,-75.5 623.5,-75.5 623.5,-56.5 554.5,-56.5"/>
<text text-anchor="middle" x="589" y="-63.5" font-family="Helvetica,sans-Serif" font-size="10.00" fill="#000000">cstdlib</text>
</a>
</g>
</g>
<!-- Node0&#45;&gt;Node9 -->
<g id="edge10" class="edge">
<title>Node0&#45;&gt;Node9</title>
<path fill="none" stroke="#191970" d="M589,-112.2455C589,-104.9382 589,-94.6944 589,-85.7046"/>
<polygon fill="#191970" stroke="#191970" points="592.5001,-85.6426 589,-75.6427 585.5001,-85.6427 592.5001,-85.6426"/>
</g>
<!-- Node10 -->
<g id="node11" class="node">
<title>Node10</title>
<g id="a_node11"><a xlink:title=" ">
<polygon fill="none" stroke="#bfbfbf" points="642,-56.5 642,-75.5 696,-75.5 696,-56.5 642,-56.5"/>
<text text-anchor="middle" x="669" y="-63.5" font-family="Helvetica,sans-Serif" font-size="10.00" fill="#000000">pwd.h</text>
</a>
</g>
</g>
<!-- Node0&#45;&gt;Node10 -->
<g id="edge11" class="edge">
<title>Node0&#45;&gt;Node10</title>
<path fill="none" stroke="#191970" d="M602.9349,-112.2455C615.0947,-103.7337 632.9464,-91.2375 647.0285,-81.3801"/>
<polygon fill="#191970" stroke="#191970" points="649.0395,-84.2447 655.2248,-75.6427 645.0253,-78.51 649.0395,-84.2447"/>
</g>
<!-- Node11 -->
<g id="node12" class="node">
<title>Node11</title>
<g id="a_node12"><a xlink:title=" ">
<polygon fill="none" stroke="#bfbfbf" points="714.5,-56.5 714.5,-75.5 791.5,-75.5 791.5,-56.5 714.5,-56.5"/>
<text text-anchor="middle" x="753" y="-63.5" font-family="Helvetica,sans-Serif" font-size="10.00" fill="#000000">unistd.h</text>
</a>
</g>
</g>
<!-- Node0&#45;&gt;Node11 -->
<g id="edge12" class="edge">
<title>Node0&#45;&gt;Node11</title>
<path fill="none" stroke="#191970" d="M617.1926,-112.3733C644.3453,-103.1016 685.5907,-89.0178 715.5025,-78.804"/>
<polygon fill="#191970" stroke="#191970" points="716.8428,-82.0449 725.1753,-75.5011 714.5808,-75.4204 716.8428,-82.0449"/>
</g>
<!-- Node12 -->
<g id="node13" class="node">
<title>Node12</title>
<g id="a_node13"><a xlink:title=" ">
<polygon fill="none" stroke="#bfbfbf" points="810,-56.5 810,-75.5 872,-75.5 872,-56.5 810,-56.5"/>
<text text-anchor="middle" x="841" y="-63.5" font-family="Helvetica,sans-Serif" font-size="10.00" fill="#000000">vector</text>
</a>
</g>
</g>
<!-- Node0&#45;&gt;Node12 -->
<g id="edge13" class="edge">
<title>Node0&#45;&gt;Node12</title>
<path fill="none" stroke="#191970" d="M634.9969,-112.4533C675.8179,-103.8833 737.3282,-90.733 799.5845,-76.2835"/>
<polygon fill="#191970" stroke="#191970" points="800.6352,-79.6325 809.5796,-73.9538 799.0461,-72.8152 800.6352,-79.6325"/>
</g>
<!-- Node2 -->
<g id="node3" class="node">
<title>Node2</title>
<g id="a_node3"><a xlink:title=" ">
<polygon fill="none" stroke="#bfbfbf" points="0,-.5 0,-19.5 92,-19.5 92,-.5 0,-.5"/>
<text text-anchor="middle" x="46" y="-7.5" font-family="Helvetica,sans-Serif" font-size="10.00" fill="#000000">filesystem</text>
</a>
</g>
</g>
<!-- Node1&#45;&gt;Node2 -->
<g id="edge2" class="edge">
<title>Node1&#45;&gt;Node2</title>
<path fill="none" stroke="#191970" d="M129.4071,-56.2455C113.621,-47.4928 90.2361,-34.527 72.2413,-24.5496"/>
<polygon fill="#191970" stroke="#191970" points="73.8341,-21.4308 63.3913,-19.6427 70.4397,-27.5528 73.8341,-21.4308"/>
</g>
<!-- Node3 -->
<g id="node4" class="node">
<title>Node3</title>
<g id="a_node4"><a xlink:title=" ">
<polygon fill="none" stroke="#bfbfbf" points="110.5,-.5 110.5,-19.5 209.5,-19.5 209.5,-.5 110.5,-.5"/>
<text text-anchor="middle" x="160" y="-7.5" font-family="Helvetica,sans-Serif" font-size="10.00" fill="#000000">string_view</text>
</a>
</g>
</g>
<!-- Node1&#45;&gt;Node3 -->
<g id="edge3" class="edge">
<title>Node1&#45;&gt;Node3</title>
<path fill="none" stroke="#191970" d="M149.2644,-56.2455C150.9794,-48.8579 153.3912,-38.4689 155.4944,-29.4087"/>
<polygon fill="#191970" stroke="#191970" points="158.9095,-30.1751 157.7615,-19.6427 152.0908,-28.5922 158.9095,-30.1751"/>
</g>
<!-- Node4&#45;&gt;Node3 -->
<g id="edge7" class="edge">
<title>Node4&#45;&gt;Node3</title>
<path fill="none" stroke="#191970" d="M270.9646,-56.3733C249.2612,-47.3032 216.5382,-33.6279 192.245,-23.4755"/>
<polygon fill="#191970" stroke="#191970" points="193.3111,-20.1278 182.7348,-19.5011 190.6119,-26.5865 193.3111,-20.1278"/>
</g>
<!-- Node5 -->
<g id="node6" class="node">
<title>Node5</title>
<g id="a_node6"><a xlink:title=" ">
<polygon fill="none" stroke="#bfbfbf" points="227.5,-.5 227.5,-19.5 334.5,-19.5 334.5,-.5 227.5,-.5"/>
<text text-anchor="middle" x="281" y="-7.5" font-family="Helvetica,sans-Serif" font-size="10.00" fill="#000000">fmt/format.h</text>
</a>
</g>
</g>
<!-- Node4&#45;&gt;Node5 -->
<g id="edge5" class="edge">
<title>Node4&#45;&gt;Node5</title>
<path fill="none" stroke="#191970" d="M291.7356,-56.2455C290.0206,-48.8579 287.6088,-38.4689 285.5056,-29.4087"/>
<polygon fill="#191970" stroke="#191970" points="288.9092,-28.5922 283.2385,-19.6427 282.0905,-30.1751 288.9092,-28.5922"/>
</g>
<!-- Node6 -->
<g id="node7" class="node">
<title>Node6</title>
<g id="a_node7"><a xlink:title=" ">
<polygon fill="none" stroke="#bfbfbf" points="352,-.5 352,-19.5 436,-19.5 436,-.5 352,-.5"/>
<text text-anchor="middle" x="394" y="-7.5" font-family="Helvetica,sans-Serif" font-size="10.00" fill="#000000">stdexcept</text>
</a>
</g>
</g>
<!-- Node4&#45;&gt;Node6 -->
<g id="edge6" class="edge">
<title>Node4&#45;&gt;Node6</title>
<path fill="none" stroke="#191970" d="M311.4187,-56.2455C327.0485,-47.4928 350.2019,-34.527 368.0185,-24.5496"/>
<polygon fill="#191970" stroke="#191970" points="369.766,-27.5825 376.7809,-19.6427 366.3457,-21.475 369.766,-27.5825"/>
</g>
<!-- Node8 -->
<g id="node9" class="node">
<title>Node8</title>
<g id="a_node9"><a xlink:title=" ">
<polygon fill="none" stroke="#bfbfbf" points="454,-.5 454,-19.5 546,-19.5 546,-.5 454,-.5"/>
<text text-anchor="middle" x="500" y="-7.5" font-family="Helvetica,sans-Serif" font-size="10.00" fill="#000000">functional</text>
</a>
</g>
</g>
<!-- Node7&#45;&gt;Node8 -->
<g id="edge9" class="edge">
<title>Node7&#45;&gt;Node8</title>
<path fill="none" stroke="#191970" d="M466.9675,-56.2455C472.5311,-48.4564 480.478,-37.3308 487.1829,-27.9439"/>
<polygon fill="#191970" stroke="#191970" points="490.148,-29.8144 493.1124,-19.6427 484.4519,-25.7457 490.148,-29.8144"/>
</g>
</g>
</svg>
