<?xml version="1.0" encoding="UTF-8" standalone="no"?>
<!DOCTYPE svg PUBLIC "-//W3C//DTD SVG 1.1//EN"
 "http://www.w3.org/Graphics/SVG/1.1/DTD/svg11.dtd">
<!-- Generated by graphviz version 2.40.1 (0)
 -->
<!-- Title: libsoe/picture.cpp Pages: 1 -->
<svg width="161pt" height="140pt"
 viewBox="0.00 0.00 160.50 140.00" xmlns="http://www.w3.org/2000/svg" xmlns:xlink="http://www.w3.org/1999/xlink">
<g id="graph0" class="graph" transform="scale(1 1) rotate(0) translate(4 136)">
<title>libsoe/picture.cpp</title>
<!-- Node0 -->
<g id="node1" class="node">
<title>Node0</title>
<g id="a_node1"><a xlink:title=" ">
<polygon fill="#bfbfbf" stroke="#000000" points=".5,-112.5 .5,-131.5 152.5,-131.5 152.5,-112.5 .5,-112.5"/>
<text text-anchor="middle" x="76.5" y="-119.5" font-family="Helvetica,sans-Serif" font-size="10.00" fill="#000000">libsoe/picture.cpp</text>
</a>
</g>
</g>
<!-- Node1 -->
<g id="node2" class="node">
<title>Node1</title>
<g id="a_node2"><a xlink:href="picture_8h.html" target="_top" xlink:title=" ">
<polygon fill="none" stroke="#000000" points="19.5,-56.5 19.5,-75.5 133.5,-75.5 133.5,-56.5 19.5,-56.5"/>
<text text-anchor="middle" x="76.5" y="-63.5" font-family="Helvetica,sans-Serif" font-size="10.00" fill="#000000">soe/picture.h</text>
</a>
</g>
</g>
<!-- Node0&#45;&gt;Node1 -->
<g id="edge1" class="edge">
<title>Node0&#45;&gt;Node1</title>
<path fill="none" stroke="#191970" d="M76.5,-112.2455C76.5,-104.9382 76.5,-94.6944 76.5,-85.7046"/>
<polygon fill="#191970" stroke="#191970" points="80.0001,-85.6426 76.5,-75.6427 73.0001,-85.6427 80.0001,-85.6426"/>
</g>
<!-- Node2 -->
<g id="node3" class="node">
<title>Node2</title>
<g id="a_node3"><a xlink:title=" ">
<polygon fill="none" stroke="#bfbfbf" points="0,-.5 0,-19.5 69,-19.5 69,-.5 0,-.5"/>
<text text-anchor="middle" x="34.5" y="-7.5" font-family="Helvetica,sans-Serif" font-size="10.00" fill="#000000">cstdint</text>
</a>
</g>
</g>
<!-- Node1&#45;&gt;Node2 -->
<g id="edge2" class="edge">
<title>Node1&#45;&gt;Node2</title>
<path fill="none" stroke="#191970" d="M69.1842,-56.2455C63.2821,-48.3761 54.8258,-37.101 47.7406,-27.6542"/>
<polygon fill="#191970" stroke="#191970" points="50.5321,-25.5427 41.732,-19.6427 44.932,-29.7427 50.5321,-25.5427"/>
</g>
<!-- Node3 -->
<g id="node4" class="node">
<title>Node3</title>
<g id="a_node4"><a xlink:title=" ">
<polygon fill="none" stroke="#bfbfbf" points="87.5,-.5 87.5,-19.5 149.5,-19.5 149.5,-.5 87.5,-.5"/>
<text text-anchor="middle" x="118.5" y="-7.5" font-family="Helvetica,sans-Serif" font-size="10.00" fill="#000000">vector</text>
</a>
</g>
</g>
<!-- Node1&#45;&gt;Node3 -->
<g id="edge3" class="edge">
<title>Node1&#45;&gt;Node3</title>
<path fill="none" stroke="#191970" d="M83.8158,-56.2455C89.7179,-48.3761 98.1742,-37.101 105.2594,-27.6542"/>
<polygon fill="#191970" stroke="#191970" points="108.068,-29.7427 111.268,-19.6427 102.4679,-25.5427 108.068,-29.7427"/>
</g>
</g>
</svg>
