<?xml version="1.0" encoding="UTF-8" standalone="no"?>
<!DOCTYPE svg PUBLIC "-//W3C//DTD SVG 1.1//EN"
 "http://www.w3.org/Graphics/SVG/1.1/DTD/svg11.dtd">
<!-- Generated by graphviz version 2.40.1 (0)
 -->
<!-- Title: utils/rand.cpp Pages: 1 -->
<svg width="310pt" height="140pt"
 viewBox="0.00 0.00 310.00 140.00" xmlns="http://www.w3.org/2000/svg" xmlns:xlink="http://www.w3.org/1999/xlink">
<g id="graph0" class="graph" transform="scale(1 1) rotate(0) translate(4 136)">
<title>utils/rand.cpp</title>
<!-- Node0 -->
<g id="node1" class="node">
<title>Node0</title>
<g id="a_node1"><a xlink:title=" ">
<polygon fill="#bfbfbf" stroke="#000000" points="119,-112.5 119,-131.5 241,-131.5 241,-112.5 119,-112.5"/>
<text text-anchor="middle" x="180" y="-119.5" font-family="Helvetica,sans-Serif" font-size="10.00" fill="#000000">utils/rand.cpp</text>
</a>
</g>
</g>
<!-- Node1 -->
<g id="node2" class="node">
<title>Node1</title>
<g id="a_node2"><a xlink:href="rand_8h.html" target="_top" xlink:title=" ">
<polygon fill="none" stroke="#000000" points="13.5,-56.5 13.5,-75.5 120.5,-75.5 120.5,-56.5 13.5,-56.5"/>
<text text-anchor="middle" x="67" y="-63.5" font-family="Helvetica,sans-Serif" font-size="10.00" fill="#000000">utils/rand.h</text>
</a>
</g>
</g>
<!-- Node0&#45;&gt;Node1 -->
<g id="edge1" class="edge">
<title>Node0&#45;&gt;Node1</title>
<path fill="none" stroke="#191970" d="M160.5746,-112.3733C142.5979,-103.4644 115.6559,-90.1127 95.291,-80.0203"/>
<polygon fill="#191970" stroke="#191970" points="96.6861,-76.8055 86.1719,-75.5011 93.5778,-83.0776 96.6861,-76.8055"/>
</g>
<!-- Node4 -->
<g id="node5" class="node">
<title>Node4</title>
<g id="a_node5"><a xlink:title=" ">
<polygon fill="none" stroke="#bfbfbf" points="138,-56.5 138,-75.5 222,-75.5 222,-56.5 138,-56.5"/>
<text text-anchor="middle" x="180" y="-63.5" font-family="Helvetica,sans-Serif" font-size="10.00" fill="#000000">algorithm</text>
</a>
</g>
</g>
<!-- Node0&#45;&gt;Node4 -->
<g id="edge4" class="edge">
<title>Node0&#45;&gt;Node4</title>
<path fill="none" stroke="#191970" d="M180,-112.2455C180,-104.9382 180,-94.6944 180,-85.7046"/>
<polygon fill="#191970" stroke="#191970" points="183.5001,-85.6426 180,-75.6427 176.5001,-85.6427 183.5001,-85.6426"/>
</g>
<!-- Node5 -->
<g id="node6" class="node">
<title>Node5</title>
<g id="a_node6"><a xlink:title=" ">
<polygon fill="none" stroke="#bfbfbf" points="240,-56.5 240,-75.5 302,-75.5 302,-56.5 240,-56.5"/>
<text text-anchor="middle" x="271" y="-63.5" font-family="Helvetica,sans-Serif" font-size="10.00" fill="#000000">random</text>
</a>
</g>
</g>
<!-- Node0&#45;&gt;Node5 -->
<g id="edge5" class="edge">
<title>Node0&#45;&gt;Node5</title>
<path fill="none" stroke="#191970" d="M195.851,-112.2455C209.8132,-103.6534 230.3728,-91.0014 246.4596,-81.1018"/>
<polygon fill="#191970" stroke="#191970" points="248.6484,-83.8645 255.3307,-75.6427 244.9797,-77.9029 248.6484,-83.8645"/>
</g>
<!-- Node2 -->
<g id="node3" class="node">
<title>Node2</title>
<g id="a_node3"><a xlink:title=" ">
<polygon fill="none" stroke="#bfbfbf" points="0,-.5 0,-19.5 54,-19.5 54,-.5 0,-.5"/>
<text text-anchor="middle" x="27" y="-7.5" font-family="Helvetica,sans-Serif" font-size="10.00" fill="#000000">array</text>
</a>
</g>
</g>
<!-- Node1&#45;&gt;Node2 -->
<g id="edge2" class="edge">
<title>Node1&#45;&gt;Node2</title>
<path fill="none" stroke="#191970" d="M60.0325,-56.2455C54.4689,-48.4564 46.522,-37.3308 39.8171,-27.9439"/>
<polygon fill="#191970" stroke="#191970" points="42.5481,-25.7457 33.8876,-19.6427 36.852,-29.8144 42.5481,-25.7457"/>
</g>
<!-- Node3 -->
<g id="node4" class="node">
<title>Node3</title>
<g id="a_node4"><a xlink:title=" ">
<polygon fill="none" stroke="#bfbfbf" points="72.5,-.5 72.5,-19.5 141.5,-19.5 141.5,-.5 72.5,-.5"/>
<text text-anchor="middle" x="107" y="-7.5" font-family="Helvetica,sans-Serif" font-size="10.00" fill="#000000">cstdint</text>
</a>
</g>
</g>
<!-- Node1&#45;&gt;Node3 -->
<g id="edge3" class="edge">
<title>Node1&#45;&gt;Node3</title>
<path fill="none" stroke="#191970" d="M73.9675,-56.2455C79.5311,-48.4564 87.478,-37.3308 94.1829,-27.9439"/>
<polygon fill="#191970" stroke="#191970" points="97.148,-29.8144 100.1124,-19.6427 91.4519,-25.7457 97.148,-29.8144"/>
</g>
</g>
</svg>
