<?xml version="1.0" encoding="UTF-8" standalone="no"?>
<!DOCTYPE svg PUBLIC "-//W3C//DTD SVG 1.1//EN"
 "http://www.w3.org/Graphics/SVG/1.1/DTD/svg11.dtd">
<!-- Generated by graphviz version 2.40.1 (0)
 -->
<!-- Title: utils::RandF::operator() Pages: 1 -->
<svg width="633pt" height="39pt"
 viewBox="0.00 0.00 633.00 39.00" xmlns="http://www.w3.org/2000/svg" xmlns:xlink="http://www.w3.org/1999/xlink">
<g id="graph0" class="graph" transform="scale(1 1) rotate(0) translate(4 35)">
<title>utils::RandF::operator()</title>
<!-- Node6 -->
<g id="node1" class="node">
<title>Node6</title>
<g id="a_node1"><a xlink:title=" ">
<polygon fill="#bfbfbf" stroke="#000000" points="0,-6 0,-25 197,-25 197,-6 0,-6"/>
<text text-anchor="middle" x="98.5" y="-13" font-family="Helvetica,sans-Serif" font-size="10.00" fill="#000000">utils::RandF::operator()</text>
</a>
</g>
</g>
<!-- Node7 -->
<g id="node2" class="node">
<title>Node7</title>
<g id="a_node2"><a xlink:href="structutils_1_1_rand_f.html#a4fe9346c319a1f33ee6b4dc1a202c99b" target="_top" xlink:title=" ">
<polygon fill="none" stroke="#000000" points="233,-6 233,-25 377,-25 377,-6 233,-6"/>
<text text-anchor="middle" x="305" y="-13" font-family="Helvetica,sans-Serif" font-size="10.00" fill="#000000">utils::RandF::gen</text>
</a>
</g>
</g>
<!-- Node6&#45;&gt;Node7 -->
<g id="edge1" class="edge">
<title>Node6&#45;&gt;Node7</title>
<path fill="none" stroke="#191970" d="M197.2139,-15.5C205.7655,-15.5 214.3587,-15.5 222.7582,-15.5"/>
<polygon fill="#191970" stroke="#191970" points="222.8919,-19.0001 232.8919,-15.5 222.8918,-12.0001 222.8919,-19.0001"/>
</g>
<!-- Node8 -->
<g id="node3" class="node">
<title>Node8</title>
<g id="a_node3"><a xlink:href="namespaceutils_1_1anonymous__namespace_02rand_8cpp_03.html#acd7a8833614bed05674ed60d65c2f89c" target="_top" xlink:title=" ">
<polygon fill="none" stroke="#000000" points="413,-.5 413,-30.5 625,-30.5 625,-.5 413,-.5"/>
<text text-anchor="start" x="421" y="-18.5" font-family="Helvetica,sans-Serif" font-size="10.00" fill="#000000">utils::anonymous_namespace</text>
<text text-anchor="middle" x="519" y="-7.5" font-family="Helvetica,sans-Serif" font-size="10.00" fill="#000000">{rand::cpp}::rotl</text>
</a>
</g>
</g>
<!-- Node7&#45;&gt;Node8 -->
<g id="edge2" class="edge">
<title>Node7&#45;&gt;Node8</title>
<path fill="none" stroke="#191970" d="M377.1523,-15.5C385.4376,-15.5 394.0358,-15.5 402.7162,-15.5"/>
<polygon fill="#191970" stroke="#191970" points="402.93,-19.0001 412.93,-15.5 402.93,-12.0001 402.93,-19.0001"/>
</g>
</g>
</svg>
