<?xml version="1.0" encoding="UTF-8" standalone="no"?>
<!DOCTYPE svg PUBLIC "-//W3C//DTD SVG 1.1//EN"
 "http://www.w3.org/Graphics/SVG/1.1/DTD/svg11.dtd">
<!-- Generated by graphviz version 2.40.1 (0)
 -->
<!-- Title: config::Config::parse_file_content Pages: 1 -->
<svg width="866pt" height="100pt"
 viewBox="0.00 0.00 866.00 99.50" xmlns="http://www.w3.org/2000/svg" xmlns:xlink="http://www.w3.org/1999/xlink">
<g id="graph0" class="graph" transform="scale(1 1) rotate(0) translate(4 95.5)">
<title>config::Config::parse_file_content</title>
<!-- Node32 -->
<g id="node1" class="node">
<title>Node32</title>
<g id="a_node1"><a xlink:title=" ">
<polygon fill="#bfbfbf" stroke="#000000" points="684,-.5 684,-30.5 858,-30.5 858,-.5 684,-.5"/>
<text text-anchor="start" x="692" y="-18.5" font-family="Helvetica,sans-Serif" font-size="10.00" fill="#000000">config::Config::parse</text>
<text text-anchor="middle" x="771" y="-7.5" font-family="Helvetica,sans-Serif" font-size="10.00" fill="#000000">_file_content</text>
</a>
</g>
</g>
<!-- Node33 -->
<g id="node2" class="node">
<title>Node33</title>
<g id="a_node2"><a xlink:href="structconfig_1_1_config.html#a3210465814e32a5c7eba32e449999418" target="_top" xlink:title=" ">
<polygon fill="none" stroke="#000000" points="436,-28 436,-47 648,-47 648,-28 436,-28"/>
<text text-anchor="middle" x="542" y="-35" font-family="Helvetica,sans-Serif" font-size="10.00" fill="#000000">config::Config::parse_file</text>
</a>
</g>
</g>
<!-- Node32&#45;&gt;Node33 -->
<g id="edge1" class="edge">
<title>Node32&#45;&gt;Node33</title>
<path fill="none" stroke="#191970" d="M673.5821,-24.8589C662.8761,-25.8875 651.9662,-26.9356 641.2382,-27.9662"/>
<polygon fill="#191970" stroke="#191970" points="674.1522,-28.3204 683.7717,-23.88 673.4827,-21.3524 674.1522,-28.3204"/>
</g>
<!-- Node35 -->
<g id="node4" class="node">
<title>Node35</title>
<g id="a_node4"><a xlink:href="namespaceconfig_1_1test.html#aaecf6f168613d97556ee5a67a4da8192" target="_top" xlink:title=" ">
<polygon fill="none" stroke="#000000" points="0,-22.5 0,-52.5 152,-52.5 152,-22.5 0,-22.5"/>
<text text-anchor="start" x="8" y="-40.5" font-family="Helvetica,sans-Serif" font-size="10.00" fill="#000000">config::test::TEST</text>
<text text-anchor="middle" x="76" y="-29.5" font-family="Helvetica,sans-Serif" font-size="10.00" fill="#000000">_SUITE</text>
</a>
</g>
</g>
<!-- Node32&#45;&gt;Node35 -->
<g id="edge5" class="edge">
<title>Node32&#45;&gt;Node35</title>
<path fill="none" stroke="#191970" d="M673.4762,-8.1887C557.4088,-1.0579 357.9276,6.2346 188,-12.5 169.5832,-14.5305 149.7664,-18.385 131.9972,-22.4703"/>
<polygon fill="#191970" stroke="#191970" points="673.5548,-11.7005 683.7543,-8.8332 673.993,-4.7142 673.5548,-11.7005"/>
</g>
<!-- Node34 -->
<g id="node3" class="node">
<title>Node34</title>
<g id="a_node3"><a xlink:href="structconfig_1_1_config.html#af7d0bbe0e41a086d991fc545cc886212" target="_top" xlink:title=" ">
<polygon fill="none" stroke="#000000" points="188,-72 188,-91 400,-91 400,-72 188,-72"/>
<text text-anchor="middle" x="294" y="-79" font-family="Helvetica,sans-Serif" font-size="10.00" fill="#000000">config::Config::parse_args</text>
</a>
</g>
</g>
<!-- Node33&#45;&gt;Node34 -->
<g id="edge2" class="edge">
<title>Node33&#45;&gt;Node34</title>
<path fill="none" stroke="#191970" d="M478.1655,-48.8255C437.731,-55.9993 386.0309,-65.1719 347.7073,-71.9713"/>
<polygon fill="#191970" stroke="#191970" points="478.9529,-52.2405 488.1877,-47.0473 477.73,-45.3482 478.9529,-52.2405"/>
</g>
<!-- Node36 -->
<g id="node5" class="node">
<title>Node36</title>
<g id="a_node5"><a xlink:href="structconfig_1_1_config.html#aa74a49a1a5b3dec46be873d829f17f30" target="_top" xlink:title=" ">
<polygon fill="none" stroke="#000000" points="207,-22.5 207,-52.5 381,-52.5 381,-22.5 207,-22.5"/>
<text text-anchor="start" x="215" y="-40.5" font-family="Helvetica,sans-Serif" font-size="10.00" fill="#000000">config::Config::parse</text>
<text text-anchor="middle" x="294" y="-29.5" font-family="Helvetica,sans-Serif" font-size="10.00" fill="#000000">_global_config</text>
</a>
</g>
</g>
<!-- Node33&#45;&gt;Node36 -->
<g id="edge4" class="edge">
<title>Node33&#45;&gt;Node36</title>
<path fill="none" stroke="#191970" d="M425.4972,-37.5C410.6444,-37.5 395.6475,-37.5 381.3633,-37.5"/>
<polygon fill="#191970" stroke="#191970" points="425.7465,-41.0001 435.7464,-37.5 425.7464,-34.0001 425.7465,-41.0001"/>
</g>
<!-- Node34&#45;&gt;Node35 -->
<g id="edge3" class="edge">
<title>Node34&#45;&gt;Node35</title>
<path fill="none" stroke="#191970" d="M228.282,-70.1666C214.9315,-67.7388 200.9993,-65.1146 188,-62.5 172.7652,-59.4357 156.4166,-55.9179 141.0473,-52.5073"/>
<polygon fill="#191970" stroke="#191970" points="227.8905,-73.6523 238.3528,-71.9814 229.132,-66.7633 227.8905,-73.6523"/>
</g>
</g>
</svg>
