<?xml version="1.0" encoding="UTF-8" standalone="no"?>
<!DOCTYPE svg PUBLIC "-//W3C//DTD SVG 1.1//EN"
 "http://www.w3.org/Graphics/SVG/1.1/DTD/svg11.dtd">
<!-- Generated by graphviz version 2.40.1 (0)
 -->
<!-- Title: utils::Config::parse_args Pages: 1 -->
<svg width="843pt" height="61pt"
 viewBox="0.00 0.00 843.00 61.00" xmlns="http://www.w3.org/2000/svg" xmlns:xlink="http://www.w3.org/1999/xlink">
<g id="graph0" class="graph" transform="scale(1 1) rotate(0) translate(4 57)">
<title>utils::Config::parse_args</title>
<!-- Node23 -->
<g id="node1" class="node">
<title>Node23</title>
<g id="a_node1"><a xlink:title=" ">
<polygon fill="#bfbfbf" stroke="#000000" points="0,-28 0,-47 204,-47 204,-28 0,-28"/>
<text text-anchor="middle" x="102" y="-35" font-family="Helvetica,sans-Serif" font-size="10.00" fill="#000000">utils::Config::parse_args</text>
</a>
</g>
</g>
<!-- Node24 -->
<g id="node2" class="node">
<title>Node24</title>
<g id="a_node2"><a xlink:href="structutils_1_1_config.html#a582f735328e8c0b4766654c6b8ccbacd" target="_top" xlink:title=" ">
<polygon fill="none" stroke="#000000" points="683,-22.5 683,-52.5 835,-52.5 835,-22.5 683,-22.5"/>
<text text-anchor="start" x="691" y="-40.5" font-family="Helvetica,sans-Serif" font-size="10.00" fill="#000000">utils::Config::set</text>
<text text-anchor="middle" x="759" y="-29.5" font-family="Helvetica,sans-Serif" font-size="10.00" fill="#000000">_parsed_option</text>
</a>
</g>
</g>
<!-- Node23&#45;&gt;Node24 -->
<g id="edge1" class="edge">
<title>Node23&#45;&gt;Node24</title>
<path fill="none" stroke="#191970" d="M204.2064,-38.6428C313.7248,-39.6877 492.6594,-40.8779 647,-39.5 655.3165,-39.4258 663.98,-39.3205 672.6424,-39.1967"/>
<polygon fill="#191970" stroke="#191970" points="672.844,-42.6941 682.7901,-39.0435 672.7383,-35.6949 672.844,-42.6941"/>
</g>
<!-- Node25 -->
<g id="node3" class="node">
<title>Node25</title>
<g id="a_node3"><a xlink:href="structutils_1_1_config.html#a459561479c9c1ad0816a6ea6de85fd1f" target="_top" xlink:title=" ">
<polygon fill="none" stroke="#000000" points="240,-9 240,-28 444,-28 444,-9 240,-9"/>
<text text-anchor="middle" x="342" y="-16" font-family="Helvetica,sans-Serif" font-size="10.00" fill="#000000">utils::Config::parse_file</text>
</a>
</g>
</g>
<!-- Node23&#45;&gt;Node25 -->
<g id="edge2" class="edge">
<title>Node23&#45;&gt;Node25</title>
<path fill="none" stroke="#191970" d="M204.1296,-29.4147C212.6577,-28.7396 221.3089,-28.0547 229.9058,-27.3741"/>
<polygon fill="#191970" stroke="#191970" points="230.2696,-30.8564 239.9622,-26.578 229.7171,-23.8782 230.2696,-30.8564"/>
</g>
<!-- Node26 -->
<g id="node4" class="node">
<title>Node26</title>
<g id="a_node4"><a xlink:href="structutils_1_1_config.html#ab5ca15af8b27ceafb626caf6080cc147" target="_top" xlink:title=" ">
<polygon fill="none" stroke="#000000" points="480,-.5 480,-30.5 647,-30.5 647,-.5 480,-.5"/>
<text text-anchor="start" x="488" y="-18.5" font-family="Helvetica,sans-Serif" font-size="10.00" fill="#000000">utils::Config::parse</text>
<text text-anchor="middle" x="563.5" y="-7.5" font-family="Helvetica,sans-Serif" font-size="10.00" fill="#000000">_file_content</text>
</a>
</g>
</g>
<!-- Node25&#45;&gt;Node26 -->
<g id="edge3" class="edge">
<title>Node25&#45;&gt;Node26</title>
<path fill="none" stroke="#191970" d="M444.3212,-17.1142C452.7829,-16.9996 461.3105,-16.8841 469.7051,-16.7704"/>
<polygon fill="#191970" stroke="#191970" points="469.9135,-20.268 479.8652,-16.6328 469.8187,-13.2686 469.9135,-20.268"/>
</g>
<!-- Node26&#45;&gt;Node24 -->
<g id="edge4" class="edge">
<title>Node26&#45;&gt;Node24</title>
<path fill="none" stroke="#191970" d="M647.2604,-24.9257C655.6598,-25.8709 664.1999,-26.832 672.6258,-27.7801"/>
<polygon fill="#191970" stroke="#191970" points="672.5009,-31.2881 682.8296,-28.9284 673.2838,-24.332 672.5009,-31.2881"/>
</g>
</g>
</svg>
