<?xml version="1.0" encoding="UTF-8" standalone="no"?>
<!DOCTYPE svg PUBLIC "-//W3C//DTD SVG 1.1//EN"
 "http://www.w3.org/Graphics/SVG/1.1/DTD/svg11.dtd">
<!-- Generated by graphviz version 2.40.1 (0)
 -->
<!-- Title: utils::Config::parse_global_config Pages: 1 -->
<svg width="806pt" height="72pt"
 viewBox="0.00 0.00 806.00 71.50" xmlns="http://www.w3.org/2000/svg" xmlns:xlink="http://www.w3.org/1999/xlink">
<g id="graph0" class="graph" transform="scale(1 1) rotate(0) translate(4 67.5)">
<title>utils::Config::parse_global_config</title>
<!-- Node47 -->
<g id="node1" class="node">
<title>Node47</title>
<g id="a_node1"><a xlink:title=" ">
<polygon fill="#bfbfbf" stroke="#000000" points="0,-14 0,-44 167,-44 167,-14 0,-14"/>
<text text-anchor="start" x="8" y="-32" font-family="Helvetica,sans-Serif" font-size="10.00" fill="#000000">utils::Config::parse</text>
<text text-anchor="middle" x="83.5" y="-21" font-family="Helvetica,sans-Serif" font-size="10.00" fill="#000000">_global_config</text>
</a>
</g>
</g>
<!-- Node48 -->
<g id="node2" class="node">
<title>Node48</title>
<g id="a_node2"><a xlink:href="structutils_1_1_config.html#a459561479c9c1ad0816a6ea6de85fd1f" target="_top" xlink:title=" ">
<polygon fill="none" stroke="#000000" points="203,-38.5 203,-57.5 407,-57.5 407,-38.5 203,-38.5"/>
<text text-anchor="middle" x="305" y="-45.5" font-family="Helvetica,sans-Serif" font-size="10.00" fill="#000000">utils::Config::parse_file</text>
</a>
</g>
</g>
<!-- Node47&#45;&gt;Node48 -->
<g id="edge1" class="edge">
<title>Node47&#45;&gt;Node48</title>
<path fill="none" stroke="#191970" d="M167.2397,-36.1831C175.6048,-36.9006 184.1888,-37.637 192.7846,-38.3743"/>
<polygon fill="#191970" stroke="#191970" points="192.6058,-41.8717 202.8684,-39.2393 193.2041,-34.8973 192.6058,-41.8717"/>
</g>
<!-- Node51 -->
<g id="node5" class="node">
<title>Node51</title>
<g id="a_node5"><a xlink:href="namespaceutils.html#a5064b3980eb7aa98e3daf3bb12b3c3d8" target="_top" xlink:title=" ">
<polygon fill="none" stroke="#000000" points="214,-.5 214,-19.5 396,-19.5 396,-.5 214,-.5"/>
<text text-anchor="middle" x="305" y="-7.5" font-family="Helvetica,sans-Serif" font-size="10.00" fill="#000000">utils::get_kiwixz_home</text>
</a>
</g>
</g>
<!-- Node47&#45;&gt;Node51 -->
<g id="edge4" class="edge">
<title>Node47&#45;&gt;Node51</title>
<path fill="none" stroke="#191970" d="M167.2397,-21.8169C179.1078,-20.7989 191.4166,-19.743 203.5745,-18.7002"/>
<polygon fill="#191970" stroke="#191970" points="204.0744,-22.1702 213.7387,-17.8283 203.4761,-15.1958 204.0744,-22.1702"/>
</g>
<!-- Node49 -->
<g id="node3" class="node">
<title>Node49</title>
<g id="a_node3"><a xlink:href="structutils_1_1_config.html#ab5ca15af8b27ceafb626caf6080cc147" target="_top" xlink:title=" ">
<polygon fill="none" stroke="#000000" points="443,-33 443,-63 610,-63 610,-33 443,-33"/>
<text text-anchor="start" x="451" y="-51" font-family="Helvetica,sans-Serif" font-size="10.00" fill="#000000">utils::Config::parse</text>
<text text-anchor="middle" x="526.5" y="-40" font-family="Helvetica,sans-Serif" font-size="10.00" fill="#000000">_file_content</text>
</a>
</g>
</g>
<!-- Node48&#45;&gt;Node49 -->
<g id="edge2" class="edge">
<title>Node48&#45;&gt;Node49</title>
<path fill="none" stroke="#191970" d="M407.3212,-48C415.7829,-48 424.3105,-48 432.7051,-48"/>
<polygon fill="#191970" stroke="#191970" points="432.8652,-51.5001 442.8652,-48 432.8651,-44.5001 432.8652,-51.5001"/>
</g>
<!-- Node50 -->
<g id="node4" class="node">
<title>Node50</title>
<g id="a_node4"><a xlink:href="structutils_1_1_config.html#a582f735328e8c0b4766654c6b8ccbacd" target="_top" xlink:title=" ">
<polygon fill="none" stroke="#000000" points="646,-33 646,-63 798,-63 798,-33 646,-33"/>
<text text-anchor="start" x="654" y="-51" font-family="Helvetica,sans-Serif" font-size="10.00" fill="#000000">utils::Config::set</text>
<text text-anchor="middle" x="722" y="-40" font-family="Helvetica,sans-Serif" font-size="10.00" fill="#000000">_parsed_option</text>
</a>
</g>
</g>
<!-- Node49&#45;&gt;Node50 -->
<g id="edge3" class="edge">
<title>Node49&#45;&gt;Node50</title>
<path fill="none" stroke="#191970" d="M610.2604,-48C618.6598,-48 627.1999,-48 635.6258,-48"/>
<polygon fill="#191970" stroke="#191970" points="635.8297,-51.5001 645.8296,-48 635.8296,-44.5001 635.8297,-51.5001"/>
</g>
</g>
</svg>
