<?xml version="1.0" encoding="UTF-8" standalone="no"?>
<!DOCTYPE svg PUBLIC "-//W3C//DTD SVG 1.1//EN"
 "http://www.w3.org/Graphics/SVG/1.1/DTD/svg11.dtd">
<!-- Generated by graphviz version 2.40.1 (0)
 -->
<!-- Title: soe::FrameStreamCuda::output_frame Pages: 1 -->
<svg width="408pt" height="88pt"
 viewBox="0.00 0.00 408.00 88.00" xmlns="http://www.w3.org/2000/svg" xmlns:xlink="http://www.w3.org/1999/xlink">
<g id="graph0" class="graph" transform="scale(1 1) rotate(0) translate(4 84)">
<title>soe::FrameStreamCuda::output_frame</title>
<!-- Node8 -->
<g id="node1" class="node">
<title>Node8</title>
<g id="a_node1"><a xlink:title=" ">
<polygon fill="#bfbfbf" stroke="#000000" points="0,-19 0,-49 167,-49 167,-19 0,-19"/>
<text text-anchor="start" x="8" y="-37" font-family="Helvetica,sans-Serif" font-size="10.00" fill="#000000">soe::FrameStreamCuda</text>
<text text-anchor="middle" x="83.5" y="-26" font-family="Helvetica,sans-Serif" font-size="10.00" fill="#000000">::output_frame</text>
</a>
</g>
</g>
<!-- Node9 -->
<g id="node2" class="node">
<title>Node9</title>
<g id="a_node2"><a xlink:href="namespacesoe_1_1anonymous__namespace_02frame__stream__cuda_8cpp_03.html#af7a97ab443dda695d370ce02091fc860" target="_top" xlink:title=" ">
<polygon fill="none" stroke="#000000" points="203,-38.5 203,-79.5 400,-79.5 400,-38.5 203,-38.5"/>
<text text-anchor="start" x="211" y="-67.5" font-family="Helvetica,sans-Serif" font-size="10.00" fill="#000000">soe::anonymous_namespace</text>
<text text-anchor="start" x="211" y="-56.5" font-family="Helvetica,sans-Serif" font-size="10.00" fill="#000000">{frame_stream_cuda::cpp}</text>
<text text-anchor="middle" x="301.5" y="-45.5" font-family="Helvetica,sans-Serif" font-size="10.00" fill="#000000">::resize_2c</text>
</a>
</g>
</g>
<!-- Node8&#45;&gt;Node9 -->
<g id="edge1" class="edge">
<title>Node8&#45;&gt;Node9</title>
<path fill="none" stroke="#191970" d="M167.161,-43.5942C175.5323,-44.5542 184.1147,-45.5384 192.6955,-46.5224"/>
<polygon fill="#191970" stroke="#191970" points="192.4215,-50.0138 202.7551,-47.676 193.2191,-43.0594 192.4215,-50.0138"/>
</g>
<!-- Node10 -->
<g id="node3" class="node">
<title>Node10</title>
<g id="a_node3"><a xlink:href="namespacesoe_1_1cuda.html#abd5685966ea7bec06aae6744b87aebb3" target="_top" xlink:title=" ">
<polygon fill="none" stroke="#000000" points="210.5,-.5 210.5,-19.5 392.5,-19.5 392.5,-.5 210.5,-.5"/>
<text text-anchor="middle" x="301.5" y="-7.5" font-family="Helvetica,sans-Serif" font-size="10.00" fill="#000000">soe::cuda::flow_to_map</text>
</a>
</g>
</g>
<!-- Node8&#45;&gt;Node10 -->
<g id="edge2" class="edge">
<title>Node8&#45;&gt;Node10</title>
<path fill="none" stroke="#191970" d="M167.161,-24.7896C179.5726,-23.4232 192.4482,-22.0057 205.0946,-20.6134"/>
<polygon fill="#191970" stroke="#191970" points="205.6174,-24.0771 215.1743,-19.5037 204.8513,-17.1192 205.6174,-24.0771"/>
</g>
</g>
</svg>
