<?xml version="1.0" encoding="UTF-8" standalone="no"?>
<!DOCTYPE svg PUBLIC "-//W3C//DTD SVG 1.1//EN"
 "http://www.w3.org/Graphics/SVG/1.1/DTD/svg11.dtd">
<!-- Generated by graphviz version 2.40.1 (0)
 -->
<!-- Title: config::Config::parse_args Pages: 1 -->
<svg width="873pt" height="61pt"
 viewBox="0.00 0.00 873.00 61.00" xmlns="http://www.w3.org/2000/svg" xmlns:xlink="http://www.w3.org/1999/xlink">
<g id="graph0" class="graph" transform="scale(1 1) rotate(0) translate(4 57)">
<title>config::Config::parse_args</title>
<!-- Node17 -->
<g id="node1" class="node">
<title>Node17</title>
<g id="a_node1"><a xlink:title=" ">
<polygon fill="#bfbfbf" stroke="#000000" points="0,-28 0,-47 212,-47 212,-28 0,-28"/>
<text text-anchor="middle" x="106" y="-35" font-family="Helvetica,sans-Serif" font-size="10.00" fill="#000000">config::Config::parse_args</text>
</a>
</g>
</g>
<!-- Node18 -->
<g id="node2" class="node">
<title>Node18</title>
<g id="a_node2"><a xlink:href="structconfig_1_1_config.html#ae876f154975287de4c120c68061bec1d" target="_top" xlink:title=" ">
<polygon fill="none" stroke="#000000" points="706,-22.5 706,-52.5 865,-52.5 865,-22.5 706,-22.5"/>
<text text-anchor="start" x="714" y="-40.5" font-family="Helvetica,sans-Serif" font-size="10.00" fill="#000000">config::Config::set</text>
<text text-anchor="middle" x="785.5" y="-29.5" font-family="Helvetica,sans-Serif" font-size="10.00" fill="#000000">_parsed_option</text>
</a>
</g>
</g>
<!-- Node17&#45;&gt;Node18 -->
<g id="edge1" class="edge">
<title>Node17&#45;&gt;Node18</title>
<path fill="none" stroke="#191970" d="M212.0301,-38.6471C325.3895,-39.6931 510.4008,-40.8817 670,-39.5 678.3602,-39.4276 687.0603,-39.3258 695.768,-39.206"/>
<polygon fill="#191970" stroke="#191970" points="696.0256,-42.7027 705.9737,-39.0578 695.9239,-35.7035 696.0256,-42.7027"/>
</g>
<!-- Node19 -->
<g id="node3" class="node">
<title>Node19</title>
<g id="a_node3"><a xlink:href="structconfig_1_1_config.html#a3210465814e32a5c7eba32e449999418" target="_top" xlink:title=" ">
<polygon fill="none" stroke="#000000" points="248,-9 248,-28 460,-28 460,-9 248,-9"/>
<text text-anchor="middle" x="354" y="-16" font-family="Helvetica,sans-Serif" font-size="10.00" fill="#000000">config::Config::parse_file</text>
</a>
</g>
</g>
<!-- Node17&#45;&gt;Node19 -->
<g id="edge2" class="edge">
<title>Node17&#45;&gt;Node19</title>
<path fill="none" stroke="#191970" d="M212.2536,-29.3596C220.7579,-28.7081 229.3759,-28.0478 237.9431,-27.3915"/>
<polygon fill="#191970" stroke="#191970" points="238.2638,-30.8772 247.9672,-26.6235 237.729,-23.8977 238.2638,-30.8772"/>
</g>
<!-- Node20 -->
<g id="node4" class="node">
<title>Node20</title>
<g id="a_node4"><a xlink:href="structconfig_1_1_config.html#afc03121b3fae6e2b06d68bfed7249ca0" target="_top" xlink:title=" ">
<polygon fill="none" stroke="#000000" points="496,-.5 496,-30.5 670,-30.5 670,-.5 496,-.5"/>
<text text-anchor="start" x="504" y="-18.5" font-family="Helvetica,sans-Serif" font-size="10.00" fill="#000000">config::Config::parse</text>
<text text-anchor="middle" x="583" y="-7.5" font-family="Helvetica,sans-Serif" font-size="10.00" fill="#000000">_file_content</text>
</a>
</g>
</g>
<!-- Node19&#45;&gt;Node20 -->
<g id="edge3" class="edge">
<title>Node19&#45;&gt;Node20</title>
<path fill="none" stroke="#191970" d="M460.1204,-17.1098C468.6045,-16.9986 477.1503,-16.8867 485.5701,-16.7764"/>
<polygon fill="#191970" stroke="#191970" points="485.812,-20.2736 495.7653,-16.6428 485.7202,-13.2742 485.812,-20.2736"/>
</g>
<!-- Node20&#45;&gt;Node18 -->
<g id="edge4" class="edge">
<title>Node20&#45;&gt;Node18</title>
<path fill="none" stroke="#191970" d="M670.0534,-24.9577C678.6057,-25.8868 687.2958,-26.8309 695.8731,-27.7628"/>
<polygon fill="#191970" stroke="#191970" points="695.5558,-31.2488 705.8754,-28.8494 696.3119,-24.2897 695.5558,-31.2488"/>
</g>
</g>
</svg>
