<?xml version="1.0" encoding="UTF-8" standalone="no"?>
<!DOCTYPE svg PUBLIC "-//W3C//DTD SVG 1.1//EN"
 "http://www.w3.org/Graphics/SVG/1.1/DTD/svg11.dtd">
<!-- Generated by graphviz version 2.40.1 (0)
 -->
<!-- Title: utils::Config::parse_file_content Pages: 1 -->
<svg width="1121pt" height="102pt"
 viewBox="0.00 0.00 1121.00 102.00" xmlns="http://www.w3.org/2000/svg" xmlns:xlink="http://www.w3.org/1999/xlink">
<g id="graph0" class="graph" transform="scale(1 1) rotate(0) translate(4 98)">
<title>utils::Config::parse_file_content</title>
<!-- Node40 -->
<g id="node1" class="node">
<title>Node40</title>
<g id="a_node1"><a xlink:title=" ">
<polygon fill="#bfbfbf" stroke="#000000" points="946,-.5 946,-30.5 1113,-30.5 1113,-.5 946,-.5"/>
<text text-anchor="start" x="954" y="-18.5" font-family="Helvetica,sans-Serif" font-size="10.00" fill="#000000">utils::Config::parse</text>
<text text-anchor="middle" x="1029.5" y="-7.5" font-family="Helvetica,sans-Serif" font-size="10.00" fill="#000000">_file_content</text>
</a>
</g>
</g>
<!-- Node41 -->
<g id="node2" class="node">
<title>Node41</title>
<g id="a_node2"><a xlink:href="structutils_1_1_config.html#a459561479c9c1ad0816a6ea6de85fd1f" target="_top" xlink:title=" ">
<polygon fill="none" stroke="#000000" points="706,-25 706,-44 910,-44 910,-25 706,-25"/>
<text text-anchor="middle" x="808" y="-32" font-family="Helvetica,sans-Serif" font-size="10.00" fill="#000000">utils::Config::parse_file</text>
</a>
</g>
</g>
<!-- Node40&#45;&gt;Node41 -->
<g id="edge1" class="edge">
<title>Node40&#45;&gt;Node41</title>
<path fill="none" stroke="#191970" d="M935.5749,-23.5568C927.1597,-24.2786 918.6117,-25.0119 910.1316,-25.7393"/>
<polygon fill="#191970" stroke="#191970" points="936.0961,-27.025 945.7603,-22.6831 935.4978,-20.0506 936.0961,-27.025"/>
</g>
<!-- Node45 -->
<g id="node6" class="node">
<title>Node45</title>
<g id="a_node6"><a xlink:href="namespaceutils_1_1test.html#ab33de35534fb940b5f0acbbd7826e290" target="_top" xlink:title=" ">
<polygon fill="none" stroke="#000000" points="237,-6 237,-25 426,-25 426,-6 237,-6"/>
<text text-anchor="middle" x="331.5" y="-13" font-family="Helvetica,sans-Serif" font-size="10.00" fill="#000000">utils::test::TEST_SUITE</text>
</a>
</g>
</g>
<!-- Node40&#45;&gt;Node45 -->
<g id="edge8" class="edge">
<title>Node40&#45;&gt;Node45</title>
<path fill="none" stroke="#191970" d="M935.8171,-15.5C802.6489,-15.5 559.9734,-15.5 426.2325,-15.5"/>
<polygon fill="#191970" stroke="#191970" points="935.9982,-19.0001 945.9982,-15.5 935.9982,-12.0001 935.9982,-19.0001"/>
</g>
<!-- Node42 -->
<g id="node3" class="node">
<title>Node42</title>
<g id="a_node3"><a xlink:href="structutils_1_1_config.html#af1e5a2746bab1560d5f0fb7c1a50b939" target="_top" xlink:title=" ">
<polygon fill="none" stroke="#000000" points="466,-25 466,-44 670,-44 670,-25 466,-25"/>
<text text-anchor="middle" x="568" y="-32" font-family="Helvetica,sans-Serif" font-size="10.00" fill="#000000">utils::Config::parse_args</text>
</a>
</g>
</g>
<!-- Node41&#45;&gt;Node42 -->
<g id="edge2" class="edge">
<title>Node41&#45;&gt;Node42</title>
<path fill="none" stroke="#191970" d="M695.8133,-34.5C687.216,-34.5 678.565,-34.5 670.0378,-34.5"/>
<polygon fill="#191970" stroke="#191970" points="695.8704,-38.0001 705.8704,-34.5 695.8704,-31.0001 695.8704,-38.0001"/>
</g>
<!-- Node46 -->
<g id="node7" class="node">
<title>Node46</title>
<g id="a_node7"><a xlink:href="structutils_1_1_config.html#a721b70a9e01d9b680b6976b2d25ef26d" target="_top" xlink:title=" ">
<polygon fill="none" stroke="#000000" points="484.5,-63.5 484.5,-93.5 651.5,-93.5 651.5,-63.5 484.5,-63.5"/>
<text text-anchor="start" x="492.5" y="-81.5" font-family="Helvetica,sans-Serif" font-size="10.00" fill="#000000">utils::Config::parse</text>
<text text-anchor="middle" x="568" y="-70.5" font-family="Helvetica,sans-Serif" font-size="10.00" fill="#000000">_global_config</text>
</a>
</g>
</g>
<!-- Node41&#45;&gt;Node46 -->
<g id="edge6" class="edge">
<title>Node41&#45;&gt;Node46</title>
<path fill="none" stroke="#191970" d="M745.87,-45.8905C716.6939,-51.2394 681.5169,-57.6886 650.1747,-63.4346"/>
<polygon fill="#191970" stroke="#191970" points="746.7187,-49.2933 755.9236,-44.0473 745.4563,-42.4081 746.7187,-49.2933"/>
</g>
<!-- Node43 -->
<g id="node4" class="node">
<title>Node43</title>
<g id="a_node4"><a xlink:href="namespacesoe_1_1anonymous__namespace_02main_8cpp_03.html#a0a1c3f9ecefea3a3fa41db8ad79733bc" target="_top" xlink:title=" ">
<polygon fill="none" stroke="#000000" points="233,-53.5 233,-83.5 430,-83.5 430,-53.5 233,-53.5"/>
<text text-anchor="start" x="241" y="-71.5" font-family="Helvetica,sans-Serif" font-size="10.00" fill="#000000">soe::anonymous_namespace</text>
<text text-anchor="middle" x="331.5" y="-60.5" font-family="Helvetica,sans-Serif" font-size="10.00" fill="#000000">{main::cpp}::main_impl</text>
</a>
</g>
</g>
<!-- Node42&#45;&gt;Node43 -->
<g id="edge3" class="edge">
<title>Node42&#45;&gt;Node43</title>
<path fill="none" stroke="#191970" d="M491.7616,-45.4603C472.2191,-48.2698 450.917,-51.3322 430.4123,-54.2801"/>
<polygon fill="#191970" stroke="#191970" points="492.4069,-48.9036 501.8071,-44.0161 491.4108,-41.9748 492.4069,-48.9036"/>
</g>
<!-- Node42&#45;&gt;Node45 -->
<g id="edge5" class="edge">
<title>Node42&#45;&gt;Node45</title>
<path fill="none" stroke="#191970" d="M456.0066,-25.5026C445.9958,-24.6984 435.925,-23.8893 426.0823,-23.0986"/>
<polygon fill="#191970" stroke="#191970" points="455.7385,-28.9923 465.9867,-26.3044 456.2992,-22.0148 455.7385,-28.9923"/>
</g>
<!-- Node44 -->
<g id="node5" class="node">
<title>Node44</title>
<g id="a_node5"><a xlink:href="namespacesoe_1_1anonymous__namespace_02main_8cpp_03.html#af669b3519bb5e7bf1085235bfc8c43cd" target="_top" xlink:title=" ">
<polygon fill="none" stroke="#000000" points="0,-53.5 0,-83.5 197,-83.5 197,-53.5 0,-53.5"/>
<text text-anchor="start" x="8" y="-71.5" font-family="Helvetica,sans-Serif" font-size="10.00" fill="#000000">soe::anonymous_namespace</text>
<text text-anchor="middle" x="98.5" y="-60.5" font-family="Helvetica,sans-Serif" font-size="10.00" fill="#000000">{main::cpp}::main</text>
</a>
</g>
</g>
<!-- Node43&#45;&gt;Node44 -->
<g id="edge4" class="edge">
<title>Node43&#45;&gt;Node44</title>
<path fill="none" stroke="#191970" d="M222.419,-68.5C213.97,-68.5 205.4688,-68.5 197.094,-68.5"/>
<polygon fill="#191970" stroke="#191970" points="222.6871,-72.0001 232.687,-68.5 222.687,-65.0001 222.6871,-72.0001"/>
</g>
<!-- Node46&#45;&gt;Node43 -->
<g id="edge7" class="edge">
<title>Node46&#45;&gt;Node43</title>
<path fill="none" stroke="#191970" d="M473.8946,-74.5209C459.4845,-73.9116 444.5748,-73.2812 430.0714,-72.6679"/>
<polygon fill="#191970" stroke="#191970" points="474.1472,-78.0346 484.2861,-74.9603 474.4429,-71.0409 474.1472,-78.0346"/>
</g>
</g>
</svg>
