<?xml version="1.0" encoding="UTF-8" standalone="no"?>
<!DOCTYPE svg PUBLIC "-//W3C//DTD SVG 1.1//EN"
 "http://www.w3.org/Graphics/SVG/1.1/DTD/svg11.dtd">
<!-- Generated by graphviz version 2.40.1 (0)
 -->
<!-- Title: utils::Config::parse_global_config Pages: 1 -->
<svg width="641pt" height="39pt"
 viewBox="0.00 0.00 641.00 39.00" xmlns="http://www.w3.org/2000/svg" xmlns:xlink="http://www.w3.org/1999/xlink">
<g id="graph0" class="graph" transform="scale(1 1) rotate(0) translate(4 35)">
<title>utils::Config::parse_global_config</title>
<!-- Node54 -->
<g id="node1" class="node">
<title>Node54</title>
<g id="a_node1"><a xlink:title=" ">
<polygon fill="#bfbfbf" stroke="#000000" points="466,-.5 466,-30.5 633,-30.5 633,-.5 466,-.5"/>
<text text-anchor="start" x="474" y="-18.5" font-family="Helvetica,sans-Serif" font-size="10.00" fill="#000000">utils::Config::parse</text>
<text text-anchor="middle" x="549.5" y="-7.5" font-family="Helvetica,sans-Serif" font-size="10.00" fill="#000000">_global_config</text>
</a>
</g>
</g>
<!-- Node55 -->
<g id="node2" class="node">
<title>Node55</title>
<g id="a_node2"><a xlink:href="namespacesoe_1_1anonymous__namespace_02main_8cpp_03.html#a0a1c3f9ecefea3a3fa41db8ad79733bc" target="_top" xlink:title=" ">
<polygon fill="none" stroke="#000000" points="233,-.5 233,-30.5 430,-30.5 430,-.5 233,-.5"/>
<text text-anchor="start" x="241" y="-18.5" font-family="Helvetica,sans-Serif" font-size="10.00" fill="#000000">soe::anonymous_namespace</text>
<text text-anchor="middle" x="331.5" y="-7.5" font-family="Helvetica,sans-Serif" font-size="10.00" fill="#000000">{main::cpp}::main_impl</text>
</a>
</g>
</g>
<!-- Node54&#45;&gt;Node55 -->
<g id="edge1" class="edge">
<title>Node54&#45;&gt;Node55</title>
<path fill="none" stroke="#191970" d="M455.6502,-15.5C447.236,-15.5 438.6989,-15.5 430.2449,-15.5"/>
<polygon fill="#191970" stroke="#191970" points="455.839,-19.0001 465.839,-15.5 455.8389,-12.0001 455.839,-19.0001"/>
</g>
<!-- Node56 -->
<g id="node3" class="node">
<title>Node56</title>
<g id="a_node3"><a xlink:href="namespacesoe_1_1anonymous__namespace_02main_8cpp_03.html#af669b3519bb5e7bf1085235bfc8c43cd" target="_top" xlink:title=" ">
<polygon fill="none" stroke="#000000" points="0,-.5 0,-30.5 197,-30.5 197,-.5 0,-.5"/>
<text text-anchor="start" x="8" y="-18.5" font-family="Helvetica,sans-Serif" font-size="10.00" fill="#000000">soe::anonymous_namespace</text>
<text text-anchor="middle" x="98.5" y="-7.5" font-family="Helvetica,sans-Serif" font-size="10.00" fill="#000000">{main::cpp}::main</text>
</a>
</g>
</g>
<!-- Node55&#45;&gt;Node56 -->
<g id="edge2" class="edge">
<title>Node55&#45;&gt;Node56</title>
<path fill="none" stroke="#191970" d="M222.419,-15.5C213.97,-15.5 205.4688,-15.5 197.094,-15.5"/>
<polygon fill="#191970" stroke="#191970" points="222.6871,-19.0001 232.687,-15.5 222.687,-12.0001 222.6871,-19.0001"/>
</g>
</g>
</svg>
