<?xml version="1.0" encoding="UTF-8" standalone="no"?>
<!DOCTYPE svg PUBLIC "-//W3C//DTD SVG 1.1//EN"
 "http://www.w3.org/Graphics/SVG/1.1/DTD/svg11.dtd">
<!-- Generated by graphviz version 2.40.1 (0)
 -->
<!-- Title: utils::Config::parse_file_content Pages: 1 -->
<svg width="880pt" height="100pt"
 viewBox="0.00 0.00 880.00 99.50" xmlns="http://www.w3.org/2000/svg" xmlns:xlink="http://www.w3.org/1999/xlink">
<g id="graph0" class="graph" transform="scale(1 1) rotate(0) translate(4 95.5)">
<title>utils::Config::parse_file_content</title>
<!-- Node32 -->
<g id="node1" class="node">
<title>Node32</title>
<g id="a_node1"><a xlink:title=" ">
<polygon fill="#bfbfbf" stroke="#000000" points="705,-.5 705,-30.5 872,-30.5 872,-.5 705,-.5"/>
<text text-anchor="start" x="713" y="-18.5" font-family="Helvetica,sans-Serif" font-size="10.00" fill="#000000">utils::Config::parse</text>
<text text-anchor="middle" x="788.5" y="-7.5" font-family="Helvetica,sans-Serif" font-size="10.00" fill="#000000">_file_content</text>
</a>
</g>
</g>
<!-- Node33 -->
<g id="node2" class="node">
<title>Node33</title>
<g id="a_node2"><a xlink:href="structutils_1_1_config.html#a164a833c182bcaeaa765fe07b394b5a8" target="_top" xlink:title=" ">
<polygon fill="none" stroke="#000000" points="465,-28 465,-47 669,-47 669,-28 465,-28"/>
<text text-anchor="middle" x="567" y="-35" font-family="Helvetica,sans-Serif" font-size="10.00" fill="#000000">utils::Config::parse_file</text>
</a>
</g>
</g>
<!-- Node32&#45;&gt;Node33 -->
<g id="edge1" class="edge">
<title>Node32&#45;&gt;Node33</title>
<path fill="none" stroke="#191970" d="M694.7005,-24.8164C684.1269,-25.8666 673.3421,-26.9378 662.7442,-27.9904"/>
<polygon fill="#191970" stroke="#191970" points="695.1553,-28.2886 704.7603,-23.8173 694.4634,-21.3228 695.1553,-28.2886"/>
</g>
<!-- Node35 -->
<g id="node4" class="node">
<title>Node35</title>
<g id="a_node4"><a xlink:href="namespaceutils_1_1test.html#ab33de35534fb940b5f0acbbd7826e290" target="_top" xlink:title=" ">
<polygon fill="none" stroke="#000000" points="0,-28 0,-47 189,-47 189,-28 0,-28"/>
<text text-anchor="middle" x="94.5" y="-35" font-family="Helvetica,sans-Serif" font-size="10.00" fill="#000000">utils::test::TEST_SUITE</text>
</a>
</g>
</g>
<!-- Node32&#45;&gt;Node35 -->
<g id="edge5" class="edge">
<title>Node32&#45;&gt;Node35</title>
<path fill="none" stroke="#191970" d="M694.4714,-9.28C582.3926,-3.1863 389.5705,3.1214 225,-12.5 193.9972,-15.4429 159.4018,-22.2342 133.6244,-27.9967"/>
<polygon fill="#191970" stroke="#191970" points="694.5501,-12.7897 704.7288,-9.8494 694.9382,-5.8004 694.5501,-12.7897"/>
</g>
<!-- Node34 -->
<g id="node3" class="node">
<title>Node34</title>
<g id="a_node3"><a xlink:href="structutils_1_1_config.html#af1e5a2746bab1560d5f0fb7c1a50b939" target="_top" xlink:title=" ">
<polygon fill="none" stroke="#000000" points="225,-72 225,-91 429,-91 429,-72 225,-72"/>
<text text-anchor="middle" x="327" y="-79" font-family="Helvetica,sans-Serif" font-size="10.00" fill="#000000">utils::Config::parse_args</text>
</a>
</g>
</g>
<!-- Node33&#45;&gt;Node34 -->
<g id="edge2" class="edge">
<title>Node33&#45;&gt;Node34</title>
<path fill="none" stroke="#191970" d="M504.7266,-48.9168C465.6707,-56.077 415.9051,-65.2007 378.9748,-71.9713"/>
<polygon fill="#191970" stroke="#191970" points="505.7187,-52.2933 514.9236,-47.0473 504.4563,-45.4081 505.7187,-52.2933"/>
</g>
<!-- Node36 -->
<g id="node5" class="node">
<title>Node36</title>
<g id="a_node5"><a xlink:href="structutils_1_1_config.html#a721b70a9e01d9b680b6976b2d25ef26d" target="_top" xlink:title=" ">
<polygon fill="none" stroke="#000000" points="243.5,-22.5 243.5,-52.5 410.5,-52.5 410.5,-22.5 243.5,-22.5"/>
<text text-anchor="start" x="251.5" y="-40.5" font-family="Helvetica,sans-Serif" font-size="10.00" fill="#000000">utils::Config::parse</text>
<text text-anchor="middle" x="327" y="-29.5" font-family="Helvetica,sans-Serif" font-size="10.00" fill="#000000">_global_config</text>
</a>
</g>
</g>
<!-- Node33&#45;&gt;Node36 -->
<g id="edge4" class="edge">
<title>Node33&#45;&gt;Node36</title>
<path fill="none" stroke="#191970" d="M454.6324,-37.5C439.7919,-37.5 424.795,-37.5 410.5548,-37.5"/>
<polygon fill="#191970" stroke="#191970" points="454.8704,-41.0001 464.8704,-37.5 454.8704,-34.0001 454.8704,-41.0001"/>
</g>
<!-- Node34&#45;&gt;Node35 -->
<g id="edge3" class="edge">
<title>Node34&#45;&gt;Node35</title>
<path fill="none" stroke="#191970" d="M265.5607,-70.108C252.1879,-67.6138 238.1172,-64.9781 225,-62.5 198.2526,-57.4468 168.4365,-51.7405 144.0635,-47.0567"/>
<polygon fill="#191970" stroke="#191970" points="265.1517,-73.592 275.6236,-71.9829 266.4339,-66.7104 265.1517,-73.592"/>
</g>
</g>
</svg>
