<?xml version="1.0" encoding="UTF-8" standalone="no"?>
<!DOCTYPE svg PUBLIC "-//W3C//DTD SVG 1.1//EN"
 "http://www.w3.org/Graphics/SVG/1.1/DTD/svg11.dtd">
<!-- Generated by graphviz version 2.40.1 (0)
 -->
<!-- Title: soe::FrameStreamCuda Pages: 1 -->
<svg width="360pt" height="117pt"
 viewBox="0.00 0.00 360.00 117.00" xmlns="http://www.w3.org/2000/svg" xmlns:xlink="http://www.w3.org/1999/xlink">
<g id="graph0" class="graph" transform="scale(1 1) rotate(0) translate(4 113)">
<title>soe::FrameStreamCuda</title>
<!-- Node1 -->
<g id="node1" class="node">
<title>Node1</title>
<g id="a_node1"><a xlink:title=" ">
<polygon fill="#bfbfbf" stroke="#000000" points="92,-.5 92,-19.5 259,-19.5 259,-.5 92,-.5"/>
<text text-anchor="middle" x="175.5" y="-7.5" font-family="Helvetica,sans-Serif" font-size="10.00" fill="#000000">soe::FrameStreamCuda</text>
</a>
</g>
</g>
<!-- Node2 -->
<g id="node2" class="node">
<title>Node2</title>
<g id="a_node2"><a xlink:href="structsoe_1_1_frame_stream_cuda_1_1_frame.html" target="_top" xlink:title=" ">
<polygon fill="none" stroke="#000000" points="0,-78.5 0,-108.5 167,-108.5 167,-78.5 0,-78.5"/>
<text text-anchor="start" x="8" y="-96.5" font-family="Helvetica,sans-Serif" font-size="10.00" fill="#000000">soe::FrameStreamCuda</text>
<text text-anchor="middle" x="83.5" y="-85.5" font-family="Helvetica,sans-Serif" font-size="10.00" fill="#000000">::Frame</text>
</a>
</g>
</g>
<!-- Node2&#45;&gt;Node1 -->
<g id="edge1" class="edge">
<title>Node2&#45;&gt;Node1</title>
<path fill="none" stroke="#9a32cd" stroke-dasharray="5,2" d="M107.9269,-71.3299C126.5353,-54.4408 151.2326,-32.0253 165.0304,-19.5023"/>
<polygon fill="#9a32cd" stroke="#9a32cd" points="105.4268,-68.8724 100.3742,-78.1848 110.1314,-74.0558 105.4268,-68.8724"/>
<text text-anchor="middle" x="177.5" y="-52" font-family="Helvetica,sans-Serif" font-size="10.00" fill="#000000"> frame_b_</text>
<text text-anchor="middle" x="177.5" y="-41" font-family="Helvetica,sans-Serif" font-size="10.00" fill="#000000">frame_a_</text>
</g>
<!-- Node3 -->
<g id="node3" class="node">
<title>Node3</title>
<g id="a_node3"><a xlink:href="structsoe_1_1_frame_stream_cuda_1_1_settings.html" target="_top" xlink:title=" ">
<polygon fill="none" stroke="#000000" points="185,-78.5 185,-108.5 352,-108.5 352,-78.5 185,-78.5"/>
<text text-anchor="start" x="193" y="-96.5" font-family="Helvetica,sans-Serif" font-size="10.00" fill="#000000">soe::FrameStreamCuda</text>
<text text-anchor="middle" x="268.5" y="-85.5" font-family="Helvetica,sans-Serif" font-size="10.00" fill="#000000">::Settings</text>
</a>
</g>
</g>
<!-- Node3&#45;&gt;Node1 -->
<g id="edge2" class="edge">
<title>Node3&#45;&gt;Node1</title>
<path fill="none" stroke="#9a32cd" stroke-dasharray="5,2" d="M248.4928,-70.5537C238.9477,-60.1428 227.0983,-47.9606 215.5,-38 207.7831,-31.3727 198.5117,-24.8061 190.8388,-19.6996"/>
<polygon fill="#9a32cd" stroke="#9a32cd" points="246.0045,-73.0206 255.3004,-78.1035 251.2031,-68.333 246.0045,-73.0206"/>
<text text-anchor="middle" x="275.5" y="-46.5" font-family="Helvetica,sans-Serif" font-size="10.00" fill="#000000"> settings_</text>
</g>
</g>
</svg>
