<?xml version="1.0" encoding="UTF-8" standalone="no"?>
<!DOCTYPE svg PUBLIC "-//W3C//DTD SVG 1.1//EN"
 "http://www.w3.org/Graphics/SVG/1.1/DTD/svg11.dtd">
<!-- Generated by graphviz version 2.40.1 (0)
 -->
<!-- Title: utils::Config::parse_file Pages: 1 -->
<svg width="918pt" height="78pt"
 viewBox="0.00 0.00 918.00 77.50" xmlns="http://www.w3.org/2000/svg" xmlns:xlink="http://www.w3.org/1999/xlink">
<g id="graph0" class="graph" transform="scale(1 1) rotate(0) translate(4 73.5)">
<title>utils::Config::parse_file</title>
<!-- Node32 -->
<g id="node1" class="node">
<title>Node32</title>
<g id="a_node1"><a xlink:title=" ">
<polygon fill="#bfbfbf" stroke="#000000" points="706,-22.5 706,-41.5 910,-41.5 910,-22.5 706,-22.5"/>
<text text-anchor="middle" x="808" y="-29.5" font-family="Helvetica,sans-Serif" font-size="10.00" fill="#000000">utils::Config::parse_file</text>
</a>
</g>
</g>
<!-- Node33 -->
<g id="node2" class="node">
<title>Node33</title>
<g id="a_node2"><a xlink:href="structutils_1_1_config.html#af1e5a2746bab1560d5f0fb7c1a50b939" target="_top" xlink:title=" ">
<polygon fill="none" stroke="#000000" points="466,-.5 466,-19.5 670,-19.5 670,-.5 466,-.5"/>
<text text-anchor="middle" x="568" y="-7.5" font-family="Helvetica,sans-Serif" font-size="10.00" fill="#000000">utils::Config::parse_args</text>
</a>
</g>
</g>
<!-- Node32&#45;&gt;Node33 -->
<g id="edge1" class="edge">
<title>Node32&#45;&gt;Node33</title>
<path fill="none" stroke="#191970" d="M695.8133,-21.7162C687.216,-20.9281 678.565,-20.1351 670.0378,-19.3535"/>
<polygon fill="#191970" stroke="#191970" points="695.5926,-25.2106 705.8704,-22.6381 696.2317,-18.2398 695.5926,-25.2106"/>
</g>
<!-- Node37 -->
<g id="node6" class="node">
<title>Node37</title>
<g id="a_node6"><a xlink:href="structutils_1_1_config.html#a721b70a9e01d9b680b6976b2d25ef26d" target="_top" xlink:title=" ">
<polygon fill="none" stroke="#000000" points="484.5,-39 484.5,-69 651.5,-69 651.5,-39 484.5,-39"/>
<text text-anchor="start" x="492.5" y="-57" font-family="Helvetica,sans-Serif" font-size="10.00" fill="#000000">utils::Config::parse</text>
<text text-anchor="middle" x="568" y="-46" font-family="Helvetica,sans-Serif" font-size="10.00" fill="#000000">_global_config</text>
</a>
</g>
</g>
<!-- Node32&#45;&gt;Node37 -->
<g id="edge5" class="edge">
<title>Node32&#45;&gt;Node37</title>
<path fill="none" stroke="#191970" d="M695.6324,-42.3004C680.7919,-43.6607 665.795,-45.0355 651.5548,-46.3408"/>
<polygon fill="#191970" stroke="#191970" points="696.2317,-45.7602 705.8704,-41.3619 695.5926,-38.7894 696.2317,-45.7602"/>
</g>
<!-- Node34 -->
<g id="node3" class="node">
<title>Node34</title>
<g id="a_node3"><a xlink:href="namespacesoe_1_1anonymous__namespace_02main_8cpp_03.html#a0a1c3f9ecefea3a3fa41db8ad79733bc" target="_top" xlink:title=" ">
<polygon fill="none" stroke="#000000" points="233,-39 233,-69 430,-69 430,-39 233,-39"/>
<text text-anchor="start" x="241" y="-57" font-family="Helvetica,sans-Serif" font-size="10.00" fill="#000000">soe::anonymous_namespace</text>
<text text-anchor="middle" x="331.5" y="-46" font-family="Helvetica,sans-Serif" font-size="10.00" fill="#000000">{main::cpp}::main_impl</text>
</a>
</g>
</g>
<!-- Node33&#45;&gt;Node34 -->
<g id="edge2" class="edge">
<title>Node33&#45;&gt;Node34</title>
<path fill="none" stroke="#191970" d="M506.7761,-21.3905C478.0255,-26.7394 443.3615,-33.1886 412.4763,-38.9346"/>
<polygon fill="#191970" stroke="#191970" points="507.4919,-24.8175 516.683,-19.5473 506.2115,-17.9355 507.4919,-24.8175"/>
</g>
<!-- Node36 -->
<g id="node5" class="node">
<title>Node36</title>
<g id="a_node5"><a xlink:href="namespaceutils_1_1test.html#ab33de35534fb940b5f0acbbd7826e290" target="_top" xlink:title=" ">
<polygon fill="none" stroke="#000000" points="237,-.5 237,-19.5 426,-19.5 426,-.5 237,-.5"/>
<text text-anchor="middle" x="331.5" y="-7.5" font-family="Helvetica,sans-Serif" font-size="10.00" fill="#000000">utils::test::TEST_SUITE</text>
</a>
</g>
</g>
<!-- Node33&#45;&gt;Node36 -->
<g id="edge4" class="edge">
<title>Node33&#45;&gt;Node36</title>
<path fill="none" stroke="#191970" d="M455.6937,-10C445.786,-10 435.8225,-10 426.0823,-10"/>
<polygon fill="#191970" stroke="#191970" points="455.9868,-13.5001 465.9867,-10 455.9867,-6.5001 455.9868,-13.5001"/>
</g>
<!-- Node35 -->
<g id="node4" class="node">
<title>Node35</title>
<g id="a_node4"><a xlink:href="namespacesoe_1_1anonymous__namespace_02main_8cpp_03.html#af669b3519bb5e7bf1085235bfc8c43cd" target="_top" xlink:title=" ">
<polygon fill="none" stroke="#000000" points="0,-39 0,-69 197,-69 197,-39 0,-39"/>
<text text-anchor="start" x="8" y="-57" font-family="Helvetica,sans-Serif" font-size="10.00" fill="#000000">soe::anonymous_namespace</text>
<text text-anchor="middle" x="98.5" y="-46" font-family="Helvetica,sans-Serif" font-size="10.00" fill="#000000">{main::cpp}::main</text>
</a>
</g>
</g>
<!-- Node34&#45;&gt;Node35 -->
<g id="edge3" class="edge">
<title>Node34&#45;&gt;Node35</title>
<path fill="none" stroke="#191970" d="M222.419,-54C213.97,-54 205.4688,-54 197.094,-54"/>
<polygon fill="#191970" stroke="#191970" points="222.6871,-57.5001 232.687,-54 222.687,-50.5001 222.6871,-57.5001"/>
</g>
<!-- Node37&#45;&gt;Node34 -->
<g id="edge6" class="edge">
<title>Node37&#45;&gt;Node34</title>
<path fill="none" stroke="#191970" d="M473.8946,-54C459.4845,-54 444.5748,-54 430.0714,-54"/>
<polygon fill="#191970" stroke="#191970" points="474.2862,-57.5001 484.2861,-54 474.2861,-50.5001 474.2862,-57.5001"/>
</g>
</g>
</svg>
