<?xml version="1.0" encoding="UTF-8" standalone="no"?>
<!DOCTYPE svg PUBLIC "-//W3C//DTD SVG 1.1//EN"
 "http://www.w3.org/Graphics/SVG/1.1/DTD/svg11.dtd">
<!-- Generated by graphviz version 2.40.1 (0)
 -->
<!-- Title: soe::FrameStream Pages: 1 -->
<svg width="428pt" height="106pt"
 viewBox="0.00 0.00 427.50 106.00" xmlns="http://www.w3.org/2000/svg" xmlns:xlink="http://www.w3.org/1999/xlink">
<g id="graph0" class="graph" transform="scale(1 1) rotate(0) translate(4 102)">
<title>soe::FrameStream</title>
<!-- Node1 -->
<g id="node1" class="node">
<title>Node1</title>
<g id="a_node1"><a xlink:title=" ">
<polygon fill="#bfbfbf" stroke="#000000" points="146.5,-.5 146.5,-19.5 283.5,-19.5 283.5,-.5 146.5,-.5"/>
<text text-anchor="middle" x="215" y="-7.5" font-family="Helvetica,sans-Serif" font-size="10.00" fill="#000000">soe::FrameStream</text>
</a>
</g>
</g>
<!-- Node2 -->
<g id="node2" class="node">
<title>Node2</title>
<g id="a_node2"><a xlink:href="structsoe_1_1_frame_stream_1_1_settings.html" target="_top" xlink:title=" ">
<polygon fill="none" stroke="#000000" points="0,-78.5 0,-97.5 212,-97.5 212,-78.5 0,-78.5"/>
<text text-anchor="middle" x="106" y="-85.5" font-family="Helvetica,sans-Serif" font-size="10.00" fill="#000000">soe::FrameStream::Settings</text>
</a>
</g>
</g>
<!-- Node2&#45;&gt;Node1 -->
<g id="edge1" class="edge">
<title>Node2&#45;&gt;Node1</title>
<path fill="none" stroke="#9a32cd" stroke-dasharray="5,2" d="M127.7473,-72.4377C149.7517,-56.6914 183.0794,-32.8423 201.5251,-19.6426"/>
<polygon fill="#9a32cd" stroke="#9a32cd" points="125.461,-69.7699 119.3655,-78.4357 129.5347,-75.4625 125.461,-69.7699"/>
<text text-anchor="middle" x="212" y="-46.5" font-family="Helvetica,sans-Serif" font-size="10.00" fill="#000000"> settings_</text>
</g>
<!-- Node3 -->
<g id="node3" class="node">
<title>Node3</title>
<g id="a_node3"><a xlink:href="structsoe_1_1_frame_stream_1_1_frame.html" target="_top" xlink:title=" ">
<polygon fill="none" stroke="#000000" points="230.5,-78.5 230.5,-97.5 419.5,-97.5 419.5,-78.5 230.5,-78.5"/>
<text text-anchor="middle" x="325" y="-85.5" font-family="Helvetica,sans-Serif" font-size="10.00" fill="#000000">soe::FrameStream::Frame</text>
</a>
</g>
</g>
<!-- Node3&#45;&gt;Node1 -->
<g id="edge2" class="edge">
<title>Node3&#45;&gt;Node1</title>
<path fill="none" stroke="#9a32cd" stroke-dasharray="5,2" d="M303.3486,-72.6472C281.1462,-56.9036 247.2962,-32.9009 228.5985,-19.6426"/>
<polygon fill="#9a32cd" stroke="#9a32cd" points="301.33,-75.5064 311.5118,-78.4357 305.379,-69.7963 301.33,-75.5064"/>
<text text-anchor="middle" x="317" y="-52" font-family="Helvetica,sans-Serif" font-size="10.00" fill="#000000"> frame_b_</text>
<text text-anchor="middle" x="317" y="-41" font-family="Helvetica,sans-Serif" font-size="10.00" fill="#000000">frame_a_</text>
</g>
</g>
</svg>
