<?xml version="1.0" encoding="UTF-8" standalone="no"?>
<!DOCTYPE svg PUBLIC "-//W3C//DTD SVG 1.1//EN"
 "http://www.w3.org/Graphics/SVG/1.1/DTD/svg11.dtd">
<!-- Generated by graphviz version 2.40.1 (0)
 -->
<!-- Title: utils::Config::get_raw Pages: 1 -->
<svg width="603pt" height="47pt"
 viewBox="0.00 0.00 603.00 47.00" xmlns="http://www.w3.org/2000/svg" xmlns:xlink="http://www.w3.org/1999/xlink">
<g id="graph0" class="graph" transform="scale(1 1) rotate(0) translate(4 43)">
<title>utils::Config::get_raw</title>
<!-- Node14 -->
<g id="node1" class="node">
<title>Node14</title>
<g id="a_node1"><a xlink:title=" ">
<polygon fill="#bfbfbf" stroke="#000000" points="413,-19.5 413,-38.5 595,-38.5 595,-19.5 413,-19.5"/>
<text text-anchor="middle" x="504" y="-26.5" font-family="Helvetica,sans-Serif" font-size="10.00" fill="#000000">utils::Config::get_raw</text>
</a>
</g>
</g>
<!-- Node15 -->
<g id="node2" class="node">
<title>Node15</title>
<g id="a_node2"><a xlink:href="namespaceutils_1_1test.html#ab33de35534fb940b5f0acbbd7826e290" target="_top" xlink:title=" ">
<polygon fill="none" stroke="#000000" points="0,-19.5 0,-38.5 189,-38.5 189,-19.5 0,-19.5"/>
<text text-anchor="middle" x="94.5" y="-26.5" font-family="Helvetica,sans-Serif" font-size="10.00" fill="#000000">utils::test::TEST_SUITE</text>
</a>
</g>
</g>
<!-- Node14&#45;&gt;Node15 -->
<g id="edge1" class="edge">
<title>Node14&#45;&gt;Node15</title>
<path fill="none" stroke="#191970" d="M402.5648,-29C337.3388,-29 253.1576,-29 189.2805,-29"/>
<polygon fill="#191970" stroke="#191970" points="402.8644,-32.5001 412.8644,-29 402.8644,-25.5001 402.8644,-32.5001"/>
</g>
<!-- Node16 -->
<g id="node3" class="node">
<title>Node16</title>
<g id="a_node3"><a xlink:href="structutils_1_1_config.html#a9ac97301b26e5c7ea2b6ac446b19eb4b" target="_top" xlink:title=" ">
<polygon fill="none" stroke="#000000" points="225,-.5 225,-19.5 377,-19.5 377,-.5 225,-.5"/>
<text text-anchor="middle" x="301" y="-7.5" font-family="Helvetica,sans-Serif" font-size="10.00" fill="#000000">utils::Config::get</text>
</a>
</g>
</g>
<!-- Node14&#45;&gt;Node16 -->
<g id="edge2" class="edge">
<title>Node14&#45;&gt;Node16</title>
<path fill="none" stroke="#191970" d="M402.8111,-19.5291C394.2103,-18.7241 385.6066,-17.9188 377.2468,-17.1364"/>
<polygon fill="#191970" stroke="#191970" points="402.6088,-23.0254 412.8915,-20.4726 403.2612,-16.0559 402.6088,-23.0254"/>
</g>
<!-- Node16&#45;&gt;Node15 -->
<g id="edge3" class="edge">
<title>Node16&#45;&gt;Node15</title>
<path fill="none" stroke="#191970" d="M214.8059,-17.9307C206.3833,-18.7057 197.8049,-19.4949 189.3034,-20.2772"/>
<polygon fill="#191970" stroke="#191970" points="215.3495,-21.3955 224.9868,-16.994 214.7081,-14.425 215.3495,-21.3955"/>
</g>
</g>
</svg>
