<?xml version="1.0" encoding="UTF-8" standalone="no"?>
<!DOCTYPE svg PUBLIC "-//W3C//DTD SVG 1.1//EN"
 "http://www.w3.org/Graphics/SVG/1.1/DTD/svg11.dtd">
<!-- Generated by graphviz version 2.40.1 (0)
 -->
<!-- Title: config::Config::get_raw Pages: 1 -->
<svg width="580pt" height="53pt"
 viewBox="0.00 0.00 580.00 52.50" xmlns="http://www.w3.org/2000/svg" xmlns:xlink="http://www.w3.org/1999/xlink">
<g id="graph0" class="graph" transform="scale(1 1) rotate(0) translate(4 48.5)">
<title>config::Config::get_raw</title>
<!-- Node14 -->
<g id="node1" class="node">
<title>Node14</title>
<g id="a_node1"><a xlink:title=" ">
<polygon fill="#bfbfbf" stroke="#000000" points="383,-19.5 383,-38.5 572,-38.5 572,-19.5 383,-19.5"/>
<text text-anchor="middle" x="477.5" y="-26.5" font-family="Helvetica,sans-Serif" font-size="10.00" fill="#000000">config::Config::get_raw</text>
</a>
</g>
</g>
<!-- Node15 -->
<g id="node2" class="node">
<title>Node15</title>
<g id="a_node2"><a xlink:href="namespaceconfig_1_1test.html#aaecf6f168613d97556ee5a67a4da8192" target="_top" xlink:title=" ">
<polygon fill="none" stroke="#000000" points="0,-14 0,-44 152,-44 152,-14 0,-14"/>
<text text-anchor="start" x="8" y="-32" font-family="Helvetica,sans-Serif" font-size="10.00" fill="#000000">config::test::TEST</text>
<text text-anchor="middle" x="76" y="-21" font-family="Helvetica,sans-Serif" font-size="10.00" fill="#000000">_SUITE</text>
</a>
</g>
</g>
<!-- Node14&#45;&gt;Node15 -->
<g id="edge1" class="edge">
<title>Node14&#45;&gt;Node15</title>
<path fill="none" stroke="#191970" d="M372.8084,-29C303.6755,-29 214.6562,-29 152.2113,-29"/>
<polygon fill="#191970" stroke="#191970" points="372.8586,-32.5001 382.8585,-29 372.8585,-25.5001 372.8586,-32.5001"/>
</g>
<!-- Node16 -->
<g id="node3" class="node">
<title>Node16</title>
<g id="a_node3"><a xlink:href="structconfig_1_1_config.html#a0cf9f3b97d218358b2bd62f3b94a3efb" target="_top" xlink:title=" ">
<polygon fill="none" stroke="#000000" points="188,-.5 188,-19.5 347,-19.5 347,-.5 188,-.5"/>
<text text-anchor="middle" x="267.5" y="-7.5" font-family="Helvetica,sans-Serif" font-size="10.00" fill="#000000">config::Config::get</text>
</a>
</g>
</g>
<!-- Node14&#45;&gt;Node16 -->
<g id="edge2" class="edge">
<title>Node14&#45;&gt;Node16</title>
<path fill="none" stroke="#191970" d="M372.8101,-19.5281C364.1648,-18.7459 355.5167,-17.9634 347.1002,-17.2019"/>
<polygon fill="#191970" stroke="#191970" points="372.6689,-23.0295 382.9436,-20.4449 373.2997,-16.058 372.6689,-23.0295"/>
</g>
<!-- Node16&#45;&gt;Node15 -->
<g id="edge3" class="edge">
<title>Node16&#45;&gt;Node15</title>
<path fill="none" stroke="#191970" d="M177.9154,-18.8883C169.3269,-19.7404 160.672,-20.5991 152.2286,-21.4369"/>
<polygon fill="#191970" stroke="#191970" points="178.3449,-22.363 187.9504,-17.8926 177.6537,-15.3972 178.3449,-22.363"/>
</g>
</g>
</svg>
