<?xml version="1.0" encoding="UTF-8" standalone="no"?>
<!DOCTYPE svg PUBLIC "-//W3C//DTD SVG 1.1//EN"
 "http://www.w3.org/Graphics/SVG/1.1/DTD/svg11.dtd">
<!-- Generated by graphviz version 2.40.1 (0)
 -->
<!-- Title: utils::Config::parse_file Pages: 1 -->
<svg width="677pt" height="78pt"
 viewBox="0.00 0.00 677.00 77.50" xmlns="http://www.w3.org/2000/svg" xmlns:xlink="http://www.w3.org/1999/xlink">
<g id="graph0" class="graph" transform="scale(1 1) rotate(0) translate(4 73.5)">
<title>utils::Config::parse_file</title>
<!-- Node26 -->
<g id="node1" class="node">
<title>Node26</title>
<g id="a_node1"><a xlink:title=" ">
<polygon fill="#bfbfbf" stroke="#000000" points="465,-28 465,-47 669,-47 669,-28 465,-28"/>
<text text-anchor="middle" x="567" y="-35" font-family="Helvetica,sans-Serif" font-size="10.00" fill="#000000">utils::Config::parse_file</text>
</a>
</g>
</g>
<!-- Node27 -->
<g id="node2" class="node">
<title>Node27</title>
<g id="a_node2"><a xlink:href="structutils_1_1_config.html#af1e5a2746bab1560d5f0fb7c1a50b939" target="_top" xlink:title=" ">
<polygon fill="none" stroke="#000000" points="225,-50 225,-69 429,-69 429,-50 225,-50"/>
<text text-anchor="middle" x="327" y="-57" font-family="Helvetica,sans-Serif" font-size="10.00" fill="#000000">utils::Config::parse_args</text>
</a>
</g>
</g>
<!-- Node26&#45;&gt;Node27 -->
<g id="edge1" class="edge">
<title>Node26&#45;&gt;Node27</title>
<path fill="none" stroke="#191970" d="M454.8133,-47.7838C446.216,-48.5719 437.565,-49.3649 429.0378,-50.1465"/>
<polygon fill="#191970" stroke="#191970" points="455.2317,-51.2602 464.8704,-46.8619 454.5926,-44.2894 455.2317,-51.2602"/>
</g>
<!-- Node29 -->
<g id="node4" class="node">
<title>Node29</title>
<g id="a_node4"><a xlink:href="structutils_1_1_config.html#a721b70a9e01d9b680b6976b2d25ef26d" target="_top" xlink:title=" ">
<polygon fill="none" stroke="#000000" points="243.5,-.5 243.5,-30.5 410.5,-30.5 410.5,-.5 243.5,-.5"/>
<text text-anchor="start" x="251.5" y="-18.5" font-family="Helvetica,sans-Serif" font-size="10.00" fill="#000000">utils::Config::parse</text>
<text text-anchor="middle" x="327" y="-7.5" font-family="Helvetica,sans-Serif" font-size="10.00" fill="#000000">_global_config</text>
</a>
</g>
</g>
<!-- Node26&#45;&gt;Node29 -->
<g id="edge3" class="edge">
<title>Node26&#45;&gt;Node29</title>
<path fill="none" stroke="#191970" d="M454.6324,-27.1996C439.7919,-25.8393 424.795,-24.4645 410.5548,-23.1592"/>
<polygon fill="#191970" stroke="#191970" points="454.5926,-30.7106 464.8704,-28.1381 455.2317,-23.7398 454.5926,-30.7106"/>
</g>
<!-- Node28 -->
<g id="node3" class="node">
<title>Node28</title>
<g id="a_node3"><a xlink:href="namespaceutils_1_1test.html#ab33de35534fb940b5f0acbbd7826e290" target="_top" xlink:title=" ">
<polygon fill="none" stroke="#000000" points="0,-50 0,-69 189,-69 189,-50 0,-50"/>
<text text-anchor="middle" x="94.5" y="-57" font-family="Helvetica,sans-Serif" font-size="10.00" fill="#000000">utils::test::TEST_SUITE</text>
</a>
</g>
</g>
<!-- Node27&#45;&gt;Node28 -->
<g id="edge2" class="edge">
<title>Node27&#45;&gt;Node28</title>
<path fill="none" stroke="#191970" d="M214.6776,-59.5C206.1333,-59.5 197.5606,-59.5 189.1446,-59.5"/>
<polygon fill="#191970" stroke="#191970" points="214.6838,-63.0001 224.6838,-59.5 214.6837,-56.0001 214.6838,-63.0001"/>
</g>
</g>
</svg>
