<?xml version="1.0" encoding="UTF-8" standalone="no"?>
<!DOCTYPE svg PUBLIC "-//W3C//DTD SVG 1.1//EN"
 "http://www.w3.org/Graphics/SVG/1.1/DTD/svg11.dtd">
<!-- Generated by graphviz version 2.40.1 (0)
 -->
<!-- Title: utils::Config::set_parsed_option Pages: 1 -->
<svg width="1309pt" height="105pt"
 viewBox="0.00 0.00 1309.00 105.00" xmlns="http://www.w3.org/2000/svg" xmlns:xlink="http://www.w3.org/1999/xlink">
<g id="graph0" class="graph" transform="scale(1 1) rotate(0) translate(4 101)">
<title>utils::Config::set_parsed_option</title>
<!-- Node63 -->
<g id="node1" class="node">
<title>Node63</title>
<g id="a_node1"><a xlink:title=" ">
<polygon fill="#bfbfbf" stroke="#000000" points="1149,-17 1149,-47 1301,-47 1301,-17 1149,-17"/>
<text text-anchor="start" x="1157" y="-35" font-family="Helvetica,sans-Serif" font-size="10.00" fill="#000000">utils::Config::set</text>
<text text-anchor="middle" x="1225" y="-24" font-family="Helvetica,sans-Serif" font-size="10.00" fill="#000000">_parsed_option</text>
</a>
</g>
</g>
<!-- Node64 -->
<g id="node2" class="node">
<title>Node64</title>
<g id="a_node2"><a xlink:href="structutils_1_1_config.html#af1e5a2746bab1560d5f0fb7c1a50b939" target="_top" xlink:title=" ">
<polygon fill="none" stroke="#000000" points="466,-.5 466,-19.5 670,-19.5 670,-.5 466,-.5"/>
<text text-anchor="middle" x="568" y="-7.5" font-family="Helvetica,sans-Serif" font-size="10.00" fill="#000000">utils::Config::parse_args</text>
</a>
</g>
</g>
<!-- Node63&#45;&gt;Node64 -->
<g id="edge1" class="edge">
<title>Node63&#45;&gt;Node64</title>
<path fill="none" stroke="#191970" d="M1138.6879,-29.1098C1017.927,-25.066 798.929,-17.7328 670.1802,-13.4216"/>
<polygon fill="#191970" stroke="#191970" points="1138.8804,-32.6181 1148.9919,-29.4548 1139.1147,-25.622 1138.8804,-32.6181"/>
</g>
<!-- Node68 -->
<g id="node6" class="node">
<title>Node68</title>
<g id="a_node6"><a xlink:href="structutils_1_1_config.html#ab5ca15af8b27ceafb626caf6080cc147" target="_top" xlink:title=" ">
<polygon fill="none" stroke="#000000" points="946,-39 946,-69 1113,-69 1113,-39 946,-39"/>
<text text-anchor="start" x="954" y="-57" font-family="Helvetica,sans-Serif" font-size="10.00" fill="#000000">utils::Config::parse</text>
<text text-anchor="middle" x="1029.5" y="-46" font-family="Helvetica,sans-Serif" font-size="10.00" fill="#000000">_file_content</text>
</a>
</g>
</g>
<!-- Node63&#45;&gt;Node68 -->
<g id="edge5" class="edge">
<title>Node63&#45;&gt;Node68</title>
<path fill="none" stroke="#191970" d="M1138.9075,-41.6882C1130.3733,-42.6485 1121.7189,-43.6224 1113.2094,-44.58"/>
<polygon fill="#191970" stroke="#191970" points="1139.3089,-45.1652 1148.8548,-40.5688 1138.5261,-38.2091 1139.3089,-45.1652"/>
</g>
<!-- Node65 -->
<g id="node3" class="node">
<title>Node65</title>
<g id="a_node3"><a xlink:href="namespacesoe_1_1anonymous__namespace_02main_8cpp_03.html#a0a1c3f9ecefea3a3fa41db8ad79733bc" target="_top" xlink:title=" ">
<polygon fill="none" stroke="#000000" points="233,-17 233,-47 430,-47 430,-17 233,-17"/>
<text text-anchor="start" x="241" y="-35" font-family="Helvetica,sans-Serif" font-size="10.00" fill="#000000">soe::anonymous_namespace</text>
<text text-anchor="middle" x="331.5" y="-24" font-family="Helvetica,sans-Serif" font-size="10.00" fill="#000000">{main::cpp}::main_impl</text>
</a>
</g>
</g>
<!-- Node64&#45;&gt;Node65 -->
<g id="edge2" class="edge">
<title>Node64&#45;&gt;Node65</title>
<path fill="none" stroke="#191970" d="M455.9239,-20.4257C447.3255,-21.2255 438.6835,-22.0294 430.1803,-22.8204"/>
<polygon fill="#191970" stroke="#191970" points="456.3539,-23.9009 465.9867,-19.4896 455.7055,-16.931 456.3539,-23.9009"/>
</g>
<!-- Node67 -->
<g id="node5" class="node">
<title>Node67</title>
<g id="a_node5"><a xlink:href="namespaceutils_1_1test.html#ab33de35534fb940b5f0acbbd7826e290" target="_top" xlink:title=" ">
<polygon fill="none" stroke="#000000" points="237,-77.5 237,-96.5 426,-96.5 426,-77.5 237,-77.5"/>
<text text-anchor="middle" x="331.5" y="-84.5" font-family="Helvetica,sans-Serif" font-size="10.00" fill="#000000">utils::test::TEST_SUITE</text>
</a>
</g>
</g>
<!-- Node64&#45;&gt;Node67 -->
<g id="edge4" class="edge">
<title>Node64&#45;&gt;Node67</title>
<path fill="none" stroke="#191970" d="M484.3377,-22.2923C478.0255,-24.2128 471.8445,-26.4331 466,-29 447.6883,-37.0424 447.7931,-46.8674 430,-56 411.9772,-65.2505 390.6734,-72.3746 372.4968,-77.4471"/>
<polygon fill="#191970" stroke="#191970" points="485.6376,-25.5638 494.3357,-19.5145 483.7637,-18.8193 485.6376,-25.5638"/>
</g>
<!-- Node66 -->
<g id="node4" class="node">
<title>Node66</title>
<g id="a_node4"><a xlink:href="namespacesoe_1_1anonymous__namespace_02main_8cpp_03.html#af669b3519bb5e7bf1085235bfc8c43cd" target="_top" xlink:title=" ">
<polygon fill="none" stroke="#000000" points="0,-17 0,-47 197,-47 197,-17 0,-17"/>
<text text-anchor="start" x="8" y="-35" font-family="Helvetica,sans-Serif" font-size="10.00" fill="#000000">soe::anonymous_namespace</text>
<text text-anchor="middle" x="98.5" y="-24" font-family="Helvetica,sans-Serif" font-size="10.00" fill="#000000">{main::cpp}::main</text>
</a>
</g>
</g>
<!-- Node65&#45;&gt;Node66 -->
<g id="edge3" class="edge">
<title>Node65&#45;&gt;Node66</title>
<path fill="none" stroke="#191970" d="M222.419,-32C213.97,-32 205.4688,-32 197.094,-32"/>
<polygon fill="#191970" stroke="#191970" points="222.6871,-35.5001 232.687,-32 222.687,-28.5001 222.6871,-35.5001"/>
</g>
<!-- Node68&#45;&gt;Node67 -->
<g id="edge10" class="edge">
<title>Node68&#45;&gt;Node67</title>
<path fill="none" stroke="#191970" d="M935.6417,-70.1329C926.9913,-71.2539 918.3452,-72.239 910,-73 740.0429,-88.4979 540.9128,-89.5924 426.1639,-88.5748"/>
<polygon fill="#191970" stroke="#191970" points="936.3411,-73.5702 945.7809,-68.7598 935.4016,-66.6335 936.3411,-73.5702"/>
</g>
<!-- Node69 -->
<g id="node7" class="node">
<title>Node69</title>
<g id="a_node7"><a xlink:href="structutils_1_1_config.html#a459561479c9c1ad0816a6ea6de85fd1f" target="_top" xlink:title=" ">
<polygon fill="none" stroke="#000000" points="706,-44.5 706,-63.5 910,-63.5 910,-44.5 706,-44.5"/>
<text text-anchor="middle" x="808" y="-51.5" font-family="Helvetica,sans-Serif" font-size="10.00" fill="#000000">utils::Config::parse_file</text>
</a>
</g>
</g>
<!-- Node68&#45;&gt;Node69 -->
<g id="edge6" class="edge">
<title>Node68&#45;&gt;Node69</title>
<path fill="none" stroke="#191970" d="M935.5749,-54C927.1597,-54 918.6117,-54 910.1316,-54"/>
<polygon fill="#191970" stroke="#191970" points="935.7604,-57.5001 945.7603,-54 935.7603,-50.5001 935.7604,-57.5001"/>
</g>
<!-- Node69&#45;&gt;Node64 -->
<g id="edge7" class="edge">
<title>Node69&#45;&gt;Node64</title>
<path fill="none" stroke="#191970" d="M745.7266,-42.5832C706.6707,-35.423 656.9051,-26.2993 619.9748,-19.5287"/>
<polygon fill="#191970" stroke="#191970" points="745.4563,-46.0919 755.9236,-44.4527 746.7187,-39.2067 745.4563,-46.0919"/>
</g>
<!-- Node70 -->
<g id="node8" class="node">
<title>Node70</title>
<g id="a_node8"><a xlink:href="structutils_1_1_config.html#a721b70a9e01d9b680b6976b2d25ef26d" target="_top" xlink:title=" ">
<polygon fill="none" stroke="#000000" points="484.5,-39 484.5,-69 651.5,-69 651.5,-39 484.5,-39"/>
<text text-anchor="start" x="492.5" y="-57" font-family="Helvetica,sans-Serif" font-size="10.00" fill="#000000">utils::Config::parse</text>
<text text-anchor="middle" x="568" y="-46" font-family="Helvetica,sans-Serif" font-size="10.00" fill="#000000">_global_config</text>
</a>
</g>
</g>
<!-- Node69&#45;&gt;Node70 -->
<g id="edge8" class="edge">
<title>Node69&#45;&gt;Node70</title>
<path fill="none" stroke="#191970" d="M695.6324,-54C680.7919,-54 665.795,-54 651.5548,-54"/>
<polygon fill="#191970" stroke="#191970" points="695.8704,-57.5001 705.8704,-54 695.8704,-50.5001 695.8704,-57.5001"/>
</g>
<!-- Node70&#45;&gt;Node65 -->
<g id="edge9" class="edge">
<title>Node70&#45;&gt;Node65</title>
<path fill="none" stroke="#191970" d="M474.3142,-45.285C459.7741,-43.9325 444.7156,-42.5317 430.0714,-41.1694"/>
<polygon fill="#191970" stroke="#191970" points="474.0049,-48.7713 484.2861,-46.2127 474.6533,-41.8014 474.0049,-48.7713"/>
</g>
</g>
</svg>
