<?xml version="1.0" encoding="UTF-8" standalone="no"?>
<!DOCTYPE svg PUBLIC "-//W3C//DTD SVG 1.1//EN"
 "http://www.w3.org/Graphics/SVG/1.1/DTD/svg11.dtd">
<!-- Generated by graphviz version 2.40.1 (0)
 -->
<!-- Title: config::Config Pages: 1 -->
<svg width="349pt" height="284pt"
 viewBox="0.00 0.00 349.00 284.00" xmlns="http://www.w3.org/2000/svg" xmlns:xlink="http://www.w3.org/1999/xlink">
<g id="graph0" class="graph" transform="scale(1 1) rotate(0) translate(4 280)">
<title>config::Config</title>
<!-- Node1 -->
<g id="node1" class="node">
<title>Node1</title>
<g id="a_node1"><a xlink:title=" ">
<polygon fill="#bfbfbf" stroke="#000000" points="87,-.5 87,-19.5 209,-19.5 209,-.5 87,-.5"/>
<text text-anchor="middle" x="148" y="-7.5" font-family="Helvetica,sans-Serif" font-size="10.00" fill="#000000">config::Config</text>
</a>
</g>
</g>
<!-- Node2 -->
<g id="node2" class="node">
<title>Node2</title>
<g id="a_node2"><a xlink:title=" ">
<polygon fill="none" stroke="#bfbfbf" points="64.5,-67.5 64.5,-108.5 231.5,-108.5 231.5,-67.5 64.5,-67.5"/>
<text text-anchor="start" x="72.5" y="-96.5" font-family="Helvetica,sans-Serif" font-size="10.00" fill="#000000">std::unordered_map</text>
<text text-anchor="start" x="72.5" y="-85.5" font-family="Helvetica,sans-Serif" font-size="10.00" fill="#000000">&lt; std::string, std::</text>
<text text-anchor="middle" x="148" y="-74.5" font-family="Helvetica,sans-Serif" font-size="10.00" fill="#000000">string &gt;</text>
</a>
</g>
</g>
<!-- Node2&#45;&gt;Node1 -->
<g id="edge1" class="edge">
<title>Node2&#45;&gt;Node1</title>
<path fill="none" stroke="#9a32cd" stroke-dasharray="5,2" d="M148,-56.8707C148,-43.6273 148,-29.1205 148,-19.8072"/>
<polygon fill="#9a32cd" stroke="#9a32cd" points="144.5001,-57.0974 148,-67.0974 151.5001,-57.0975 144.5001,-57.0974"/>
<text text-anchor="middle" x="182" y="-41" font-family="Helvetica,sans-Serif" font-size="10.00" fill="#000000"> options_</text>
</g>
<!-- Node3 -->
<g id="node3" class="node">
<title>Node3</title>
<g id="a_node3"><a xlink:title="STL class.">
<polygon fill="none" stroke="#bfbfbf" points="26.5,-173 26.5,-192 125.5,-192 125.5,-173 26.5,-173"/>
<text text-anchor="middle" x="76" y="-180" font-family="Helvetica,sans-Serif" font-size="10.00" fill="#000000">std::string</text>
</a>
</g>
</g>
<!-- Node3&#45;&gt;Node2 -->
<g id="edge2" class="edge">
<title>Node3&#45;&gt;Node2</title>
<path fill="none" stroke="#9a32cd" stroke-dasharray="5,2" d="M89.507,-164.7721C101.6073,-148.8904 119.3645,-125.5841 132.1366,-108.8207"/>
<polygon fill="#9a32cd" stroke="#9a32cd" points="86.7105,-162.6673 83.4341,-172.7428 92.2786,-166.9096 86.7105,-162.6673"/>
<text text-anchor="middle" x="147.5" y="-141" font-family="Helvetica,sans-Serif" font-size="10.00" fill="#000000"> keys</text>
<text text-anchor="middle" x="147.5" y="-130" font-family="Helvetica,sans-Serif" font-size="10.00" fill="#000000">elements</text>
</g>
<!-- Node4 -->
<g id="node4" class="node">
<title>Node4</title>
<g id="a_node4"><a xlink:title="STL class.">
<polygon fill="none" stroke="#bfbfbf" points="0,-245.5 0,-275.5 152,-275.5 152,-245.5 0,-245.5"/>
<text text-anchor="start" x="8" y="-263.5" font-family="Helvetica,sans-Serif" font-size="10.00" fill="#000000">std::basic_string&lt;</text>
<text text-anchor="middle" x="76" y="-252.5" font-family="Helvetica,sans-Serif" font-size="10.00" fill="#000000"> char &gt;</text>
</a>
</g>
</g>
<!-- Node4&#45;&gt;Node3 -->
<g id="edge3" class="edge">
<title>Node4&#45;&gt;Node3</title>
<path fill="none" stroke="#191970" d="M76,-235.3962C76,-220.6331 76,-202.8138 76,-192.0839"/>
<polygon fill="#191970" stroke="#191970" points="72.5001,-235.4608 76,-245.4608 79.5001,-235.4609 72.5001,-235.4608"/>
</g>
<!-- Node5 -->
<g id="node5" class="node">
<title>Node5</title>
<g id="a_node5"><a xlink:title="STL class.">
<polygon fill="none" stroke="#bfbfbf" points="144,-167.5 144,-197.5 296,-197.5 296,-167.5 144,-167.5"/>
<text text-anchor="start" x="152" y="-185.5" font-family="Helvetica,sans-Serif" font-size="10.00" fill="#000000">std::unordered_map</text>
<text text-anchor="middle" x="220" y="-174.5" font-family="Helvetica,sans-Serif" font-size="10.00" fill="#000000">&lt; K, T &gt;</text>
</a>
</g>
</g>
<!-- Node5&#45;&gt;Node2 -->
<g id="edge4" class="edge">
<title>Node5&#45;&gt;Node2</title>
<path fill="none" stroke="#ffa500" stroke-dasharray="5,2" d="M204.4556,-158.4963C197.7949,-148.5617 189.7708,-137.0396 182,-127 177.2716,-120.8911 171.8831,-114.4853 166.8116,-108.6715"/>
<polygon fill="#ffa500" stroke="#ffa500" points="201.7037,-160.68 210.1429,-167.0856 207.5403,-156.8154 201.7037,-160.68"/>
<text text-anchor="start" x="198" y="-141" font-family="Helvetica,sans-Serif" font-size="10.00" fill="#000000"> &lt; std::string, std</text>
<text text-anchor="middle" x="269.5" y="-130" font-family="Helvetica,sans-Serif" font-size="10.00" fill="#000000">::string &gt;</text>
</g>
<!-- Node6 -->
<g id="node6" class="node">
<title>Node6</title>
<g id="a_node6"><a xlink:title=" ">
<polygon fill="none" stroke="#bfbfbf" points="187.5,-251 187.5,-270 216.5,-270 216.5,-251 187.5,-251"/>
<text text-anchor="middle" x="202" y="-258" font-family="Helvetica,sans-Serif" font-size="10.00" fill="#000000">K</text>
</a>
</g>
</g>
<!-- Node6&#45;&gt;Node5 -->
<g id="edge5" class="edge">
<title>Node6&#45;&gt;Node5</title>
<path fill="none" stroke="#9a32cd" stroke-dasharray="5,2" d="M200.5729,-240.7598C200.4903,-232.9448 201.0043,-223.947 203,-216 204.5885,-209.6744 207.53,-203.179 210.525,-197.6116"/>
<polygon fill="#9a32cd" stroke="#9a32cd" points="197.0773,-240.9425 200.9945,-250.7865 204.0712,-240.6483 197.0773,-240.9425"/>
<text text-anchor="middle" x="222" y="-219" font-family="Helvetica,sans-Serif" font-size="10.00" fill="#000000"> keys</text>
</g>
<!-- Node7 -->
<g id="node7" class="node">
<title>Node7</title>
<g id="a_node7"><a xlink:title=" ">
<polygon fill="none" stroke="#bfbfbf" points="248.5,-251 248.5,-270 277.5,-270 277.5,-251 248.5,-251"/>
<text text-anchor="middle" x="263" y="-258" font-family="Helvetica,sans-Serif" font-size="10.00" fill="#000000">T</text>
</a>
</g>
</g>
<!-- Node7&#45;&gt;Node5 -->
<g id="edge6" class="edge">
<title>Node7&#45;&gt;Node5</title>
<path fill="none" stroke="#9a32cd" stroke-dasharray="5,2" d="M254.1741,-241.5946C250.3096,-233.6024 245.611,-224.2523 241,-216 237.5848,-209.8879 233.5573,-203.3282 229.9476,-197.6478"/>
<polygon fill="#9a32cd" stroke="#9a32cd" points="251.0991,-243.2784 258.5538,-250.8069 257.4211,-240.2728 251.0991,-243.2784"/>
<text text-anchor="middle" x="281" y="-219" font-family="Helvetica,sans-Serif" font-size="10.00" fill="#000000"> elements</text>
</g>
</g>
</svg>
