<?xml version="1.0" encoding="UTF-8" standalone="no"?>
<!DOCTYPE svg PUBLIC "-//W3C//DTD SVG 1.1//EN"
 "http://www.w3.org/Graphics/SVG/1.1/DTD/svg11.dtd">
<!-- Generated by graphviz version 2.40.1 (0)
 -->
<!-- Title: utils::Config::set_parsed_option Pages: 1 -->
<svg width="1068pt" height="99pt"
 viewBox="0.00 0.00 1068.00 98.53" xmlns="http://www.w3.org/2000/svg" xmlns:xlink="http://www.w3.org/1999/xlink">
<g id="graph0" class="graph" transform="scale(1 1) rotate(0) translate(4 94.5341)">
<title>utils::Config::set_parsed_option</title>
<!-- Node49 -->
<g id="node1" class="node">
<title>Node49</title>
<g id="a_node1"><a xlink:title=" ">
<polygon fill="#bfbfbf" stroke="#000000" points="908,-43.5341 908,-73.5341 1060,-73.5341 1060,-43.5341 908,-43.5341"/>
<text text-anchor="start" x="916" y="-61.5341" font-family="Helvetica,sans-Serif" font-size="10.00" fill="#000000">utils::Config::set</text>
<text text-anchor="middle" x="984" y="-50.5341" font-family="Helvetica,sans-Serif" font-size="10.00" fill="#000000">_parsed_option</text>
</a>
</g>
</g>
<!-- Node50 -->
<g id="node2" class="node">
<title>Node50</title>
<g id="a_node2"><a xlink:href="structutils_1_1_config.html#af1e5a2746bab1560d5f0fb7c1a50b939" target="_top" xlink:title=" ">
<polygon fill="none" stroke="#000000" points="225,-71.0341 225,-90.0341 429,-90.0341 429,-71.0341 225,-71.0341"/>
<text text-anchor="middle" x="327" y="-78.0341" font-family="Helvetica,sans-Serif" font-size="10.00" fill="#000000">utils::Config::parse_args</text>
</a>
</g>
</g>
<!-- Node49&#45;&gt;Node50 -->
<g id="edge1" class="edge">
<title>Node49&#45;&gt;Node50</title>
<path fill="none" stroke="#191970" d="M897.6879,-61.4243C776.927,-65.468 557.929,-72.8013 429.1802,-77.1125"/>
<polygon fill="#191970" stroke="#191970" points="898.1147,-64.912 907.9919,-61.0792 897.8804,-57.916 898.1147,-64.912"/>
</g>
<!-- Node52 -->
<g id="node4" class="node">
<title>Node52</title>
<g id="a_node4"><a xlink:href="structutils_1_1_config.html#ab5ca15af8b27ceafb626caf6080cc147" target="_top" xlink:title=" ">
<polygon fill="none" stroke="#000000" points="705,-21.5341 705,-51.5341 872,-51.5341 872,-21.5341 705,-21.5341"/>
<text text-anchor="start" x="713" y="-39.5341" font-family="Helvetica,sans-Serif" font-size="10.00" fill="#000000">utils::Config::parse</text>
<text text-anchor="middle" x="788.5" y="-28.5341" font-family="Helvetica,sans-Serif" font-size="10.00" fill="#000000">_file_content</text>
</a>
</g>
</g>
<!-- Node49&#45;&gt;Node52 -->
<g id="edge3" class="edge">
<title>Node49&#45;&gt;Node52</title>
<path fill="none" stroke="#191970" d="M897.9075,-48.8459C889.3733,-47.8855 880.7189,-46.9116 872.2094,-45.9541"/>
<polygon fill="#191970" stroke="#191970" points="897.5261,-52.325 907.8548,-49.9653 898.3089,-45.3689 897.5261,-52.325"/>
</g>
<!-- Node51 -->
<g id="node3" class="node">
<title>Node51</title>
<g id="a_node3"><a xlink:href="namespaceutils_1_1test.html#ab33de35534fb940b5f0acbbd7826e290" target="_top" xlink:title=" ">
<polygon fill="none" stroke="#000000" points="0,-27.0341 0,-46.0341 189,-46.0341 189,-27.0341 0,-27.0341"/>
<text text-anchor="middle" x="94.5" y="-34.0341" font-family="Helvetica,sans-Serif" font-size="10.00" fill="#000000">utils::test::TEST_SUITE</text>
</a>
</g>
</g>
<!-- Node50&#45;&gt;Node51 -->
<g id="edge2" class="edge">
<title>Node50&#45;&gt;Node51</title>
<path fill="none" stroke="#191970" d="M265.5607,-69.1421C252.1879,-66.6478 238.1172,-64.0122 225,-61.5341 198.2526,-56.4809 168.4365,-50.7746 144.0635,-46.0908"/>
<polygon fill="#191970" stroke="#191970" points="265.1517,-72.626 275.6236,-71.0169 266.4339,-65.7444 265.1517,-72.626"/>
</g>
<!-- Node52&#45;&gt;Node51 -->
<g id="edge7" class="edge">
<title>Node52&#45;&gt;Node51</title>
<path fill="none" stroke="#191970" d="M694.6411,-20.4083C685.9908,-19.2858 677.3449,-18.2984 669,-17.5341 472.4712,.466 421.4682,7.1152 225,-11.5341 193.9972,-14.4769 159.4018,-21.2683 133.6244,-27.0308"/>
<polygon fill="#191970" stroke="#191970" points="694.4006,-23.9077 704.7801,-21.7828 695.341,-16.9711 694.4006,-23.9077"/>
</g>
<!-- Node53 -->
<g id="node5" class="node">
<title>Node53</title>
<g id="a_node5"><a xlink:href="structutils_1_1_config.html#a164a833c182bcaeaa765fe07b394b5a8" target="_top" xlink:title=" ">
<polygon fill="none" stroke="#000000" points="465,-27.0341 465,-46.0341 669,-46.0341 669,-27.0341 465,-27.0341"/>
<text text-anchor="middle" x="567" y="-34.0341" font-family="Helvetica,sans-Serif" font-size="10.00" fill="#000000">utils::Config::parse_file</text>
</a>
</g>
</g>
<!-- Node52&#45;&gt;Node53 -->
<g id="edge4" class="edge">
<title>Node52&#45;&gt;Node53</title>
<path fill="none" stroke="#191970" d="M694.5749,-36.5341C686.1597,-36.5341 677.6117,-36.5341 669.1316,-36.5341"/>
<polygon fill="#191970" stroke="#191970" points="694.7604,-40.0342 704.7603,-36.5341 694.7603,-33.0342 694.7604,-40.0342"/>
</g>
<!-- Node53&#45;&gt;Node50 -->
<g id="edge5" class="edge">
<title>Node53&#45;&gt;Node50</title>
<path fill="none" stroke="#191970" d="M504.7266,-47.9509C465.6707,-55.1111 415.9051,-64.2348 378.9748,-71.0054"/>
<polygon fill="#191970" stroke="#191970" points="505.7187,-51.3274 514.9236,-46.0814 504.4563,-44.4422 505.7187,-51.3274"/>
</g>
<!-- Node54 -->
<g id="node6" class="node">
<title>Node54</title>
<g id="a_node6"><a xlink:href="structutils_1_1_config.html#a721b70a9e01d9b680b6976b2d25ef26d" target="_top" xlink:title=" ">
<polygon fill="none" stroke="#000000" points="243.5,-21.5341 243.5,-51.5341 410.5,-51.5341 410.5,-21.5341 243.5,-21.5341"/>
<text text-anchor="start" x="251.5" y="-39.5341" font-family="Helvetica,sans-Serif" font-size="10.00" fill="#000000">utils::Config::parse</text>
<text text-anchor="middle" x="327" y="-28.5341" font-family="Helvetica,sans-Serif" font-size="10.00" fill="#000000">_global_config</text>
</a>
</g>
</g>
<!-- Node53&#45;&gt;Node54 -->
<g id="edge6" class="edge">
<title>Node53&#45;&gt;Node54</title>
<path fill="none" stroke="#191970" d="M454.6324,-36.5341C439.7919,-36.5341 424.795,-36.5341 410.5548,-36.5341"/>
<polygon fill="#191970" stroke="#191970" points="454.8704,-40.0342 464.8704,-36.5341 454.8704,-33.0342 454.8704,-40.0342"/>
</g>
</g>
</svg>
