<?xml version="1.0" encoding="UTF-8" standalone="no"?>
<!DOCTYPE svg PUBLIC "-//W3C//DTD SVG 1.1//EN"
 "http://www.w3.org/Graphics/SVG/1.1/DTD/svg11.dtd">
<!-- Generated by graphviz version 2.40.1 (0)
 -->
<!-- Title: config::Config::parse_global_config Pages: 1 -->
<svg width="835pt" height="72pt"
 viewBox="0.00 0.00 835.00 71.50" xmlns="http://www.w3.org/2000/svg" xmlns:xlink="http://www.w3.org/1999/xlink">
<g id="graph0" class="graph" transform="scale(1 1) rotate(0) translate(4 67.5)">
<title>config::Config::parse_global_config</title>
<!-- Node37 -->
<g id="node1" class="node">
<title>Node37</title>
<g id="a_node1"><a xlink:title=" ">
<polygon fill="#bfbfbf" stroke="#000000" points="0,-14 0,-44 174,-44 174,-14 0,-14"/>
<text text-anchor="start" x="8" y="-32" font-family="Helvetica,sans-Serif" font-size="10.00" fill="#000000">config::Config::parse</text>
<text text-anchor="middle" x="87" y="-21" font-family="Helvetica,sans-Serif" font-size="10.00" fill="#000000">_global_config</text>
</a>
</g>
</g>
<!-- Node38 -->
<g id="node2" class="node">
<title>Node38</title>
<g id="a_node2"><a xlink:href="structconfig_1_1_config.html#a3210465814e32a5c7eba32e449999418" target="_top" xlink:title=" ">
<polygon fill="none" stroke="#000000" points="210,-38.5 210,-57.5 422,-57.5 422,-38.5 210,-38.5"/>
<text text-anchor="middle" x="316" y="-45.5" font-family="Helvetica,sans-Serif" font-size="10.00" fill="#000000">config::Config::parse_file</text>
</a>
</g>
</g>
<!-- Node37&#45;&gt;Node38 -->
<g id="edge1" class="edge">
<title>Node37&#45;&gt;Node38</title>
<path fill="none" stroke="#191970" d="M174.2283,-36.2373C182.5864,-36.9307 191.1502,-37.6413 199.7273,-38.3529"/>
<polygon fill="#191970" stroke="#191970" points="199.5355,-41.8489 209.7907,-39.1879 200.1143,-34.8729 199.5355,-41.8489"/>
</g>
<!-- Node41 -->
<g id="node5" class="node">
<title>Node41</title>
<g id="a_node5"><a xlink:href="namespaceutils.html#a5064b3980eb7aa98e3daf3bb12b3c3d8" target="_top" xlink:title=" ">
<polygon fill="none" stroke="#000000" points="225,-.5 225,-19.5 407,-19.5 407,-.5 225,-.5"/>
<text text-anchor="middle" x="316" y="-7.5" font-family="Helvetica,sans-Serif" font-size="10.00" fill="#000000">utils::get_kiwixz_home</text>
</a>
</g>
</g>
<!-- Node37&#45;&gt;Node41 -->
<g id="edge4" class="edge">
<title>Node37&#45;&gt;Node41</title>
<path fill="none" stroke="#191970" d="M174.2283,-21.7627C187.423,-20.668 201.1307,-19.5306 214.5937,-18.4136"/>
<polygon fill="#191970" stroke="#191970" points="215.1524,-21.8794 224.8287,-17.5644 214.5735,-14.9034 215.1524,-21.8794"/>
</g>
<!-- Node39 -->
<g id="node3" class="node">
<title>Node39</title>
<g id="a_node3"><a xlink:href="structconfig_1_1_config.html#afc03121b3fae6e2b06d68bfed7249ca0" target="_top" xlink:title=" ">
<polygon fill="none" stroke="#000000" points="458,-33 458,-63 632,-63 632,-33 458,-33"/>
<text text-anchor="start" x="466" y="-51" font-family="Helvetica,sans-Serif" font-size="10.00" fill="#000000">config::Config::parse</text>
<text text-anchor="middle" x="545" y="-40" font-family="Helvetica,sans-Serif" font-size="10.00" fill="#000000">_file_content</text>
</a>
</g>
</g>
<!-- Node38&#45;&gt;Node39 -->
<g id="edge2" class="edge">
<title>Node38&#45;&gt;Node39</title>
<path fill="none" stroke="#191970" d="M422.1204,-48C430.6045,-48 439.1503,-48 447.5701,-48"/>
<polygon fill="#191970" stroke="#191970" points="447.7653,-51.5001 457.7653,-48 447.7652,-44.5001 447.7653,-51.5001"/>
</g>
<!-- Node40 -->
<g id="node4" class="node">
<title>Node40</title>
<g id="a_node4"><a xlink:href="structconfig_1_1_config.html#ae876f154975287de4c120c68061bec1d" target="_top" xlink:title=" ">
<polygon fill="none" stroke="#000000" points="668,-33 668,-63 827,-63 827,-33 668,-33"/>
<text text-anchor="start" x="676" y="-51" font-family="Helvetica,sans-Serif" font-size="10.00" fill="#000000">config::Config::set</text>
<text text-anchor="middle" x="747.5" y="-40" font-family="Helvetica,sans-Serif" font-size="10.00" fill="#000000">_parsed_option</text>
</a>
</g>
</g>
<!-- Node39&#45;&gt;Node40 -->
<g id="edge3" class="edge">
<title>Node39&#45;&gt;Node40</title>
<path fill="none" stroke="#191970" d="M632.0534,-48C640.6057,-48 649.2958,-48 657.8731,-48"/>
<polygon fill="#191970" stroke="#191970" points="657.8754,-51.5001 667.8754,-48 657.8753,-44.5001 657.8754,-51.5001"/>
</g>
</g>
</svg>
