<?xml version="1.0" encoding="UTF-8" standalone="no"?>
<!DOCTYPE svg PUBLIC "-//W3C//DTD SVG 1.1//EN"
 "http://www.w3.org/Graphics/SVG/1.1/DTD/svg11.dtd">
<!-- Generated by graphviz version 2.40.1 (0)
 -->
<!-- Title: config::Config::set_parsed_option Pages: 1 -->
<svg width="1061pt" height="100pt"
 viewBox="0.00 0.00 1061.00 100.21" xmlns="http://www.w3.org/2000/svg" xmlns:xlink="http://www.w3.org/1999/xlink">
<g id="graph0" class="graph" transform="scale(1 1) rotate(0) translate(4 96.2143)">
<title>config::Config::set_parsed_option</title>
<!-- Node49 -->
<g id="node1" class="node">
<title>Node49</title>
<g id="a_node1"><a xlink:title=" ">
<polygon fill="#bfbfbf" stroke="#000000" points="894,-45.2143 894,-75.2143 1053,-75.2143 1053,-45.2143 894,-45.2143"/>
<text text-anchor="start" x="902" y="-63.2143" font-family="Helvetica,sans-Serif" font-size="10.00" fill="#000000">config::Config::set</text>
<text text-anchor="middle" x="973.5" y="-52.2143" font-family="Helvetica,sans-Serif" font-size="10.00" fill="#000000">_parsed_option</text>
</a>
</g>
</g>
<!-- Node50 -->
<g id="node2" class="node">
<title>Node50</title>
<g id="a_node2"><a xlink:href="structconfig_1_1_config.html#af7d0bbe0e41a086d991fc545cc886212" target="_top" xlink:title=" ">
<polygon fill="none" stroke="#000000" points="188,-72.7143 188,-91.7143 400,-91.7143 400,-72.7143 188,-72.7143"/>
<text text-anchor="middle" x="294" y="-79.7143" font-family="Helvetica,sans-Serif" font-size="10.00" fill="#000000">config::Config::parse_args</text>
</a>
</g>
</g>
<!-- Node49&#45;&gt;Node50 -->
<g id="edge1" class="edge">
<title>Node49&#45;&gt;Node50</title>
<path fill="none" stroke="#191970" d="M883.6014,-63.1249C758.7391,-67.1676 533.2091,-74.4695 400.2056,-78.7757"/>
<polygon fill="#191970" stroke="#191970" points="884.0075,-66.6137 893.889,-62.7918 883.7809,-59.6174 884.0075,-66.6137"/>
</g>
<!-- Node52 -->
<g id="node4" class="node">
<title>Node52</title>
<g id="a_node4"><a xlink:href="structconfig_1_1_config.html#afc03121b3fae6e2b06d68bfed7249ca0" target="_top" xlink:title=" ">
<polygon fill="none" stroke="#000000" points="684,-23.2143 684,-53.2143 858,-53.2143 858,-23.2143 684,-23.2143"/>
<text text-anchor="start" x="692" y="-41.2143" font-family="Helvetica,sans-Serif" font-size="10.00" fill="#000000">config::Config::parse</text>
<text text-anchor="middle" x="771" y="-30.2143" font-family="Helvetica,sans-Serif" font-size="10.00" fill="#000000">_file_content</text>
</a>
</g>
</g>
<!-- Node49&#45;&gt;Node52 -->
<g id="edge3" class="edge">
<title>Node49&#45;&gt;Node52</title>
<path fill="none" stroke="#191970" d="M883.7776,-50.4667C875.2201,-49.537 866.5514,-48.5952 858.0201,-47.6683"/>
<polygon fill="#191970" stroke="#191970" points="883.4378,-53.9503 893.7573,-51.5509 884.1939,-46.9912 883.4378,-53.9503"/>
</g>
<!-- Node51 -->
<g id="node3" class="node">
<title>Node51</title>
<g id="a_node3"><a xlink:href="namespaceconfig_1_1test.html#aaecf6f168613d97556ee5a67a4da8192" target="_top" xlink:title=" ">
<polygon fill="none" stroke="#000000" points="0,-23.2143 0,-53.2143 152,-53.2143 152,-23.2143 0,-23.2143"/>
<text text-anchor="start" x="8" y="-41.2143" font-family="Helvetica,sans-Serif" font-size="10.00" fill="#000000">config::test::TEST</text>
<text text-anchor="middle" x="76" y="-30.2143" font-family="Helvetica,sans-Serif" font-size="10.00" fill="#000000">_SUITE</text>
</a>
</g>
</g>
<!-- Node50&#45;&gt;Node51 -->
<g id="edge2" class="edge">
<title>Node50&#45;&gt;Node51</title>
<path fill="none" stroke="#191970" d="M228.282,-70.8809C214.9315,-68.4531 200.9993,-65.8289 188,-63.2143 172.7652,-60.15 156.4166,-56.6322 141.0473,-53.2216"/>
<polygon fill="#191970" stroke="#191970" points="227.8905,-74.3666 238.3528,-72.6957 229.132,-67.4776 227.8905,-74.3666"/>
</g>
<!-- Node52&#45;&gt;Node51 -->
<g id="edge7" class="edge">
<title>Node52&#45;&gt;Node51</title>
<path fill="none" stroke="#191970" d="M673.6619,-21.9966C665.0011,-20.9119 656.3534,-19.9574 648,-19.2143 444.3424,-1.0973 391.2304,9.192 188,-13.2143 169.5832,-15.2448 149.7664,-19.0993 131.9972,-23.1846"/>
<polygon fill="#191970" stroke="#191970" points="673.4487,-25.4985 683.8181,-23.325 674.3565,-18.5576 673.4487,-25.4985"/>
</g>
<!-- Node53 -->
<g id="node5" class="node">
<title>Node53</title>
<g id="a_node5"><a xlink:href="structconfig_1_1_config.html#a3210465814e32a5c7eba32e449999418" target="_top" xlink:title=" ">
<polygon fill="none" stroke="#000000" points="436,-28.7143 436,-47.7143 648,-47.7143 648,-28.7143 436,-28.7143"/>
<text text-anchor="middle" x="542" y="-35.7143" font-family="Helvetica,sans-Serif" font-size="10.00" fill="#000000">config::Config::parse_file</text>
</a>
</g>
</g>
<!-- Node52&#45;&gt;Node53 -->
<g id="edge4" class="edge">
<title>Node52&#45;&gt;Node53</title>
<path fill="none" stroke="#191970" d="M673.6002,-38.2143C665.2001,-38.2143 656.6743,-38.2143 648.2093,-38.2143"/>
<polygon fill="#191970" stroke="#191970" points="673.7717,-41.7144 683.7717,-38.2143 673.7716,-34.7144 673.7717,-41.7144"/>
</g>
<!-- Node53&#45;&gt;Node50 -->
<g id="edge5" class="edge">
<title>Node53&#45;&gt;Node50</title>
<path fill="none" stroke="#191970" d="M478.1655,-49.5398C437.731,-56.7136 386.0309,-65.8862 347.7073,-72.6856"/>
<polygon fill="#191970" stroke="#191970" points="478.9529,-52.9548 488.1877,-47.7616 477.73,-46.0625 478.9529,-52.9548"/>
</g>
<!-- Node54 -->
<g id="node6" class="node">
<title>Node54</title>
<g id="a_node6"><a xlink:href="structconfig_1_1_config.html#aa74a49a1a5b3dec46be873d829f17f30" target="_top" xlink:title=" ">
<polygon fill="none" stroke="#000000" points="207,-23.2143 207,-53.2143 381,-53.2143 381,-23.2143 207,-23.2143"/>
<text text-anchor="start" x="215" y="-41.2143" font-family="Helvetica,sans-Serif" font-size="10.00" fill="#000000">config::Config::parse</text>
<text text-anchor="middle" x="294" y="-30.2143" font-family="Helvetica,sans-Serif" font-size="10.00" fill="#000000">_global_config</text>
</a>
</g>
</g>
<!-- Node53&#45;&gt;Node54 -->
<g id="edge6" class="edge">
<title>Node53&#45;&gt;Node54</title>
<path fill="none" stroke="#191970" d="M425.4972,-38.2143C410.6444,-38.2143 395.6475,-38.2143 381.3633,-38.2143"/>
<polygon fill="#191970" stroke="#191970" points="425.7465,-41.7144 435.7464,-38.2143 425.7464,-34.7144 425.7465,-41.7144"/>
</g>
</g>
</svg>
