<?xml version="1.0" encoding="UTF-8" standalone="no"?>
<!DOCTYPE svg PUBLIC "-//W3C//DTD SVG 1.1//EN"
 "http://www.w3.org/Graphics/SVG/1.1/DTD/svg11.dtd">
<!-- Generated by graphviz version 2.40.1 (0)
 -->
<!-- Title: utils::ThreadPool::extend Pages: 1 -->
<svg width="392pt" height="78pt"
 viewBox="0.00 0.00 392.00 77.50" xmlns="http://www.w3.org/2000/svg" xmlns:xlink="http://www.w3.org/1999/xlink">
<g id="graph0" class="graph" transform="scale(1 1) rotate(0) translate(4 73.5)">
<title>utils::ThreadPool::extend</title>
<!-- Node12 -->
<g id="node1" class="node">
<title>Node12</title>
<g id="a_node1"><a xlink:title=" ">
<polygon fill="#bfbfbf" stroke="#000000" points="225,-17 225,-47 384,-47 384,-17 225,-17"/>
<text text-anchor="start" x="233" y="-35" font-family="Helvetica,sans-Serif" font-size="10.00" fill="#000000">utils::ThreadPool::</text>
<text text-anchor="middle" x="304.5" y="-24" font-family="Helvetica,sans-Serif" font-size="10.00" fill="#000000">extend</text>
</a>
</g>
</g>
<!-- Node13 -->
<g id="node2" class="node">
<title>Node13</title>
<g id="a_node2"><a xlink:href="structutils_1_1_thread_pool.html#ab4d69127d0f0ee7fc7dbfe73f9c05e66" target="_top" xlink:title=" ">
<polygon fill="none" stroke="#000000" points="15,-39 15,-69 174,-69 174,-39 15,-39"/>
<text text-anchor="start" x="23" y="-57" font-family="Helvetica,sans-Serif" font-size="10.00" fill="#000000">utils::ThreadPool::</text>
<text text-anchor="middle" x="94.5" y="-46" font-family="Helvetica,sans-Serif" font-size="10.00" fill="#000000">ThreadPool</text>
</a>
</g>
</g>
<!-- Node12&#45;&gt;Node13 -->
<g id="edge1" class="edge">
<title>Node12&#45;&gt;Node13</title>
<path fill="none" stroke="#191970" d="M214.6017,-41.4179C201.1485,-42.8273 187.3575,-44.2721 174.137,-45.6571"/>
<polygon fill="#191970" stroke="#191970" points="215.2277,-44.8716 224.8086,-40.3486 214.4983,-37.9097 215.2277,-44.8716"/>
</g>
<!-- Node14 -->
<g id="node3" class="node">
<title>Node14</title>
<g id="a_node3"><a xlink:href="namespaceutils_1_1test.html#a226d01c8ba4f6049e8b11769b32dc88d" target="_top" xlink:title=" ">
<polygon fill="none" stroke="#000000" points="0,-.5 0,-19.5 189,-19.5 189,-.5 0,-.5"/>
<text text-anchor="middle" x="94.5" y="-7.5" font-family="Helvetica,sans-Serif" font-size="10.00" fill="#000000">utils::test::TEST_SUITE</text>
</a>
</g>
</g>
<!-- Node12&#45;&gt;Node14 -->
<g id="edge2" class="edge">
<title>Node12&#45;&gt;Node14</title>
<path fill="none" stroke="#191970" d="M214.7539,-22.598C205.0297,-21.5793 195.1271,-20.5419 185.3895,-19.5218"/>
<polygon fill="#191970" stroke="#191970" points="214.4983,-26.0903 224.8086,-23.6514 215.2277,-19.1284 214.4983,-26.0903"/>
</g>
</g>
</svg>
