<?xml version="1.0" encoding="UTF-8" standalone="no"?>
<!DOCTYPE svg PUBLIC "-//W3C//DTD SVG 1.1//EN"
 "http://www.w3.org/Graphics/SVG/1.1/DTD/svg11.dtd">
<!-- Generated by graphviz version 2.40.1 (0)
 -->
<!-- Title: utils::Config::get_raw Pages: 1 -->
<svg width="656pt" height="116pt"
 viewBox="0.00 0.00 656.00 115.50" xmlns="http://www.w3.org/2000/svg" xmlns:xlink="http://www.w3.org/1999/xlink">
<g id="graph0" class="graph" transform="scale(1 1) rotate(0) translate(4 111.5)">
<title>utils::Config::get_raw</title>
<!-- Node16 -->
<g id="node1" class="node">
<title>Node16</title>
<g id="a_node1"><a xlink:title=" ">
<polygon fill="#bfbfbf" stroke="#000000" points="466,-38.5 466,-57.5 648,-57.5 648,-38.5 466,-38.5"/>
<text text-anchor="middle" x="557" y="-45.5" font-family="Helvetica,sans-Serif" font-size="10.00" fill="#000000">utils::Config::get_raw</text>
</a>
</g>
</g>
<!-- Node17 -->
<g id="node2" class="node">
<title>Node17</title>
<g id="a_node2"><a xlink:href="namespacesoe_1_1anonymous__namespace_02main_8cpp_03.html#a0a1c3f9ecefea3a3fa41db8ad79733bc" target="_top" xlink:title=" ">
<polygon fill="none" stroke="#000000" points="233,-77 233,-107 430,-107 430,-77 233,-77"/>
<text text-anchor="start" x="241" y="-95" font-family="Helvetica,sans-Serif" font-size="10.00" fill="#000000">soe::anonymous_namespace</text>
<text text-anchor="middle" x="331.5" y="-84" font-family="Helvetica,sans-Serif" font-size="10.00" fill="#000000">{main::cpp}::main_impl</text>
</a>
</g>
</g>
<!-- Node16&#45;&gt;Node17 -->
<g id="edge1" class="edge">
<title>Node16&#45;&gt;Node17</title>
<path fill="none" stroke="#191970" d="M497.9042,-59.5309C470.6333,-64.852 437.9014,-71.2387 408.71,-76.9346"/>
<polygon fill="#191970" stroke="#191970" points="498.9253,-62.8977 508.0699,-57.5473 497.5846,-56.0273 498.9253,-62.8977"/>
</g>
<!-- Node19 -->
<g id="node4" class="node">
<title>Node19</title>
<g id="a_node4"><a xlink:href="namespaceutils_1_1test.html#ab33de35534fb940b5f0acbbd7826e290" target="_top" xlink:title=" ">
<polygon fill="none" stroke="#000000" points="4,-19.5 4,-38.5 193,-38.5 193,-19.5 4,-19.5"/>
<text text-anchor="middle" x="98.5" y="-26.5" font-family="Helvetica,sans-Serif" font-size="10.00" fill="#000000">utils::test::TEST_SUITE</text>
</a>
</g>
</g>
<!-- Node16&#45;&gt;Node19 -->
<g id="edge3" class="edge">
<title>Node16&#45;&gt;Node19</title>
<path fill="none" stroke="#191970" d="M455.4956,-43.7937C377.1424,-40.5468 269.5439,-36.088 193.0069,-32.9163"/>
<polygon fill="#191970" stroke="#191970" points="455.7306,-47.3064 465.867,-44.2235 456.0205,-40.3124 455.7306,-47.3064"/>
</g>
<!-- Node20 -->
<g id="node5" class="node">
<title>Node20</title>
<g id="a_node5"><a xlink:href="structutils_1_1_config.html#a9ac97301b26e5c7ea2b6ac446b19eb4b" target="_top" xlink:title=" ">
<polygon fill="none" stroke="#000000" points="255.5,-.5 255.5,-19.5 407.5,-19.5 407.5,-.5 255.5,-.5"/>
<text text-anchor="middle" x="331.5" y="-7.5" font-family="Helvetica,sans-Serif" font-size="10.00" fill="#000000">utils::Config::get</text>
</a>
</g>
</g>
<!-- Node16&#45;&gt;Node20 -->
<g id="edge4" class="edge">
<title>Node16&#45;&gt;Node20</title>
<path fill="none" stroke="#191970" d="M490.5075,-36.795C457.9782,-31.3134 419.2344,-24.7845 388.1354,-19.5439"/>
<polygon fill="#191970" stroke="#191970" points="489.9453,-40.2496 500.3879,-38.46 491.1086,-33.3469 489.9453,-40.2496"/>
</g>
<!-- Node18 -->
<g id="node3" class="node">
<title>Node18</title>
<g id="a_node3"><a xlink:href="namespacesoe_1_1anonymous__namespace_02main_8cpp_03.html#af669b3519bb5e7bf1085235bfc8c43cd" target="_top" xlink:title=" ">
<polygon fill="none" stroke="#000000" points="0,-77 0,-107 197,-107 197,-77 0,-77"/>
<text text-anchor="start" x="8" y="-95" font-family="Helvetica,sans-Serif" font-size="10.00" fill="#000000">soe::anonymous_namespace</text>
<text text-anchor="middle" x="98.5" y="-84" font-family="Helvetica,sans-Serif" font-size="10.00" fill="#000000">{main::cpp}::main</text>
</a>
</g>
</g>
<!-- Node17&#45;&gt;Node18 -->
<g id="edge2" class="edge">
<title>Node17&#45;&gt;Node18</title>
<path fill="none" stroke="#191970" d="M222.419,-92C213.97,-92 205.4688,-92 197.094,-92"/>
<polygon fill="#191970" stroke="#191970" points="222.6871,-95.5001 232.687,-92 222.687,-88.5001 222.6871,-95.5001"/>
</g>
<!-- Node20&#45;&gt;Node19 -->
<g id="edge5" class="edge">
<title>Node20&#45;&gt;Node19</title>
<path fill="none" stroke="#191970" d="M244.868,-17.0644C228.0562,-18.4353 210.3544,-19.8788 193.2963,-21.2698"/>
<polygon fill="#191970" stroke="#191970" points="245.5247,-20.5226 255.2071,-16.2213 244.9557,-13.5457 245.5247,-20.5226"/>
</g>
</g>
</svg>
