<?xml version="1.0" encoding="UTF-8" standalone="no"?>
<!DOCTYPE svg PUBLIC "-//W3C//DTD SVG 1.1//EN"
 "http://www.w3.org/Graphics/SVG/1.1/DTD/svg11.dtd">
<!-- Generated by graphviz version 2.40.1 (0)
 -->
<!-- Title: config::Config::parse_file Pages: 1 -->
<svg width="625pt" height="39pt"
 viewBox="0.00 0.00 625.00 39.00" xmlns="http://www.w3.org/2000/svg" xmlns:xlink="http://www.w3.org/1999/xlink">
<g id="graph0" class="graph" transform="scale(1 1) rotate(0) translate(4 35)">
<title>config::Config::parse_file</title>
<!-- Node23 -->
<g id="node1" class="node">
<title>Node23</title>
<g id="a_node1"><a xlink:title=" ">
<polygon fill="#bfbfbf" stroke="#000000" points="0,-6 0,-25 212,-25 212,-6 0,-6"/>
<text text-anchor="middle" x="106" y="-13" font-family="Helvetica,sans-Serif" font-size="10.00" fill="#000000">config::Config::parse_file</text>
</a>
</g>
</g>
<!-- Node24 -->
<g id="node2" class="node">
<title>Node24</title>
<g id="a_node2"><a xlink:href="structconfig_1_1_config.html#afc03121b3fae6e2b06d68bfed7249ca0" target="_top" xlink:title=" ">
<polygon fill="none" stroke="#000000" points="248,-.5 248,-30.5 422,-30.5 422,-.5 248,-.5"/>
<text text-anchor="start" x="256" y="-18.5" font-family="Helvetica,sans-Serif" font-size="10.00" fill="#000000">config::Config::parse</text>
<text text-anchor="middle" x="335" y="-7.5" font-family="Helvetica,sans-Serif" font-size="10.00" fill="#000000">_file_content</text>
</a>
</g>
</g>
<!-- Node23&#45;&gt;Node24 -->
<g id="edge1" class="edge">
<title>Node23&#45;&gt;Node24</title>
<path fill="none" stroke="#191970" d="M212.1204,-15.5C220.6045,-15.5 229.1503,-15.5 237.5701,-15.5"/>
<polygon fill="#191970" stroke="#191970" points="237.7653,-19.0001 247.7653,-15.5 237.7652,-12.0001 237.7653,-19.0001"/>
</g>
<!-- Node25 -->
<g id="node3" class="node">
<title>Node25</title>
<g id="a_node3"><a xlink:href="structconfig_1_1_config.html#ae876f154975287de4c120c68061bec1d" target="_top" xlink:title=" ">
<polygon fill="none" stroke="#000000" points="458,-.5 458,-30.5 617,-30.5 617,-.5 458,-.5"/>
<text text-anchor="start" x="466" y="-18.5" font-family="Helvetica,sans-Serif" font-size="10.00" fill="#000000">config::Config::set</text>
<text text-anchor="middle" x="537.5" y="-7.5" font-family="Helvetica,sans-Serif" font-size="10.00" fill="#000000">_parsed_option</text>
</a>
</g>
</g>
<!-- Node24&#45;&gt;Node25 -->
<g id="edge2" class="edge">
<title>Node24&#45;&gt;Node25</title>
<path fill="none" stroke="#191970" d="M422.0534,-15.5C430.6057,-15.5 439.2958,-15.5 447.8731,-15.5"/>
<polygon fill="#191970" stroke="#191970" points="447.8754,-19.0001 457.8754,-15.5 447.8753,-12.0001 447.8754,-19.0001"/>
</g>
</g>
</svg>
