<?xml version="1.0" encoding="UTF-8" standalone="no"?>
<!DOCTYPE svg PUBLIC "-//W3C//DTD SVG 1.1//EN"
 "http://www.w3.org/Graphics/SVG/1.1/DTD/svg11.dtd">
<!-- Generated by graphviz version 2.40.1 (0)
 -->
<!-- Title: utils::Config::get_raw Pages: 1 -->
<svg width="844pt" height="86pt"
 viewBox="0.00 0.00 844.00 85.50" xmlns="http://www.w3.org/2000/svg" xmlns:xlink="http://www.w3.org/1999/xlink">
<g id="graph0" class="graph" transform="scale(1 1) rotate(0) translate(4 81.5)">
<title>utils::Config::get_raw</title>
<!-- Node18 -->
<g id="node1" class="node">
<title>Node18</title>
<g id="a_node1"><a xlink:title=" ">
<polygon fill="#bfbfbf" stroke="#000000" points="654,-22.5 654,-41.5 836,-41.5 836,-22.5 654,-22.5"/>
<text text-anchor="middle" x="745" y="-29.5" font-family="Helvetica,sans-Serif" font-size="10.00" fill="#000000">utils::Config::get_raw</text>
</a>
</g>
</g>
<!-- Node19 -->
<g id="node2" class="node">
<title>Node19</title>
<g id="a_node2"><a xlink:href="namespacesoe_1_1anonymous__namespace_02main_8cpp_03.html#a0a1c3f9ecefea3a3fa41db8ad79733bc" target="_top" xlink:title=" ">
<polygon fill="none" stroke="#000000" points="233,-47 233,-77 430,-77 430,-47 233,-47"/>
<text text-anchor="start" x="241" y="-65" font-family="Helvetica,sans-Serif" font-size="10.00" fill="#000000">soe::anonymous_namespace</text>
<text text-anchor="middle" x="331.5" y="-54" font-family="Helvetica,sans-Serif" font-size="10.00" fill="#000000">{main::cpp}::main_impl</text>
</a>
</g>
</g>
<!-- Node18&#45;&gt;Node19 -->
<g id="edge1" class="edge">
<title>Node18&#45;&gt;Node19</title>
<path fill="none" stroke="#191970" d="M680.5355,-43.0497C660.5486,-46.0966 638.4128,-49.0871 618,-51 555.6794,-56.8403 485.4549,-59.5971 430.1286,-60.8905"/>
<polygon fill="#191970" stroke="#191970" points="681.1199,-46.5009 690.4631,-41.5054 680.0439,-39.5841 681.1199,-46.5009"/>
</g>
<!-- Node21 -->
<g id="node4" class="node">
<title>Node21</title>
<g id="a_node4"><a xlink:href="namespaceutils_1_1test.html#ab33de35534fb940b5f0acbbd7826e290" target="_top" xlink:title=" ">
<polygon fill="none" stroke="#000000" points="237,-.5 237,-19.5 426,-19.5 426,-.5 237,-.5"/>
<text text-anchor="middle" x="331.5" y="-7.5" font-family="Helvetica,sans-Serif" font-size="10.00" fill="#000000">utils::test::TEST_SUITE</text>
</a>
</g>
</g>
<!-- Node18&#45;&gt;Node21 -->
<g id="edge3" class="edge">
<title>Node18&#45;&gt;Node21</title>
<path fill="none" stroke="#191970" d="M682.234,-20.8559C661.8175,-17.7016 639.0078,-14.6734 618,-13 554.159,-7.9147 482.0662,-7.1857 426.1697,-7.7174"/>
<polygon fill="#191970" stroke="#191970" points="681.9324,-24.3517 692.3569,-22.4596 683.0277,-17.4379 681.9324,-24.3517"/>
</g>
<!-- Node22 -->
<g id="node5" class="node">
<title>Node22</title>
<g id="a_node5"><a xlink:href="structutils_1_1_config.html#a934b0d1f82647c9a599e6a928d9fe2a7" target="_top" xlink:title=" ">
<polygon fill="none" stroke="#000000" points="466,-22.5 466,-41.5 618,-41.5 618,-22.5 466,-22.5"/>
<text text-anchor="middle" x="542" y="-29.5" font-family="Helvetica,sans-Serif" font-size="10.00" fill="#000000">utils::Config::get</text>
</a>
</g>
</g>
<!-- Node18&#45;&gt;Node22 -->
<g id="edge4" class="edge">
<title>Node18&#45;&gt;Node22</title>
<path fill="none" stroke="#191970" d="M643.8111,-32C635.2103,-32 626.6066,-32 618.2468,-32"/>
<polygon fill="#191970" stroke="#191970" points="643.8915,-35.5001 653.8915,-32 643.8915,-28.5001 643.8915,-35.5001"/>
</g>
<!-- Node20 -->
<g id="node3" class="node">
<title>Node20</title>
<g id="a_node3"><a xlink:href="namespacesoe_1_1anonymous__namespace_02main_8cpp_03.html#af669b3519bb5e7bf1085235bfc8c43cd" target="_top" xlink:title=" ">
<polygon fill="none" stroke="#000000" points="0,-47 0,-77 197,-77 197,-47 0,-47"/>
<text text-anchor="start" x="8" y="-65" font-family="Helvetica,sans-Serif" font-size="10.00" fill="#000000">soe::anonymous_namespace</text>
<text text-anchor="middle" x="98.5" y="-54" font-family="Helvetica,sans-Serif" font-size="10.00" fill="#000000">{main::cpp}::main</text>
</a>
</g>
</g>
<!-- Node19&#45;&gt;Node20 -->
<g id="edge2" class="edge">
<title>Node19&#45;&gt;Node20</title>
<path fill="none" stroke="#191970" d="M222.419,-62C213.97,-62 205.4688,-62 197.094,-62"/>
<polygon fill="#191970" stroke="#191970" points="222.6871,-65.5001 232.687,-62 222.687,-58.5001 222.6871,-65.5001"/>
</g>
<!-- Node22&#45;&gt;Node19 -->
<g id="edge5" class="edge">
<title>Node22&#45;&gt;Node19</title>
<path fill="none" stroke="#191970" d="M464.8699,-42.9924C453.5615,-44.6041 441.7857,-46.2823 430.119,-47.945"/>
<polygon fill="#191970" stroke="#191970" points="465.7011,-46.4094 475.1073,-41.5334 464.7134,-39.4794 465.7011,-46.4094"/>
</g>
<!-- Node22&#45;&gt;Node21 -->
<g id="edge6" class="edge">
<title>Node22&#45;&gt;Node21</title>
<path fill="none" stroke="#191970" d="M455.7543,-22.9862C444.8147,-21.8429 433.5917,-20.6699 422.5796,-19.519"/>
<polygon fill="#191970" stroke="#191970" points="455.3974,-26.4679 465.707,-24.0264 456.1251,-19.5058 455.3974,-26.4679"/>
</g>
</g>
</svg>
