<?xml version="1.0" encoding="UTF-8" standalone="no"?>
<!DOCTYPE svg PUBLIC "-//W3C//DTD SVG 1.1//EN"
 "http://www.w3.org/Graphics/SVG/1.1/DTD/svg11.dtd">
<!-- Generated by graphviz version 2.40.1 (0)
 -->
<!-- Title: utils::SharedHandle&lt; TInit, TCleanup &gt; Pages: 1 -->
<svg width="197pt" height="240pt"
 viewBox="0.00 0.00 197.00 240.00" xmlns="http://www.w3.org/2000/svg" xmlns:xlink="http://www.w3.org/1999/xlink">
<g id="graph0" class="graph" transform="scale(1 1) rotate(0) translate(4 236)">
<title>utils::SharedHandle&lt; TInit, TCleanup &gt;</title>
<!-- Node1 -->
<g id="node1" class="node">
<title>Node1</title>
<g id="a_node1"><a xlink:title=" ">
<polygon fill="#bfbfbf" stroke="#000000" points="15,-.5 15,-30.5 174,-30.5 174,-.5 15,-.5"/>
<text text-anchor="start" x="23" y="-18.5" font-family="Helvetica,sans-Serif" font-size="10.00" fill="#000000">utils::SharedHandle</text>
<text text-anchor="middle" x="94.5" y="-7.5" font-family="Helvetica,sans-Serif" font-size="10.00" fill="#000000">&lt; TInit, TCleanup &gt;</text>
</a>
</g>
</g>
<!-- Node2 -->
<g id="node2" class="node">
<title>Node2</title>
<g id="a_node2"><a xlink:title=" ">
<polygon fill="none" stroke="#bfbfbf" points="0,-78.5 0,-97.5 189,-97.5 189,-78.5 0,-78.5"/>
<text text-anchor="middle" x="94.5" y="-85.5" font-family="Helvetica,sans-Serif" font-size="10.00" fill="#000000">std::shared_ptr&lt; void &gt;</text>
</a>
</g>
</g>
<!-- Node2&#45;&gt;Node1 -->
<g id="edge1" class="edge">
<title>Node2&#45;&gt;Node1</title>
<path fill="none" stroke="#9a32cd" stroke-dasharray="5,2" d="M94.5,-68.0177C94.5,-56.2164 94.5,-41.513 94.5,-30.668"/>
<polygon fill="#9a32cd" stroke="#9a32cd" points="91.0001,-68.2223 94.5,-78.2223 98.0001,-68.2224 91.0001,-68.2223"/>
<text text-anchor="middle" x="132.5" y="-52" font-family="Helvetica,sans-Serif" font-size="10.00" fill="#000000"> instance_</text>
</g>
<!-- Node3 -->
<g id="node3" class="node">
<title>Node3</title>
<g id="a_node3"><a xlink:title="STL class.">
<polygon fill="none" stroke="#bfbfbf" points="11,-145.5 11,-164.5 178,-164.5 178,-145.5 11,-145.5"/>
<text text-anchor="middle" x="94.5" y="-152.5" font-family="Helvetica,sans-Serif" font-size="10.00" fill="#000000">std::shared_ptr&lt; T &gt;</text>
</a>
</g>
</g>
<!-- Node3&#45;&gt;Node2 -->
<g id="edge2" class="edge">
<title>Node3&#45;&gt;Node2</title>
<path fill="none" stroke="#ffa500" stroke-dasharray="5,2" d="M94.5,-135.1079C94.5,-122.714 94.5,-107.3263 94.5,-97.5817"/>
<polygon fill="#ffa500" stroke="#ffa500" points="91.0001,-135.4005 94.5,-145.4005 98.0001,-135.4006 91.0001,-135.4005"/>
<text text-anchor="middle" x="128.5" y="-119" font-family="Helvetica,sans-Serif" font-size="10.00" fill="#000000"> &lt; void &gt;</text>
</g>
<!-- Node4 -->
<g id="node4" class="node">
<title>Node4</title>
<g id="a_node4"><a xlink:title=" ">
<polygon fill="none" stroke="#bfbfbf" points="80,-212.5 80,-231.5 109,-231.5 109,-212.5 80,-212.5"/>
<text text-anchor="middle" x="94.5" y="-219.5" font-family="Helvetica,sans-Serif" font-size="10.00" fill="#000000">T</text>
</a>
</g>
</g>
<!-- Node4&#45;&gt;Node3 -->
<g id="edge3" class="edge">
<title>Node4&#45;&gt;Node3</title>
<path fill="none" stroke="#9a32cd" stroke-dasharray="5,2" d="M94.5,-202.1079C94.5,-189.714 94.5,-174.3263 94.5,-164.5817"/>
<polygon fill="#9a32cd" stroke="#9a32cd" points="91.0001,-202.4005 94.5,-212.4005 98.0001,-202.4006 91.0001,-202.4005"/>
<text text-anchor="middle" x="110" y="-186" font-family="Helvetica,sans-Serif" font-size="10.00" fill="#000000"> ptr</text>
</g>
</g>
</svg>
