<?xml version="1.0" encoding="UTF-8" standalone="no"?>
<!DOCTYPE svg PUBLIC "-//W3C//DTD SVG 1.1//EN"
 "http://www.w3.org/Graphics/SVG/1.1/DTD/svg11.dtd">
<!-- Generated by graphviz version 2.40.1 (0)
 -->
<!-- Title: utils::Rand64::operator() Pages: 1 -->
<svg width="648pt" height="39pt"
 viewBox="0.00 0.00 648.00 39.00" xmlns="http://www.w3.org/2000/svg" xmlns:xlink="http://www.w3.org/1999/xlink">
<g id="graph0" class="graph" transform="scale(1 1) rotate(0) translate(4 35)">
<title>utils::Rand64::operator()</title>
<!-- Node6 -->
<g id="node1" class="node">
<title>Node6</title>
<g id="a_node1"><a xlink:title=" ">
<polygon fill="#bfbfbf" stroke="#000000" points="0,-6 0,-25 204,-25 204,-6 0,-6"/>
<text text-anchor="middle" x="102" y="-13" font-family="Helvetica,sans-Serif" font-size="10.00" fill="#000000">utils::Rand64::operator()</text>
</a>
</g>
</g>
<!-- Node7 -->
<g id="node2" class="node">
<title>Node7</title>
<g id="a_node2"><a xlink:href="structutils_1_1_rand64.html#a981da814462c185b46443a2a283d92ea" target="_top" xlink:title=" ">
<polygon fill="none" stroke="#000000" points="240,-6 240,-25 392,-25 392,-6 240,-6"/>
<text text-anchor="middle" x="316" y="-13" font-family="Helvetica,sans-Serif" font-size="10.00" fill="#000000">utils::Rand64::gen</text>
</a>
</g>
</g>
<!-- Node6&#45;&gt;Node7 -->
<g id="edge1" class="edge">
<title>Node6&#45;&gt;Node7</title>
<path fill="none" stroke="#191970" d="M204.2992,-15.5C212.7794,-15.5 221.299,-15.5 229.6445,-15.5"/>
<polygon fill="#191970" stroke="#191970" points="229.7235,-19.0001 239.7234,-15.5 229.7234,-12.0001 229.7235,-19.0001"/>
</g>
<!-- Node8 -->
<g id="node3" class="node">
<title>Node8</title>
<g id="a_node3"><a xlink:href="namespaceutils_1_1anonymous__namespace_02rand_8cpp_03.html#acd7a8833614bed05674ed60d65c2f89c" target="_top" xlink:title=" ">
<polygon fill="none" stroke="#000000" points="428,-.5 428,-30.5 640,-30.5 640,-.5 428,-.5"/>
<text text-anchor="start" x="436" y="-18.5" font-family="Helvetica,sans-Serif" font-size="10.00" fill="#000000">utils::anonymous_namespace</text>
<text text-anchor="middle" x="534" y="-7.5" font-family="Helvetica,sans-Serif" font-size="10.00" fill="#000000">{rand::cpp}::rotl</text>
</a>
</g>
</g>
<!-- Node7&#45;&gt;Node8 -->
<g id="edge2" class="edge">
<title>Node7&#45;&gt;Node8</title>
<path fill="none" stroke="#191970" d="M392.2458,-15.5C400.5413,-15.5 409.1159,-15.5 417.7514,-15.5"/>
<polygon fill="#191970" stroke="#191970" points="417.9037,-19.0001 427.9037,-15.5 417.9036,-12.0001 417.9037,-19.0001"/>
</g>
</g>
</svg>
