<?xml version="1.0" encoding="UTF-8" standalone="no"?>
<!DOCTYPE svg PUBLIC "-//W3C//DTD SVG 1.1//EN"
 "http://www.w3.org/Graphics/SVG/1.1/DTD/svg11.dtd">
<!-- Generated by graphviz version 2.40.1 (0)
 -->
<!-- Title: utils/include/utils/thread_pool.h Pages: 1 -->
<svg width="787pt" height="151pt"
 viewBox="0.00 0.00 786.50 151.00" xmlns="http://www.w3.org/2000/svg" xmlns:xlink="http://www.w3.org/1999/xlink">
<g id="graph0" class="graph" transform="scale(1 1) rotate(0) translate(4 147)">
<title>utils/include/utils/thread_pool.h</title>
<!-- Node0 -->
<g id="node1" class="node">
<title>Node0</title>
<g id="a_node1"><a xlink:title=" ">
<polygon fill="#bfbfbf" stroke="#000000" points="394,-112.5 394,-142.5 553,-142.5 553,-112.5 394,-112.5"/>
<text text-anchor="start" x="402" y="-130.5" font-family="Helvetica,sans-Serif" font-size="10.00" fill="#000000">utils/include/utils</text>
<text text-anchor="middle" x="473.5" y="-119.5" font-family="Helvetica,sans-Serif" font-size="10.00" fill="#000000">/thread_pool.h</text>
</a>
</g>
</g>
<!-- Node1 -->
<g id="node2" class="node">
<title>Node1</title>
<g id="a_node2"><a xlink:href="exception_8h.html" target="_top" xlink:title=" ">
<polygon fill="none" stroke="#000000" points="94.5,-56.5 94.5,-75.5 238.5,-75.5 238.5,-56.5 94.5,-56.5"/>
<text text-anchor="middle" x="166.5" y="-63.5" font-family="Helvetica,sans-Serif" font-size="10.00" fill="#000000">utils/exception.h</text>
</a>
</g>
</g>
<!-- Node0&#45;&gt;Node1 -->
<g id="edge1" class="edge">
<title>Node0&#45;&gt;Node1</title>
<path fill="none" stroke="#191970" d="M398.3994,-112.4554C344.592,-101.6764 273.2158,-87.3779 223.9325,-77.5052"/>
<polygon fill="#191970" stroke="#191970" points="224.5668,-74.0628 214.0741,-75.5303 223.1918,-80.9264 224.5668,-74.0628"/>
</g>
<!-- Node5 -->
<g id="node6" class="node">
<title>Node5</title>
<g id="a_node6"><a xlink:title=" ">
<polygon fill="none" stroke="#bfbfbf" points="256.5,-56.5 256.5,-75.5 348.5,-75.5 348.5,-56.5 256.5,-56.5"/>
<text text-anchor="middle" x="302.5" y="-63.5" font-family="Helvetica,sans-Serif" font-size="10.00" fill="#000000">functional</text>
</a>
</g>
</g>
<!-- Node0&#45;&gt;Node5 -->
<g id="edge5" class="edge">
<title>Node0&#45;&gt;Node5</title>
<path fill="none" stroke="#191970" d="M431.6687,-112.4554C403.1369,-102.194 365.7365,-88.7429 338.5271,-78.9571"/>
<polygon fill="#191970" stroke="#191970" points="339.5934,-75.6212 328.9989,-75.5303 337.2243,-82.2081 339.5934,-75.6212"/>
</g>
<!-- Node6 -->
<g id="node7" class="node">
<title>Node6</title>
<g id="a_node7"><a xlink:title=" ">
<polygon fill="none" stroke="#bfbfbf" points="366.5,-56.5 366.5,-75.5 428.5,-75.5 428.5,-56.5 366.5,-56.5"/>
<text text-anchor="middle" x="397.5" y="-63.5" font-family="Helvetica,sans-Serif" font-size="10.00" fill="#000000">future</text>
</a>
</g>
</g>
<!-- Node0&#45;&gt;Node6 -->
<g id="edge6" class="edge">
<title>Node0&#45;&gt;Node6</title>
<path fill="none" stroke="#191970" d="M454.7135,-112.2977C443.3947,-103.1384 428.9895,-91.4816 417.4654,-82.1562"/>
<polygon fill="#191970" stroke="#191970" points="419.6439,-79.4167 409.6686,-75.8469 415.2405,-84.8583 419.6439,-79.4167"/>
</g>
<!-- Node7 -->
<g id="node8" class="node">
<title>Node7</title>
<g id="a_node8"><a xlink:title=" ">
<polygon fill="none" stroke="#bfbfbf" points="446.5,-56.5 446.5,-75.5 500.5,-75.5 500.5,-56.5 446.5,-56.5"/>
<text text-anchor="middle" x="473.5" y="-63.5" font-family="Helvetica,sans-Serif" font-size="10.00" fill="#000000">queue</text>
</a>
</g>
</g>
<!-- Node0&#45;&gt;Node7 -->
<g id="edge7" class="edge">
<title>Node0&#45;&gt;Node7</title>
<path fill="none" stroke="#191970" d="M473.5,-112.2977C473.5,-104.3834 473.5,-94.6043 473.5,-86.0759"/>
<polygon fill="#191970" stroke="#191970" points="477.0001,-85.8469 473.5,-75.8469 470.0001,-85.847 477.0001,-85.8469"/>
</g>
<!-- Node8 -->
<g id="node9" class="node">
<title>Node8</title>
<g id="a_node9"><a xlink:title=" ">
<polygon fill="none" stroke="#bfbfbf" points="518.5,-56.5 518.5,-75.5 580.5,-75.5 580.5,-56.5 518.5,-56.5"/>
<text text-anchor="middle" x="549.5" y="-63.5" font-family="Helvetica,sans-Serif" font-size="10.00" fill="#000000">thread</text>
</a>
</g>
</g>
<!-- Node0&#45;&gt;Node8 -->
<g id="edge8" class="edge">
<title>Node0&#45;&gt;Node8</title>
<path fill="none" stroke="#191970" d="M492.2865,-112.2977C503.6053,-103.1384 518.0105,-91.4816 529.5346,-82.1562"/>
<polygon fill="#191970" stroke="#191970" points="531.7595,-84.8583 537.3314,-75.8469 527.3561,-79.4167 531.7595,-84.8583"/>
</g>
<!-- Node9 -->
<g id="node10" class="node">
<title>Node9</title>
<g id="a_node10"><a xlink:title=" ">
<polygon fill="none" stroke="#bfbfbf" points="599,-56.5 599,-75.5 698,-75.5 698,-56.5 599,-56.5"/>
<text text-anchor="middle" x="648.5" y="-63.5" font-family="Helvetica,sans-Serif" font-size="10.00" fill="#000000">type_traits</text>
</a>
</g>
</g>
<!-- Node0&#45;&gt;Node9 -->
<g id="edge9" class="edge">
<title>Node0&#45;&gt;Node9</title>
<path fill="none" stroke="#191970" d="M516.3098,-112.4554C545.509,-102.194 583.7843,-88.7429 611.6302,-78.9571"/>
<polygon fill="#191970" stroke="#191970" points="613.1073,-82.1479 621.3812,-75.5303 610.7864,-75.5439 613.1073,-82.1479"/>
</g>
<!-- Node10 -->
<g id="node11" class="node">
<title>Node10</title>
<g id="a_node11"><a xlink:title=" ">
<polygon fill="none" stroke="#bfbfbf" points="716.5,-56.5 716.5,-75.5 778.5,-75.5 778.5,-56.5 716.5,-56.5"/>
<text text-anchor="middle" x="747.5" y="-63.5" font-family="Helvetica,sans-Serif" font-size="10.00" fill="#000000">vector</text>
</a>
</g>
</g>
<!-- Node0&#45;&gt;Node10 -->
<g id="edge10" class="edge">
<title>Node0&#45;&gt;Node10</title>
<path fill="none" stroke="#191970" d="M544.2733,-112.47C588.2982,-102.9931 646.3283,-90.2727 706.0838,-76.2914"/>
<polygon fill="#191970" stroke="#191970" points="707.1423,-79.6381 716.0776,-73.9449 705.5423,-72.8234 707.1423,-79.6381"/>
</g>
<!-- Node2 -->
<g id="node3" class="node">
<title>Node2</title>
<g id="a_node3"><a xlink:title=" ">
<polygon fill="none" stroke="#bfbfbf" points="0,-.5 0,-19.5 107,-19.5 107,-.5 0,-.5"/>
<text text-anchor="middle" x="53.5" y="-7.5" font-family="Helvetica,sans-Serif" font-size="10.00" fill="#000000">fmt/format.h</text>
</a>
</g>
</g>
<!-- Node1&#45;&gt;Node2 -->
<g id="edge2" class="edge">
<title>Node1&#45;&gt;Node2</title>
<path fill="none" stroke="#191970" d="M147.0746,-56.3733C129.0979,-47.4644 102.1559,-34.1127 81.791,-24.0203"/>
<polygon fill="#191970" stroke="#191970" points="83.1861,-20.8055 72.6719,-19.5011 80.0778,-27.0776 83.1861,-20.8055"/>
</g>
<!-- Node3 -->
<g id="node4" class="node">
<title>Node3</title>
<g id="a_node4"><a xlink:title=" ">
<polygon fill="none" stroke="#bfbfbf" points="124.5,-.5 124.5,-19.5 208.5,-19.5 208.5,-.5 124.5,-.5"/>
<text text-anchor="middle" x="166.5" y="-7.5" font-family="Helvetica,sans-Serif" font-size="10.00" fill="#000000">stdexcept</text>
</a>
</g>
</g>
<!-- Node1&#45;&gt;Node3 -->
<g id="edge3" class="edge">
<title>Node1&#45;&gt;Node3</title>
<path fill="none" stroke="#191970" d="M166.5,-56.2455C166.5,-48.9382 166.5,-38.6944 166.5,-29.7046"/>
<polygon fill="#191970" stroke="#191970" points="170.0001,-29.6426 166.5,-19.6427 163.0001,-29.6427 170.0001,-29.6426"/>
</g>
<!-- Node4 -->
<g id="node5" class="node">
<title>Node4</title>
<g id="a_node5"><a xlink:title=" ">
<polygon fill="none" stroke="#bfbfbf" points="227,-.5 227,-19.5 326,-19.5 326,-.5 227,-.5"/>
<text text-anchor="middle" x="276.5" y="-7.5" font-family="Helvetica,sans-Serif" font-size="10.00" fill="#000000">string_view</text>
</a>
</g>
</g>
<!-- Node1&#45;&gt;Node4 -->
<g id="edge4" class="edge">
<title>Node1&#45;&gt;Node4</title>
<path fill="none" stroke="#191970" d="M185.6605,-56.2455C203.0111,-47.4125 228.7901,-34.2887 248.4583,-24.2758"/>
<polygon fill="#191970" stroke="#191970" points="250.2353,-27.2986 257.559,-19.6427 247.0595,-21.0605 250.2353,-27.2986"/>
</g>
</g>
</svg>
