<?xml version="1.0" encoding="UTF-8" standalone="no"?>
<!DOCTYPE svg PUBLIC "-//W3C//DTD SVG 1.1//EN"
 "http://www.w3.org/Graphics/SVG/1.1/DTD/svg11.dtd">
<!-- Generated by graphviz version 2.40.1 (0)
 -->
<!-- Title: utils/thread_pool.cpp Pages: 1 -->
<svg width="787pt" height="196pt"
 viewBox="0.00 0.00 786.50 196.00" xmlns="http://www.w3.org/2000/svg" xmlns:xlink="http://www.w3.org/1999/xlink">
<g id="graph0" class="graph" transform="scale(1 1) rotate(0) translate(4 192)">
<title>utils/thread_pool.cpp</title>
<!-- Node0 -->
<g id="node1" class="node">
<title>Node0</title>
<g id="a_node1"><a xlink:title=" ">
<polygon fill="#bfbfbf" stroke="#000000" points="386.5,-168.5 386.5,-187.5 560.5,-187.5 560.5,-168.5 386.5,-168.5"/>
<text text-anchor="middle" x="473.5" y="-175.5" font-family="Helvetica,sans-Serif" font-size="10.00" fill="#000000">utils/thread_pool.cpp</text>
</a>
</g>
</g>
<!-- Node1 -->
<g id="node2" class="node">
<title>Node1</title>
<g id="a_node2"><a xlink:href="thread__pool_8h.html" target="_top" xlink:title=" ">
<polygon fill="none" stroke="#000000" points="394,-112.5 394,-131.5 553,-131.5 553,-112.5 394,-112.5"/>
<text text-anchor="middle" x="473.5" y="-119.5" font-family="Helvetica,sans-Serif" font-size="10.00" fill="#000000">utils/thread_pool.h</text>
</a>
</g>
</g>
<!-- Node0&#45;&gt;Node1 -->
<g id="edge1" class="edge">
<title>Node0&#45;&gt;Node1</title>
<path fill="none" stroke="#191970" d="M473.5,-168.2455C473.5,-160.9382 473.5,-150.6944 473.5,-141.7046"/>
<polygon fill="#191970" stroke="#191970" points="477.0001,-141.6426 473.5,-131.6427 470.0001,-141.6427 477.0001,-141.6426"/>
</g>
<!-- Node2 -->
<g id="node3" class="node">
<title>Node2</title>
<g id="a_node3"><a xlink:href="exception_8h.html" target="_top" xlink:title=" ">
<polygon fill="none" stroke="#000000" points="94.5,-56.5 94.5,-75.5 238.5,-75.5 238.5,-56.5 94.5,-56.5"/>
<text text-anchor="middle" x="166.5" y="-63.5" font-family="Helvetica,sans-Serif" font-size="10.00" fill="#000000">utils/exception.h</text>
</a>
</g>
</g>
<!-- Node1&#45;&gt;Node2 -->
<g id="edge2" class="edge">
<title>Node1&#45;&gt;Node2</title>
<path fill="none" stroke="#191970" d="M421.0736,-112.4369C367.7603,-102.712 285.1643,-87.6456 228.6044,-77.3285"/>
<polygon fill="#191970" stroke="#191970" points="229.1759,-73.8751 218.7101,-75.5237 227.9197,-80.7614 229.1759,-73.8751"/>
</g>
<!-- Node6 -->
<g id="node7" class="node">
<title>Node6</title>
<g id="a_node7"><a xlink:title=" ">
<polygon fill="none" stroke="#bfbfbf" points="256.5,-56.5 256.5,-75.5 348.5,-75.5 348.5,-56.5 256.5,-56.5"/>
<text text-anchor="middle" x="302.5" y="-63.5" font-family="Helvetica,sans-Serif" font-size="10.00" fill="#000000">functional</text>
</a>
</g>
</g>
<!-- Node1&#45;&gt;Node6 -->
<g id="edge6" class="edge">
<title>Node1&#45;&gt;Node6</title>
<path fill="none" stroke="#191970" d="M444.1041,-112.3733C415.6693,-103.0613 372.4123,-88.8953 341.1919,-78.671"/>
<polygon fill="#191970" stroke="#191970" points="342.105,-75.2872 331.5124,-75.5011 339.9264,-81.9396 342.105,-75.2872"/>
</g>
<!-- Node7 -->
<g id="node8" class="node">
<title>Node7</title>
<g id="a_node8"><a xlink:title=" ">
<polygon fill="none" stroke="#bfbfbf" points="366.5,-56.5 366.5,-75.5 428.5,-75.5 428.5,-56.5 366.5,-56.5"/>
<text text-anchor="middle" x="397.5" y="-63.5" font-family="Helvetica,sans-Serif" font-size="10.00" fill="#000000">future</text>
</a>
</g>
</g>
<!-- Node1&#45;&gt;Node7 -->
<g id="edge7" class="edge">
<title>Node1&#45;&gt;Node7</title>
<path fill="none" stroke="#191970" d="M460.2618,-112.2455C448.819,-103.814 432.0704,-91.4729 418.7525,-81.6598"/>
<polygon fill="#191970" stroke="#191970" points="420.7133,-78.757 410.5865,-75.6427 416.5609,-84.3924 420.7133,-78.757"/>
</g>
<!-- Node8 -->
<g id="node9" class="node">
<title>Node8</title>
<g id="a_node9"><a xlink:title=" ">
<polygon fill="none" stroke="#bfbfbf" points="446.5,-56.5 446.5,-75.5 500.5,-75.5 500.5,-56.5 446.5,-56.5"/>
<text text-anchor="middle" x="473.5" y="-63.5" font-family="Helvetica,sans-Serif" font-size="10.00" fill="#000000">queue</text>
</a>
</g>
</g>
<!-- Node1&#45;&gt;Node8 -->
<g id="edge8" class="edge">
<title>Node1&#45;&gt;Node8</title>
<path fill="none" stroke="#191970" d="M473.5,-112.2455C473.5,-104.9382 473.5,-94.6944 473.5,-85.7046"/>
<polygon fill="#191970" stroke="#191970" points="477.0001,-85.6426 473.5,-75.6427 470.0001,-85.6427 477.0001,-85.6426"/>
</g>
<!-- Node9 -->
<g id="node10" class="node">
<title>Node9</title>
<g id="a_node10"><a xlink:title=" ">
<polygon fill="none" stroke="#bfbfbf" points="518.5,-56.5 518.5,-75.5 580.5,-75.5 580.5,-56.5 518.5,-56.5"/>
<text text-anchor="middle" x="549.5" y="-63.5" font-family="Helvetica,sans-Serif" font-size="10.00" fill="#000000">thread</text>
</a>
</g>
</g>
<!-- Node1&#45;&gt;Node9 -->
<g id="edge9" class="edge">
<title>Node1&#45;&gt;Node9</title>
<path fill="none" stroke="#191970" d="M486.7382,-112.2455C498.181,-103.814 514.9296,-91.4729 528.2475,-81.6598"/>
<polygon fill="#191970" stroke="#191970" points="530.4391,-84.3924 536.4135,-75.6427 526.2867,-78.757 530.4391,-84.3924"/>
</g>
<!-- Node10 -->
<g id="node11" class="node">
<title>Node10</title>
<g id="a_node11"><a xlink:title=" ">
<polygon fill="none" stroke="#bfbfbf" points="599,-56.5 599,-75.5 698,-75.5 698,-56.5 599,-56.5"/>
<text text-anchor="middle" x="648.5" y="-63.5" font-family="Helvetica,sans-Serif" font-size="10.00" fill="#000000">type_traits</text>
</a>
</g>
</g>
<!-- Node1&#45;&gt;Node10 -->
<g id="edge10" class="edge">
<title>Node1&#45;&gt;Node10</title>
<path fill="none" stroke="#191970" d="M503.5836,-112.3733C532.6834,-103.0613 576.9523,-88.8953 608.903,-78.671"/>
<polygon fill="#191970" stroke="#191970" points="610.3515,-81.8824 618.809,-75.5011 608.218,-75.2155 610.3515,-81.8824"/>
</g>
<!-- Node11 -->
<g id="node12" class="node">
<title>Node11</title>
<g id="a_node12"><a xlink:title=" ">
<polygon fill="none" stroke="#bfbfbf" points="716.5,-56.5 716.5,-75.5 778.5,-75.5 778.5,-56.5 716.5,-56.5"/>
<text text-anchor="middle" x="747.5" y="-63.5" font-family="Helvetica,sans-Serif" font-size="10.00" fill="#000000">vector</text>
</a>
</g>
</g>
<!-- Node1&#45;&gt;Node11 -->
<g id="edge11" class="edge">
<title>Node1&#45;&gt;Node11</title>
<path fill="none" stroke="#191970" d="M526.1683,-112.4387C571.4712,-104.0351 638.7971,-91.1218 706.157,-76.2242"/>
<polygon fill="#191970" stroke="#191970" points="707.0925,-79.6017 716.0929,-74.0121 705.5713,-72.769 707.0925,-79.6017"/>
</g>
<!-- Node3 -->
<g id="node4" class="node">
<title>Node3</title>
<g id="a_node4"><a xlink:title=" ">
<polygon fill="none" stroke="#bfbfbf" points="0,-.5 0,-19.5 107,-19.5 107,-.5 0,-.5"/>
<text text-anchor="middle" x="53.5" y="-7.5" font-family="Helvetica,sans-Serif" font-size="10.00" fill="#000000">fmt/format.h</text>
</a>
</g>
</g>
<!-- Node2&#45;&gt;Node3 -->
<g id="edge3" class="edge">
<title>Node2&#45;&gt;Node3</title>
<path fill="none" stroke="#191970" d="M147.0746,-56.3733C129.0979,-47.4644 102.1559,-34.1127 81.791,-24.0203"/>
<polygon fill="#191970" stroke="#191970" points="83.1861,-20.8055 72.6719,-19.5011 80.0778,-27.0776 83.1861,-20.8055"/>
</g>
<!-- Node4 -->
<g id="node5" class="node">
<title>Node4</title>
<g id="a_node5"><a xlink:title=" ">
<polygon fill="none" stroke="#bfbfbf" points="124.5,-.5 124.5,-19.5 208.5,-19.5 208.5,-.5 124.5,-.5"/>
<text text-anchor="middle" x="166.5" y="-7.5" font-family="Helvetica,sans-Serif" font-size="10.00" fill="#000000">stdexcept</text>
</a>
</g>
</g>
<!-- Node2&#45;&gt;Node4 -->
<g id="edge4" class="edge">
<title>Node2&#45;&gt;Node4</title>
<path fill="none" stroke="#191970" d="M166.5,-56.2455C166.5,-48.9382 166.5,-38.6944 166.5,-29.7046"/>
<polygon fill="#191970" stroke="#191970" points="170.0001,-29.6426 166.5,-19.6427 163.0001,-29.6427 170.0001,-29.6426"/>
</g>
<!-- Node5 -->
<g id="node6" class="node">
<title>Node5</title>
<g id="a_node6"><a xlink:title=" ">
<polygon fill="none" stroke="#bfbfbf" points="227,-.5 227,-19.5 326,-19.5 326,-.5 227,-.5"/>
<text text-anchor="middle" x="276.5" y="-7.5" font-family="Helvetica,sans-Serif" font-size="10.00" fill="#000000">string_view</text>
</a>
</g>
</g>
<!-- Node2&#45;&gt;Node5 -->
<g id="edge5" class="edge">
<title>Node2&#45;&gt;Node5</title>
<path fill="none" stroke="#191970" d="M185.6605,-56.2455C203.0111,-47.4125 228.7901,-34.2887 248.4583,-24.2758"/>
<polygon fill="#191970" stroke="#191970" points="250.2353,-27.2986 257.559,-19.6427 247.0595,-21.0605 250.2353,-27.2986"/>
</g>
</g>
</svg>
