<?xml version="1.0" encoding="UTF-8" standalone="no"?>
<!DOCTYPE svg PUBLIC "-//W3C//DTD SVG 1.1//EN"
 "http://www.w3.org/Graphics/SVG/1.1/DTD/svg11.dtd">
<!-- Generated by graphviz version 2.40.1 (0)
 -->
<!-- Title: utils/include/utils/thread_pool.h Pages: 1 -->
<svg width="530pt" height="95pt"
 viewBox="0.00 0.00 530.00 95.00" xmlns="http://www.w3.org/2000/svg" xmlns:xlink="http://www.w3.org/1999/xlink">
<g id="graph0" class="graph" transform="scale(1 1) rotate(0) translate(4 91)">
<title>utils/include/utils/thread_pool.h</title>
<!-- Node0 -->
<g id="node1" class="node">
<title>Node0</title>
<g id="a_node1"><a xlink:title=" ">
<polygon fill="#bfbfbf" stroke="#000000" points="175.5,-56.5 175.5,-86.5 334.5,-86.5 334.5,-56.5 175.5,-56.5"/>
<text text-anchor="start" x="183.5" y="-74.5" font-family="Helvetica,sans-Serif" font-size="10.00" fill="#000000">utils/include/utils</text>
<text text-anchor="middle" x="255" y="-63.5" font-family="Helvetica,sans-Serif" font-size="10.00" fill="#000000">/thread_pool.h</text>
</a>
</g>
</g>
<!-- Node1 -->
<g id="node2" class="node">
<title>Node1</title>
<g id="a_node2"><a xlink:title=" ">
<polygon fill="none" stroke="#bfbfbf" points="0,-.5 0,-19.5 92,-19.5 92,-.5 0,-.5"/>
<text text-anchor="middle" x="46" y="-7.5" font-family="Helvetica,sans-Serif" font-size="10.00" fill="#000000">functional</text>
</a>
</g>
</g>
<!-- Node0&#45;&gt;Node1 -->
<g id="edge1" class="edge">
<title>Node0&#45;&gt;Node1</title>
<path fill="none" stroke="#191970" d="M203.8728,-56.4554C168.3889,-46.0139 121.6818,-32.27 88.2944,-22.4455"/>
<polygon fill="#191970" stroke="#191970" points="88.9689,-18.9956 78.3876,-19.5303 86.9928,-25.7109 88.9689,-18.9956"/>
</g>
<!-- Node2 -->
<g id="node3" class="node">
<title>Node2</title>
<g id="a_node3"><a xlink:title=" ">
<polygon fill="none" stroke="#bfbfbf" points="110,-.5 110,-19.5 172,-19.5 172,-.5 110,-.5"/>
<text text-anchor="middle" x="141" y="-7.5" font-family="Helvetica,sans-Serif" font-size="10.00" fill="#000000">future</text>
</a>
</g>
</g>
<!-- Node0&#45;&gt;Node2 -->
<g id="edge2" class="edge">
<title>Node0&#45;&gt;Node2</title>
<path fill="none" stroke="#191970" d="M227.1125,-56.4554C209.0924,-46.734 185.7659,-34.15 167.9368,-24.5317"/>
<polygon fill="#191970" stroke="#191970" points="169.1287,-21.1979 158.666,-19.5303 165.8052,-27.3586 169.1287,-21.1979"/>
</g>
<!-- Node3 -->
<g id="node4" class="node">
<title>Node3</title>
<g id="a_node4"><a xlink:title=" ">
<polygon fill="none" stroke="#bfbfbf" points="190,-.5 190,-19.5 244,-19.5 244,-.5 190,-.5"/>
<text text-anchor="middle" x="217" y="-7.5" font-family="Helvetica,sans-Serif" font-size="10.00" fill="#000000">queue</text>
</a>
</g>
</g>
<!-- Node0&#45;&gt;Node3 -->
<g id="edge3" class="edge">
<title>Node0&#45;&gt;Node3</title>
<path fill="none" stroke="#191970" d="M245.6067,-56.2977C240.3869,-47.8498 233.8543,-37.2773 228.35,-28.369"/>
<polygon fill="#191970" stroke="#191970" points="231.3182,-26.5143 223.0843,-19.8469 225.3632,-30.1938 231.3182,-26.5143"/>
</g>
<!-- Node4 -->
<g id="node5" class="node">
<title>Node4</title>
<g id="a_node5"><a xlink:title=" ">
<polygon fill="none" stroke="#bfbfbf" points="262,-.5 262,-19.5 324,-19.5 324,-.5 262,-.5"/>
<text text-anchor="middle" x="293" y="-7.5" font-family="Helvetica,sans-Serif" font-size="10.00" fill="#000000">thread</text>
</a>
</g>
</g>
<!-- Node0&#45;&gt;Node4 -->
<g id="edge4" class="edge">
<title>Node0&#45;&gt;Node4</title>
<path fill="none" stroke="#191970" d="M264.3933,-56.2977C269.6131,-47.8498 276.1457,-37.2773 281.65,-28.369"/>
<polygon fill="#191970" stroke="#191970" points="284.6368,-30.1938 286.9157,-19.8469 278.6818,-26.5143 284.6368,-30.1938"/>
</g>
<!-- Node5 -->
<g id="node6" class="node">
<title>Node5</title>
<g id="a_node6"><a xlink:title=" ">
<polygon fill="none" stroke="#bfbfbf" points="342.5,-.5 342.5,-19.5 441.5,-19.5 441.5,-.5 342.5,-.5"/>
<text text-anchor="middle" x="392" y="-7.5" font-family="Helvetica,sans-Serif" font-size="10.00" fill="#000000">type_traits</text>
</a>
</g>
</g>
<!-- Node0&#45;&gt;Node5 -->
<g id="edge5" class="edge">
<title>Node0&#45;&gt;Node5</title>
<path fill="none" stroke="#191970" d="M288.514,-56.4554C310.7712,-46.464 339.7647,-33.4487 361.3985,-23.7372"/>
<polygon fill="#191970" stroke="#191970" points="363.0803,-26.8187 370.7699,-19.5303 360.2135,-20.4327 363.0803,-26.8187"/>
</g>
<!-- Node6 -->
<g id="node7" class="node">
<title>Node6</title>
<g id="a_node7"><a xlink:title=" ">
<polygon fill="none" stroke="#bfbfbf" points="460,-.5 460,-19.5 522,-19.5 522,-.5 460,-.5"/>
<text text-anchor="middle" x="491" y="-7.5" font-family="Helvetica,sans-Serif" font-size="10.00" fill="#000000">vector</text>
</a>
</g>
</g>
<!-- Node0&#45;&gt;Node6 -->
<g id="edge6" class="edge">
<title>Node0&#45;&gt;Node6</title>
<path fill="none" stroke="#191970" d="M312.7321,-56.4554C355.3225,-45.3566 412.2317,-30.5265 450.176,-20.6384"/>
<polygon fill="#191970" stroke="#191970" points="451.0761,-24.0209 459.8703,-18.1122 449.3108,-17.2471 451.0761,-24.0209"/>
</g>
</g>
</svg>
